<svg width="279" height="19" viewBox="0 0 279 19" fill="none" xmlns="http://www.w3.org/2000/svg">
<path d="M1.92797 15C1.56797 15 1.28797 14.9067 1.08797 14.72C0.901302 14.52 0.807969 14.24 0.807969 13.88V2.02C0.807969 1.66 0.901302 1.38667 1.08797 1.2C1.28797 0.999999 1.56797 0.899999 1.92797 0.899999H6.68797C7.6613 0.899999 8.48797 1.04667 9.16797 1.34C9.8613 1.63333 10.388 2.05333 10.748 2.6C11.1213 3.14667 11.308 3.80667 11.308 4.58C11.308 5.43333 11.0546 6.15333 10.548 6.74C10.0413 7.32667 9.35464 7.72 8.48797 7.92V7.62C9.47464 7.75333 10.248 8.12667 10.808 8.74C11.368 9.34 11.648 10.1267 11.648 11.1C11.648 12.3533 11.2346 13.32 10.408 14C9.5813 14.6667 8.4213 15 6.92797 15H1.92797ZM2.80797 13.4H6.68797C7.68797 13.4 8.42797 13.2067 8.90797 12.82C9.38797 12.42 9.62797 11.82 9.62797 11.02C9.62797 10.22 9.38797 9.62667 8.90797 9.24C8.42797 8.85333 7.68797 8.66 6.68797 8.66H2.80797V13.4ZM2.80797 7.06H6.36797C7.32797 7.06 8.05464 6.86667 8.54797 6.48C9.0413 6.09333 9.28797 5.52667 9.28797 4.78C9.28797 4.03333 9.0413 3.46667 8.54797 3.08C8.05464 2.69333 7.32797 2.5 6.36797 2.5H2.80797V7.06ZM18.8008 15.18C17.7341 15.18 16.8141 14.98 16.0408 14.58C15.2808 14.1667 14.6874 13.5867 14.2608 12.84C13.8474 12.08 13.6408 11.18 13.6408 10.14C13.6408 9.12667 13.8474 8.24 14.2608 7.48C14.6741 6.72 15.2408 6.12667 15.9608 5.7C16.6808 5.27333 17.5008 5.06 18.4208 5.06C19.1008 5.06 19.7074 5.17333 20.2408 5.4C20.7741 5.61333 21.2274 5.93333 21.6008 6.36C21.9874 6.77333 22.2741 7.28 22.4608 7.88C22.6608 8.48 22.7608 9.15333 22.7608 9.9C22.7608 10.1267 22.6941 10.3 22.5608 10.42C22.4274 10.5267 22.2274 10.58 21.9608 10.58H15.2408V9.34H21.4008L21.0608 9.62C21.0608 8.95333 20.9608 8.38667 20.7608 7.92C20.5741 7.45333 20.2874 7.1 19.9008 6.86C19.5274 6.60667 19.0608 6.48 18.5008 6.48C17.8741 6.48 17.3408 6.62667 16.9008 6.92C16.4741 7.21333 16.1474 7.62 15.9208 8.14C15.6941 8.66 15.5808 9.26667 15.5808 9.96V10.08C15.5808 11.2533 15.8541 12.14 16.4008 12.74C16.9608 13.3267 17.7674 13.62 18.8208 13.62C19.2208 13.62 19.6408 13.5667 20.0808 13.46C20.5341 13.3533 20.9608 13.1733 21.3608 12.92C21.5874 12.7867 21.7874 12.7267 21.9608 12.74C22.1474 12.7533 22.2941 12.8133 22.4008 12.92C22.5208 13.0267 22.5941 13.16 22.6208 13.32C22.6474 13.48 22.6208 13.6467 22.5408 13.82C22.4608 13.98 22.3208 14.1267 22.1208 14.26C21.6674 14.5667 21.1408 14.8 20.5408 14.96C19.9408 15.1067 19.3608 15.18 18.8008 15.18ZM31.2364 15.12C30.9164 15.12 30.6697 15.0267 30.4964 14.84C30.3231 14.64 30.2364 14.3667 30.2364 14.02V6.22C30.2364 5.87333 30.3231 5.60667 30.4964 5.42C30.6697 5.23333 30.9164 5.14 31.2364 5.14C31.5564 5.14 31.8031 5.23333 31.9764 5.42C32.1631 5.60667 32.2564 5.87333 32.2564 6.22V14.02C32.2564 14.3667 32.1697 14.64 31.9964 14.84C31.8231 15.0267 31.5697 15.12 31.2364 15.12ZM31.2364 3.06C30.8364 3.06 30.5231 2.96 30.2964 2.76C30.0831 2.56 29.9764 2.28 29.9764 1.92C29.9764 1.54667 30.0831 1.26667 30.2964 1.08C30.5231 0.879999 30.8364 0.779999 31.2364 0.779999C31.6364 0.779999 31.9431 0.879999 32.1564 1.08C32.3831 1.26667 32.4964 1.54667 32.4964 1.92C32.4964 2.28 32.3831 2.56 32.1564 2.76C31.9431 2.96 31.6364 3.06 31.2364 3.06ZM36.0997 15.14C35.7797 15.14 35.533 15.0533 35.3597 14.88C35.1864 14.6933 35.0997 14.44 35.0997 14.12V6.12C35.0997 5.78667 35.1864 5.53333 35.3597 5.36C35.533 5.18667 35.773 5.1 36.0797 5.1C36.3997 5.1 36.6397 5.18667 36.7997 5.36C36.973 5.53333 37.0597 5.78667 37.0597 6.12V7.68L36.8397 7.32C37.133 6.57333 37.593 6.01333 38.2197 5.64C38.8464 5.25333 39.5664 5.06 40.3797 5.06C41.153 5.06 41.793 5.20667 42.2997 5.5C42.8197 5.78 43.2064 6.21333 43.4597 6.8C43.713 7.37333 43.8397 8.1 43.8397 8.98V14.12C43.8397 14.44 43.753 14.6933 43.5797 14.88C43.4064 15.0533 43.1597 15.14 42.8397 15.14C42.5064 15.14 42.253 15.0533 42.0797 14.88C41.9064 14.6933 41.8197 14.44 41.8197 14.12V9.1C41.8197 8.26 41.653 7.64667 41.3197 7.26C40.9997 6.87333 40.493 6.68 39.7997 6.68C38.9864 6.68 38.333 6.93333 37.8397 7.44C37.3597 7.94667 37.1197 8.62667 37.1197 9.48V14.12C37.1197 14.8 36.7797 15.14 36.0997 15.14ZM58.4366 15.18C57.0099 15.18 55.7899 14.8867 54.7766 14.3C53.7632 13.7133 52.9832 12.88 52.4366 11.8C51.9032 10.7067 51.6366 9.42 51.6366 7.94C51.6366 6.83333 51.7899 5.84 52.0966 4.96C52.4032 4.06667 52.8432 3.30667 53.4166 2.68C54.0032 2.04 54.7166 1.55333 55.5566 1.22C56.4099 0.886666 57.3699 0.719999 58.4366 0.719999C59.2232 0.719999 59.9766 0.826666 60.6966 1.04C61.4299 1.25333 62.0632 1.56 62.5966 1.96C62.8232 2.10667 62.9699 2.28667 63.0366 2.5C63.1166 2.7 63.1299 2.89333 63.0766 3.08C63.0366 3.26667 62.9499 3.42667 62.8166 3.56C62.6832 3.68 62.5099 3.74667 62.2966 3.76C62.0966 3.77333 61.8766 3.7 61.6366 3.54C61.1966 3.20667 60.7099 2.96 60.1766 2.8C59.6432 2.64 59.0832 2.56 58.4966 2.56C57.4832 2.56 56.6299 2.77333 55.9366 3.2C55.2432 3.61333 54.7166 4.22 54.3566 5.02C53.9966 5.82 53.8166 6.79333 53.8166 7.94C53.8166 9.08667 53.9966 10.0667 54.3566 10.88C54.7166 11.68 55.2432 12.2933 55.9366 12.72C56.6299 13.1333 57.4832 13.34 58.4966 13.34C59.0832 13.34 59.6432 13.26 60.1766 13.1C60.7232 12.9267 61.2366 12.6733 61.7166 12.34C61.9566 12.1933 62.1699 12.1267 62.3566 12.14C62.5566 12.1533 62.7232 12.22 62.8566 12.34C62.9899 12.46 63.0766 12.6133 63.1166 12.8C63.1699 12.9733 63.1632 13.16 63.0966 13.36C63.0432 13.5467 62.9166 13.7067 62.7166 13.84C62.1699 14.28 61.5232 14.6133 60.7766 14.84C60.0299 15.0667 59.2499 15.18 58.4366 15.18ZM68.9491 15.18C67.9624 15.18 67.1091 14.9733 66.3891 14.56C65.6824 14.1467 65.1291 13.56 64.7291 12.8C64.3291 12.04 64.1291 11.1467 64.1291 10.12C64.1291 9.33333 64.2424 8.63333 64.4691 8.02C64.6957 7.40667 65.0157 6.88 65.4291 6.44C65.8557 5.98667 66.3624 5.64667 66.9491 5.42C67.5491 5.18 68.2157 5.06 68.9491 5.06C69.9224 5.06 70.7624 5.26667 71.4691 5.68C72.1891 6.09333 72.7491 6.68 73.1491 7.44C73.5491 8.18667 73.7491 9.08 73.7491 10.12C73.7491 10.8933 73.6357 11.5933 73.4091 12.22C73.1824 12.8467 72.8557 13.38 72.4291 13.82C72.0157 14.26 71.5091 14.6 70.9091 14.84C70.3224 15.0667 69.6691 15.18 68.9491 15.18ZM68.9491 13.62C69.4957 13.62 69.9757 13.4867 70.3891 13.22C70.8024 12.9533 71.1224 12.56 71.3491 12.04C71.5891 11.52 71.7091 10.88 71.7091 10.12C71.7091 8.97333 71.4557 8.10667 70.9491 7.52C70.4424 6.93333 69.7757 6.64 68.9491 6.64C68.3891 6.64 67.9024 6.77333 67.4891 7.04C67.0757 7.29333 66.7491 7.68 66.5091 8.2C66.2824 8.72 66.1691 9.36 66.1691 10.12C66.1691 11.2533 66.4224 12.12 66.9291 12.72C67.4357 13.32 68.1091 13.62 68.9491 13.62ZM77.0177 15.14C76.6977 15.14 76.451 15.0533 76.2777 14.88C76.1043 14.6933 76.0177 14.44 76.0177 14.12V6.12C76.0177 5.78667 76.1043 5.53333 76.2777 5.36C76.451 5.18667 76.691 5.1 76.9977 5.1C77.3177 5.1 77.5577 5.18667 77.7177 5.36C77.891 5.53333 77.9777 5.78667 77.9777 6.12V7.68L77.7577 7.32C78.051 6.57333 78.511 6.01333 79.1377 5.64C79.7643 5.25333 80.4843 5.06 81.2977 5.06C82.071 5.06 82.711 5.20667 83.2177 5.5C83.7377 5.78 84.1243 6.21333 84.3777 6.8C84.631 7.37333 84.7577 8.1 84.7577 8.98V14.12C84.7577 14.44 84.671 14.6933 84.4977 14.88C84.3243 15.0533 84.0777 15.14 83.7577 15.14C83.4243 15.14 83.171 15.0533 82.9977 14.88C82.8243 14.6933 82.7377 14.44 82.7377 14.12V9.1C82.7377 8.26 82.571 7.64667 82.2377 7.26C81.9177 6.87333 81.411 6.68 80.7177 6.68C79.9043 6.68 79.251 6.93333 78.7577 7.44C78.2777 7.94667 78.0377 8.62667 78.0377 9.48V14.12C78.0377 14.8 77.6977 15.14 77.0177 15.14ZM91.7011 15.18C90.9011 15.18 90.2278 15.04 89.6811 14.76C89.1344 14.48 88.7278 14.0667 88.4611 13.52C88.1944 12.9733 88.0611 12.3067 88.0611 11.52V6.8H86.8611C86.5944 6.8 86.3878 6.73333 86.2411 6.6C86.0944 6.45333 86.0211 6.26 86.0211 6.02C86.0211 5.76667 86.0944 5.57333 86.2411 5.44C86.3878 5.30667 86.5944 5.24 86.8611 5.24H88.0611V3.18C88.0611 2.84667 88.1478 2.59333 88.3211 2.42C88.5078 2.24667 88.7611 2.16 89.0811 2.16C89.4011 2.16 89.6478 2.24667 89.8211 2.42C89.9944 2.59333 90.0811 2.84667 90.0811 3.18V5.24H92.4211C92.6878 5.24 92.8944 5.30667 93.0411 5.44C93.1878 5.57333 93.2611 5.76667 93.2611 6.02C93.2611 6.26 93.1878 6.45333 93.0411 6.6C92.8944 6.73333 92.6878 6.8 92.4211 6.8H90.0811V11.36C90.0811 12.0667 90.2278 12.6 90.5211 12.96C90.8278 13.32 91.3211 13.5 92.0011 13.5C92.2411 13.5 92.4478 13.48 92.6211 13.44C92.8078 13.3867 92.9611 13.3533 93.0811 13.34C93.2278 13.34 93.3478 13.3933 93.4411 13.5C93.5344 13.5933 93.5811 13.78 93.5811 14.06C93.5811 14.26 93.5411 14.4467 93.4611 14.62C93.3944 14.7933 93.2678 14.9067 93.0811 14.96C92.9211 15.0133 92.7011 15.06 92.4211 15.1C92.1544 15.1533 91.9144 15.18 91.7011 15.18ZM95.8658 15.14C95.5324 15.14 95.2791 15.0533 95.1058 14.88C94.9324 14.6933 94.8458 14.44 94.8458 14.12V6.12C94.8458 5.78667 94.9324 5.53333 95.1058 5.36C95.2791 5.18667 95.5191 5.1 95.8258 5.1C96.1458 5.1 96.3858 5.18667 96.5458 5.36C96.7191 5.53333 96.8058 5.78667 96.8058 6.12V7.58H96.6058C96.8191 6.78 97.2124 6.17333 97.7858 5.76C98.3591 5.34667 99.0924 5.10667 99.9858 5.04C100.226 5.02667 100.412 5.08667 100.546 5.22C100.692 5.35333 100.772 5.56 100.786 5.84C100.812 6.12 100.752 6.34667 100.606 6.52C100.459 6.68 100.232 6.77333 99.9258 6.8L99.5458 6.84C98.6791 6.92 98.0191 7.19333 97.5658 7.66C97.1124 8.12667 96.8858 8.76667 96.8858 9.58V14.12C96.8858 14.44 96.7991 14.6933 96.6258 14.88C96.4658 15.0533 96.2124 15.14 95.8658 15.14ZM106.41 15.18C105.423 15.18 104.57 14.9733 103.85 14.56C103.143 14.1467 102.59 13.56 102.19 12.8C101.79 12.04 101.59 11.1467 101.59 10.12C101.59 9.33333 101.703 8.63333 101.93 8.02C102.157 7.40667 102.477 6.88 102.89 6.44C103.317 5.98667 103.823 5.64667 104.41 5.42C105.01 5.18 105.677 5.06 106.41 5.06C107.383 5.06 108.223 5.26667 108.93 5.68C109.65 6.09333 110.21 6.68 110.61 7.44C111.01 8.18667 111.21 9.08 111.21 10.12C111.21 10.8933 111.097 11.5933 110.87 12.22C110.643 12.8467 110.317 13.38 109.89 13.82C109.477 14.26 108.97 14.6 108.37 14.84C107.783 15.0667 107.13 15.18 106.41 15.18ZM106.41 13.62C106.957 13.62 107.437 13.4867 107.85 13.22C108.263 12.9533 108.583 12.56 108.81 12.04C109.05 11.52 109.17 10.88 109.17 10.12C109.17 8.97333 108.917 8.10667 108.41 7.52C107.903 6.93333 107.237 6.64 106.41 6.64C105.85 6.64 105.363 6.77333 104.95 7.04C104.537 7.29333 104.21 7.68 103.97 8.2C103.743 8.72 103.63 9.36 103.63 10.12C103.63 11.2533 103.883 12.12 104.39 12.72C104.897 13.32 105.57 13.62 106.41 13.62ZM116.619 15.18C115.579 15.18 114.792 14.88 114.259 14.28C113.739 13.6667 113.479 12.7867 113.479 11.64V1.78C113.479 1.44667 113.565 1.19333 113.739 1.02C113.912 0.846666 114.159 0.76 114.479 0.76C114.799 0.76 115.045 0.846666 115.219 1.02C115.405 1.19333 115.499 1.44667 115.499 1.78V11.52C115.499 12.1867 115.632 12.6867 115.899 13.02C116.179 13.34 116.579 13.5 117.099 13.5C117.219 13.5 117.325 13.5 117.419 13.5C117.512 13.4867 117.605 13.4733 117.699 13.46C117.859 13.4467 117.972 13.4933 118.039 13.6C118.105 13.6933 118.139 13.8933 118.139 14.2C118.139 14.48 118.079 14.7 117.959 14.86C117.839 15.0067 117.645 15.1 117.379 15.14C117.259 15.1533 117.132 15.16 116.999 15.16C116.865 15.1733 116.739 15.18 116.619 15.18ZM129.105 15.18C128.119 15.18 127.265 14.9733 126.545 14.56C125.839 14.1467 125.285 13.56 124.885 12.8C124.485 12.04 124.285 11.1467 124.285 10.12C124.285 9.33333 124.399 8.63333 124.625 8.02C124.852 7.40667 125.172 6.88 125.585 6.44C126.012 5.98667 126.519 5.64667 127.105 5.42C127.705 5.18 128.372 5.06 129.105 5.06C130.079 5.06 130.919 5.26667 131.625 5.68C132.345 6.09333 132.905 6.68 133.305 7.44C133.705 8.18667 133.905 9.08 133.905 10.12C133.905 10.8933 133.792 11.5933 133.565 12.22C133.339 12.8467 133.012 13.38 132.585 13.82C132.172 14.26 131.665 14.6 131.065 14.84C130.479 15.0667 129.825 15.18 129.105 15.18ZM129.105 13.62C129.652 13.62 130.132 13.4867 130.545 13.22C130.959 12.9533 131.279 12.56 131.505 12.04C131.745 11.52 131.865 10.88 131.865 10.12C131.865 8.97333 131.612 8.10667 131.105 7.52C130.599 6.93333 129.932 6.64 129.105 6.64C128.545 6.64 128.059 6.77333 127.645 7.04C127.232 7.29333 126.905 7.68 126.665 8.2C126.439 8.72 126.325 9.36 126.325 10.12C126.325 11.2533 126.579 12.12 127.085 12.72C127.592 13.32 128.265 13.62 129.105 13.62ZM137.676 15.14C137.356 15.14 137.103 15.0533 136.916 14.88C136.743 14.6933 136.656 14.44 136.656 14.12V6.8H135.536C135.283 6.8 135.083 6.73333 134.936 6.6C134.79 6.45333 134.716 6.26 134.716 6.02C134.716 5.76667 134.79 5.57333 134.936 5.44C135.083 5.30667 135.283 5.24 135.536 5.24H137.236L136.656 5.78V5.06C136.656 3.74 136.983 2.74667 137.636 2.08C138.29 1.4 139.243 0.999999 140.496 0.879999L141.116 0.84C141.343 0.813333 141.523 0.846666 141.656 0.94C141.79 1.03333 141.876 1.15333 141.916 1.3C141.956 1.44667 141.956 1.6 141.916 1.76C141.89 1.90667 141.823 2.04 141.716 2.16C141.61 2.28 141.476 2.34667 141.316 2.36L140.936 2.38C140.15 2.44667 139.576 2.67333 139.216 3.06C138.856 3.43333 138.676 4.00667 138.676 4.78V5.56L138.396 5.24H140.616C140.896 5.24 141.103 5.30667 141.236 5.44C141.383 5.57333 141.456 5.76667 141.456 6.02C141.456 6.26 141.383 6.45333 141.236 6.6C141.103 6.73333 140.896 6.8 140.616 6.8H138.676V14.12C138.676 14.8 138.343 15.14 137.676 15.14ZM150.583 18.74C150.343 18.74 150.143 18.6733 149.983 18.54C149.837 18.42 149.75 18.2533 149.723 18.04C149.71 17.84 149.75 17.62 149.843 17.38L151.203 14.32V15.18L147.463 6.48C147.37 6.24 147.337 6.01333 147.363 5.8C147.39 5.58667 147.49 5.42 147.663 5.3C147.837 5.16667 148.07 5.1 148.363 5.1C148.617 5.1 148.817 5.16 148.963 5.28C149.11 5.4 149.243 5.60667 149.363 5.9L152.383 13.36H151.823L154.883 5.9C155.003 5.59333 155.143 5.38667 155.303 5.28C155.463 5.16 155.683 5.1 155.963 5.1C156.203 5.1 156.39 5.16667 156.523 5.3C156.67 5.42 156.757 5.58667 156.783 5.8C156.823 6 156.79 6.22 156.683 6.46L151.683 17.96C151.55 18.2667 151.397 18.4733 151.223 18.58C151.063 18.6867 150.85 18.74 150.583 18.74ZM162.738 15.18C161.751 15.18 160.898 14.9733 160.178 14.56C159.471 14.1467 158.918 13.56 158.518 12.8C158.118 12.04 157.918 11.1467 157.918 10.12C157.918 9.33333 158.031 8.63333 158.258 8.02C158.485 7.40667 158.805 6.88 159.218 6.44C159.645 5.98667 160.151 5.64667 160.738 5.42C161.338 5.18 162.005 5.06 162.738 5.06C163.711 5.06 164.551 5.26667 165.258 5.68C165.978 6.09333 166.538 6.68 166.938 7.44C167.338 8.18667 167.538 9.08 167.538 10.12C167.538 10.8933 167.425 11.5933 167.198 12.22C166.971 12.8467 166.645 13.38 166.218 13.82C165.805 14.26 165.298 14.6 164.698 14.84C164.111 15.0667 163.458 15.18 162.738 15.18ZM162.738 13.62C163.285 13.62 163.765 13.4867 164.178 13.22C164.591 12.9533 164.911 12.56 165.138 12.04C165.378 11.52 165.498 10.88 165.498 10.12C165.498 8.97333 165.245 8.10667 164.738 7.52C164.231 6.93333 163.565 6.64 162.738 6.64C162.178 6.64 161.691 6.77333 161.278 7.04C160.865 7.29333 160.538 7.68 160.298 8.2C160.071 8.72 159.958 9.36 159.958 10.12C159.958 11.2533 160.211 12.12 160.718 12.72C161.225 13.32 161.898 13.62 162.738 13.62ZM173.287 15.18C172.5 15.18 171.84 15.0333 171.307 14.74C170.787 14.4467 170.393 14.0133 170.127 13.44C169.873 12.8533 169.747 12.12 169.747 11.24V6.12C169.747 5.77333 169.833 5.52 170.007 5.36C170.18 5.18667 170.427 5.1 170.747 5.1C171.067 5.1 171.313 5.18667 171.487 5.36C171.673 5.52 171.767 5.77333 171.767 6.12V11.26C171.767 12.0467 171.927 12.6267 172.247 13C172.567 13.3733 173.073 13.56 173.767 13.56C174.527 13.56 175.14 13.3067 175.607 12.8C176.087 12.28 176.327 11.6 176.327 10.76V6.12C176.327 5.77333 176.413 5.52 176.587 5.36C176.76 5.18667 177.013 5.1 177.347 5.1C177.667 5.1 177.913 5.18667 178.087 5.36C178.26 5.52 178.347 5.77333 178.347 6.12V14.12C178.347 14.8 178.02 15.14 177.367 15.14C177.06 15.14 176.82 15.0533 176.647 14.88C176.473 14.6933 176.387 14.44 176.387 14.12V12.42L176.647 12.86C176.38 13.6067 175.953 14.18 175.367 14.58C174.78 14.98 174.087 15.18 173.287 15.18ZM182.213 15.14C181.88 15.14 181.627 15.0533 181.453 14.88C181.28 14.6933 181.193 14.44 181.193 14.12V6.12C181.193 5.78667 181.28 5.53333 181.453 5.36C181.627 5.18667 181.867 5.1 182.173 5.1C182.493 5.1 182.733 5.18667 182.893 5.36C183.067 5.53333 183.153 5.78667 183.153 6.12V7.58H182.953C183.167 6.78 183.56 6.17333 184.133 5.76C184.707 5.34667 185.44 5.10667 186.333 5.04C186.573 5.02667 186.76 5.08667 186.893 5.22C187.04 5.35333 187.12 5.56 187.133 5.84C187.16 6.12 187.1 6.34667 186.953 6.52C186.807 6.68 186.58 6.77333 186.273 6.8L185.893 6.84C185.027 6.92 184.367 7.19333 183.913 7.66C183.46 8.12667 183.233 8.76667 183.233 9.58V14.12C183.233 14.44 183.147 14.6933 182.973 14.88C182.813 15.0533 182.56 15.14 182.213 15.14ZM198.848 15.18C198.234 15.18 197.634 15.1333 197.048 15.04C196.461 14.9467 195.908 14.8067 195.388 14.62C194.868 14.42 194.401 14.18 193.988 13.9C193.788 13.7533 193.648 13.5867 193.568 13.4C193.501 13.2133 193.481 13.0333 193.508 12.86C193.548 12.6733 193.628 12.5133 193.748 12.38C193.868 12.2467 194.014 12.1667 194.188 12.14C194.361 12.1 194.554 12.1533 194.768 12.3C195.368 12.6867 196.001 12.9733 196.668 13.16C197.334 13.3333 198.061 13.42 198.848 13.42C199.981 13.42 200.814 13.22 201.348 12.82C201.894 12.4067 202.168 11.8733 202.168 11.22C202.168 10.6867 201.974 10.2667 201.588 9.96C201.201 9.64 200.554 9.38667 199.648 9.2L197.508 8.76C196.241 8.49333 195.294 8.05333 194.668 7.44C194.054 6.82667 193.748 6 193.748 4.96C193.748 4.33333 193.874 3.76 194.128 3.24C194.394 2.72 194.761 2.27333 195.228 1.9C195.694 1.51333 196.254 1.22 196.908 1.02C197.561 0.819999 198.274 0.719999 199.048 0.719999C199.874 0.719999 200.648 0.826666 201.368 1.04C202.101 1.25333 202.754 1.58 203.328 2.02C203.501 2.14 203.614 2.29333 203.668 2.48C203.734 2.65333 203.748 2.82667 203.708 3C203.681 3.17333 203.608 3.32 203.488 3.44C203.368 3.56 203.214 3.63333 203.028 3.66C202.841 3.67333 202.634 3.60667 202.408 3.46C201.888 3.11333 201.354 2.86667 200.808 2.72C200.274 2.56 199.681 2.48 199.028 2.48C198.374 2.48 197.801 2.58 197.308 2.78C196.828 2.98 196.454 3.26 196.188 3.62C195.934 3.98 195.808 4.40667 195.808 4.9C195.808 5.46 195.988 5.90667 196.348 6.24C196.708 6.57333 197.308 6.82667 198.148 7L200.268 7.44C201.601 7.72 202.594 8.15333 203.248 8.74C203.901 9.32667 204.228 10.1067 204.228 11.08C204.228 11.7067 204.101 12.2733 203.848 12.78C203.594 13.2733 203.234 13.7 202.768 14.06C202.301 14.42 201.734 14.7 201.068 14.9C200.414 15.0867 199.674 15.18 198.848 15.18ZM207.589 15.14C207.283 15.14 207.043 15.0533 206.869 14.88C206.709 14.7067 206.629 14.4667 206.629 14.16V1.74C206.629 1.42 206.716 1.18 206.889 1.02C207.063 0.846666 207.296 0.76 207.589 0.76C207.869 0.76 208.083 0.813333 208.229 0.919999C208.389 1.01333 208.536 1.18667 208.669 1.44L213.909 11.22H213.289L218.509 1.44C218.643 1.18667 218.783 1.01333 218.929 0.919999C219.076 0.813333 219.289 0.76 219.569 0.76C219.863 0.76 220.089 0.846666 220.249 1.02C220.409 1.18 220.489 1.42 220.489 1.74V14.16C220.489 14.4667 220.409 14.7067 220.249 14.88C220.103 15.0533 219.876 15.14 219.569 15.14C219.263 15.14 219.029 15.0533 218.869 14.88C218.709 14.7067 218.629 14.4667 218.629 14.16V3.84H219.069L214.429 12.42C214.323 12.62 214.209 12.7667 214.089 12.86C213.969 12.9533 213.803 13 213.589 13C213.376 13 213.203 12.9533 213.069 12.86C212.936 12.7533 212.816 12.6067 212.709 12.42L208.029 3.82H208.509V14.16C208.509 14.4667 208.429 14.7067 208.269 14.88C208.123 15.0533 207.896 15.14 207.589 15.14ZM224.936 15C224.576 15 224.296 14.9067 224.096 14.72C223.909 14.52 223.816 14.24 223.816 13.88V2.02C223.816 1.66 223.909 1.38667 224.096 1.2C224.296 0.999999 224.576 0.899999 224.936 0.899999H232.236C232.516 0.899999 232.729 0.973333 232.876 1.12C233.022 1.25333 233.096 1.45333 233.096 1.72C233.096 2 233.022 2.21333 232.876 2.36C232.729 2.50667 232.516 2.58 232.236 2.58H225.816V7H231.796C232.089 7 232.302 7.07333 232.436 7.22C232.582 7.36667 232.656 7.57333 232.656 7.84C232.656 8.12 232.582 8.33333 232.436 8.48C232.302 8.61333 232.089 8.68 231.796 8.68H225.816V13.32H232.236C232.516 13.32 232.729 13.3933 232.876 13.54C233.022 13.6867 233.096 13.8933 233.096 14.16C233.096 14.44 233.022 14.6533 232.876 14.8C232.729 14.9333 232.516 15 232.236 15H224.936ZM244.367 15.18C243.513 15.18 242.76 14.98 242.107 14.58C241.467 14.1667 240.967 13.58 240.607 12.82C240.247 12.0467 240.067 11.1467 240.067 10.12C240.067 9.06667 240.247 8.16667 240.607 7.42C240.967 6.67333 241.467 6.09333 242.107 5.68C242.76 5.26667 243.513 5.06 244.367 5.06C245.22 5.06 245.953 5.27333 246.567 5.7C247.193 6.11333 247.613 6.67333 247.827 7.38H247.607V1.78C247.607 1.44667 247.693 1.19333 247.867 1.02C248.04 0.846666 248.287 0.76 248.607 0.76C248.927 0.76 249.173 0.846666 249.347 1.02C249.533 1.19333 249.627 1.44667 249.627 1.78V14.12C249.627 14.44 249.54 14.6933 249.367 14.88C249.193 15.0533 248.947 15.14 248.627 15.14C248.307 15.14 248.06 15.0533 247.887 14.88C247.713 14.6933 247.627 14.44 247.627 14.12V12.36L247.847 12.8C247.633 13.52 247.213 14.1 246.587 14.54C245.973 14.9667 245.233 15.18 244.367 15.18ZM244.887 13.62C245.433 13.62 245.913 13.4867 246.327 13.22C246.74 12.9533 247.06 12.56 247.287 12.04C247.527 11.52 247.647 10.88 247.647 10.12C247.647 8.97333 247.393 8.10667 246.887 7.52C246.38 6.93333 245.713 6.64 244.887 6.64C244.327 6.64 243.84 6.77333 243.427 7.04C243.013 7.29333 242.687 7.68 242.447 8.2C242.22 8.72 242.107 9.36 242.107 10.12C242.107 11.2533 242.36 12.12 242.867 12.72C243.373 13.32 244.047 13.62 244.887 13.62ZM255.583 15.18C254.903 15.18 254.29 15.0467 253.743 14.78C253.21 14.5133 252.79 14.1533 252.483 13.7C252.176 13.2467 252.023 12.7333 252.023 12.16C252.023 11.44 252.203 10.8733 252.563 10.46C252.936 10.0333 253.543 9.73333 254.383 9.56C255.236 9.37333 256.383 9.28 257.823 9.28H258.763V10.52H257.843C256.883 10.52 256.123 10.5667 255.563 10.66C255.003 10.7533 254.603 10.9133 254.363 11.14C254.136 11.3533 254.023 11.6533 254.023 12.04C254.023 12.5467 254.196 12.96 254.543 13.28C254.89 13.5867 255.37 13.74 255.983 13.74C256.476 13.74 256.91 13.6267 257.283 13.4C257.656 13.16 257.95 12.84 258.163 12.44C258.39 12.04 258.503 11.58 258.503 11.06V8.76C258.503 8 258.343 7.45333 258.023 7.12C257.703 6.78667 257.176 6.62 256.443 6.62C256.016 6.62 255.57 6.67333 255.103 6.78C254.65 6.88667 254.176 7.06667 253.683 7.32C253.456 7.42667 253.263 7.46 253.103 7.42C252.943 7.38 252.816 7.29333 252.723 7.16C252.63 7.01333 252.576 6.86 252.563 6.7C252.563 6.52667 252.603 6.36 252.683 6.2C252.776 6.04 252.93 5.92 253.143 5.84C253.73 5.56 254.31 5.36 254.883 5.24C255.456 5.12 255.996 5.06 256.503 5.06C257.396 5.06 258.13 5.2 258.703 5.48C259.29 5.76 259.723 6.18667 260.003 6.76C260.283 7.33333 260.423 8.07333 260.423 8.98V14.12C260.423 14.44 260.343 14.6933 260.183 14.88C260.023 15.0533 259.79 15.14 259.483 15.14C259.19 15.14 258.956 15.0533 258.783 14.88C258.61 14.6933 258.523 14.44 258.523 14.12V12.82H258.703C258.596 13.3133 258.396 13.74 258.103 14.1C257.823 14.4467 257.47 14.7133 257.043 14.9C256.616 15.0867 256.13 15.18 255.583 15.18ZM267.365 15.18C266.565 15.18 265.892 15.04 265.345 14.76C264.798 14.48 264.392 14.0667 264.125 13.52C263.858 12.9733 263.725 12.3067 263.725 11.52V6.8H262.525C262.258 6.8 262.052 6.73333 261.905 6.6C261.758 6.45333 261.685 6.26 261.685 6.02C261.685 5.76667 261.758 5.57333 261.905 5.44C262.052 5.30667 262.258 5.24 262.525 5.24H263.725V3.18C263.725 2.84667 263.812 2.59333 263.985 2.42C264.172 2.24667 264.425 2.16 264.745 2.16C265.065 2.16 265.312 2.24667 265.485 2.42C265.658 2.59333 265.745 2.84667 265.745 3.18V5.24H268.085C268.352 5.24 268.558 5.30667 268.705 5.44C268.852 5.57333 268.925 5.76667 268.925 6.02C268.925 6.26 268.852 6.45333 268.705 6.6C268.558 6.73333 268.352 6.8 268.085 6.8H265.745V11.36C265.745 12.0667 265.892 12.6 266.185 12.96C266.492 13.32 266.985 13.5 267.665 13.5C267.905 13.5 268.112 13.48 268.285 13.44C268.472 13.3867 268.625 13.3533 268.745 13.34C268.892 13.34 269.012 13.3933 269.105 13.5C269.198 13.5933 269.245 13.78 269.245 14.06C269.245 14.26 269.205 14.4467 269.125 14.62C269.058 14.7933 268.932 14.9067 268.745 14.96C268.585 15.0133 268.365 15.06 268.085 15.1C267.818 15.1533 267.578 15.18 267.365 15.18ZM273.63 15.18C272.95 15.18 272.337 15.0467 271.79 14.78C271.257 14.5133 270.837 14.1533 270.53 13.7C270.223 13.2467 270.07 12.7333 270.07 12.16C270.07 11.44 270.25 10.8733 270.61 10.46C270.983 10.0333 271.59 9.73333 272.43 9.56C273.283 9.37333 274.43 9.28 275.87 9.28H276.81V10.52H275.89C274.93 10.52 274.17 10.5667 273.61 10.66C273.05 10.7533 272.65 10.9133 272.41 11.14C272.183 11.3533 272.07 11.6533 272.07 12.04C272.07 12.5467 272.243 12.96 272.59 13.28C272.937 13.5867 273.417 13.74 274.03 13.74C274.523 13.74 274.957 13.6267 275.33 13.4C275.703 13.16 275.997 12.84 276.21 12.44C276.437 12.04 276.55 11.58 276.55 11.06V8.76C276.55 8 276.39 7.45333 276.07 7.12C275.75 6.78667 275.223 6.62 274.49 6.62C274.063 6.62 273.617 6.67333 273.15 6.78C272.697 6.88667 272.223 7.06667 271.73 7.32C271.503 7.42667 271.31 7.46 271.15 7.42C270.99 7.38 270.863 7.29333 270.77 7.16C270.677 7.01333 270.623 6.86 270.61 6.7C270.61 6.52667 270.65 6.36 270.73 6.2C270.823 6.04 270.977 5.92 271.19 5.84C271.777 5.56 272.357 5.36 272.93 5.24C273.503 5.12 274.043 5.06 274.55 5.06C275.443 5.06 276.177 5.2 276.75 5.48C277.337 5.76 277.77 6.18667 278.05 6.76C278.33 7.33333 278.47 8.07333 278.47 8.98V14.12C278.47 14.44 278.39 14.6933 278.23 14.88C278.07 15.0533 277.837 15.14 277.53 15.14C277.237 15.14 277.003 15.0533 276.83 14.88C276.657 14.6933 276.57 14.44 276.57 14.12V12.82H276.75C276.643 13.3133 276.443 13.74 276.15 14.1C275.87 14.4467 275.517 14.7133 275.09 14.9C274.663 15.0867 274.177 15.18 273.63 15.18Z" fill="#333333"/>
</svg>
