<svg width="273" height="34" viewBox="0 0 273 34" fill="none" xmlns="http://www.w3.org/2000/svg">
<path d="M4.64125 10.098C4.42659 10.098 4.26325 10.042 4.15125 9.93C4.03925 9.80867 3.98325 9.64067 3.98325 9.426V1.236H0.917254C0.739921 1.236 0.599921 1.18933 0.497254 1.096C0.394587 0.993333 0.343254 0.853333 0.343254 0.676C0.343254 0.498666 0.394587 0.363333 0.497254 0.269999C0.599921 0.176666 0.739921 0.129999 0.917254 0.129999H8.35125C8.53792 0.129999 8.67792 0.176666 8.77125 0.269999C8.87392 0.363333 8.92525 0.498666 8.92525 0.676C8.92525 0.853333 8.87392 0.993333 8.77125 1.096C8.67792 1.18933 8.53792 1.236 8.35125 1.236H5.28525V9.426C5.28525 9.64067 5.22925 9.80867 5.11725 9.93C5.01459 10.042 4.85592 10.098 4.64125 10.098ZM10.9923 10.098C10.7963 10.098 10.6423 10.042 10.5303 9.93C10.4183 9.818 10.3623 9.65467 10.3623 9.44V0.676C10.3623 0.461333 10.4183 0.302666 10.5303 0.199999C10.6423 0.0879997 10.7963 0.0319998 10.9923 0.0319998C11.1977 0.0319998 11.3563 0.0879997 11.4683 0.199999C11.5803 0.302666 11.6363 0.461333 11.6363 0.676V4.666H11.4543C11.6503 4.134 11.9677 3.73267 12.4063 3.462C12.8543 3.19133 13.363 3.056 13.9323 3.056C14.483 3.056 14.9357 3.15867 15.2903 3.364C15.645 3.56 15.911 3.85867 16.0883 4.26C16.2657 4.66133 16.3543 5.16533 16.3543 5.772V9.44C16.3543 9.65467 16.2983 9.818 16.1863 9.93C16.0837 10.042 15.9297 10.098 15.7243 10.098C15.519 10.098 15.3603 10.042 15.2483 9.93C15.1363 9.818 15.0803 9.65467 15.0803 9.44V5.842C15.0803 5.23533 14.9637 4.792 14.7303 4.512C14.497 4.232 14.1237 4.092 13.6103 4.092C13.013 4.092 12.5323 4.27867 12.1683 4.652C11.8137 5.016 11.6363 5.51067 11.6363 6.136V9.44C11.6363 9.87867 11.4217 10.098 10.9923 10.098ZM19.0041 10.07C18.8081 10.07 18.6541 10.0093 18.5421 9.888C18.4301 9.76667 18.3741 9.59867 18.3741 9.384V3.798C18.3741 3.574 18.4301 3.406 18.5421 3.294C18.6541 3.17267 18.8081 3.112 19.0041 3.112C19.2094 3.112 19.3681 3.17267 19.4801 3.294C19.5921 3.406 19.6481 3.574 19.6481 3.798V9.384C19.6481 9.59867 19.5921 9.76667 19.4801 9.888C19.3774 10.0093 19.2187 10.07 19.0041 10.07ZM19.0041 1.6C18.7521 1.6 18.5514 1.53467 18.4021 1.404C18.2621 1.264 18.1921 1.082 18.1921 0.857999C18.1921 0.615333 18.2621 0.433333 18.4021 0.312C18.5514 0.181333 18.7521 0.116 19.0041 0.116C19.2747 0.116 19.4754 0.181333 19.6061 0.312C19.7461 0.433333 19.8161 0.615333 19.8161 0.857999C19.8161 1.082 19.7461 1.264 19.6061 1.404C19.4754 1.53467 19.2747 1.6 19.0041 1.6ZM24.0483 10.126C23.6283 10.126 23.2036 10.0793 22.7743 9.986C22.3543 9.88333 21.9576 9.71067 21.5843 9.468C21.4816 9.40267 21.407 9.32333 21.3603 9.23C21.323 9.12733 21.309 9.02933 21.3183 8.936C21.337 8.83333 21.379 8.74467 21.4443 8.67C21.5096 8.59533 21.589 8.55333 21.6823 8.544C21.785 8.52533 21.8923 8.54867 22.0043 8.614C22.3683 8.81933 22.7183 8.964 23.0543 9.048C23.3996 9.132 23.7403 9.174 24.0763 9.174C24.5896 9.174 24.977 9.08067 25.2383 8.894C25.4996 8.70733 25.6303 8.46 25.6303 8.152C25.6303 7.89067 25.5416 7.69 25.3643 7.55C25.1963 7.40067 24.9303 7.28867 24.5663 7.214L23.2643 6.948C22.6856 6.81733 22.247 6.60267 21.9483 6.304C21.659 5.996 21.5143 5.604 21.5143 5.128C21.5143 4.708 21.6263 4.344 21.8503 4.036C22.0836 3.71867 22.4056 3.476 22.8163 3.308C23.227 3.14 23.6983 3.056 24.2303 3.056C24.641 3.056 25.0283 3.112 25.3923 3.224C25.7656 3.32667 26.1016 3.48533 26.4003 3.7C26.5123 3.76533 26.5823 3.84933 26.6103 3.952C26.6477 4.04533 26.6523 4.14333 26.6243 4.246C26.6056 4.33933 26.5636 4.41867 26.4983 4.484C26.433 4.54933 26.349 4.59133 26.2463 4.61C26.1437 4.61933 26.0317 4.59133 25.9103 4.526C25.6397 4.33933 25.3597 4.20867 25.0703 4.134C24.7903 4.05 24.5103 4.008 24.2303 4.008C23.7263 4.008 23.3436 4.106 23.0823 4.302C22.8303 4.498 22.7043 4.75467 22.7043 5.072C22.7043 5.31467 22.779 5.51533 22.9283 5.674C23.087 5.83267 23.3343 5.94933 23.6703 6.024L24.9723 6.29C25.579 6.42067 26.0363 6.63067 26.3443 6.92C26.6523 7.2 26.8063 7.58267 26.8063 8.068C26.8063 8.70267 26.5543 9.20667 26.0503 9.58C25.5557 9.944 24.8883 10.126 24.0483 10.126ZM35.0683 10.126C34.3776 10.126 33.7803 9.98133 33.2763 9.692C32.7723 9.39333 32.385 8.978 32.1143 8.446C31.8436 7.90467 31.7083 7.27 31.7083 6.542C31.7083 6.00067 31.783 5.51533 31.9323 5.086C32.091 4.65667 32.315 4.29267 32.6043 3.994C32.8936 3.686 33.2436 3.45267 33.6543 3.294C34.0743 3.13533 34.5456 3.056 35.0683 3.056C35.395 3.056 35.7403 3.10733 36.1043 3.21C36.4683 3.31267 36.8043 3.48067 37.1123 3.714C37.215 3.78867 37.2803 3.87733 37.3083 3.98C37.3363 4.07333 37.3363 4.17133 37.3083 4.274C37.2896 4.37667 37.243 4.46533 37.1683 4.54C37.103 4.60533 37.0143 4.64267 36.9023 4.652C36.7996 4.66133 36.6876 4.62867 36.5663 4.554C36.3423 4.386 36.1043 4.26467 35.8523 4.19C35.6096 4.11533 35.3763 4.078 35.1523 4.078C34.807 4.078 34.499 4.134 34.2283 4.246C33.967 4.358 33.743 4.52133 33.5563 4.736C33.379 4.94133 33.2436 5.198 33.1503 5.506C33.057 5.80467 33.0103 6.15467 33.0103 6.556C33.0103 7.34933 33.197 7.97467 33.5703 8.432C33.9436 8.88 34.471 9.104 35.1523 9.104C35.3763 9.104 35.6096 9.07133 35.8523 9.006C36.095 8.93133 36.333 8.81 36.5663 8.642C36.6876 8.56733 36.7996 8.53933 36.9023 8.558C37.005 8.56733 37.089 8.60933 37.1543 8.684C37.229 8.74933 37.2756 8.83333 37.2943 8.936C37.313 9.02933 37.3036 9.12733 37.2663 9.23C37.2383 9.33267 37.173 9.41667 37.0703 9.482C36.7716 9.706 36.445 9.86933 36.0903 9.972C35.7356 10.0747 35.395 10.126 35.0683 10.126ZM41.3834 10.126C40.7114 10.126 40.128 9.98133 39.6334 9.692C39.1387 9.40267 38.756 8.992 38.4854 8.46C38.2147 7.928 38.0794 7.30267 38.0794 6.584C38.0794 6.04267 38.154 5.55733 38.3034 5.128C38.462 4.68933 38.686 4.316 38.9754 4.008C39.2647 3.7 39.61 3.46667 40.0114 3.308C40.422 3.14 40.8794 3.056 41.3834 3.056C42.0554 3.056 42.6387 3.20067 43.1334 3.49C43.628 3.77933 44.0107 4.19 44.2814 4.722C44.552 5.24467 44.6874 5.86533 44.6874 6.584C44.6874 7.12533 44.608 7.61533 44.4494 8.054C44.3 8.49267 44.0807 8.866 43.7914 9.174C43.502 9.482 43.152 9.72 42.7414 9.888C42.34 10.0467 41.8874 10.126 41.3834 10.126ZM41.3834 9.118C41.794 9.118 42.1487 9.02 42.4474 8.824C42.7554 8.628 42.9887 8.34333 43.1474 7.97C43.3154 7.59667 43.3994 7.13467 43.3994 6.584C43.3994 5.76267 43.2174 5.13733 42.8534 4.708C42.4894 4.27867 41.9994 4.064 41.3834 4.064C40.982 4.064 40.6274 4.162 40.3194 4.358C40.0207 4.54467 39.7874 4.82467 39.6194 5.198C39.4514 5.57133 39.3674 6.03333 39.3674 6.584C39.3674 7.40533 39.5494 8.03533 39.9134 8.474C40.2867 8.90333 40.7767 9.118 41.3834 9.118ZM48.9234 10.126C48.326 10.126 47.7987 9.986 47.3414 9.706C46.8934 9.41667 46.5434 9.006 46.2914 8.474C46.0394 7.93267 45.9134 7.30267 45.9134 6.584C45.9134 5.856 46.0347 5.23067 46.2774 4.708C46.5294 4.176 46.8794 3.77 47.3274 3.49C47.7847 3.20067 48.3167 3.056 48.9234 3.056C49.53 3.056 50.0527 3.21 50.4914 3.518C50.93 3.81667 51.224 4.218 51.3734 4.722H51.2194V0.676C51.2194 0.461333 51.2707 0.302666 51.3734 0.199999C51.4854 0.0879997 51.644 0.0319998 51.8494 0.0319998C52.0547 0.0319998 52.2134 0.0879997 52.3254 0.199999C52.4374 0.302666 52.4934 0.461333 52.4934 0.676V9.44C52.4934 9.65467 52.4374 9.818 52.3254 9.93C52.2134 10.042 52.0547 10.098 51.8494 10.098C51.6534 10.098 51.4994 10.042 51.3874 9.93C51.2754 9.818 51.2194 9.65467 51.2194 9.44V8.166L51.3734 8.418C51.2334 8.94067 50.9394 9.356 50.4914 9.664C50.0527 9.972 49.53 10.126 48.9234 10.126ZM49.2174 9.118C49.628 9.118 49.9827 9.02 50.2814 8.824C50.5894 8.628 50.8227 8.34333 50.9814 7.97C51.1494 7.59667 51.2334 7.13467 51.2334 6.584C51.2334 5.76267 51.0514 5.13733 50.6874 4.708C50.3234 4.27867 49.8334 4.064 49.2174 4.064C48.816 4.064 48.4614 4.162 48.1534 4.358C47.8547 4.54467 47.6214 4.82467 47.4534 5.198C47.2854 5.57133 47.2014 6.03333 47.2014 6.584C47.2014 7.40533 47.3834 8.03533 47.7474 8.474C48.1207 8.90333 48.6107 9.118 49.2174 9.118ZM57.6862 10.126C56.9488 10.126 56.3142 9.986 55.7822 9.706C55.2595 9.41667 54.8535 9.01067 54.5642 8.488C54.2748 7.956 54.1302 7.33067 54.1302 6.612C54.1302 5.90267 54.2702 5.282 54.5502 4.75C54.8395 4.218 55.2315 3.80267 55.7262 3.504C56.2302 3.20533 56.8042 3.056 57.4482 3.056C57.9055 3.056 58.3162 3.13533 58.6802 3.294C59.0535 3.44333 59.3708 3.66267 59.6322 3.952C59.8935 4.24133 60.0895 4.596 60.2202 5.016C60.3602 5.42667 60.4302 5.89333 60.4302 6.416C60.4302 6.56533 60.3835 6.682 60.2902 6.766C60.2062 6.84067 60.0802 6.878 59.9122 6.878H55.1242V6.066H59.5902L59.3522 6.262C59.3522 5.77667 59.2775 5.366 59.1282 5.03C58.9882 4.68467 58.7782 4.42333 58.4982 4.246C58.2275 4.06867 57.8868 3.98 57.4762 3.98C57.0282 3.98 56.6455 4.08733 56.3282 4.302C56.0108 4.50733 55.7682 4.80133 55.6002 5.184C55.4322 5.55733 55.3482 5.99133 55.3482 6.486V6.57C55.3482 7.41 55.5488 8.04467 55.9502 8.474C56.3515 8.90333 56.9302 9.118 57.6862 9.118C57.9848 9.118 58.2882 9.08067 58.5962 9.006C58.9135 8.93133 59.2168 8.796 59.5062 8.6C59.6462 8.516 59.7722 8.47867 59.8842 8.488C60.0055 8.488 60.1035 8.52533 60.1782 8.6C60.2528 8.66533 60.2995 8.74933 60.3182 8.852C60.3368 8.94533 60.3228 9.048 60.2762 9.16C60.2295 9.272 60.1408 9.37 60.0102 9.454C59.7022 9.66867 59.3335 9.83667 58.9042 9.958C58.4842 10.07 58.0782 10.126 57.6862 10.126ZM68.0871 10.098C67.9097 10.098 67.7557 10.056 67.6251 9.972C67.4944 9.87867 67.3917 9.72933 67.3171 9.524L65.2311 3.966C65.1657 3.78867 65.1471 3.63467 65.1751 3.504C65.2031 3.37333 65.2684 3.27067 65.3711 3.196C65.4737 3.12133 65.6091 3.084 65.7771 3.084C65.9357 3.084 66.0617 3.12133 66.1551 3.196C66.2484 3.27067 66.3277 3.406 66.3931 3.602L68.2971 8.978H67.9611L69.9211 3.574C69.9864 3.406 70.0704 3.28467 70.1731 3.21C70.2851 3.126 70.4204 3.084 70.5791 3.084C70.7471 3.084 70.8871 3.126 70.9991 3.21C71.1111 3.28467 71.1904 3.406 71.2371 3.574L73.1691 8.978H72.8471L74.7791 3.574C74.8444 3.38733 74.9284 3.26133 75.0311 3.196C75.1337 3.12133 75.2597 3.084 75.4091 3.084C75.5771 3.084 75.7031 3.126 75.7871 3.21C75.8711 3.294 75.9177 3.406 75.9271 3.546C75.9457 3.67667 75.9271 3.81667 75.8711 3.966L73.7851 9.524C73.7197 9.72 73.6171 9.86467 73.4771 9.958C73.3464 10.0513 73.1924 10.098 73.0151 10.098C72.8377 10.098 72.6791 10.0513 72.5391 9.958C72.4084 9.86467 72.3057 9.72 72.2311 9.524L70.2291 4.036H70.8731L68.8711 9.524C68.7964 9.72 68.6937 9.86467 68.5631 9.958C68.4324 10.0513 68.2737 10.098 68.0871 10.098ZM78.1076 10.07C77.9116 10.07 77.7576 10.0093 77.6456 9.888C77.5336 9.76667 77.4776 9.59867 77.4776 9.384V3.798C77.4776 3.574 77.5336 3.406 77.6456 3.294C77.7576 3.17267 77.9116 3.112 78.1076 3.112C78.3129 3.112 78.4716 3.17267 78.5836 3.294C78.6956 3.406 78.7516 3.574 78.7516 3.798V9.384C78.7516 9.59867 78.6956 9.76667 78.5836 9.888C78.4809 10.0093 78.3222 10.07 78.1076 10.07ZM78.1076 1.6C77.8556 1.6 77.6549 1.53467 77.5056 1.404C77.3656 1.264 77.2956 1.082 77.2956 0.857999C77.2956 0.615333 77.3656 0.433333 77.5056 0.312C77.6549 0.181333 77.8556 0.116 78.1076 0.116C78.3782 0.116 78.5789 0.181333 78.7096 0.312C78.8496 0.433333 78.9196 0.615333 78.9196 0.857999C78.9196 1.082 78.8496 1.264 78.7096 1.404C78.5789 1.53467 78.3782 1.6 78.1076 1.6ZM82.9418 10.126C82.2418 10.126 81.7098 9.92067 81.3458 9.51C80.9818 9.09 80.7998 8.488 80.7998 7.704V0.676C80.7998 0.461333 80.8558 0.302666 80.9678 0.199999C81.0798 0.0879997 81.2338 0.0319998 81.4298 0.0319998C81.6352 0.0319998 81.7938 0.0879997 81.9058 0.199999C82.0178 0.302666 82.0738 0.461333 82.0738 0.676V7.606C82.0738 8.09133 82.1718 8.45533 82.3678 8.698C82.5732 8.93133 82.8625 9.048 83.2358 9.048C83.3198 9.048 83.3945 9.048 83.4598 9.048C83.5252 9.03867 83.5905 9.02933 83.6558 9.02C83.7585 9.01067 83.8332 9.03867 83.8798 9.104C83.9265 9.16933 83.9498 9.3 83.9498 9.496C83.9498 9.67333 83.9078 9.81333 83.8238 9.916C83.7492 10.0093 83.6232 10.07 83.4458 10.098C83.3618 10.1073 83.2778 10.112 83.1938 10.112C83.1098 10.1213 83.0258 10.126 82.9418 10.126ZM87.1528 10.126C86.4528 10.126 85.9208 9.92067 85.5568 9.51C85.1928 9.09 85.0108 8.488 85.0108 7.704V0.676C85.0108 0.461333 85.0668 0.302666 85.1788 0.199999C85.2908 0.0879997 85.4448 0.0319998 85.6408 0.0319998C85.8461 0.0319998 86.0048 0.0879997 86.1168 0.199999C86.2288 0.302666 86.2848 0.461333 86.2848 0.676V7.606C86.2848 8.09133 86.3828 8.45533 86.5788 8.698C86.7841 8.93133 87.0734 9.048 87.4468 9.048C87.5308 9.048 87.6054 9.048 87.6708 9.048C87.7361 9.03867 87.8014 9.02933 87.8668 9.02C87.9694 9.01067 88.0441 9.03867 88.0908 9.104C88.1374 9.16933 88.1608 9.3 88.1608 9.496C88.1608 9.67333 88.1188 9.81333 88.0348 9.916C87.9601 10.0093 87.8341 10.07 87.6568 10.098C87.5728 10.1073 87.4888 10.112 87.4048 10.112C87.3208 10.1213 87.2368 10.126 87.1528 10.126ZM96.0221 10.126C95.2848 10.126 94.6501 9.986 94.1181 9.706C93.5954 9.41667 93.1894 9.01067 92.9001 8.488C92.6108 7.956 92.4661 7.33067 92.4661 6.612C92.4661 5.90267 92.6061 5.282 92.8861 4.75C93.1754 4.218 93.5674 3.80267 94.0621 3.504C94.5661 3.20533 95.1401 3.056 95.7841 3.056C96.2414 3.056 96.6521 3.13533 97.0161 3.294C97.3894 3.44333 97.7068 3.66267 97.9681 3.952C98.2294 4.24133 98.4254 4.596 98.5561 5.016C98.6961 5.42667 98.7661 5.89333 98.7661 6.416C98.7661 6.56533 98.7194 6.682 98.6261 6.766C98.5421 6.84067 98.4161 6.878 98.2481 6.878H93.4601V6.066H97.9261L97.6881 6.262C97.6881 5.77667 97.6134 5.366 97.4641 5.03C97.3241 4.68467 97.1141 4.42333 96.8341 4.246C96.5634 4.06867 96.2228 3.98 95.8121 3.98C95.3641 3.98 94.9814 4.08733 94.6641 4.302C94.3468 4.50733 94.1041 4.80133 93.9361 5.184C93.7681 5.55733 93.6841 5.99133 93.6841 6.486V6.57C93.6841 7.41 93.8848 8.04467 94.2861 8.474C94.6874 8.90333 95.2661 9.118 96.0221 9.118C96.3208 9.118 96.6241 9.08067 96.9321 9.006C97.2494 8.93133 97.5528 8.796 97.8421 8.6C97.9821 8.516 98.1081 8.47867 98.2201 8.488C98.3414 8.488 98.4394 8.52533 98.5141 8.6C98.5888 8.66533 98.6354 8.74933 98.6541 8.852C98.6728 8.94533 98.6588 9.048 98.6121 9.16C98.5654 9.272 98.4768 9.37 98.3461 9.454C98.0381 9.66867 97.6694 9.83667 97.2401 9.958C96.8201 10.07 96.4141 10.126 96.0221 10.126ZM100.436 10.084C100.296 10.084 100.175 10.042 100.072 9.958C99.9693 9.874 99.9133 9.762 99.9039 9.622C99.9039 9.482 99.9646 9.33267 100.086 9.174L102.508 6.164V6.794L100.24 3.994C100.109 3.83533 100.049 3.686 100.058 3.546C100.067 3.406 100.119 3.294 100.212 3.21C100.315 3.126 100.441 3.084 100.59 3.084C100.749 3.084 100.879 3.112 100.982 3.168C101.094 3.224 101.197 3.31267 101.29 3.434L103.222 5.884H102.774L104.706 3.434C104.799 3.31267 104.897 3.224 105 3.168C105.112 3.112 105.243 3.084 105.392 3.084C105.541 3.084 105.663 3.126 105.756 3.21C105.859 3.294 105.91 3.406 105.91 3.546C105.919 3.686 105.863 3.83533 105.742 3.994L103.488 6.766V6.206L105.896 9.174C106.027 9.32333 106.087 9.468 106.078 9.608C106.069 9.748 106.013 9.86467 105.91 9.958C105.817 10.042 105.695 10.084 105.546 10.084C105.387 10.084 105.252 10.056 105.14 10C105.037 9.944 104.939 9.85533 104.846 9.734L102.76 7.116H103.194L101.136 9.734C101.043 9.846 100.94 9.93467 100.828 10C100.725 10.056 100.595 10.084 100.436 10.084ZM108.35 12.618C108.154 12.618 108 12.562 107.888 12.45C107.776 12.338 107.72 12.1793 107.72 11.974V3.728C107.72 3.51333 107.776 3.35467 107.888 3.252C108 3.14 108.154 3.084 108.35 3.084C108.555 3.084 108.709 3.14 108.812 3.252C108.924 3.35467 108.98 3.51333 108.98 3.728V5.002L108.826 4.75C108.975 4.23667 109.269 3.826 109.708 3.518C110.146 3.21 110.674 3.056 111.29 3.056C111.896 3.056 112.424 3.20067 112.872 3.49C113.32 3.77 113.67 4.176 113.922 4.708C114.174 5.23067 114.3 5.856 114.3 6.584C114.3 7.30267 114.174 7.93267 113.922 8.474C113.679 9.006 113.329 9.41667 112.872 9.706C112.424 9.986 111.896 10.126 111.29 10.126C110.683 10.126 110.16 9.972 109.722 9.664C109.283 9.356 108.989 8.95 108.84 8.446H108.994V11.974C108.994 12.1793 108.938 12.338 108.826 12.45C108.714 12.562 108.555 12.618 108.35 12.618ZM110.996 9.118C111.397 9.118 111.747 9.02 112.046 8.824C112.354 8.628 112.592 8.34333 112.76 7.97C112.928 7.59667 113.012 7.13467 113.012 6.584C113.012 5.76267 112.83 5.13733 112.466 4.708C112.102 4.27867 111.612 4.064 110.996 4.064C110.585 4.064 110.226 4.162 109.918 4.358C109.619 4.54467 109.386 4.82467 109.218 5.198C109.059 5.57133 108.98 6.03333 108.98 6.584C108.98 7.40533 109.162 8.03533 109.526 8.474C109.89 8.90333 110.38 9.118 110.996 9.118ZM116.567 10.07C116.371 10.07 116.217 10.0093 116.105 9.888C115.993 9.76667 115.937 9.59867 115.937 9.384V3.798C115.937 3.574 115.993 3.406 116.105 3.294C116.217 3.17267 116.371 3.112 116.567 3.112C116.772 3.112 116.931 3.17267 117.043 3.294C117.155 3.406 117.211 3.574 117.211 3.798V9.384C117.211 9.59867 117.155 9.76667 117.043 9.888C116.94 10.0093 116.781 10.07 116.567 10.07ZM116.567 1.6C116.315 1.6 116.114 1.53467 115.965 1.404C115.825 1.264 115.755 1.082 115.755 0.857999C115.755 0.615333 115.825 0.433333 115.965 0.312C116.114 0.181333 116.315 0.116 116.567 0.116C116.837 0.116 117.038 0.181333 117.169 0.312C117.309 0.433333 117.379 0.615333 117.379 0.857999C117.379 1.082 117.309 1.264 117.169 1.404C117.038 1.53467 116.837 1.6 116.567 1.6ZM119.917 10.098C119.702 10.098 119.539 10.042 119.427 9.93C119.315 9.818 119.259 9.65467 119.259 9.44V3.728C119.259 3.51333 119.315 3.35467 119.427 3.252C119.539 3.14 119.693 3.084 119.889 3.084C120.085 3.084 120.234 3.14 120.337 3.252C120.449 3.35467 120.505 3.51333 120.505 3.728V4.806H120.365C120.514 4.246 120.794 3.82133 121.205 3.532C121.615 3.24267 122.133 3.07933 122.759 3.042C122.908 3.03267 123.029 3.07 123.123 3.154C123.216 3.22867 123.267 3.35933 123.277 3.546C123.286 3.72333 123.244 3.868 123.151 3.98C123.057 4.08267 122.913 4.14333 122.717 4.162L122.465 4.176C121.849 4.24133 121.373 4.442 121.037 4.778C120.71 5.114 120.547 5.576 120.547 6.164V9.44C120.547 9.65467 120.491 9.818 120.379 9.93C120.276 10.042 120.122 10.098 119.917 10.098ZM127.426 10.126C126.689 10.126 126.054 9.986 125.522 9.706C125 9.41667 124.594 9.01067 124.304 8.488C124.015 7.956 123.87 7.33067 123.87 6.612C123.87 5.90267 124.01 5.282 124.29 4.75C124.58 4.218 124.972 3.80267 125.466 3.504C125.97 3.20533 126.544 3.056 127.188 3.056C127.646 3.056 128.056 3.13533 128.42 3.294C128.794 3.44333 129.111 3.66267 129.372 3.952C129.634 4.24133 129.83 4.596 129.96 5.016C130.1 5.42667 130.17 5.89333 130.17 6.416C130.17 6.56533 130.124 6.682 130.03 6.766C129.946 6.84067 129.82 6.878 129.652 6.878H124.864V6.066H129.33L129.092 6.262C129.092 5.77667 129.018 5.366 128.868 5.03C128.728 4.68467 128.518 4.42333 128.238 4.246C127.968 4.06867 127.627 3.98 127.216 3.98C126.768 3.98 126.386 4.08733 126.068 4.302C125.751 4.50733 125.508 4.80133 125.34 5.184C125.172 5.55733 125.088 5.99133 125.088 6.486V6.57C125.088 7.41 125.289 8.04467 125.69 8.474C126.092 8.90333 126.67 9.118 127.426 9.118C127.725 9.118 128.028 9.08067 128.336 9.006C128.654 8.93133 128.957 8.796 129.246 8.6C129.386 8.516 129.512 8.47867 129.624 8.488C129.746 8.488 129.844 8.52533 129.918 8.6C129.993 8.66533 130.04 8.74933 130.058 8.852C130.077 8.94533 130.063 9.048 130.016 9.16C129.97 9.272 129.881 9.37 129.75 9.454C129.442 9.66867 129.074 9.83667 128.644 9.958C128.224 10.07 127.818 10.126 127.426 10.126ZM134.359 10.126C133.762 10.126 133.234 9.986 132.777 9.706C132.329 9.41667 131.979 9.006 131.727 8.474C131.475 7.93267 131.349 7.30267 131.349 6.584C131.349 5.856 131.47 5.23067 131.713 4.708C131.965 4.176 132.315 3.77 132.763 3.49C133.22 3.20067 133.752 3.056 134.359 3.056C134.966 3.056 135.488 3.21 135.927 3.518C136.366 3.81667 136.66 4.218 136.809 4.722H136.655V0.676C136.655 0.461333 136.706 0.302666 136.809 0.199999C136.921 0.0879997 137.08 0.0319998 137.285 0.0319998C137.49 0.0319998 137.649 0.0879997 137.761 0.199999C137.873 0.302666 137.929 0.461333 137.929 0.676V9.44C137.929 9.65467 137.873 9.818 137.761 9.93C137.649 10.042 137.49 10.098 137.285 10.098C137.089 10.098 136.935 10.042 136.823 9.93C136.711 9.818 136.655 9.65467 136.655 9.44V8.166L136.809 8.418C136.669 8.94067 136.375 9.356 135.927 9.664C135.488 9.972 134.966 10.126 134.359 10.126ZM134.653 9.118C135.064 9.118 135.418 9.02 135.717 8.824C136.025 8.628 136.258 8.34333 136.417 7.97C136.585 7.59667 136.669 7.13467 136.669 6.584C136.669 5.76267 136.487 5.13733 136.123 4.708C135.759 4.27867 135.269 4.064 134.653 4.064C134.252 4.064 133.897 4.162 133.589 4.358C133.29 4.54467 133.057 4.82467 132.889 5.198C132.721 5.57133 132.637 6.03333 132.637 6.584C132.637 7.40533 132.819 8.03533 133.183 8.474C133.556 8.90333 134.046 9.118 134.653 9.118ZM144.77 10C144.593 10 144.453 9.94867 144.35 9.846C144.247 9.74333 144.196 9.608 144.196 9.44C144.196 9.26267 144.247 9.12733 144.35 9.034C144.453 8.94067 144.593 8.894 144.77 8.894H146.534V1.208H147.206L145.162 2.524C145.031 2.608 144.905 2.64533 144.784 2.636C144.672 2.61733 144.574 2.57067 144.49 2.496C144.406 2.412 144.35 2.314 144.322 2.202C144.294 2.09 144.299 1.978 144.336 1.866C144.383 1.74467 144.476 1.64667 144.616 1.572L146.548 0.312C146.688 0.228 146.819 0.162666 146.94 0.116C147.071 0.0599997 147.197 0.0319998 147.318 0.0319998C147.458 0.0319998 147.579 0.0739998 147.682 0.158C147.785 0.242 147.836 0.377333 147.836 0.564V8.894H149.46C149.647 8.894 149.787 8.94067 149.88 9.034C149.983 9.12733 150.034 9.26267 150.034 9.44C150.034 9.61733 149.983 9.75733 149.88 9.86C149.787 9.95333 149.647 10 149.46 10H144.77ZM155.195 10.126C154.056 10.126 153.188 9.692 152.591 8.824C152.003 7.94667 151.709 6.69133 151.709 5.058C151.709 3.94733 151.839 3.01867 152.101 2.272C152.371 1.52533 152.763 0.960666 153.277 0.577999C153.799 0.195333 154.439 0.00399935 155.195 0.00399935C156.343 0.00399935 157.211 0.433333 157.799 1.292C158.387 2.14133 158.681 3.392 158.681 5.044C158.681 6.136 158.545 7.06 158.275 7.816C158.013 8.572 157.626 9.146 157.113 9.538C156.599 9.93 155.96 10.126 155.195 10.126ZM155.195 9.02C155.941 9.02 156.497 8.698 156.861 8.054C157.225 7.41 157.407 6.40667 157.407 5.044C157.407 3.68133 157.225 2.68733 156.861 2.062C156.506 1.42733 155.951 1.11 155.195 1.11C154.448 1.11 153.893 1.42733 153.529 2.062C153.165 2.68733 152.983 3.68133 152.983 5.044C152.983 6.40667 153.165 7.41 153.529 8.054C153.893 8.698 154.448 9.02 155.195 9.02ZM164.72 10.098C164.524 10.098 164.37 10.042 164.258 9.93C164.146 9.818 164.09 9.65467 164.09 9.44V3.728C164.09 3.51333 164.146 3.35467 164.258 3.252C164.37 3.14 164.524 3.084 164.72 3.084C164.916 3.084 165.065 3.14 165.168 3.252C165.28 3.35467 165.336 3.51333 165.336 3.728V4.918L165.182 4.666C165.359 4.15267 165.644 3.756 166.036 3.476C166.437 3.196 166.913 3.056 167.464 3.056C168.042 3.056 168.509 3.196 168.864 3.476C169.218 3.74667 169.456 4.162 169.578 4.722H169.382C169.55 4.20867 169.848 3.80267 170.278 3.504C170.716 3.20533 171.225 3.056 171.804 3.056C172.317 3.056 172.737 3.15867 173.064 3.364C173.4 3.56 173.652 3.85867 173.82 4.26C173.988 4.652 174.072 5.156 174.072 5.772V9.44C174.072 9.65467 174.016 9.818 173.904 9.93C173.792 10.042 173.638 10.098 173.442 10.098C173.236 10.098 173.078 10.042 172.966 9.93C172.854 9.818 172.798 9.65467 172.798 9.44V5.828C172.798 5.23067 172.695 4.792 172.49 4.512C172.284 4.232 171.939 4.092 171.454 4.092C170.922 4.092 170.497 4.27867 170.18 4.652C169.872 5.016 169.718 5.52 169.718 6.164V9.44C169.718 9.65467 169.662 9.818 169.55 9.93C169.447 10.042 169.293 10.098 169.088 10.098C168.882 10.098 168.724 10.042 168.612 9.93C168.5 9.818 168.444 9.65467 168.444 9.44V5.828C168.444 5.23067 168.341 4.792 168.136 4.512C167.93 4.232 167.585 4.092 167.1 4.092C166.568 4.092 166.143 4.27867 165.826 4.652C165.518 5.016 165.364 5.52 165.364 6.164V9.44C165.364 9.87867 165.149 10.098 164.72 10.098ZM176.75 10.07C176.554 10.07 176.4 10.0093 176.288 9.888C176.176 9.76667 176.12 9.59867 176.12 9.384V3.798C176.12 3.574 176.176 3.406 176.288 3.294C176.4 3.17267 176.554 3.112 176.75 3.112C176.955 3.112 177.114 3.17267 177.226 3.294C177.338 3.406 177.394 3.574 177.394 3.798V9.384C177.394 9.59867 177.338 9.76667 177.226 9.888C177.123 10.0093 176.965 10.07 176.75 10.07ZM176.75 1.6C176.498 1.6 176.297 1.53467 176.148 1.404C176.008 1.264 175.938 1.082 175.938 0.857999C175.938 0.615333 176.008 0.433333 176.148 0.312C176.297 0.181333 176.498 0.116 176.75 0.116C177.021 0.116 177.221 0.181333 177.352 0.312C177.492 0.433333 177.562 0.615333 177.562 0.857999C177.562 1.082 177.492 1.264 177.352 1.404C177.221 1.53467 177.021 1.6 176.75 1.6ZM180.072 10.098C179.876 10.098 179.722 10.042 179.61 9.93C179.498 9.818 179.442 9.65467 179.442 9.44V3.728C179.442 3.51333 179.498 3.35467 179.61 3.252C179.722 3.14 179.876 3.084 180.072 3.084C180.268 3.084 180.418 3.14 180.52 3.252C180.632 3.35467 180.688 3.51333 180.688 3.728V4.876L180.534 4.666C180.73 4.134 181.048 3.73267 181.486 3.462C181.934 3.19133 182.443 3.056 183.012 3.056C183.563 3.056 184.016 3.154 184.37 3.35C184.725 3.546 184.991 3.84467 185.168 4.246C185.346 4.64733 185.434 5.156 185.434 5.772V9.44C185.434 9.65467 185.378 9.818 185.266 9.93C185.164 10.042 185.01 10.098 184.804 10.098C184.599 10.098 184.44 10.042 184.328 9.93C184.216 9.818 184.16 9.65467 184.16 9.44V5.842C184.16 5.23533 184.044 4.792 183.81 4.512C183.577 4.232 183.204 4.092 182.69 4.092C182.093 4.092 181.612 4.27867 181.248 4.652C180.894 5.016 180.716 5.51067 180.716 6.136V9.44C180.716 9.87867 180.502 10.098 180.072 10.098ZM189.89 10.126C189.339 10.126 188.877 10.0233 188.504 9.818C188.14 9.61267 187.869 9.30933 187.692 8.908C187.515 8.50667 187.426 8.00267 187.426 7.396V3.728C187.426 3.51333 187.477 3.35467 187.58 3.252C187.692 3.14 187.851 3.084 188.056 3.084C188.261 3.084 188.42 3.14 188.532 3.252C188.644 3.35467 188.7 3.51333 188.7 3.728V7.396C188.7 7.97467 188.817 8.404 189.05 8.684C189.283 8.95467 189.652 9.09 190.156 9.09C190.716 9.09 191.169 8.90333 191.514 8.53C191.869 8.15667 192.046 7.662 192.046 7.046V3.728C192.046 3.51333 192.097 3.35467 192.2 3.252C192.312 3.14 192.471 3.084 192.676 3.084C192.881 3.084 193.04 3.14 193.152 3.252C193.264 3.35467 193.32 3.51333 193.32 3.728V9.44C193.32 9.87867 193.115 10.098 192.704 10.098C192.499 10.098 192.34 10.042 192.228 9.93C192.125 9.818 192.074 9.65467 192.074 9.44V8.222L192.256 8.46C192.069 9.00133 191.766 9.41667 191.346 9.706C190.935 9.986 190.45 10.126 189.89 10.126ZM198.198 10.126C197.647 10.126 197.185 10.028 196.812 9.832C196.448 9.636 196.173 9.35133 195.986 8.978C195.809 8.60467 195.72 8.14733 195.72 7.606V4.162H194.824C194.656 4.162 194.525 4.12 194.432 4.036C194.339 3.94267 194.292 3.82133 194.292 3.672C194.292 3.51333 194.339 3.392 194.432 3.308C194.525 3.224 194.656 3.182 194.824 3.182H195.72V1.656C195.72 1.44133 195.776 1.28267 195.888 1.18C196 1.068 196.159 1.012 196.364 1.012C196.569 1.012 196.723 1.068 196.826 1.18C196.938 1.28267 196.994 1.44133 196.994 1.656V3.182H198.688C198.865 3.182 199.001 3.224 199.094 3.308C199.187 3.392 199.234 3.51333 199.234 3.672C199.234 3.82133 199.187 3.94267 199.094 4.036C199.001 4.12 198.865 4.162 198.688 4.162H196.994V7.494C196.994 8.00733 197.101 8.39467 197.316 8.656C197.531 8.91733 197.885 9.048 198.38 9.048C198.557 9.048 198.707 9.034 198.828 9.006C198.949 8.96867 199.057 8.95 199.15 8.95C199.234 8.94067 199.304 8.96867 199.36 9.034C199.425 9.09933 199.458 9.22067 199.458 9.398C199.458 9.52867 199.435 9.65 199.388 9.762C199.351 9.86467 199.271 9.93467 199.15 9.972C199.038 10.0093 198.889 10.042 198.702 10.07C198.515 10.1073 198.347 10.126 198.198 10.126ZM203.469 10.126C202.732 10.126 202.097 9.986 201.565 9.706C201.043 9.41667 200.637 9.01067 200.347 8.488C200.058 7.956 199.913 7.33067 199.913 6.612C199.913 5.90267 200.053 5.282 200.333 4.75C200.623 4.218 201.015 3.80267 201.509 3.504C202.013 3.20533 202.587 3.056 203.231 3.056C203.689 3.056 204.099 3.13533 204.463 3.294C204.837 3.44333 205.154 3.66267 205.415 3.952C205.677 4.24133 205.873 4.596 206.003 5.016C206.143 5.42667 206.213 5.89333 206.213 6.416C206.213 6.56533 206.167 6.682 206.073 6.766C205.989 6.84067 205.863 6.878 205.695 6.878H200.907V6.066H205.373L205.135 6.262C205.135 5.77667 205.061 5.366 204.911 5.03C204.771 4.68467 204.561 4.42333 204.281 4.246C204.011 4.06867 203.67 3.98 203.259 3.98C202.811 3.98 202.429 4.08733 202.111 4.302C201.794 4.50733 201.551 4.80133 201.383 5.184C201.215 5.55733 201.131 5.99133 201.131 6.486V6.57C201.131 7.41 201.332 8.04467 201.733 8.474C202.135 8.90333 202.713 9.118 203.469 9.118C203.768 9.118 204.071 9.08067 204.379 9.006C204.697 8.93133 205 8.796 205.289 8.6C205.429 8.516 205.555 8.47867 205.667 8.488C205.789 8.488 205.887 8.52533 205.961 8.6C206.036 8.66533 206.083 8.74933 206.101 8.852C206.12 8.94533 206.106 9.048 206.059 9.16C206.013 9.272 205.924 9.37 205.793 9.454C205.485 9.66867 205.117 9.83667 204.687 9.958C204.267 10.07 203.861 10.126 203.469 10.126ZM210.15 10.126C209.73 10.126 209.305 10.0793 208.876 9.986C208.456 9.88333 208.059 9.71067 207.686 9.468C207.583 9.40267 207.509 9.32333 207.462 9.23C207.425 9.12733 207.411 9.02933 207.42 8.936C207.439 8.83333 207.481 8.74467 207.546 8.67C207.611 8.59533 207.691 8.55333 207.784 8.544C207.887 8.52533 207.994 8.54867 208.106 8.614C208.47 8.81933 208.82 8.964 209.156 9.048C209.501 9.132 209.842 9.174 210.178 9.174C210.691 9.174 211.079 9.08067 211.34 8.894C211.601 8.70733 211.732 8.46 211.732 8.152C211.732 7.89067 211.643 7.69 211.466 7.55C211.298 7.40067 211.032 7.28867 210.668 7.214L209.366 6.948C208.787 6.81733 208.349 6.60267 208.05 6.304C207.761 5.996 207.616 5.604 207.616 5.128C207.616 4.708 207.728 4.344 207.952 4.036C208.185 3.71867 208.507 3.476 208.918 3.308C209.329 3.14 209.8 3.056 210.332 3.056C210.743 3.056 211.13 3.112 211.494 3.224C211.867 3.32667 212.203 3.48533 212.502 3.7C212.614 3.76533 212.684 3.84933 212.712 3.952C212.749 4.04533 212.754 4.14333 212.726 4.246C212.707 4.33933 212.665 4.41867 212.6 4.484C212.535 4.54933 212.451 4.59133 212.348 4.61C212.245 4.61933 212.133 4.59133 212.012 4.526C211.741 4.33933 211.461 4.20867 211.172 4.134C210.892 4.05 210.612 4.008 210.332 4.008C209.828 4.008 209.445 4.106 209.184 4.302C208.932 4.498 208.806 4.75467 208.806 5.072C208.806 5.31467 208.881 5.51533 209.03 5.674C209.189 5.83267 209.436 5.94933 209.772 6.024L211.074 6.29C211.681 6.42067 212.138 6.63067 212.446 6.92C212.754 7.2 212.908 7.58267 212.908 8.068C212.908 8.70267 212.656 9.20667 212.152 9.58C211.657 9.944 210.99 10.126 210.15 10.126ZM220.386 10.126C219.919 10.126 219.495 10.0327 219.112 9.846C218.739 9.65933 218.445 9.40733 218.23 9.09C218.025 8.77267 217.922 8.418 217.922 8.026C217.922 7.522 218.048 7.12533 218.3 6.836C218.552 6.54667 218.977 6.34133 219.574 6.22C220.171 6.08933 220.974 6.024 221.982 6.024H222.64V6.836H222.01C221.291 6.836 220.722 6.86867 220.302 6.934C219.891 6.99933 219.602 7.116 219.434 7.284C219.266 7.44267 219.182 7.66667 219.182 7.956C219.182 8.32 219.308 8.61867 219.56 8.852C219.821 9.08533 220.176 9.202 220.624 9.202C220.979 9.202 221.291 9.118 221.562 8.95C221.833 8.77267 222.047 8.53933 222.206 8.25C222.365 7.95133 222.444 7.61067 222.444 7.228V5.618C222.444 5.06733 222.332 4.67067 222.108 4.428C221.884 4.176 221.506 4.05 220.974 4.05C220.666 4.05 220.349 4.092 220.022 4.176C219.695 4.26 219.355 4.39067 219 4.568C218.86 4.63333 218.739 4.65667 218.636 4.638C218.533 4.61 218.449 4.554 218.384 4.47C218.328 4.37667 218.295 4.27867 218.286 4.176C218.286 4.064 218.309 3.95667 218.356 3.854C218.412 3.75133 218.505 3.67667 218.636 3.63C219.047 3.42467 219.453 3.28 219.854 3.196C220.265 3.10267 220.647 3.056 221.002 3.056C221.609 3.056 222.108 3.154 222.5 3.35C222.892 3.53667 223.186 3.83067 223.382 4.232C223.578 4.624 223.676 5.128 223.676 5.744V9.44C223.676 9.65467 223.625 9.818 223.522 9.93C223.419 10.042 223.27 10.098 223.074 10.098C222.887 10.098 222.738 10.042 222.626 9.93C222.523 9.818 222.472 9.65467 222.472 9.44V8.446H222.598C222.523 8.79133 222.383 9.09 222.178 9.342C221.973 9.594 221.716 9.79 221.408 9.93C221.109 10.0607 220.769 10.126 220.386 10.126ZM226.717 10.098C226.511 10.098 226.353 10.042 226.241 9.93C226.129 9.818 226.073 9.65467 226.073 9.44V4.162H225.233C225.065 4.162 224.934 4.12 224.841 4.036C224.747 3.94267 224.701 3.82133 224.701 3.672C224.701 3.51333 224.747 3.392 224.841 3.308C224.934 3.224 225.065 3.182 225.233 3.182H226.423L226.073 3.518V3C226.073 2.09467 226.292 1.40867 226.731 0.942C227.179 0.466 227.832 0.190666 228.691 0.116L229.125 0.0879999C229.265 0.069333 229.377 0.0926663 229.461 0.158C229.545 0.214 229.601 0.288666 229.629 0.381999C229.657 0.475333 229.657 0.573333 229.629 0.676C229.61 0.769333 229.568 0.853333 229.503 0.928C229.437 1.00267 229.353 1.04467 229.251 1.054L228.943 1.068C228.383 1.11467 227.977 1.28267 227.725 1.572C227.473 1.852 227.347 2.272 227.347 2.832V3.392L227.165 3.182H228.775C228.952 3.182 229.087 3.224 229.181 3.308C229.274 3.392 229.321 3.51333 229.321 3.672C229.321 3.82133 229.274 3.94267 229.181 4.036C229.087 4.12 228.952 4.162 228.775 4.162H227.347V9.44C227.347 9.87867 227.137 10.098 226.717 10.098ZM232.925 10.126C232.374 10.126 231.912 10.028 231.539 9.832C231.175 9.636 230.899 9.35133 230.713 8.978C230.535 8.60467 230.447 8.14733 230.447 7.606V4.162H229.551C229.383 4.162 229.252 4.12 229.159 4.036C229.065 3.94267 229.019 3.82133 229.019 3.672C229.019 3.51333 229.065 3.392 229.159 3.308C229.252 3.224 229.383 3.182 229.551 3.182H230.447V1.656C230.447 1.44133 230.503 1.28267 230.615 1.18C230.727 1.068 230.885 1.012 231.091 1.012C231.296 1.012 231.45 1.068 231.553 1.18C231.665 1.28267 231.721 1.44133 231.721 1.656V3.182H233.415C233.592 3.182 233.727 3.224 233.821 3.308C233.914 3.392 233.961 3.51333 233.961 3.672C233.961 3.82133 233.914 3.94267 233.821 4.036C233.727 4.12 233.592 4.162 233.415 4.162H231.721V7.494C231.721 8.00733 231.828 8.39467 232.043 8.656C232.257 8.91733 232.612 9.048 233.107 9.048C233.284 9.048 233.433 9.034 233.555 9.006C233.676 8.96867 233.783 8.95 233.877 8.95C233.961 8.94067 234.031 8.96867 234.087 9.034C234.152 9.09933 234.185 9.22067 234.185 9.398C234.185 9.52867 234.161 9.65 234.115 9.762C234.077 9.86467 233.998 9.93467 233.877 9.972C233.765 10.0093 233.615 10.042 233.429 10.07C233.242 10.1073 233.074 10.126 232.925 10.126ZM238.196 10.126C237.459 10.126 236.824 9.986 236.292 9.706C235.769 9.41667 235.363 9.01067 235.074 8.488C234.785 7.956 234.64 7.33067 234.64 6.612C234.64 5.90267 234.78 5.282 235.06 4.75C235.349 4.218 235.741 3.80267 236.236 3.504C236.74 3.20533 237.314 3.056 237.958 3.056C238.415 3.056 238.826 3.13533 239.19 3.294C239.563 3.44333 239.881 3.66267 240.142 3.952C240.403 4.24133 240.599 4.596 240.73 5.016C240.87 5.42667 240.94 5.89333 240.94 6.416C240.94 6.56533 240.893 6.682 240.8 6.766C240.716 6.84067 240.59 6.878 240.422 6.878H235.634V6.066H240.1L239.862 6.262C239.862 5.77667 239.787 5.366 239.638 5.03C239.498 4.68467 239.288 4.42333 239.008 4.246C238.737 4.06867 238.397 3.98 237.986 3.98C237.538 3.98 237.155 4.08733 236.838 4.302C236.521 4.50733 236.278 4.80133 236.11 5.184C235.942 5.55733 235.858 5.99133 235.858 6.486V6.57C235.858 7.41 236.059 8.04467 236.46 8.474C236.861 8.90333 237.44 9.118 238.196 9.118C238.495 9.118 238.798 9.08067 239.106 9.006C239.423 8.93133 239.727 8.796 240.016 8.6C240.156 8.516 240.282 8.47867 240.394 8.488C240.515 8.488 240.613 8.52533 240.688 8.6C240.763 8.66533 240.809 8.74933 240.828 8.852C240.847 8.94533 240.833 9.048 240.786 9.16C240.739 9.272 240.651 9.37 240.52 9.454C240.212 9.66867 239.843 9.83667 239.414 9.958C238.994 10.07 238.588 10.126 238.196 10.126ZM243.182 10.098C242.968 10.098 242.804 10.042 242.692 9.93C242.58 9.818 242.524 9.65467 242.524 9.44V3.728C242.524 3.51333 242.58 3.35467 242.692 3.252C242.804 3.14 242.958 3.084 243.154 3.084C243.35 3.084 243.5 3.14 243.602 3.252C243.714 3.35467 243.77 3.51333 243.77 3.728V4.806H243.63C243.78 4.246 244.06 3.82133 244.47 3.532C244.881 3.24267 245.399 3.07933 246.024 3.042C246.174 3.03267 246.295 3.07 246.388 3.154C246.482 3.22867 246.533 3.35933 246.542 3.546C246.552 3.72333 246.51 3.868 246.416 3.98C246.323 4.08267 246.178 4.14333 245.982 4.162L245.73 4.176C245.114 4.24133 244.638 4.442 244.302 4.778C243.976 5.114 243.812 5.576 243.812 6.164V9.44C243.812 9.65467 243.756 9.818 243.644 9.93C243.542 10.042 243.388 10.098 243.182 10.098ZM254.116 10.126C253.565 10.126 253.103 10.028 252.73 9.832C252.366 9.636 252.091 9.35133 251.904 8.978C251.727 8.60467 251.638 8.14733 251.638 7.606V4.162H250.742C250.574 4.162 250.443 4.12 250.35 4.036C250.257 3.94267 250.21 3.82133 250.21 3.672C250.21 3.51333 250.257 3.392 250.35 3.308C250.443 3.224 250.574 3.182 250.742 3.182H251.638V1.656C251.638 1.44133 251.694 1.28267 251.806 1.18C251.918 1.068 252.077 1.012 252.282 1.012C252.487 1.012 252.641 1.068 252.744 1.18C252.856 1.28267 252.912 1.44133 252.912 1.656V3.182H254.606C254.783 3.182 254.919 3.224 255.012 3.308C255.105 3.392 255.152 3.51333 255.152 3.672C255.152 3.82133 255.105 3.94267 255.012 4.036C254.919 4.12 254.783 4.162 254.606 4.162H252.912V7.494C252.912 8.00733 253.019 8.39467 253.234 8.656C253.449 8.91733 253.803 9.048 254.298 9.048C254.475 9.048 254.625 9.034 254.746 9.006C254.867 8.96867 254.975 8.95 255.068 8.95C255.152 8.94067 255.222 8.96867 255.278 9.034C255.343 9.09933 255.376 9.22067 255.376 9.398C255.376 9.52867 255.353 9.65 255.306 9.762C255.269 9.86467 255.189 9.93467 255.068 9.972C254.956 10.0093 254.807 10.042 254.62 10.07C254.433 10.1073 254.265 10.126 254.116 10.126ZM257.045 10.098C256.849 10.098 256.695 10.042 256.583 9.93C256.471 9.818 256.415 9.65467 256.415 9.44V0.676C256.415 0.461333 256.471 0.302666 256.583 0.199999C256.695 0.0879997 256.849 0.0319998 257.045 0.0319998C257.25 0.0319998 257.409 0.0879997 257.521 0.199999C257.633 0.302666 257.689 0.461333 257.689 0.676V4.666H257.507C257.703 4.134 258.02 3.73267 258.459 3.462C258.907 3.19133 259.416 3.056 259.985 3.056C260.536 3.056 260.988 3.15867 261.343 3.364C261.698 3.56 261.964 3.85867 262.141 4.26C262.318 4.66133 262.407 5.16533 262.407 5.772V9.44C262.407 9.65467 262.351 9.818 262.239 9.93C262.136 10.042 261.982 10.098 261.777 10.098C261.572 10.098 261.413 10.042 261.301 9.93C261.189 9.818 261.133 9.65467 261.133 9.44V5.842C261.133 5.23533 261.016 4.792 260.783 4.512C260.55 4.232 260.176 4.092 259.663 4.092C259.066 4.092 258.585 4.27867 258.221 4.652C257.866 5.016 257.689 5.51067 257.689 6.136V9.44C257.689 9.87867 257.474 10.098 257.045 10.098ZM265.057 10.07C264.861 10.07 264.707 10.0093 264.595 9.888C264.483 9.76667 264.427 9.59867 264.427 9.384V3.798C264.427 3.574 264.483 3.406 264.595 3.294C264.707 3.17267 264.861 3.112 265.057 3.112C265.262 3.112 265.421 3.17267 265.533 3.294C265.645 3.406 265.701 3.574 265.701 3.798V9.384C265.701 9.59867 265.645 9.76667 265.533 9.888C265.43 10.0093 265.271 10.07 265.057 10.07ZM265.057 1.6C264.805 1.6 264.604 1.53467 264.455 1.404C264.315 1.264 264.245 1.082 264.245 0.857999C264.245 0.615333 264.315 0.433333 264.455 0.312C264.604 0.181333 264.805 0.116 265.057 0.116C265.327 0.116 265.528 0.181333 265.659 0.312C265.799 0.433333 265.869 0.615333 265.869 0.857999C265.869 1.082 265.799 1.264 265.659 1.404C265.528 1.53467 265.327 1.6 265.057 1.6ZM270.101 10.126C269.681 10.126 269.256 10.0793 268.827 9.986C268.407 9.88333 268.01 9.71067 267.637 9.468C267.534 9.40267 267.46 9.32333 267.413 9.23C267.376 9.12733 267.362 9.02933 267.371 8.936C267.39 8.83333 267.432 8.74467 267.497 8.67C267.562 8.59533 267.642 8.55333 267.735 8.544C267.838 8.52533 267.945 8.54867 268.057 8.614C268.421 8.81933 268.771 8.964 269.107 9.048C269.452 9.132 269.793 9.174 270.129 9.174C270.642 9.174 271.03 9.08067 271.291 8.894C271.552 8.70733 271.683 8.46 271.683 8.152C271.683 7.89067 271.594 7.69 271.417 7.55C271.249 7.40067 270.983 7.28867 270.619 7.214L269.317 6.948C268.738 6.81733 268.3 6.60267 268.001 6.304C267.712 5.996 267.567 5.604 267.567 5.128C267.567 4.708 267.679 4.344 267.903 4.036C268.136 3.71867 268.458 3.476 268.869 3.308C269.28 3.14 269.751 3.056 270.283 3.056C270.694 3.056 271.081 3.112 271.445 3.224C271.818 3.32667 272.154 3.48533 272.453 3.7C272.565 3.76533 272.635 3.84933 272.663 3.952C272.7 4.04533 272.705 4.14333 272.677 4.246C272.658 4.33933 272.616 4.41867 272.551 4.484C272.486 4.54933 272.402 4.59133 272.299 4.61C272.196 4.61933 272.084 4.59133 271.963 4.526C271.692 4.33933 271.412 4.20867 271.123 4.134C270.843 4.05 270.563 4.008 270.283 4.008C269.779 4.008 269.396 4.106 269.135 4.302C268.883 4.498 268.757 4.75467 268.757 5.072C268.757 5.31467 268.832 5.51533 268.981 5.674C269.14 5.83267 269.387 5.94933 269.723 6.024L271.025 6.29C271.632 6.42067 272.089 6.63067 272.397 6.92C272.705 7.2 272.859 7.58267 272.859 8.068C272.859 8.70267 272.607 9.20667 272.103 9.58C271.608 9.944 270.941 10.126 270.101 10.126ZM2.06525 31.098C1.86925 31.098 1.71525 31.042 1.60325 30.93C1.49125 30.818 1.43525 30.6547 1.43525 30.44V24.728C1.43525 24.5133 1.49125 24.3547 1.60325 24.252C1.71525 24.14 1.86925 24.084 2.06525 24.084C2.26125 24.084 2.41059 24.14 2.51325 24.252C2.62525 24.3547 2.68125 24.5133 2.68125 24.728V25.918L2.52725 25.666C2.70459 25.1527 2.98925 24.756 3.38125 24.476C3.78259 24.196 4.25859 24.056 4.80925 24.056C5.38792 24.056 5.85459 24.196 6.20925 24.476C6.56392 24.7467 6.80192 25.162 6.92325 25.722H6.72725C6.89525 25.2087 7.19392 24.8027 7.62325 24.504C8.06192 24.2053 8.57059 24.056 9.14925 24.056C9.66259 24.056 10.0826 24.1587 10.4093 24.364C10.7453 24.56 10.9973 24.8587 11.1653 25.26C11.3333 25.652 11.4173 26.156 11.4173 26.772V30.44C11.4173 30.6547 11.3613 30.818 11.2493 30.93C11.1373 31.042 10.9833 31.098 10.7873 31.098C10.5819 31.098 10.4233 31.042 10.3113 30.93C10.1993 30.818 10.1433 30.6547 10.1433 30.44V26.828C10.1433 26.2307 10.0406 25.792 9.83525 25.512C9.62992 25.232 9.28459 25.092 8.79925 25.092C8.26725 25.092 7.84259 25.2787 7.52525 25.652C7.21725 26.016 7.06325 26.52 7.06325 27.164V30.44C7.06325 30.6547 7.00725 30.818 6.89525 30.93C6.79259 31.042 6.63859 31.098 6.43325 31.098C6.22792 31.098 6.06925 31.042 5.95725 30.93C5.84525 30.818 5.78925 30.6547 5.78925 30.44V26.828C5.78925 26.2307 5.68659 25.792 5.48125 25.512C5.27592 25.232 4.93059 25.092 4.44525 25.092C3.91325 25.092 3.48859 25.2787 3.17125 25.652C2.86325 26.016 2.70925 26.52 2.70925 27.164V30.44C2.70925 30.8787 2.49459 31.098 2.06525 31.098ZM16.6158 31.126C15.8785 31.126 15.2438 30.986 14.7118 30.706C14.1892 30.4167 13.7832 30.0107 13.4938 29.488C13.2045 28.956 13.0598 28.3307 13.0598 27.612C13.0598 26.9027 13.1998 26.282 13.4798 25.75C13.7692 25.218 14.1612 24.8027 14.6558 24.504C15.1598 24.2053 15.7338 24.056 16.3778 24.056C16.8352 24.056 17.2458 24.1353 17.6098 24.294C17.9832 24.4433 18.3005 24.6627 18.5618 24.952C18.8232 25.2413 19.0192 25.596 19.1498 26.016C19.2898 26.4267 19.3598 26.8933 19.3598 27.416C19.3598 27.5653 19.3132 27.682 19.2198 27.766C19.1358 27.8407 19.0098 27.878 18.8418 27.878H14.0538V27.066H18.5198L18.2818 27.262C18.2818 26.7767 18.2072 26.366 18.0578 26.03C17.9178 25.6847 17.7078 25.4233 17.4278 25.246C17.1572 25.0687 16.8165 24.98 16.4058 24.98C15.9578 24.98 15.5752 25.0873 15.2578 25.302C14.9405 25.5073 14.6978 25.8013 14.5298 26.184C14.3618 26.5573 14.2778 26.9913 14.2778 27.486V27.57C14.2778 28.41 14.4785 29.0447 14.8798 29.474C15.2812 29.9033 15.8598 30.118 16.6158 30.118C16.9145 30.118 17.2178 30.0807 17.5258 30.006C17.8432 29.9313 18.1465 29.796 18.4358 29.6C18.5758 29.516 18.7018 29.4787 18.8138 29.488C18.9352 29.488 19.0332 29.5253 19.1078 29.6C19.1825 29.6653 19.2292 29.7493 19.2478 29.852C19.2665 29.9453 19.2525 30.048 19.2058 30.16C19.1592 30.272 19.0705 30.37 18.9398 30.454C18.6318 30.6687 18.2632 30.8367 17.8338 30.958C17.4138 31.07 17.0078 31.126 16.6158 31.126ZM23.2964 31.126C22.8764 31.126 22.4517 31.0793 22.0224 30.986C21.6024 30.8833 21.2057 30.7107 20.8324 30.468C20.7297 30.4027 20.655 30.3233 20.6084 30.23C20.571 30.1273 20.557 30.0293 20.5664 29.936C20.585 29.8333 20.627 29.7447 20.6924 29.67C20.7577 29.5953 20.837 29.5533 20.9304 29.544C21.033 29.5253 21.1404 29.5487 21.2524 29.614C21.6164 29.8193 21.9664 29.964 22.3024 30.048C22.6477 30.132 22.9884 30.174 23.3244 30.174C23.8377 30.174 24.225 30.0807 24.4864 29.894C24.7477 29.7073 24.8784 29.46 24.8784 29.152C24.8784 28.8907 24.7897 28.69 24.6124 28.55C24.4444 28.4007 24.1784 28.2887 23.8144 28.214L22.5124 27.948C21.9337 27.8173 21.495 27.6027 21.1964 27.304C20.907 26.996 20.7624 26.604 20.7624 26.128C20.7624 25.708 20.8744 25.344 21.0984 25.036C21.3317 24.7187 21.6537 24.476 22.0644 24.308C22.475 24.14 22.9464 24.056 23.4784 24.056C23.889 24.056 24.2764 24.112 24.6404 24.224C25.0137 24.3267 25.3497 24.4853 25.6484 24.7C25.7604 24.7653 25.8304 24.8493 25.8584 24.952C25.8957 25.0453 25.9004 25.1433 25.8724 25.246C25.8537 25.3393 25.8117 25.4187 25.7464 25.484C25.681 25.5493 25.597 25.5913 25.4944 25.61C25.3917 25.6193 25.2797 25.5913 25.1584 25.526C24.8877 25.3393 24.6077 25.2087 24.3184 25.134C24.0384 25.05 23.7584 25.008 23.4784 25.008C22.9744 25.008 22.5917 25.106 22.3304 25.302C22.0784 25.498 21.9524 25.7547 21.9524 26.072C21.9524 26.3147 22.027 26.5153 22.1764 26.674C22.335 26.8327 22.5824 26.9493 22.9184 27.024L24.2204 27.29C24.827 27.4207 25.2844 27.6307 25.5924 27.92C25.9004 28.2 26.0544 28.5827 26.0544 29.068C26.0544 29.7027 25.8024 30.2067 25.2984 30.58C24.8037 30.944 24.1364 31.126 23.2964 31.126ZM30.0639 31.126C29.6439 31.126 29.2193 31.0793 28.7899 30.986C28.3699 30.8833 27.9733 30.7107 27.5999 30.468C27.4973 30.4027 27.4226 30.3233 27.3759 30.23C27.3386 30.1273 27.3246 30.0293 27.3339 29.936C27.3526 29.8333 27.3946 29.7447 27.4599 29.67C27.5253 29.5953 27.6046 29.5533 27.6979 29.544C27.8006 29.5253 27.9079 29.5487 28.0199 29.614C28.3839 29.8193 28.7339 29.964 29.0699 30.048C29.4153 30.132 29.7559 30.174 30.0919 30.174C30.6053 30.174 30.9926 30.0807 31.2539 29.894C31.5153 29.7073 31.6459 29.46 31.6459 29.152C31.6459 28.8907 31.5573 28.69 31.3799 28.55C31.2119 28.4007 30.9459 28.2887 30.5819 28.214L29.2799 27.948C28.7013 27.8173 28.2626 27.6027 27.9639 27.304C27.6746 26.996 27.5299 26.604 27.5299 26.128C27.5299 25.708 27.6419 25.344 27.8659 25.036C28.0993 24.7187 28.4213 24.476 28.8319 24.308C29.2426 24.14 29.7139 24.056 30.2459 24.056C30.6566 24.056 31.0439 24.112 31.4079 24.224C31.7813 24.3267 32.1173 24.4853 32.4159 24.7C32.5279 24.7653 32.5979 24.8493 32.6259 24.952C32.6633 25.0453 32.6679 25.1433 32.6399 25.246C32.6213 25.3393 32.5793 25.4187 32.5139 25.484C32.4486 25.5493 32.3646 25.5913 32.2619 25.61C32.1593 25.6193 32.0473 25.5913 31.9259 25.526C31.6553 25.3393 31.3753 25.2087 31.0859 25.134C30.8059 25.05 30.5259 25.008 30.2459 25.008C29.7419 25.008 29.3593 25.106 29.0979 25.302C28.8459 25.498 28.7199 25.7547 28.7199 26.072C28.7199 26.3147 28.7946 26.5153 28.9439 26.674C29.1026 26.8327 29.3499 26.9493 29.6859 27.024L30.9879 27.29C31.5946 27.4207 32.0519 27.6307 32.3599 27.92C32.6679 28.2 32.8219 28.5827 32.8219 29.068C32.8219 29.7027 32.5699 30.2067 32.0659 30.58C31.5713 30.944 30.9039 31.126 30.0639 31.126ZM36.6495 31.126C36.1829 31.126 35.7582 31.0327 35.3755 30.846C35.0022 30.6593 34.7082 30.4073 34.4935 30.09C34.2882 29.7727 34.1855 29.418 34.1855 29.026C34.1855 28.522 34.3115 28.1253 34.5635 27.836C34.8155 27.5467 35.2402 27.3413 35.8375 27.22C36.4349 27.0893 37.2375 27.024 38.2455 27.024H38.9035V27.836H38.2735C37.5549 27.836 36.9855 27.8687 36.5655 27.934C36.1549 27.9993 35.8655 28.116 35.6975 28.284C35.5295 28.4427 35.4455 28.6667 35.4455 28.956C35.4455 29.32 35.5715 29.6187 35.8235 29.852C36.0849 30.0853 36.4395 30.202 36.8875 30.202C37.2422 30.202 37.5549 30.118 37.8255 29.95C38.0962 29.7727 38.3109 29.5393 38.4695 29.25C38.6282 28.9513 38.7075 28.6107 38.7075 28.228V26.618C38.7075 26.0673 38.5955 25.6707 38.3715 25.428C38.1475 25.176 37.7695 25.05 37.2375 25.05C36.9295 25.05 36.6122 25.092 36.2855 25.176C35.9589 25.26 35.6182 25.3907 35.2635 25.568C35.1235 25.6333 35.0022 25.6567 34.8995 25.638C34.7969 25.61 34.7129 25.554 34.6475 25.47C34.5915 25.3767 34.5589 25.2787 34.5495 25.176C34.5495 25.064 34.5729 24.9567 34.6195 24.854C34.6755 24.7513 34.7689 24.6767 34.8995 24.63C35.3102 24.4247 35.7162 24.28 36.1175 24.196C36.5282 24.1027 36.9109 24.056 37.2655 24.056C37.8722 24.056 38.3715 24.154 38.7635 24.35C39.1555 24.5367 39.4495 24.8307 39.6455 25.232C39.8415 25.624 39.9395 26.128 39.9395 26.744V30.44C39.9395 30.6547 39.8882 30.818 39.7855 30.93C39.6829 31.042 39.5335 31.098 39.3375 31.098C39.1509 31.098 39.0015 31.042 38.8895 30.93C38.7869 30.818 38.7355 30.6547 38.7355 30.44V29.446H38.8615C38.7869 29.7913 38.6469 30.09 38.4415 30.342C38.2362 30.594 37.9795 30.79 37.6715 30.93C37.3729 31.0607 37.0322 31.126 36.6495 31.126ZM45.0104 33.646C44.5064 33.646 44.0164 33.59 43.5404 33.478C43.0737 33.366 42.649 33.1933 42.2664 32.96C42.145 32.8853 42.061 32.7967 42.0144 32.694C41.977 32.6007 41.9677 32.5027 41.9864 32.4C42.0144 32.2973 42.061 32.204 42.1264 32.12C42.201 32.0453 42.285 31.994 42.3784 31.966C42.481 31.9473 42.5837 31.9707 42.6864 32.036C43.097 32.2693 43.489 32.428 43.8624 32.512C44.2357 32.596 44.5904 32.638 44.9264 32.638C45.589 32.638 46.0837 32.4653 46.4104 32.12C46.7464 31.784 46.9144 31.2893 46.9144 30.636V29.124H47.0404C46.9097 29.6467 46.6157 30.062 46.1584 30.37C45.7104 30.678 45.1877 30.832 44.5904 30.832C43.9744 30.832 43.4377 30.692 42.9804 30.412C42.523 30.1227 42.1684 29.726 41.9164 29.222C41.6644 28.7087 41.5384 28.116 41.5384 27.444C41.5384 26.9307 41.6084 26.4687 41.7484 26.058C41.8977 25.638 42.103 25.2833 42.3644 24.994C42.635 24.6953 42.957 24.4667 43.3304 24.308C43.7037 24.14 44.1237 24.056 44.5904 24.056C45.197 24.056 45.7244 24.21 46.1724 24.518C46.6204 24.826 46.9097 25.2413 47.0404 25.764L46.8864 25.96V24.728C46.8864 24.5133 46.9424 24.3547 47.0544 24.252C47.1664 24.14 47.325 24.084 47.5304 24.084C47.7264 24.084 47.8804 24.14 47.9924 24.252C48.1044 24.3547 48.1604 24.5133 48.1604 24.728V30.468C48.1604 31.5227 47.8897 32.316 47.3484 32.848C46.8164 33.38 46.037 33.646 45.0104 33.646ZM44.8704 29.824C45.2904 29.824 45.6497 29.7307 45.9484 29.544C46.2564 29.348 46.4897 29.0727 46.6484 28.718C46.8164 28.354 46.9004 27.9293 46.9004 27.444C46.9004 26.7067 46.7184 26.128 46.3544 25.708C45.9904 25.2787 45.4957 25.064 44.8704 25.064C44.4504 25.064 44.0864 25.162 43.7784 25.358C43.4797 25.5447 43.2464 25.8153 43.0784 26.17C42.9104 26.5247 42.8264 26.9493 42.8264 27.444C42.8264 28.172 43.0084 28.7507 43.3724 29.18C43.7457 29.6093 44.245 29.824 44.8704 29.824ZM53.3522 31.126C52.6148 31.126 51.9802 30.986 51.4482 30.706C50.9255 30.4167 50.5195 30.0107 50.2302 29.488C49.9408 28.956 49.7962 28.3307 49.7962 27.612C49.7962 26.9027 49.9362 26.282 50.2162 25.75C50.5055 25.218 50.8975 24.8027 51.3922 24.504C51.8962 24.2053 52.4702 24.056 53.1142 24.056C53.5715 24.056 53.9822 24.1353 54.3462 24.294C54.7195 24.4433 55.0368 24.6627 55.2982 24.952C55.5595 25.2413 55.7555 25.596 55.8862 26.016C56.0262 26.4267 56.0962 26.8933 56.0962 27.416C56.0962 27.5653 56.0495 27.682 55.9562 27.766C55.8722 27.8407 55.7462 27.878 55.5782 27.878H50.7902V27.066H55.2562L55.0182 27.262C55.0182 26.7767 54.9435 26.366 54.7942 26.03C54.6542 25.6847 54.4442 25.4233 54.1642 25.246C53.8935 25.0687 53.5528 24.98 53.1422 24.98C52.6942 24.98 52.3115 25.0873 51.9942 25.302C51.6768 25.5073 51.4342 25.8013 51.2662 26.184C51.0982 26.5573 51.0142 26.9913 51.0142 27.486V27.57C51.0142 28.41 51.2148 29.0447 51.6162 29.474C52.0175 29.9033 52.5962 30.118 53.3522 30.118C53.6508 30.118 53.9542 30.0807 54.2622 30.006C54.5795 29.9313 54.8828 29.796 55.1722 29.6C55.3122 29.516 55.4382 29.4787 55.5502 29.488C55.6715 29.488 55.7695 29.5253 55.8442 29.6C55.9188 29.6653 55.9655 29.7493 55.9842 29.852C56.0028 29.9453 55.9888 30.048 55.9422 30.16C55.8955 30.272 55.8068 30.37 55.6762 30.454C55.3682 30.6687 54.9995 30.8367 54.5702 30.958C54.1502 31.07 53.7442 31.126 53.3522 31.126ZM58.2967 31.056C58.054 31.056 57.8534 30.9767 57.6947 30.818C57.536 30.6593 57.4567 30.4587 57.4567 30.216C57.4567 29.9733 57.536 29.7773 57.6947 29.628C57.8534 29.4787 58.054 29.404 58.2967 29.404C58.558 29.404 58.7587 29.4787 58.8987 29.628C59.048 29.7773 59.1227 29.9733 59.1227 30.216C59.1227 30.4587 59.048 30.6593 58.8987 30.818C58.7587 30.9767 58.558 31.056 58.2967 31.056ZM65.4107 31.098C65.2053 31.098 65.0467 31.042 64.9347 30.93C64.8227 30.8087 64.7667 30.6407 64.7667 30.426V21.704C64.7667 21.48 64.8227 21.312 64.9347 21.2C65.0467 21.088 65.2053 21.032 65.4107 21.032C65.6253 21.032 65.7887 21.088 65.9007 21.2C66.0127 21.312 66.0687 21.48 66.0687 21.704V30.426C66.0687 30.6407 66.0127 30.8087 65.9007 30.93C65.798 31.042 65.6347 31.098 65.4107 31.098ZM69.2987 31.098C69.0934 31.098 68.9347 31.042 68.8227 30.93C68.7107 30.818 68.6547 30.6547 68.6547 30.44V25.162H67.8147C67.6467 25.162 67.5161 25.12 67.4227 25.036C67.3294 24.9427 67.2827 24.8213 67.2827 24.672C67.2827 24.5133 67.3294 24.392 67.4227 24.308C67.5161 24.224 67.6467 24.182 67.8147 24.182H69.0047L68.6547 24.518V24C68.6547 23.0947 68.8741 22.4087 69.3127 21.942C69.7607 21.466 70.4141 21.1907 71.2727 21.116L71.7067 21.088C71.8467 21.0693 71.9587 21.0927 72.0427 21.158C72.1267 21.214 72.1827 21.2887 72.2107 21.382C72.2387 21.4753 72.2387 21.5733 72.2107 21.676C72.1921 21.7693 72.1501 21.8533 72.0847 21.928C72.0194 22.0027 71.9354 22.0447 71.8327 22.054L71.5247 22.068C70.9647 22.1147 70.5587 22.2827 70.3067 22.572C70.0547 22.852 69.9287 23.272 69.9287 23.832V24.392L69.7467 24.182H71.3567C71.5341 24.182 71.6694 24.224 71.7627 24.308C71.8561 24.392 71.9027 24.5133 71.9027 24.672C71.9027 24.8213 71.8561 24.9427 71.7627 25.036C71.6694 25.12 71.5341 25.162 71.3567 25.162H69.9287V30.44C69.9287 30.8787 69.7187 31.098 69.2987 31.098ZM78.2389 33.618C78.0896 33.618 77.9636 33.576 77.8609 33.492C77.7676 33.4173 77.7116 33.31 77.6929 33.17C77.6836 33.0393 77.7116 32.8993 77.7769 32.75L78.7289 30.594V31.126L76.0829 24.966C76.0176 24.8073 75.9943 24.6627 76.0129 24.532C76.0316 24.4013 76.0923 24.294 76.1949 24.21C76.3069 24.126 76.4563 24.084 76.6429 24.084C76.8016 24.084 76.9276 24.1213 77.0209 24.196C77.1143 24.2707 77.2029 24.4013 77.2869 24.588L79.4849 30.006H79.0929L81.3329 24.588C81.4076 24.4013 81.4963 24.2707 81.5989 24.196C81.7016 24.1213 81.8416 24.084 82.0189 24.084C82.1776 24.084 82.2989 24.126 82.3829 24.21C82.4763 24.294 82.5323 24.4013 82.5509 24.532C82.5696 24.6627 82.5416 24.8027 82.4669 24.952L78.9389 33.114C78.8456 33.31 78.7476 33.4407 78.6449 33.506C78.5516 33.5807 78.4163 33.618 78.2389 33.618ZM86.692 31.126C86.02 31.126 85.4366 30.9813 84.942 30.692C84.4473 30.4027 84.0646 29.992 83.794 29.46C83.5233 28.928 83.388 28.3027 83.388 27.584C83.388 27.0427 83.4626 26.5573 83.612 26.128C83.7706 25.6893 83.9946 25.316 84.284 25.008C84.5733 24.7 84.9186 24.4667 85.32 24.308C85.7306 24.14 86.188 24.056 86.692 24.056C87.364 24.056 87.9473 24.2007 88.442 24.49C88.9366 24.7793 89.3193 25.19 89.59 25.722C89.8606 26.2447 89.996 26.8653 89.996 27.584C89.996 28.1253 89.9166 28.6153 89.758 29.054C89.6086 29.4927 89.3893 29.866 89.1 30.174C88.8106 30.482 88.4606 30.72 88.05 30.888C87.6486 31.0467 87.196 31.126 86.692 31.126ZM86.692 30.118C87.1026 30.118 87.4573 30.02 87.756 29.824C88.064 29.628 88.2973 29.3433 88.456 28.97C88.624 28.5967 88.708 28.1347 88.708 27.584C88.708 26.7627 88.526 26.1373 88.162 25.708C87.798 25.2787 87.308 25.064 86.692 25.064C86.2906 25.064 85.936 25.162 85.628 25.358C85.3293 25.5447 85.096 25.8247 84.928 26.198C84.76 26.5713 84.676 27.0333 84.676 27.584C84.676 28.4053 84.858 29.0353 85.222 29.474C85.5953 29.9033 86.0853 30.118 86.692 30.118ZM94.064 31.126C93.5133 31.126 93.0513 31.0233 92.678 30.818C92.314 30.6127 92.0433 30.3093 91.866 29.908C91.6886 29.5067 91.6 29.0027 91.6 28.396V24.728C91.6 24.5133 91.6513 24.3547 91.754 24.252C91.866 24.14 92.0246 24.084 92.23 24.084C92.4353 24.084 92.594 24.14 92.706 24.252C92.818 24.3547 92.874 24.5133 92.874 24.728V28.396C92.874 28.9747 92.9906 29.404 93.224 29.684C93.4573 29.9547 93.826 30.09 94.33 30.09C94.89 30.09 95.3426 29.9033 95.688 29.53C96.0426 29.1567 96.22 28.662 96.22 28.046V24.728C96.22 24.5133 96.2713 24.3547 96.374 24.252C96.486 24.14 96.6446 24.084 96.85 24.084C97.0553 24.084 97.214 24.14 97.326 24.252C97.438 24.3547 97.494 24.5133 97.494 24.728V30.44C97.494 30.8787 97.2886 31.098 96.878 31.098C96.6726 31.098 96.514 31.042 96.402 30.93C96.2993 30.818 96.248 30.6547 96.248 30.44V29.222L96.43 29.46C96.2433 30.0013 95.94 30.4167 95.52 30.706C95.1093 30.986 94.624 31.126 94.064 31.126ZM105.798 31.126C105.201 31.126 104.674 30.986 104.216 30.706C103.768 30.4167 103.418 30.006 103.166 29.474C102.914 28.9327 102.788 28.3027 102.788 27.584C102.788 26.856 102.91 26.2307 103.152 25.708C103.404 25.176 103.754 24.77 104.202 24.49C104.66 24.2007 105.192 24.056 105.798 24.056C106.405 24.056 106.928 24.21 107.366 24.518C107.805 24.8167 108.099 25.218 108.248 25.722H108.094V21.676C108.094 21.4613 108.146 21.3027 108.248 21.2C108.36 21.088 108.519 21.032 108.724 21.032C108.93 21.032 109.088 21.088 109.2 21.2C109.312 21.3027 109.368 21.4613 109.368 21.676V30.44C109.368 30.6547 109.312 30.818 109.2 30.93C109.088 31.042 108.93 31.098 108.724 31.098C108.528 31.098 108.374 31.042 108.262 30.93C108.15 30.818 108.094 30.6547 108.094 30.44V29.166L108.248 29.418C108.108 29.9407 107.814 30.356 107.366 30.664C106.928 30.972 106.405 31.126 105.798 31.126ZM106.092 30.118C106.503 30.118 106.858 30.02 107.156 29.824C107.464 29.628 107.698 29.3433 107.856 28.97C108.024 28.5967 108.108 28.1347 108.108 27.584C108.108 26.7627 107.926 26.1373 107.562 25.708C107.198 25.2787 106.708 25.064 106.092 25.064C105.691 25.064 105.336 25.162 105.028 25.358C104.73 25.5447 104.496 25.8247 104.328 26.198C104.16 26.5713 104.076 27.0333 104.076 27.584C104.076 28.4053 104.258 29.0353 104.622 29.474C104.996 29.9033 105.486 30.118 106.092 30.118ZM114.309 31.126C113.637 31.126 113.054 30.9813 112.559 30.692C112.064 30.4027 111.682 29.992 111.411 29.46C111.14 28.928 111.005 28.3027 111.005 27.584C111.005 27.0427 111.08 26.5573 111.229 26.128C111.388 25.6893 111.612 25.316 111.901 25.008C112.19 24.7 112.536 24.4667 112.937 24.308C113.348 24.14 113.805 24.056 114.309 24.056C114.981 24.056 115.564 24.2007 116.059 24.49C116.554 24.7793 116.936 25.19 117.207 25.722C117.478 26.2447 117.613 26.8653 117.613 27.584C117.613 28.1253 117.534 28.6153 117.375 29.054C117.226 29.4927 117.006 29.866 116.717 30.174C116.428 30.482 116.078 30.72 115.667 30.888C115.266 31.0467 114.813 31.126 114.309 31.126ZM114.309 30.118C114.72 30.118 115.074 30.02 115.373 29.824C115.681 29.628 115.914 29.3433 116.073 28.97C116.241 28.5967 116.325 28.1347 116.325 27.584C116.325 26.7627 116.143 26.1373 115.779 25.708C115.415 25.2787 114.925 25.064 114.309 25.064C113.908 25.064 113.553 25.162 113.245 25.358C112.946 25.5447 112.713 25.8247 112.545 26.198C112.377 26.5713 112.293 27.0333 112.293 27.584C112.293 28.4053 112.475 29.0353 112.839 29.474C113.212 29.9033 113.702 30.118 114.309 30.118ZM119.875 31.098C119.679 31.098 119.525 31.042 119.413 30.93C119.301 30.818 119.245 30.6547 119.245 30.44V24.728C119.245 24.5133 119.301 24.3547 119.413 24.252C119.525 24.14 119.679 24.084 119.875 24.084C120.071 24.084 120.22 24.14 120.323 24.252C120.435 24.3547 120.491 24.5133 120.491 24.728V25.876L120.337 25.666C120.533 25.134 120.85 24.7327 121.289 24.462C121.737 24.1913 122.246 24.056 122.815 24.056C123.366 24.056 123.818 24.154 124.173 24.35C124.528 24.546 124.794 24.8447 124.971 25.246C125.148 25.6473 125.237 26.156 125.237 26.772V30.44C125.237 30.6547 125.181 30.818 125.069 30.93C124.966 31.042 124.812 31.098 124.607 31.098C124.402 31.098 124.243 31.042 124.131 30.93C124.019 30.818 123.963 30.6547 123.963 30.44V26.842C123.963 26.2353 123.846 25.792 123.613 25.512C123.38 25.232 123.006 25.092 122.493 25.092C121.896 25.092 121.415 25.2787 121.051 25.652C120.696 26.016 120.519 26.5107 120.519 27.136V30.44C120.519 30.8787 120.304 31.098 119.875 31.098ZM127.831 25.148C127.71 25.148 127.602 25.106 127.509 25.022C127.425 24.9287 127.374 24.8073 127.355 24.658L127.131 21.788C127.112 21.5733 127.168 21.396 127.299 21.256C127.439 21.1067 127.612 21.032 127.817 21.032C127.957 21.032 128.078 21.0647 128.181 21.13C128.293 21.1953 128.377 21.284 128.433 21.396C128.498 21.508 128.522 21.6387 128.503 21.788L128.293 24.658C128.284 24.8073 128.232 24.9287 128.139 25.022C128.055 25.106 127.952 25.148 127.831 25.148ZM133.243 31.126C132.692 31.126 132.23 31.028 131.857 30.832C131.493 30.636 131.218 30.3513 131.031 29.978C130.854 29.6047 130.765 29.1473 130.765 28.606V25.162H129.869C129.701 25.162 129.57 25.12 129.477 25.036C129.384 24.9427 129.337 24.8213 129.337 24.672C129.337 24.5133 129.384 24.392 129.477 24.308C129.57 24.224 129.701 24.182 129.869 24.182H130.765V22.656C130.765 22.4413 130.821 22.2827 130.933 22.18C131.045 22.068 131.204 22.012 131.409 22.012C131.614 22.012 131.768 22.068 131.871 22.18C131.983 22.2827 132.039 22.4413 132.039 22.656V24.182H133.733C133.91 24.182 134.046 24.224 134.139 24.308C134.232 24.392 134.279 24.5133 134.279 24.672C134.279 24.8213 134.232 24.9427 134.139 25.036C134.046 25.12 133.91 25.162 133.733 25.162H132.039V28.494C132.039 29.0073 132.146 29.3947 132.361 29.656C132.576 29.9173 132.93 30.048 133.425 30.048C133.602 30.048 133.752 30.034 133.873 30.006C133.994 29.9687 134.102 29.95 134.195 29.95C134.279 29.9407 134.349 29.9687 134.405 30.034C134.47 30.0993 134.503 30.2207 134.503 30.398C134.503 30.5287 134.48 30.65 134.433 30.762C134.396 30.8647 134.316 30.9347 134.195 30.972C134.083 31.0093 133.934 31.042 133.747 31.07C133.56 31.1073 133.392 31.126 133.243 31.126ZM142.149 33.646C141.645 33.646 141.155 33.59 140.679 33.478C140.212 33.366 139.788 33.1933 139.405 32.96C139.284 32.8853 139.2 32.7967 139.153 32.694C139.116 32.6007 139.106 32.5027 139.125 32.4C139.153 32.2973 139.2 32.204 139.265 32.12C139.34 32.0453 139.424 31.994 139.517 31.966C139.62 31.9473 139.722 31.9707 139.825 32.036C140.236 32.2693 140.628 32.428 141.001 32.512C141.374 32.596 141.729 32.638 142.065 32.638C142.728 32.638 143.222 32.4653 143.549 32.12C143.885 31.784 144.053 31.2893 144.053 30.636V29.124H144.179C144.048 29.6467 143.754 30.062 143.297 30.37C142.849 30.678 142.326 30.832 141.729 30.832C141.113 30.832 140.576 30.692 140.119 30.412C139.662 30.1227 139.307 29.726 139.055 29.222C138.803 28.7087 138.677 28.116 138.677 27.444C138.677 26.9307 138.747 26.4687 138.887 26.058C139.036 25.638 139.242 25.2833 139.503 24.994C139.774 24.6953 140.096 24.4667 140.469 24.308C140.842 24.14 141.262 24.056 141.729 24.056C142.336 24.056 142.863 24.21 143.311 24.518C143.759 24.826 144.048 25.2413 144.179 25.764L144.025 25.96V24.728C144.025 24.5133 144.081 24.3547 144.193 24.252C144.305 24.14 144.464 24.084 144.669 24.084C144.865 24.084 145.019 24.14 145.131 24.252C145.243 24.3547 145.299 24.5133 145.299 24.728V30.468C145.299 31.5227 145.028 32.316 144.487 32.848C143.955 33.38 143.176 33.646 142.149 33.646ZM142.009 29.824C142.429 29.824 142.788 29.7307 143.087 29.544C143.395 29.348 143.628 29.0727 143.787 28.718C143.955 28.354 144.039 27.9293 144.039 27.444C144.039 26.7067 143.857 26.128 143.493 25.708C143.129 25.2787 142.634 25.064 142.009 25.064C141.589 25.064 141.225 25.162 140.917 25.358C140.618 25.5447 140.385 25.8153 140.217 26.17C140.049 26.5247 139.965 26.9493 139.965 27.444C139.965 28.172 140.147 28.7507 140.511 29.18C140.884 29.6093 141.384 29.824 142.009 29.824ZM150.491 31.126C149.754 31.126 149.119 30.986 148.587 30.706C148.064 30.4167 147.658 30.0107 147.369 29.488C147.08 28.956 146.935 28.3307 146.935 27.612C146.935 26.9027 147.075 26.282 147.355 25.75C147.644 25.218 148.036 24.8027 148.531 24.504C149.035 24.2053 149.609 24.056 150.253 24.056C150.71 24.056 151.121 24.1353 151.485 24.294C151.858 24.4433 152.176 24.6627 152.437 24.952C152.698 25.2413 152.894 25.596 153.025 26.016C153.165 26.4267 153.235 26.8933 153.235 27.416C153.235 27.5653 153.188 27.682 153.095 27.766C153.011 27.8407 152.885 27.878 152.717 27.878H147.929V27.066H152.395L152.157 27.262C152.157 26.7767 152.082 26.366 151.933 26.03C151.793 25.6847 151.583 25.4233 151.303 25.246C151.032 25.0687 150.692 24.98 150.281 24.98C149.833 24.98 149.45 25.0873 149.133 25.302C148.816 25.5073 148.573 25.8013 148.405 26.184C148.237 26.5573 148.153 26.9913 148.153 27.486V27.57C148.153 28.41 148.354 29.0447 148.755 29.474C149.156 29.9033 149.735 30.118 150.491 30.118C150.79 30.118 151.093 30.0807 151.401 30.006C151.718 29.9313 152.022 29.796 152.311 29.6C152.451 29.516 152.577 29.4787 152.689 29.488C152.81 29.488 152.908 29.5253 152.983 29.6C153.058 29.6653 153.104 29.7493 153.123 29.852C153.142 29.9453 153.128 30.048 153.081 30.16C153.034 30.272 152.946 30.37 152.815 30.454C152.507 30.6687 152.138 30.8367 151.709 30.958C151.289 31.07 150.883 31.126 150.491 31.126ZM157.634 31.126C157.083 31.126 156.621 31.028 156.248 30.832C155.884 30.636 155.608 30.3513 155.422 29.978C155.244 29.6047 155.156 29.1473 155.156 28.606V25.162H154.26C154.092 25.162 153.961 25.12 153.868 25.036C153.774 24.9427 153.728 24.8213 153.728 24.672C153.728 24.5133 153.774 24.392 153.868 24.308C153.961 24.224 154.092 24.182 154.26 24.182H155.156V22.656C155.156 22.4413 155.212 22.2827 155.324 22.18C155.436 22.068 155.594 22.012 155.8 22.012C156.005 22.012 156.159 22.068 156.262 22.18C156.374 22.2827 156.43 22.4413 156.43 22.656V24.182H158.124C158.301 24.182 158.436 24.224 158.53 24.308C158.623 24.392 158.67 24.5133 158.67 24.672C158.67 24.8213 158.623 24.9427 158.53 25.036C158.436 25.12 158.301 25.162 158.124 25.162H156.43V28.494C156.43 29.0073 156.537 29.3947 156.752 29.656C156.966 29.9173 157.321 30.048 157.816 30.048C157.993 30.048 158.142 30.034 158.264 30.006C158.385 29.9687 158.492 29.95 158.586 29.95C158.67 29.9407 158.74 29.9687 158.796 30.034C158.861 30.0993 158.894 30.2207 158.894 30.398C158.894 30.5287 158.87 30.65 158.824 30.762C158.786 30.8647 158.707 30.9347 158.586 30.972C158.474 31.0093 158.324 31.042 158.138 31.07C157.951 31.1073 157.783 31.126 157.634 31.126ZM165.644 31.126C165.177 31.126 164.752 31.0327 164.37 30.846C163.996 30.6593 163.702 30.4073 163.488 30.09C163.282 29.7727 163.18 29.418 163.18 29.026C163.18 28.522 163.306 28.1253 163.558 27.836C163.81 27.5467 164.234 27.3413 164.832 27.22C165.429 27.0893 166.232 27.024 167.24 27.024H167.898V27.836H167.268C166.549 27.836 165.98 27.8687 165.56 27.934C165.149 27.9993 164.86 28.116 164.692 28.284C164.524 28.4427 164.44 28.6667 164.44 28.956C164.44 29.32 164.566 29.6187 164.818 29.852C165.079 30.0853 165.434 30.202 165.882 30.202C166.236 30.202 166.549 30.118 166.82 29.95C167.09 29.7727 167.305 29.5393 167.464 29.25C167.622 28.9513 167.702 28.6107 167.702 28.228V26.618C167.702 26.0673 167.59 25.6707 167.366 25.428C167.142 25.176 166.764 25.05 166.232 25.05C165.924 25.05 165.606 25.092 165.28 25.176C164.953 25.26 164.612 25.3907 164.258 25.568C164.118 25.6333 163.996 25.6567 163.894 25.638C163.791 25.61 163.707 25.554 163.642 25.47C163.586 25.3767 163.553 25.2787 163.544 25.176C163.544 25.064 163.567 24.9567 163.614 24.854C163.67 24.7513 163.763 24.6767 163.894 24.63C164.304 24.4247 164.71 24.28 165.112 24.196C165.522 24.1027 165.905 24.056 166.26 24.056C166.866 24.056 167.366 24.154 167.758 24.35C168.15 24.5367 168.444 24.8307 168.64 25.232C168.836 25.624 168.934 26.128 168.934 26.744V30.44C168.934 30.6547 168.882 30.818 168.78 30.93C168.677 31.042 168.528 31.098 168.332 31.098C168.145 31.098 167.996 31.042 167.884 30.93C167.781 30.818 167.73 30.6547 167.73 30.44V29.446H167.856C167.781 29.7913 167.641 30.09 167.436 30.342C167.23 30.594 166.974 30.79 166.666 30.93C166.367 31.0607 166.026 31.126 165.644 31.126ZM175.247 31.098C175.051 31.098 174.897 31.042 174.785 30.93C174.673 30.818 174.617 30.6547 174.617 30.44V24.728C174.617 24.5133 174.673 24.3547 174.785 24.252C174.897 24.14 175.051 24.084 175.247 24.084C175.443 24.084 175.592 24.14 175.695 24.252C175.807 24.3547 175.863 24.5133 175.863 24.728V25.918L175.709 25.666C175.886 25.1527 176.171 24.756 176.563 24.476C176.964 24.196 177.44 24.056 177.991 24.056C178.57 24.056 179.036 24.196 179.391 24.476C179.746 24.7467 179.984 25.162 180.105 25.722H179.909C180.077 25.2087 180.376 24.8027 180.805 24.504C181.244 24.2053 181.752 24.056 182.331 24.056C182.844 24.056 183.264 24.1587 183.591 24.364C183.927 24.56 184.179 24.8587 184.347 25.26C184.515 25.652 184.599 26.156 184.599 26.772V30.44C184.599 30.6547 184.543 30.818 184.431 30.93C184.319 31.042 184.165 31.098 183.969 31.098C183.764 31.098 183.605 31.042 183.493 30.93C183.381 30.818 183.325 30.6547 183.325 30.44V26.828C183.325 26.2307 183.222 25.792 183.017 25.512C182.812 25.232 182.466 25.092 181.981 25.092C181.449 25.092 181.024 25.2787 180.707 25.652C180.399 26.016 180.245 26.52 180.245 27.164V30.44C180.245 30.6547 180.189 30.818 180.077 30.93C179.974 31.042 179.82 31.098 179.615 31.098C179.41 31.098 179.251 31.042 179.139 30.93C179.027 30.818 178.971 30.6547 178.971 30.44V26.828C178.971 26.2307 178.868 25.792 178.663 25.512C178.458 25.232 178.112 25.092 177.627 25.092C177.095 25.092 176.67 25.2787 176.353 25.652C176.045 26.016 175.891 26.52 175.891 27.164V30.44C175.891 30.8787 175.676 31.098 175.247 31.098ZM189.797 31.126C189.06 31.126 188.425 30.986 187.893 30.706C187.371 30.4167 186.965 30.0107 186.675 29.488C186.386 28.956 186.241 28.3307 186.241 27.612C186.241 26.9027 186.381 26.282 186.661 25.75C186.951 25.218 187.343 24.8027 187.837 24.504C188.341 24.2053 188.915 24.056 189.559 24.056C190.017 24.056 190.427 24.1353 190.791 24.294C191.165 24.4433 191.482 24.6627 191.743 24.952C192.005 25.2413 192.201 25.596 192.331 26.016C192.471 26.4267 192.541 26.8933 192.541 27.416C192.541 27.5653 192.495 27.682 192.401 27.766C192.317 27.8407 192.191 27.878 192.023 27.878H187.235V27.066H191.701L191.463 27.262C191.463 26.7767 191.389 26.366 191.239 26.03C191.099 25.6847 190.889 25.4233 190.609 25.246C190.339 25.0687 189.998 24.98 189.587 24.98C189.139 24.98 188.757 25.0873 188.439 25.302C188.122 25.5073 187.879 25.8013 187.711 26.184C187.543 26.5573 187.459 26.9913 187.459 27.486V27.57C187.459 28.41 187.66 29.0447 188.061 29.474C188.463 29.9033 189.041 30.118 189.797 30.118C190.096 30.118 190.399 30.0807 190.707 30.006C191.025 29.9313 191.328 29.796 191.617 29.6C191.757 29.516 191.883 29.4787 191.995 29.488C192.117 29.488 192.215 29.5253 192.289 29.6C192.364 29.6653 192.411 29.7493 192.429 29.852C192.448 29.9453 192.434 30.048 192.387 30.16C192.341 30.272 192.252 30.37 192.121 30.454C191.813 30.6687 191.445 30.8367 191.015 30.958C190.595 31.07 190.189 31.126 189.797 31.126ZM196.478 31.126C196.058 31.126 195.633 31.0793 195.204 30.986C194.784 30.8833 194.387 30.7107 194.014 30.468C193.911 30.4027 193.837 30.3233 193.79 30.23C193.753 30.1273 193.739 30.0293 193.748 29.936C193.767 29.8333 193.809 29.7447 193.874 29.67C193.939 29.5953 194.019 29.5533 194.112 29.544C194.215 29.5253 194.322 29.5487 194.434 29.614C194.798 29.8193 195.148 29.964 195.484 30.048C195.829 30.132 196.17 30.174 196.506 30.174C197.019 30.174 197.407 30.0807 197.668 29.894C197.929 29.7073 198.06 29.46 198.06 29.152C198.06 28.8907 197.971 28.69 197.794 28.55C197.626 28.4007 197.36 28.2887 196.996 28.214L195.694 27.948C195.115 27.8173 194.677 27.6027 194.378 27.304C194.089 26.996 193.944 26.604 193.944 26.128C193.944 25.708 194.056 25.344 194.28 25.036C194.513 24.7187 194.835 24.476 195.246 24.308C195.657 24.14 196.128 24.056 196.66 24.056C197.071 24.056 197.458 24.112 197.822 24.224C198.195 24.3267 198.531 24.4853 198.83 24.7C198.942 24.7653 199.012 24.8493 199.04 24.952C199.077 25.0453 199.082 25.1433 199.054 25.246C199.035 25.3393 198.993 25.4187 198.928 25.484C198.863 25.5493 198.779 25.5913 198.676 25.61C198.573 25.6193 198.461 25.5913 198.34 25.526C198.069 25.3393 197.789 25.2087 197.5 25.134C197.22 25.05 196.94 25.008 196.66 25.008C196.156 25.008 195.773 25.106 195.512 25.302C195.26 25.498 195.134 25.7547 195.134 26.072C195.134 26.3147 195.209 26.5153 195.358 26.674C195.517 26.8327 195.764 26.9493 196.1 27.024L197.402 27.29C198.009 27.4207 198.466 27.6307 198.774 27.92C199.082 28.2 199.236 28.5827 199.236 29.068C199.236 29.7027 198.984 30.2067 198.48 30.58C197.985 30.944 197.318 31.126 196.478 31.126ZM203.246 31.126C202.826 31.126 202.401 31.0793 201.972 30.986C201.552 30.8833 201.155 30.7107 200.782 30.468C200.679 30.4027 200.604 30.3233 200.558 30.23C200.52 30.1273 200.506 30.0293 200.516 29.936C200.534 29.8333 200.576 29.7447 200.642 29.67C200.707 29.5953 200.786 29.5533 200.88 29.544C200.982 29.5253 201.09 29.5487 201.202 29.614C201.566 29.8193 201.916 29.964 202.252 30.048C202.597 30.132 202.938 30.174 203.274 30.174C203.787 30.174 204.174 30.0807 204.436 29.894C204.697 29.7073 204.828 29.46 204.828 29.152C204.828 28.8907 204.739 28.69 204.562 28.55C204.394 28.4007 204.128 28.2887 203.764 28.214L202.462 27.948C201.883 27.8173 201.444 27.6027 201.146 27.304C200.856 26.996 200.712 26.604 200.712 26.128C200.712 25.708 200.824 25.344 201.048 25.036C201.281 24.7187 201.603 24.476 202.014 24.308C202.424 24.14 202.896 24.056 203.428 24.056C203.838 24.056 204.226 24.112 204.59 24.224C204.963 24.3267 205.299 24.4853 205.598 24.7C205.71 24.7653 205.78 24.8493 205.808 24.952C205.845 25.0453 205.85 25.1433 205.822 25.246C205.803 25.3393 205.761 25.4187 205.696 25.484C205.63 25.5493 205.546 25.5913 205.444 25.61C205.341 25.6193 205.229 25.5913 205.108 25.526C204.837 25.3393 204.557 25.2087 204.268 25.134C203.988 25.05 203.708 25.008 203.428 25.008C202.924 25.008 202.541 25.106 202.28 25.302C202.028 25.498 201.902 25.7547 201.902 26.072C201.902 26.3147 201.976 26.5153 202.126 26.674C202.284 26.8327 202.532 26.9493 202.868 27.024L204.17 27.29C204.776 27.4207 205.234 27.6307 205.542 27.92C205.85 28.2 206.004 28.5827 206.004 29.068C206.004 29.7027 205.752 30.2067 205.248 30.58C204.753 30.944 204.086 31.126 203.246 31.126ZM209.831 31.126C209.364 31.126 208.94 31.0327 208.557 30.846C208.184 30.6593 207.89 30.4073 207.675 30.09C207.47 29.7727 207.367 29.418 207.367 29.026C207.367 28.522 207.493 28.1253 207.745 27.836C207.997 27.5467 208.422 27.3413 209.019 27.22C209.616 27.0893 210.419 27.024 211.427 27.024H212.085V27.836H211.455C210.736 27.836 210.167 27.8687 209.747 27.934C209.336 27.9993 209.047 28.116 208.879 28.284C208.711 28.4427 208.627 28.6667 208.627 28.956C208.627 29.32 208.753 29.6187 209.005 29.852C209.266 30.0853 209.621 30.202 210.069 30.202C210.424 30.202 210.736 30.118 211.007 29.95C211.278 29.7727 211.492 29.5393 211.651 29.25C211.81 28.9513 211.889 28.6107 211.889 28.228V26.618C211.889 26.0673 211.777 25.6707 211.553 25.428C211.329 25.176 210.951 25.05 210.419 25.05C210.111 25.05 209.794 25.092 209.467 25.176C209.14 25.26 208.8 25.3907 208.445 25.568C208.305 25.6333 208.184 25.6567 208.081 25.638C207.978 25.61 207.894 25.554 207.829 25.47C207.773 25.3767 207.74 25.2787 207.731 25.176C207.731 25.064 207.754 24.9567 207.801 24.854C207.857 24.7513 207.95 24.6767 208.081 24.63C208.492 24.4247 208.898 24.28 209.299 24.196C209.71 24.1027 210.092 24.056 210.447 24.056C211.054 24.056 211.553 24.154 211.945 24.35C212.337 24.5367 212.631 24.8307 212.827 25.232C213.023 25.624 213.121 26.128 213.121 26.744V30.44C213.121 30.6547 213.07 30.818 212.967 30.93C212.864 31.042 212.715 31.098 212.519 31.098C212.332 31.098 212.183 31.042 212.071 30.93C211.968 30.818 211.917 30.6547 211.917 30.44V29.446H212.043C211.968 29.7913 211.828 30.09 211.623 30.342C211.418 30.594 211.161 30.79 210.853 30.93C210.554 31.0607 210.214 31.126 209.831 31.126ZM218.192 33.646C217.688 33.646 217.198 33.59 216.722 33.478C216.255 33.366 215.831 33.1933 215.448 32.96C215.327 32.8853 215.243 32.7967 215.196 32.694C215.159 32.6007 215.149 32.5027 215.168 32.4C215.196 32.2973 215.243 32.204 215.308 32.12C215.383 32.0453 215.467 31.994 215.56 31.966C215.663 31.9473 215.765 31.9707 215.868 32.036C216.279 32.2693 216.671 32.428 217.044 32.512C217.417 32.596 217.772 32.638 218.108 32.638C218.771 32.638 219.265 32.4653 219.592 32.12C219.928 31.784 220.096 31.2893 220.096 30.636V29.124H220.222C220.091 29.6467 219.797 30.062 219.34 30.37C218.892 30.678 218.369 30.832 217.772 30.832C217.156 30.832 216.619 30.692 216.162 30.412C215.705 30.1227 215.35 29.726 215.098 29.222C214.846 28.7087 214.72 28.116 214.72 27.444C214.72 26.9307 214.79 26.4687 214.93 26.058C215.079 25.638 215.285 25.2833 215.546 24.994C215.817 24.6953 216.139 24.4667 216.512 24.308C216.885 24.14 217.305 24.056 217.772 24.056C218.379 24.056 218.906 24.21 219.354 24.518C219.802 24.826 220.091 25.2413 220.222 25.764L220.068 25.96V24.728C220.068 24.5133 220.124 24.3547 220.236 24.252C220.348 24.14 220.507 24.084 220.712 24.084C220.908 24.084 221.062 24.14 221.174 24.252C221.286 24.3547 221.342 24.5133 221.342 24.728V30.468C221.342 31.5227 221.071 32.316 220.53 32.848C219.998 33.38 219.219 33.646 218.192 33.646ZM218.052 29.824C218.472 29.824 218.831 29.7307 219.13 29.544C219.438 29.348 219.671 29.0727 219.83 28.718C219.998 28.354 220.082 27.9293 220.082 27.444C220.082 26.7067 219.9 26.128 219.536 25.708C219.172 25.2787 218.677 25.064 218.052 25.064C217.632 25.064 217.268 25.162 216.96 25.358C216.661 25.5447 216.428 25.8153 216.26 26.17C216.092 26.5247 216.008 26.9493 216.008 27.444C216.008 28.172 216.19 28.7507 216.554 29.18C216.927 29.6093 217.427 29.824 218.052 29.824ZM226.534 31.126C225.796 31.126 225.162 30.986 224.63 30.706C224.107 30.4167 223.701 30.0107 223.412 29.488C223.122 28.956 222.978 28.3307 222.978 27.612C222.978 26.9027 223.118 26.282 223.398 25.75C223.687 25.218 224.079 24.8027 224.574 24.504C225.078 24.2053 225.652 24.056 226.296 24.056C226.753 24.056 227.164 24.1353 227.528 24.294C227.901 24.4433 228.218 24.6627 228.48 24.952C228.741 25.2413 228.937 25.596 229.068 26.016C229.208 26.4267 229.278 26.8933 229.278 27.416C229.278 27.5653 229.231 27.682 229.138 27.766C229.054 27.8407 228.928 27.878 228.76 27.878H223.972V27.066H228.438L228.2 27.262C228.2 26.7767 228.125 26.366 227.976 26.03C227.836 25.6847 227.626 25.4233 227.346 25.246C227.075 25.0687 226.734 24.98 226.324 24.98C225.876 24.98 225.493 25.0873 225.176 25.302C224.858 25.5073 224.616 25.8013 224.448 26.184C224.28 26.5573 224.196 26.9913 224.196 27.486V27.57C224.196 28.41 224.396 29.0447 224.798 29.474C225.199 29.9033 225.778 30.118 226.534 30.118C226.832 30.118 227.136 30.0807 227.444 30.006C227.761 29.9313 228.064 29.796 228.354 29.6C228.494 29.516 228.62 29.4787 228.732 29.488C228.853 29.488 228.951 29.5253 229.026 29.6C229.1 29.6653 229.147 29.7493 229.166 29.852C229.184 29.9453 229.17 30.048 229.124 30.16C229.077 30.272 228.988 30.37 228.858 30.454C228.55 30.6687 228.181 30.8367 227.752 30.958C227.332 31.07 226.926 31.126 226.534 31.126ZM231.478 31.056C231.236 31.056 231.035 30.9767 230.876 30.818C230.718 30.6593 230.638 30.4587 230.638 30.216C230.638 29.9733 230.718 29.7773 230.876 29.628C231.035 29.4787 231.236 29.404 231.478 29.404C231.74 29.404 231.94 29.4787 232.08 29.628C232.23 29.7773 232.304 29.9733 232.304 30.216C232.304 30.4587 232.23 30.6593 232.08 30.818C231.94 30.9767 231.74 31.056 231.478 31.056Z" fill="#898989"/>
</svg>
