<svg width="263" height="13" viewBox="0 0 263 13" fill="none" xmlns="http://www.w3.org/2000/svg">
<path d="M4.424 10.098C4.23733 10.098 4.088 10.0513 3.976 9.958C3.864 9.86467 3.77067 9.71533 3.696 9.51L0.644 0.802C0.56 0.587333 0.569333 0.405333 0.672 0.255999C0.784 0.106666 0.966 0.0319998 1.218 0.0319998C1.39533 0.0319998 1.53533 0.0739998 1.638 0.158C1.74067 0.242 1.82467 0.382 1.89 0.577999L4.704 8.838H4.2L7.084 0.606C7.15867 0.41 7.24733 0.265333 7.35 0.172C7.45267 0.0786664 7.588 0.0319998 7.756 0.0319998C7.93333 0.0319998 8.06867 0.0786664 8.162 0.172C8.26467 0.265333 8.34867 0.414666 8.414 0.62L11.242 8.838H10.794L13.636 0.577999C13.7013 0.391333 13.7853 0.256 13.888 0.172C13.9907 0.0786664 14.1353 0.0319998 14.322 0.0319998C14.5367 0.0319998 14.6953 0.106666 14.798 0.255999C14.9007 0.405333 14.9147 0.587333 14.84 0.802L11.76 9.524C11.6947 9.72 11.606 9.86467 11.494 9.958C11.382 10.0513 11.2327 10.098 11.046 10.098C10.85 10.098 10.696 10.0513 10.584 9.958C10.472 9.86467 10.3787 9.71533 10.304 9.51L7.574 1.67H7.882L5.138 9.524C5.06333 9.72 4.97 9.86467 4.858 9.958C4.75533 10.0513 4.61067 10.098 4.424 10.098ZM18.7872 10.126C18.0499 10.126 17.4152 9.986 16.8832 9.706C16.3606 9.41667 15.9546 9.01067 15.6652 8.488C15.3759 7.956 15.2312 7.33067 15.2312 6.612C15.2312 5.90267 15.3712 5.282 15.6512 4.75C15.9406 4.218 16.3326 3.80267 16.8272 3.504C17.3312 3.20533 17.9052 3.056 18.5492 3.056C19.0066 3.056 19.4172 3.13533 19.7812 3.294C20.1546 3.44333 20.4719 3.66267 20.7332 3.952C20.9946 4.24133 21.1906 4.596 21.3212 5.016C21.4612 5.42667 21.5312 5.89333 21.5312 6.416C21.5312 6.56533 21.4846 6.682 21.3912 6.766C21.3072 6.84067 21.1812 6.878 21.0132 6.878H16.2252V6.066H20.6912L20.4532 6.262C20.4532 5.77667 20.3786 5.366 20.2292 5.03C20.0892 4.68467 19.8792 4.42333 19.5992 4.246C19.3286 4.06867 18.9879 3.98 18.5772 3.98C18.1292 3.98 17.7466 4.08733 17.4292 4.302C17.1119 4.50733 16.8692 4.80133 16.7012 5.184C16.5332 5.55733 16.4492 5.99133 16.4492 6.486V6.57C16.4492 7.41 16.6499 8.04467 17.0512 8.474C17.4526 8.90333 18.0312 9.118 18.7872 9.118C19.0859 9.118 19.3892 9.08067 19.6972 9.006C20.0146 8.93133 20.3179 8.796 20.6072 8.6C20.7472 8.516 20.8732 8.47867 20.9852 8.488C21.1066 8.488 21.2046 8.52533 21.2792 8.6C21.3539 8.66533 21.4006 8.74933 21.4192 8.852C21.4379 8.94533 21.4239 9.048 21.3772 9.16C21.3306 9.272 21.2419 9.37 21.1112 9.454C20.8032 9.66867 20.4346 9.83667 20.0052 9.958C19.5852 10.07 19.1792 10.126 18.7872 10.126ZM29.5941 10.126C29.0435 10.126 28.5815 10.028 28.2081 9.832C27.8441 9.636 27.5688 9.35133 27.3821 8.978C27.2048 8.60467 27.1161 8.14733 27.1161 7.606V4.162H26.2201C26.0521 4.162 25.9215 4.12 25.8281 4.036C25.7348 3.94267 25.6881 3.82133 25.6881 3.672C25.6881 3.51333 25.7348 3.392 25.8281 3.308C25.9215 3.224 26.0521 3.182 26.2201 3.182H27.1161V1.656C27.1161 1.44133 27.1721 1.28267 27.2841 1.18C27.3961 1.068 27.5548 1.012 27.7601 1.012C27.9655 1.012 28.1195 1.068 28.2221 1.18C28.3341 1.28267 28.3901 1.44133 28.3901 1.656V3.182H30.0841C30.2615 3.182 30.3968 3.224 30.4901 3.308C30.5835 3.392 30.6301 3.51333 30.6301 3.672C30.6301 3.82133 30.5835 3.94267 30.4901 4.036C30.3968 4.12 30.2615 4.162 30.0841 4.162H28.3901V7.494C28.3901 8.00733 28.4975 8.39467 28.7121 8.656C28.9268 8.91733 29.2815 9.048 29.7761 9.048C29.9535 9.048 30.1028 9.034 30.2241 9.006C30.3455 8.96867 30.4528 8.95 30.5461 8.95C30.6301 8.94067 30.7001 8.96867 30.7561 9.034C30.8215 9.09933 30.8541 9.22067 30.8541 9.398C30.8541 9.52867 30.8308 9.65 30.7841 9.762C30.7468 9.86467 30.6675 9.93467 30.5461 9.972C30.4341 10.0093 30.2848 10.042 30.0981 10.07C29.9115 10.1073 29.7435 10.126 29.5941 10.126ZM34.8654 10.126C34.128 10.126 33.4934 9.986 32.9614 9.706C32.4387 9.41667 32.0327 9.01067 31.7434 8.488C31.454 7.956 31.3094 7.33067 31.3094 6.612C31.3094 5.90267 31.4494 5.282 31.7294 4.75C32.0187 4.218 32.4107 3.80267 32.9054 3.504C33.4094 3.20533 33.9834 3.056 34.6274 3.056C35.0847 3.056 35.4954 3.13533 35.8594 3.294C36.2327 3.44333 36.55 3.66267 36.8114 3.952C37.0727 4.24133 37.2687 4.596 37.3994 5.016C37.5394 5.42667 37.6094 5.89333 37.6094 6.416C37.6094 6.56533 37.5627 6.682 37.4694 6.766C37.3854 6.84067 37.2594 6.878 37.0914 6.878H32.3034V6.066H36.7694L36.5314 6.262C36.5314 5.77667 36.4567 5.366 36.3074 5.03C36.1674 4.68467 35.9574 4.42333 35.6774 4.246C35.4067 4.06867 35.066 3.98 34.6554 3.98C34.2074 3.98 33.8247 4.08733 33.5074 4.302C33.19 4.50733 32.9474 4.80133 32.7794 5.184C32.6114 5.55733 32.5274 5.99133 32.5274 6.486V6.57C32.5274 7.41 32.728 8.04467 33.1294 8.474C33.5307 8.90333 34.1094 9.118 34.8654 9.118C35.164 9.118 35.4674 9.08067 35.7754 9.006C36.0927 8.93133 36.396 8.796 36.6854 8.6C36.8254 8.516 36.9514 8.47867 37.0634 8.488C37.1847 8.488 37.2827 8.52533 37.3574 8.6C37.432 8.66533 37.4787 8.74933 37.4974 8.852C37.516 8.94533 37.502 9.048 37.4554 9.16C37.4087 9.272 37.32 9.37 37.1894 9.454C36.8814 9.66867 36.5127 9.83667 36.0834 9.958C35.6634 10.07 35.2574 10.126 34.8654 10.126ZM39.2792 10.084C39.1392 10.084 39.0179 10.042 38.9152 9.958C38.8125 9.874 38.7565 9.762 38.7472 9.622C38.7472 9.482 38.8079 9.33267 38.9292 9.174L41.3512 6.164V6.794L39.0832 3.994C38.9525 3.83533 38.8919 3.686 38.9012 3.546C38.9105 3.406 38.9619 3.294 39.0552 3.21C39.1579 3.126 39.2839 3.084 39.4332 3.084C39.5919 3.084 39.7225 3.112 39.8252 3.168C39.9372 3.224 40.0399 3.31267 40.1332 3.434L42.0652 5.884H41.6172L43.5492 3.434C43.6425 3.31267 43.7405 3.224 43.8432 3.168C43.9552 3.112 44.0859 3.084 44.2352 3.084C44.3845 3.084 44.5059 3.126 44.5992 3.21C44.7019 3.294 44.7532 3.406 44.7532 3.546C44.7625 3.686 44.7065 3.83533 44.5852 3.994L42.3312 6.766V6.206L44.7392 9.174C44.8699 9.32333 44.9305 9.468 44.9212 9.608C44.9119 9.748 44.8559 9.86467 44.7532 9.958C44.6599 10.042 44.5385 10.084 44.3892 10.084C44.2305 10.084 44.0952 10.056 43.9832 10C43.8805 9.944 43.7825 9.85533 43.6892 9.734L41.6032 7.116H42.0372L39.9792 9.734C39.8859 9.846 39.7832 9.93467 39.6712 10C39.5685 10.056 39.4379 10.084 39.2792 10.084ZM49.391 10.126C48.8403 10.126 48.3783 10.028 48.005 9.832C47.641 9.636 47.3657 9.35133 47.179 8.978C47.0017 8.60467 46.913 8.14733 46.913 7.606V4.162H46.017C45.849 4.162 45.7183 4.12 45.625 4.036C45.5317 3.94267 45.485 3.82133 45.485 3.672C45.485 3.51333 45.5317 3.392 45.625 3.308C45.7183 3.224 45.849 3.182 46.017 3.182H46.913V1.656C46.913 1.44133 46.969 1.28267 47.081 1.18C47.193 1.068 47.3517 1.012 47.557 1.012C47.7623 1.012 47.9163 1.068 48.019 1.18C48.131 1.28267 48.187 1.44133 48.187 1.656V3.182H49.881C50.0583 3.182 50.1937 3.224 50.287 3.308C50.3803 3.392 50.427 3.51333 50.427 3.672C50.427 3.82133 50.3803 3.94267 50.287 4.036C50.1937 4.12 50.0583 4.162 49.881 4.162H48.187V7.494C48.187 8.00733 48.2943 8.39467 48.509 8.656C48.7237 8.91733 49.0783 9.048 49.573 9.048C49.7503 9.048 49.8997 9.034 50.021 9.006C50.1423 8.96867 50.2497 8.95 50.343 8.95C50.427 8.94067 50.497 8.96867 50.553 9.034C50.6183 9.09933 50.651 9.22067 50.651 9.398C50.651 9.52867 50.6277 9.65 50.581 9.762C50.5437 9.86467 50.4643 9.93467 50.343 9.972C50.231 10.0093 50.0817 10.042 49.895 10.07C49.7083 10.1073 49.5403 10.126 49.391 10.126ZM54.6622 10.126C53.9249 10.126 53.2902 9.986 52.7582 9.706C52.2356 9.41667 51.8296 9.01067 51.5402 8.488C51.2509 7.956 51.1062 7.33067 51.1062 6.612C51.1062 5.90267 51.2462 5.282 51.5262 4.75C51.8156 4.218 52.2076 3.80267 52.7022 3.504C53.2062 3.20533 53.7802 3.056 54.4242 3.056C54.8816 3.056 55.2922 3.13533 55.6562 3.294C56.0296 3.44333 56.3469 3.66267 56.6082 3.952C56.8696 4.24133 57.0656 4.596 57.1962 5.016C57.3362 5.42667 57.4062 5.89333 57.4062 6.416C57.4062 6.56533 57.3596 6.682 57.2662 6.766C57.1822 6.84067 57.0562 6.878 56.8882 6.878H52.1002V6.066H56.5662L56.3282 6.262C56.3282 5.77667 56.2536 5.366 56.1042 5.03C55.9642 4.68467 55.7542 4.42333 55.4742 4.246C55.2036 4.06867 54.8629 3.98 54.4522 3.98C54.0042 3.98 53.6216 4.08733 53.3042 4.302C52.9869 4.50733 52.7442 4.80133 52.5762 5.184C52.4082 5.55733 52.3242 5.99133 52.3242 6.486V6.57C52.3242 7.41 52.5249 8.04467 52.9262 8.474C53.3276 8.90333 53.9062 9.118 54.6622 9.118C54.9609 9.118 55.2642 9.08067 55.5722 9.006C55.8896 8.93133 56.1929 8.796 56.4822 8.6C56.6222 8.516 56.7482 8.47867 56.8602 8.488C56.9816 8.488 57.0796 8.52533 57.1542 8.6C57.2289 8.66533 57.2756 8.74933 57.2942 8.852C57.3129 8.94533 57.2989 9.048 57.2522 9.16C57.2056 9.272 57.1169 9.37 56.9862 9.454C56.6782 9.66867 56.3096 9.83667 55.8802 9.958C55.4602 10.07 55.0542 10.126 54.6622 10.126ZM61.5948 10.126C60.9974 10.126 60.4701 9.986 60.0128 9.706C59.5648 9.41667 59.2148 9.006 58.9628 8.474C58.7108 7.93267 58.5848 7.30267 58.5848 6.584C58.5848 5.856 58.7061 5.23067 58.9488 4.708C59.2008 4.176 59.5508 3.77 59.9988 3.49C60.4561 3.20067 60.9881 3.056 61.5948 3.056C62.2014 3.056 62.7241 3.21 63.1628 3.518C63.6014 3.81667 63.8954 4.218 64.0448 4.722H63.8908V0.676C63.8908 0.461333 63.9421 0.302666 64.0448 0.199999C64.1568 0.0879997 64.3154 0.0319998 64.5208 0.0319998C64.7261 0.0319998 64.8848 0.0879997 64.9968 0.199999C65.1088 0.302666 65.1647 0.461333 65.1647 0.676V9.44C65.1647 9.65467 65.1088 9.818 64.9968 9.93C64.8848 10.042 64.7261 10.098 64.5208 10.098C64.3248 10.098 64.1708 10.042 64.0588 9.93C63.9468 9.818 63.8908 9.65467 63.8908 9.44V8.166L64.0448 8.418C63.9048 8.94067 63.6108 9.356 63.1628 9.664C62.7241 9.972 62.2014 10.126 61.5948 10.126ZM61.8888 9.118C62.2994 9.118 62.6541 9.02 62.9528 8.824C63.2608 8.628 63.4941 8.34333 63.6528 7.97C63.8208 7.59667 63.9048 7.13467 63.9048 6.584C63.9048 5.76267 63.7228 5.13733 63.3588 4.708C62.9948 4.27867 62.5048 4.064 61.8888 4.064C61.4874 4.064 61.1328 4.162 60.8248 4.358C60.5261 4.54467 60.2928 4.82467 60.1248 5.198C59.9568 5.57133 59.8728 6.03333 59.8728 6.584C59.8728 7.40533 60.0548 8.03533 60.4188 8.474C60.7921 8.90333 61.2821 9.118 61.8888 9.118ZM72.4259 12.618C72.2766 12.618 72.1506 12.576 72.0479 12.492C71.9546 12.4173 71.8986 12.31 71.8799 12.17C71.8706 12.0393 71.8986 11.8993 71.9639 11.75L72.9159 9.594V10.126L70.2699 3.966C70.2046 3.80733 70.1813 3.66267 70.1999 3.532C70.2186 3.40133 70.2793 3.294 70.3819 3.21C70.4939 3.126 70.6433 3.084 70.8299 3.084C70.9886 3.084 71.1146 3.12133 71.2079 3.196C71.3013 3.27067 71.3899 3.40133 71.4739 3.588L73.6719 9.006H73.2799L75.5199 3.588C75.5946 3.40133 75.6833 3.27067 75.7859 3.196C75.8886 3.12133 76.0286 3.084 76.2059 3.084C76.3646 3.084 76.4859 3.126 76.5699 3.21C76.6633 3.294 76.7193 3.40133 76.7379 3.532C76.7566 3.66267 76.7286 3.80267 76.6539 3.952L73.1259 12.114C73.0326 12.31 72.9346 12.4407 72.8319 12.506C72.7386 12.5807 72.6033 12.618 72.4259 12.618ZM80.879 10.126C80.207 10.126 79.6237 9.98133 79.129 9.692C78.6343 9.40267 78.2517 8.992 77.981 8.46C77.7103 7.928 77.575 7.30267 77.575 6.584C77.575 6.04267 77.6497 5.55733 77.799 5.128C77.9577 4.68933 78.1817 4.316 78.471 4.008C78.7603 3.7 79.1057 3.46667 79.507 3.308C79.9177 3.14 80.375 3.056 80.879 3.056C81.551 3.056 82.1343 3.20067 82.629 3.49C83.1237 3.77933 83.5063 4.19 83.777 4.722C84.0477 5.24467 84.183 5.86533 84.183 6.584C84.183 7.12533 84.1037 7.61533 83.945 8.054C83.7957 8.49267 83.5763 8.866 83.287 9.174C82.9977 9.482 82.6477 9.72 82.237 9.888C81.8357 10.0467 81.383 10.126 80.879 10.126ZM80.879 9.118C81.2897 9.118 81.6443 9.02 81.943 8.824C82.251 8.628 82.4843 8.34333 82.643 7.97C82.811 7.59667 82.895 7.13467 82.895 6.584C82.895 5.76267 82.713 5.13733 82.349 4.708C81.985 4.27867 81.495 4.064 80.879 4.064C80.4777 4.064 80.123 4.162 79.815 4.358C79.5163 4.54467 79.283 4.82467 79.115 5.198C78.947 5.57133 78.863 6.03333 78.863 6.584C78.863 7.40533 79.045 8.03533 79.409 8.474C79.7823 8.90333 80.2723 9.118 80.879 9.118ZM88.251 10.126C87.7003 10.126 87.2383 10.0233 86.865 9.818C86.501 9.61267 86.2303 9.30933 86.053 8.908C85.8756 8.50667 85.787 8.00267 85.787 7.396V3.728C85.787 3.51333 85.8383 3.35467 85.941 3.252C86.053 3.14 86.2116 3.084 86.417 3.084C86.6223 3.084 86.781 3.14 86.893 3.252C87.005 3.35467 87.061 3.51333 87.061 3.728V7.396C87.061 7.97467 87.1776 8.404 87.411 8.684C87.6443 8.95467 88.013 9.09 88.517 9.09C89.077 9.09 89.5296 8.90333 89.875 8.53C90.2296 8.15667 90.407 7.662 90.407 7.046V3.728C90.407 3.51333 90.4583 3.35467 90.561 3.252C90.673 3.14 90.8316 3.084 91.037 3.084C91.2423 3.084 91.401 3.14 91.513 3.252C91.625 3.35467 91.681 3.51333 91.681 3.728V9.44C91.681 9.87867 91.4756 10.098 91.065 10.098C90.8596 10.098 90.701 10.042 90.589 9.93C90.4863 9.818 90.435 9.65467 90.435 9.44V8.222L90.617 8.46C90.4303 9.00133 90.127 9.41667 89.707 9.706C89.2963 9.986 88.811 10.126 88.251 10.126ZM99.5514 10.126C99.0847 10.126 98.66 10.0327 98.2774 9.846C97.904 9.65933 97.61 9.40733 97.3954 9.09C97.19 8.77267 97.0874 8.418 97.0874 8.026C97.0874 7.522 97.2134 7.12533 97.4654 6.836C97.7174 6.54667 98.142 6.34133 98.7394 6.22C99.3367 6.08933 100.139 6.024 101.147 6.024H101.805V6.836H101.175C100.457 6.836 99.8874 6.86867 99.4674 6.934C99.0567 6.99933 98.7674 7.116 98.5994 7.284C98.4314 7.44267 98.3474 7.66667 98.3474 7.956C98.3474 8.32 98.4734 8.61867 98.7254 8.852C98.9867 9.08533 99.3414 9.202 99.7894 9.202C100.144 9.202 100.457 9.118 100.727 8.95C100.998 8.77267 101.213 8.53933 101.371 8.25C101.53 7.95133 101.609 7.61067 101.609 7.228V5.618C101.609 5.06733 101.497 4.67067 101.273 4.428C101.049 4.176 100.671 4.05 100.139 4.05C99.8314 4.05 99.514 4.092 99.1874 4.176C98.8607 4.26 98.52 4.39067 98.1654 4.568C98.0254 4.63333 97.904 4.65667 97.8014 4.638C97.6987 4.61 97.6147 4.554 97.5494 4.47C97.4934 4.37667 97.4607 4.27867 97.4514 4.176C97.4514 4.064 97.4747 3.95667 97.5214 3.854C97.5774 3.75133 97.6707 3.67667 97.8014 3.63C98.212 3.42467 98.618 3.28 99.0194 3.196C99.43 3.10267 99.8127 3.056 100.167 3.056C100.774 3.056 101.273 3.154 101.665 3.35C102.057 3.53667 102.351 3.83067 102.547 4.232C102.743 4.624 102.841 5.128 102.841 5.744V9.44C102.841 9.65467 102.79 9.818 102.687 9.93C102.585 10.042 102.435 10.098 102.239 10.098C102.053 10.098 101.903 10.042 101.791 9.93C101.689 9.818 101.637 9.65467 101.637 9.44V8.446H101.763C101.689 8.79133 101.549 9.09 101.343 9.342C101.138 9.594 100.881 9.79 100.573 9.93C100.275 10.0607 99.934 10.126 99.5514 10.126ZM111.451 10.126C110.76 10.126 110.163 9.98133 109.659 9.692C109.155 9.39333 108.767 8.978 108.497 8.446C108.226 7.90467 108.091 7.27 108.091 6.542C108.091 6.00067 108.165 5.51533 108.315 5.086C108.473 4.65667 108.697 4.29267 108.987 3.994C109.276 3.686 109.626 3.45267 110.037 3.294C110.457 3.13533 110.928 3.056 111.451 3.056C111.777 3.056 112.123 3.10733 112.487 3.21C112.851 3.31267 113.187 3.48067 113.495 3.714C113.597 3.78867 113.663 3.87733 113.691 3.98C113.719 4.07333 113.719 4.17133 113.691 4.274C113.672 4.37667 113.625 4.46533 113.551 4.54C113.485 4.60533 113.397 4.64267 113.285 4.652C113.182 4.66133 113.07 4.62867 112.949 4.554C112.725 4.386 112.487 4.26467 112.235 4.19C111.992 4.11533 111.759 4.078 111.535 4.078C111.189 4.078 110.881 4.134 110.611 4.246C110.349 4.358 110.125 4.52133 109.939 4.736C109.761 4.94133 109.626 5.198 109.533 5.506C109.439 5.80467 109.393 6.15467 109.393 6.556C109.393 7.34933 109.579 7.97467 109.953 8.432C110.326 8.88 110.853 9.104 111.535 9.104C111.759 9.104 111.992 9.07133 112.235 9.006C112.477 8.93133 112.715 8.81 112.949 8.642C113.07 8.56733 113.182 8.53933 113.285 8.558C113.387 8.56733 113.471 8.60933 113.537 8.684C113.611 8.74933 113.658 8.83333 113.677 8.936C113.695 9.02933 113.686 9.12733 113.649 9.23C113.621 9.33267 113.555 9.41667 113.453 9.482C113.154 9.706 112.827 9.86933 112.473 9.972C112.118 10.0747 111.777 10.126 111.451 10.126ZM117.766 10.126C117.094 10.126 116.51 9.98133 116.016 9.692C115.521 9.40267 115.138 8.992 114.868 8.46C114.597 7.928 114.462 7.30267 114.462 6.584C114.462 6.04267 114.536 5.55733 114.686 5.128C114.844 4.68933 115.068 4.316 115.358 4.008C115.647 3.7 115.992 3.46667 116.394 3.308C116.804 3.14 117.262 3.056 117.766 3.056C118.438 3.056 119.021 3.20067 119.516 3.49C120.01 3.77933 120.393 4.19 120.664 4.722C120.934 5.24467 121.07 5.86533 121.07 6.584C121.07 7.12533 120.99 7.61533 120.832 8.054C120.682 8.49267 120.463 8.866 120.174 9.174C119.884 9.482 119.534 9.72 119.124 9.888C118.722 10.0467 118.27 10.126 117.766 10.126ZM117.766 9.118C118.176 9.118 118.531 9.02 118.83 8.824C119.138 8.628 119.371 8.34333 119.53 7.97C119.698 7.59667 119.782 7.13467 119.782 6.584C119.782 5.76267 119.6 5.13733 119.236 4.708C118.872 4.27867 118.382 4.064 117.766 4.064C117.364 4.064 117.01 4.162 116.702 4.358C116.403 4.54467 116.17 4.82467 116.002 5.198C115.834 5.57133 115.75 6.03333 115.75 6.584C115.75 7.40533 115.932 8.03533 116.296 8.474C116.669 8.90333 117.159 9.118 117.766 9.118ZM125.306 10.126C124.708 10.126 124.181 9.986 123.724 9.706C123.276 9.41667 122.926 9.006 122.674 8.474C122.422 7.93267 122.296 7.30267 122.296 6.584C122.296 5.856 122.417 5.23067 122.66 4.708C122.912 4.176 123.262 3.77 123.71 3.49C124.167 3.20067 124.699 3.056 125.306 3.056C125.912 3.056 126.435 3.21 126.874 3.518C127.312 3.81667 127.606 4.218 127.756 4.722H127.602V0.676C127.602 0.461333 127.653 0.302666 127.756 0.199999C127.868 0.0879997 128.026 0.0319998 128.232 0.0319998C128.437 0.0319998 128.596 0.0879997 128.708 0.199999C128.82 0.302666 128.876 0.461333 128.876 0.676V9.44C128.876 9.65467 128.82 9.818 128.708 9.93C128.596 10.042 128.437 10.098 128.232 10.098C128.036 10.098 127.882 10.042 127.77 9.93C127.658 9.818 127.602 9.65467 127.602 9.44V8.166L127.756 8.418C127.616 8.94067 127.322 9.356 126.874 9.664C126.435 9.972 125.912 10.126 125.306 10.126ZM125.6 9.118C126.01 9.118 126.365 9.02 126.664 8.824C126.972 8.628 127.205 8.34333 127.364 7.97C127.532 7.59667 127.616 7.13467 127.616 6.584C127.616 5.76267 127.434 5.13733 127.07 4.708C126.706 4.27867 126.216 4.064 125.6 4.064C125.198 4.064 124.844 4.162 124.536 4.358C124.237 4.54467 124.004 4.82467 123.836 5.198C123.668 5.57133 123.584 6.03333 123.584 6.584C123.584 7.40533 123.766 8.03533 124.13 8.474C124.503 8.90333 124.993 9.118 125.6 9.118ZM134.068 10.126C133.331 10.126 132.696 9.986 132.164 9.706C131.642 9.41667 131.236 9.01067 130.946 8.488C130.657 7.956 130.512 7.33067 130.512 6.612C130.512 5.90267 130.652 5.282 130.932 4.75C131.222 4.218 131.614 3.80267 132.108 3.504C132.612 3.20533 133.186 3.056 133.83 3.056C134.288 3.056 134.698 3.13533 135.062 3.294C135.436 3.44333 135.753 3.66267 136.014 3.952C136.276 4.24133 136.472 4.596 136.602 5.016C136.742 5.42667 136.812 5.89333 136.812 6.416C136.812 6.56533 136.766 6.682 136.672 6.766C136.588 6.84067 136.462 6.878 136.294 6.878H131.506V6.066H135.972L135.734 6.262C135.734 5.77667 135.66 5.366 135.51 5.03C135.37 4.68467 135.16 4.42333 134.88 4.246C134.61 4.06867 134.269 3.98 133.858 3.98C133.41 3.98 133.028 4.08733 132.71 4.302C132.393 4.50733 132.15 4.80133 131.982 5.184C131.814 5.55733 131.73 5.99133 131.73 6.486V6.57C131.73 7.41 131.931 8.04467 132.332 8.474C132.734 8.90333 133.312 9.118 134.068 9.118C134.367 9.118 134.67 9.08067 134.978 9.006C135.296 8.93133 135.599 8.796 135.888 8.6C136.028 8.516 136.154 8.47867 136.266 8.488C136.388 8.488 136.486 8.52533 136.56 8.6C136.635 8.66533 136.682 8.74933 136.7 8.852C136.719 8.94533 136.705 9.048 136.658 9.16C136.612 9.272 136.523 9.37 136.392 9.454C136.084 9.66867 135.716 9.83667 135.286 9.958C134.866 10.07 134.46 10.126 134.068 10.126ZM144.875 10.126C144.325 10.126 143.863 10.028 143.489 9.832C143.125 9.636 142.85 9.35133 142.663 8.978C142.486 8.60467 142.397 8.14733 142.397 7.606V4.162H141.501C141.333 4.162 141.203 4.12 141.109 4.036C141.016 3.94267 140.969 3.82133 140.969 3.672C140.969 3.51333 141.016 3.392 141.109 3.308C141.203 3.224 141.333 3.182 141.501 3.182H142.397V1.656C142.397 1.44133 142.453 1.28267 142.565 1.18C142.677 1.068 142.836 1.012 143.041 1.012C143.247 1.012 143.401 1.068 143.503 1.18C143.615 1.28267 143.671 1.44133 143.671 1.656V3.182H145.365C145.543 3.182 145.678 3.224 145.771 3.308C145.865 3.392 145.911 3.51333 145.911 3.672C145.911 3.82133 145.865 3.94267 145.771 4.036C145.678 4.12 145.543 4.162 145.365 4.162H143.671V7.494C143.671 8.00733 143.779 8.39467 143.993 8.656C144.208 8.91733 144.563 9.048 145.057 9.048C145.235 9.048 145.384 9.034 145.505 9.006C145.627 8.96867 145.734 8.95 145.827 8.95C145.911 8.94067 145.981 8.96867 146.037 9.034C146.103 9.09933 146.135 9.22067 146.135 9.398C146.135 9.52867 146.112 9.65 146.065 9.762C146.028 9.86467 145.949 9.93467 145.827 9.972C145.715 10.0093 145.566 10.042 145.379 10.07C145.193 10.1073 145.025 10.126 144.875 10.126ZM149.895 10.126C149.223 10.126 148.639 9.98133 148.145 9.692C147.65 9.40267 147.267 8.992 146.997 8.46C146.726 7.928 146.591 7.30267 146.591 6.584C146.591 6.04267 146.665 5.55733 146.815 5.128C146.973 4.68933 147.197 4.316 147.487 4.008C147.776 3.7 148.121 3.46667 148.523 3.308C148.933 3.14 149.391 3.056 149.895 3.056C150.567 3.056 151.15 3.20067 151.645 3.49C152.139 3.77933 152.522 4.19 152.793 4.722C153.063 5.24467 153.199 5.86533 153.199 6.584C153.199 7.12533 153.119 7.61533 152.961 8.054C152.811 8.49267 152.592 8.866 152.303 9.174C152.013 9.482 151.663 9.72 151.253 9.888C150.851 10.0467 150.399 10.126 149.895 10.126ZM149.895 9.118C150.305 9.118 150.66 9.02 150.959 8.824C151.267 8.628 151.5 8.34333 151.659 7.97C151.827 7.59667 151.911 7.13467 151.911 6.584C151.911 5.76267 151.729 5.13733 151.365 4.708C151.001 4.27867 150.511 4.064 149.895 4.064C149.493 4.064 149.139 4.162 148.831 4.358C148.532 4.54467 148.299 4.82467 148.131 5.198C147.963 5.57133 147.879 6.03333 147.879 6.584C147.879 7.40533 148.061 8.03533 148.425 8.474C148.798 8.90333 149.288 9.118 149.895 9.118ZM161.071 10.098C160.894 10.098 160.74 10.0513 160.609 9.958C160.478 9.86467 160.366 9.71533 160.273 9.51L157.893 3.966C157.828 3.80733 157.804 3.66267 157.823 3.532C157.842 3.40133 157.902 3.294 158.005 3.21C158.117 3.126 158.266 3.084 158.453 3.084C158.612 3.084 158.738 3.12133 158.831 3.196C158.924 3.27067 159.013 3.40133 159.097 3.588L161.295 9.006H160.903L163.157 3.588C163.232 3.40133 163.316 3.27067 163.409 3.196C163.512 3.12133 163.652 3.084 163.829 3.084C163.988 3.084 164.109 3.126 164.193 3.21C164.286 3.294 164.342 3.40133 164.361 3.532C164.38 3.66267 164.352 3.80267 164.277 3.952L161.883 9.51C161.799 9.71533 161.687 9.86467 161.547 9.958C161.416 10.0513 161.258 10.098 161.071 10.098ZM168.768 10.126C168.03 10.126 167.396 9.986 166.864 9.706C166.341 9.41667 165.935 9.01067 165.646 8.488C165.356 7.956 165.212 7.33067 165.212 6.612C165.212 5.90267 165.352 5.282 165.632 4.75C165.921 4.218 166.313 3.80267 166.808 3.504C167.312 3.20533 167.886 3.056 168.53 3.056C168.987 3.056 169.398 3.13533 169.762 3.294C170.135 3.44333 170.452 3.66267 170.714 3.952C170.975 4.24133 171.171 4.596 171.302 5.016C171.442 5.42667 171.512 5.89333 171.512 6.416C171.512 6.56533 171.465 6.682 171.372 6.766C171.288 6.84067 171.162 6.878 170.994 6.878H166.206V6.066H170.672L170.434 6.262C170.434 5.77667 170.359 5.366 170.21 5.03C170.07 4.68467 169.86 4.42333 169.58 4.246C169.309 4.06867 168.968 3.98 168.558 3.98C168.11 3.98 167.727 4.08733 167.41 4.302C167.092 4.50733 166.85 4.80133 166.682 5.184C166.514 5.55733 166.43 5.99133 166.43 6.486V6.57C166.43 7.41 166.63 8.04467 167.032 8.474C167.433 8.90333 168.012 9.118 168.768 9.118C169.066 9.118 169.37 9.08067 169.678 9.006C169.995 8.93133 170.298 8.796 170.588 8.6C170.728 8.516 170.854 8.47867 170.966 8.488C171.087 8.488 171.185 8.52533 171.26 8.6C171.334 8.66533 171.381 8.74933 171.4 8.852C171.418 8.94533 171.404 9.048 171.358 9.16C171.311 9.272 171.222 9.37 171.092 9.454C170.784 9.66867 170.415 9.83667 169.986 9.958C169.566 10.07 169.16 10.126 168.768 10.126ZM173.754 10.098C173.54 10.098 173.376 10.042 173.264 9.93C173.152 9.818 173.096 9.65467 173.096 9.44V3.728C173.096 3.51333 173.152 3.35467 173.264 3.252C173.376 3.14 173.53 3.084 173.726 3.084C173.922 3.084 174.072 3.14 174.174 3.252C174.286 3.35467 174.342 3.51333 174.342 3.728V4.806H174.202C174.352 4.246 174.632 3.82133 175.042 3.532C175.453 3.24267 175.971 3.07933 176.596 3.042C176.746 3.03267 176.867 3.07 176.96 3.154C177.054 3.22867 177.105 3.35933 177.114 3.546C177.124 3.72333 177.082 3.868 176.988 3.98C176.895 4.08267 176.75 4.14333 176.554 4.162L176.302 4.176C175.686 4.24133 175.21 4.442 174.874 4.778C174.548 5.114 174.384 5.576 174.384 6.164V9.44C174.384 9.65467 174.328 9.818 174.216 9.93C174.114 10.042 173.96 10.098 173.754 10.098ZM178.84 10.07C178.644 10.07 178.49 10.0093 178.378 9.888C178.266 9.76667 178.21 9.59867 178.21 9.384V3.798C178.21 3.574 178.266 3.406 178.378 3.294C178.49 3.17267 178.644 3.112 178.84 3.112C179.045 3.112 179.204 3.17267 179.316 3.294C179.428 3.406 179.484 3.574 179.484 3.798V9.384C179.484 9.59867 179.428 9.76667 179.316 9.888C179.213 10.0093 179.054 10.07 178.84 10.07ZM178.84 1.6C178.588 1.6 178.387 1.53467 178.238 1.404C178.098 1.264 178.028 1.082 178.028 0.857999C178.028 0.615333 178.098 0.433333 178.238 0.312C178.387 0.181333 178.588 0.116 178.84 0.116C179.11 0.116 179.311 0.181333 179.442 0.312C179.582 0.433333 179.652 0.615333 179.652 0.857999C179.652 1.082 179.582 1.264 179.442 1.404C179.311 1.53467 179.11 1.6 178.84 1.6ZM182.568 10.098C182.362 10.098 182.204 10.042 182.092 9.93C181.98 9.818 181.924 9.65467 181.924 9.44V4.162H181.084C180.916 4.162 180.785 4.12 180.692 4.036C180.598 3.94267 180.552 3.82133 180.552 3.672C180.552 3.51333 180.598 3.392 180.692 3.308C180.785 3.224 180.916 3.182 181.084 3.182H182.274L181.924 3.518V3C181.924 2.09467 182.143 1.40867 182.582 0.942C183.03 0.466 183.683 0.190666 184.542 0.116L184.976 0.0879999C185.116 0.069333 185.228 0.0926663 185.312 0.158C185.396 0.214 185.452 0.288666 185.48 0.381999C185.508 0.475333 185.508 0.573333 185.48 0.676C185.461 0.769333 185.419 0.853333 185.354 0.928C185.288 1.00267 185.204 1.04467 185.102 1.054L184.794 1.068C184.234 1.11467 183.828 1.28267 183.576 1.572C183.324 1.852 183.198 2.272 183.198 2.832V3.392L183.016 3.182H184.626C184.803 3.182 184.938 3.224 185.032 3.308C185.125 3.392 185.172 3.51333 185.172 3.672C185.172 3.82133 185.125 3.94267 185.032 4.036C184.938 4.12 184.803 4.162 184.626 4.162H183.198V9.44C183.198 9.87867 182.988 10.098 182.568 10.098ZM187.748 12.618C187.599 12.618 187.473 12.576 187.37 12.492C187.277 12.4173 187.221 12.31 187.202 12.17C187.193 12.0393 187.221 11.8993 187.286 11.75L188.238 9.594V10.126L185.592 3.966C185.527 3.80733 185.504 3.66267 185.522 3.532C185.541 3.40133 185.602 3.294 185.704 3.21C185.816 3.126 185.966 3.084 186.152 3.084C186.311 3.084 186.437 3.12133 186.53 3.196C186.624 3.27067 186.712 3.40133 186.796 3.588L188.994 9.006H188.602L190.842 3.588C190.917 3.40133 191.006 3.27067 191.108 3.196C191.211 3.12133 191.351 3.084 191.528 3.084C191.687 3.084 191.808 3.126 191.892 3.21C191.986 3.294 192.042 3.40133 192.06 3.532C192.079 3.66267 192.051 3.80267 191.976 3.952L188.448 12.114C188.355 12.31 188.257 12.4407 188.154 12.506C188.061 12.5807 187.926 12.618 187.748 12.618ZM198.631 12.618C198.482 12.618 198.356 12.576 198.253 12.492C198.16 12.4173 198.104 12.31 198.085 12.17C198.076 12.0393 198.104 11.8993 198.169 11.75L199.121 9.594V10.126L196.475 3.966C196.41 3.80733 196.386 3.66267 196.405 3.532C196.424 3.40133 196.484 3.294 196.587 3.21C196.699 3.126 196.848 3.084 197.035 3.084C197.194 3.084 197.32 3.12133 197.413 3.196C197.506 3.27067 197.595 3.40133 197.679 3.588L199.877 9.006H199.485L201.725 3.588C201.8 3.40133 201.888 3.27067 201.991 3.196C202.094 3.12133 202.234 3.084 202.411 3.084C202.57 3.084 202.691 3.126 202.775 3.21C202.868 3.294 202.924 3.40133 202.943 3.532C202.962 3.66267 202.934 3.80267 202.859 3.952L199.331 12.114C199.238 12.31 199.14 12.4407 199.037 12.506C198.944 12.5807 198.808 12.618 198.631 12.618ZM207.084 10.126C206.412 10.126 205.829 9.98133 205.334 9.692C204.839 9.40267 204.457 8.992 204.186 8.46C203.915 7.928 203.78 7.30267 203.78 6.584C203.78 6.04267 203.855 5.55733 204.004 5.128C204.163 4.68933 204.387 4.316 204.676 4.008C204.965 3.7 205.311 3.46667 205.712 3.308C206.123 3.14 206.58 3.056 207.084 3.056C207.756 3.056 208.339 3.20067 208.834 3.49C209.329 3.77933 209.711 4.19 209.982 4.722C210.253 5.24467 210.388 5.86533 210.388 6.584C210.388 7.12533 210.309 7.61533 210.15 8.054C210.001 8.49267 209.781 8.866 209.492 9.174C209.203 9.482 208.853 9.72 208.442 9.888C208.041 10.0467 207.588 10.126 207.084 10.126ZM207.084 9.118C207.495 9.118 207.849 9.02 208.148 8.824C208.456 8.628 208.689 8.34333 208.848 7.97C209.016 7.59667 209.1 7.13467 209.1 6.584C209.1 5.76267 208.918 5.13733 208.554 4.708C208.19 4.27867 207.7 4.064 207.084 4.064C206.683 4.064 206.328 4.162 206.02 4.358C205.721 4.54467 205.488 4.82467 205.32 5.198C205.152 5.57133 205.068 6.03333 205.068 6.584C205.068 7.40533 205.25 8.03533 205.614 8.474C205.987 8.90333 206.477 9.118 207.084 9.118ZM214.456 10.126C213.905 10.126 213.443 10.0233 213.07 9.818C212.706 9.61267 212.435 9.30933 212.258 8.908C212.081 8.50667 211.992 8.00267 211.992 7.396V3.728C211.992 3.51333 212.043 3.35467 212.146 3.252C212.258 3.14 212.417 3.084 212.622 3.084C212.827 3.084 212.986 3.14 213.098 3.252C213.21 3.35467 213.266 3.51333 213.266 3.728V7.396C213.266 7.97467 213.383 8.404 213.616 8.684C213.849 8.95467 214.218 9.09 214.722 9.09C215.282 9.09 215.735 8.90333 216.08 8.53C216.435 8.15667 216.612 7.662 216.612 7.046V3.728C216.612 3.51333 216.663 3.35467 216.766 3.252C216.878 3.14 217.037 3.084 217.242 3.084C217.447 3.084 217.606 3.14 217.718 3.252C217.83 3.35467 217.886 3.51333 217.886 3.728V9.44C217.886 9.87867 217.681 10.098 217.27 10.098C217.065 10.098 216.906 10.042 216.794 9.93C216.691 9.818 216.64 9.65467 216.64 9.44V8.222L216.822 8.46C216.635 9.00133 216.332 9.41667 215.912 9.706C215.501 9.986 215.016 10.126 214.456 10.126ZM220.594 10.098C220.379 10.098 220.216 10.042 220.104 9.93C219.992 9.818 219.936 9.65467 219.936 9.44V3.728C219.936 3.51333 219.992 3.35467 220.104 3.252C220.216 3.14 220.37 3.084 220.566 3.084C220.762 3.084 220.911 3.14 221.014 3.252C221.126 3.35467 221.182 3.51333 221.182 3.728V4.806H221.042C221.191 4.246 221.471 3.82133 221.882 3.532C222.293 3.24267 222.811 3.07933 223.436 3.042C223.585 3.03267 223.707 3.07 223.8 3.154C223.893 3.22867 223.945 3.35933 223.954 3.546C223.963 3.72333 223.921 3.868 223.828 3.98C223.735 4.08267 223.59 4.14333 223.394 4.162L223.142 4.176C222.526 4.24133 222.05 4.442 221.714 4.778C221.387 5.114 221.224 5.576 221.224 6.164V9.44C221.224 9.65467 221.168 9.818 221.056 9.93C220.953 10.042 220.799 10.098 220.594 10.098ZM231.85 10.126C231.112 10.126 230.478 9.986 229.946 9.706C229.423 9.41667 229.017 9.01067 228.728 8.488C228.438 7.956 228.294 7.33067 228.294 6.612C228.294 5.90267 228.434 5.282 228.714 4.75C229.003 4.218 229.395 3.80267 229.89 3.504C230.394 3.20533 230.968 3.056 231.612 3.056C232.069 3.056 232.48 3.13533 232.844 3.294C233.217 3.44333 233.534 3.66267 233.796 3.952C234.057 4.24133 234.253 4.596 234.384 5.016C234.524 5.42667 234.594 5.89333 234.594 6.416C234.594 6.56533 234.547 6.682 234.454 6.766C234.37 6.84067 234.244 6.878 234.076 6.878H229.288V6.066H233.754L233.516 6.262C233.516 5.77667 233.441 5.366 233.292 5.03C233.152 4.68467 232.942 4.42333 232.662 4.246C232.391 4.06867 232.05 3.98 231.64 3.98C231.192 3.98 230.809 4.08733 230.492 4.302C230.174 4.50733 229.932 4.80133 229.764 5.184C229.596 5.55733 229.512 5.99133 229.512 6.486V6.57C229.512 7.41 229.712 8.04467 230.114 8.474C230.515 8.90333 231.094 9.118 231.85 9.118C232.148 9.118 232.452 9.08067 232.76 9.006C233.077 8.93133 233.38 8.796 233.67 8.6C233.81 8.516 233.936 8.47867 234.048 8.488C234.169 8.488 234.267 8.52533 234.342 8.6C234.416 8.66533 234.463 8.74933 234.482 8.852C234.5 8.94533 234.486 9.048 234.44 9.16C234.393 9.272 234.304 9.37 234.174 9.454C233.866 9.66867 233.497 9.83667 233.068 9.958C232.648 10.07 232.242 10.126 231.85 10.126ZM236.836 10.098C236.64 10.098 236.486 10.042 236.374 9.93C236.262 9.818 236.206 9.65467 236.206 9.44V3.728C236.206 3.51333 236.262 3.35467 236.374 3.252C236.486 3.14 236.64 3.084 236.836 3.084C237.032 3.084 237.182 3.14 237.284 3.252C237.396 3.35467 237.452 3.51333 237.452 3.728V4.918L237.298 4.666C237.476 4.15267 237.76 3.756 238.152 3.476C238.554 3.196 239.03 3.056 239.58 3.056C240.159 3.056 240.626 3.196 240.98 3.476C241.335 3.74667 241.573 4.162 241.694 4.722H241.498C241.666 4.20867 241.965 3.80267 242.394 3.504C242.833 3.20533 243.342 3.056 243.92 3.056C244.434 3.056 244.854 3.15867 245.18 3.364C245.516 3.56 245.768 3.85867 245.936 4.26C246.104 4.652 246.188 5.156 246.188 5.772V9.44C246.188 9.65467 246.132 9.818 246.02 9.93C245.908 10.042 245.754 10.098 245.558 10.098C245.353 10.098 245.194 10.042 245.082 9.93C244.97 9.818 244.914 9.65467 244.914 9.44V5.828C244.914 5.23067 244.812 4.792 244.606 4.512C244.401 4.232 244.056 4.092 243.57 4.092C243.038 4.092 242.614 4.27867 242.296 4.652C241.988 5.016 241.834 5.52 241.834 6.164V9.44C241.834 9.65467 241.778 9.818 241.666 9.93C241.564 10.042 241.41 10.098 241.204 10.098C240.999 10.098 240.84 10.042 240.728 9.93C240.616 9.818 240.56 9.65467 240.56 9.44V5.828C240.56 5.23067 240.458 4.792 240.252 4.512C240.047 4.232 239.702 4.092 239.216 4.092C238.684 4.092 238.26 4.27867 237.942 4.652C237.634 5.016 237.48 5.52 237.48 6.164V9.44C237.48 9.87867 237.266 10.098 236.836 10.098ZM250.407 10.126C249.94 10.126 249.516 10.0327 249.133 9.846C248.76 9.65933 248.466 9.40733 248.251 9.09C248.046 8.77267 247.943 8.418 247.943 8.026C247.943 7.522 248.069 7.12533 248.321 6.836C248.573 6.54667 248.998 6.34133 249.595 6.22C250.192 6.08933 250.995 6.024 252.003 6.024H252.661V6.836H252.031C251.312 6.836 250.743 6.86867 250.323 6.934C249.912 6.99933 249.623 7.116 249.455 7.284C249.287 7.44267 249.203 7.66667 249.203 7.956C249.203 8.32 249.329 8.61867 249.581 8.852C249.842 9.08533 250.197 9.202 250.645 9.202C251 9.202 251.312 9.118 251.583 8.95C251.854 8.77267 252.068 8.53933 252.227 8.25C252.386 7.95133 252.465 7.61067 252.465 7.228V5.618C252.465 5.06733 252.353 4.67067 252.129 4.428C251.905 4.176 251.527 4.05 250.995 4.05C250.687 4.05 250.37 4.092 250.043 4.176C249.716 4.26 249.376 4.39067 249.021 4.568C248.881 4.63333 248.76 4.65667 248.657 4.638C248.554 4.61 248.47 4.554 248.405 4.47C248.349 4.37667 248.316 4.27867 248.307 4.176C248.307 4.064 248.33 3.95667 248.377 3.854C248.433 3.75133 248.526 3.67667 248.657 3.63C249.068 3.42467 249.474 3.28 249.875 3.196C250.286 3.10267 250.668 3.056 251.023 3.056C251.63 3.056 252.129 3.154 252.521 3.35C252.913 3.53667 253.207 3.83067 253.403 4.232C253.599 4.624 253.697 5.128 253.697 5.744V9.44C253.697 9.65467 253.646 9.818 253.543 9.93C253.44 10.042 253.291 10.098 253.095 10.098C252.908 10.098 252.759 10.042 252.647 9.93C252.544 9.818 252.493 9.65467 252.493 9.44V8.446H252.619C252.544 8.79133 252.404 9.09 252.199 9.342C251.994 9.594 251.737 9.79 251.429 9.93C251.13 10.0607 250.79 10.126 250.407 10.126ZM256.332 10.07C256.136 10.07 255.982 10.0093 255.87 9.888C255.758 9.76667 255.702 9.59867 255.702 9.384V3.798C255.702 3.574 255.758 3.406 255.87 3.294C255.982 3.17267 256.136 3.112 256.332 3.112C256.537 3.112 256.696 3.17267 256.808 3.294C256.92 3.406 256.976 3.574 256.976 3.798V9.384C256.976 9.59867 256.92 9.76667 256.808 9.888C256.705 10.0093 256.546 10.07 256.332 10.07ZM256.332 1.6C256.08 1.6 255.879 1.53467 255.73 1.404C255.59 1.264 255.52 1.082 255.52 0.857999C255.52 0.615333 255.59 0.433333 255.73 0.312C255.879 0.181333 256.08 0.116 256.332 0.116C256.602 0.116 256.803 0.181333 256.934 0.312C257.074 0.433333 257.144 0.615333 257.144 0.857999C257.144 1.082 257.074 1.264 256.934 1.404C256.803 1.53467 256.602 1.6 256.332 1.6ZM261.166 10.126C260.466 10.126 259.934 9.92067 259.57 9.51C259.206 9.09 259.024 8.488 259.024 7.704V0.676C259.024 0.461333 259.08 0.302666 259.192 0.199999C259.304 0.0879997 259.458 0.0319998 259.654 0.0319998C259.859 0.0319998 260.018 0.0879997 260.13 0.199999C260.242 0.302666 260.298 0.461333 260.298 0.676V7.606C260.298 8.09133 260.396 8.45533 260.592 8.698C260.797 8.93133 261.087 9.048 261.46 9.048C261.544 9.048 261.619 9.048 261.684 9.048C261.749 9.03867 261.815 9.02933 261.88 9.02C261.983 9.01067 262.057 9.03867 262.104 9.104C262.151 9.16933 262.174 9.3 262.174 9.496C262.174 9.67333 262.132 9.81333 262.048 9.916C261.973 10.0093 261.847 10.07 261.67 10.098C261.586 10.1073 261.502 10.112 261.418 10.112C261.334 10.1213 261.25 10.126 261.166 10.126Z" fill="#343434"/>
</svg>
