<svg width="297" height="35" viewBox="0 0 297 35" fill="none" xmlns="http://www.w3.org/2000/svg">
<path d="M5.40666 10.126C4.352 10.126 3.46066 9.92533 2.73266 9.524C2.014 9.12267 1.468 8.544 1.09466 7.788C0.721331 7.032 0.534664 6.12667 0.534664 5.072C0.534664 4.288 0.637331 3.58333 0.842664 2.958C1.05733 2.33267 1.36533 1.80533 1.76666 1.376C2.17733 0.937333 2.672 0.601333 3.25066 0.368C3.83866 0.125333 4.50133 0.00399935 5.23866 0.00399935C5.82666 0.00399935 6.396 0.0879994 6.94666 0.255999C7.49733 0.414666 7.98733 0.671333 8.41666 1.026C8.52866 1.11 8.59866 1.20333 8.62666 1.306C8.65466 1.40867 8.65 1.51133 8.61266 1.614C8.58466 1.71667 8.53333 1.80533 8.45866 1.88C8.39333 1.94533 8.30466 1.98267 8.19266 1.992C8.09 2.00133 7.98266 1.96867 7.87066 1.894C7.488 1.59533 7.082 1.38067 6.65266 1.25C6.22333 1.11 5.74733 1.04 5.22466 1.04C4.478 1.04 3.84333 1.19867 3.32066 1.516C2.80733 1.83333 2.41533 2.29067 2.14466 2.888C1.88333 3.48533 1.75266 4.21333 1.75266 5.072C1.75266 6.37867 2.056 7.37733 2.66266 8.068C3.27866 8.75867 4.20266 9.104 5.43466 9.104C5.88266 9.104 6.32133 9.062 6.75066 8.978C7.18 8.88467 7.586 8.75867 7.96866 8.6L7.71666 9.258V5.772H5.71466C5.54666 5.772 5.42066 5.73 5.33666 5.646C5.25266 5.562 5.21066 5.45 5.21066 5.31C5.21066 5.16067 5.25266 5.04867 5.33666 4.974C5.42066 4.89933 5.54666 4.862 5.71466 4.862H8.22066C8.37933 4.862 8.50066 4.904 8.58466 4.988C8.66866 5.072 8.71066 5.19333 8.71066 5.352V9.006C8.71066 9.146 8.68733 9.26267 8.64066 9.356C8.594 9.44933 8.51466 9.51933 8.40266 9.566C8.01066 9.72467 7.53933 9.86 6.98866 9.972C6.44733 10.0747 5.92 10.126 5.40666 10.126ZM13.9689 10.126C13.2502 10.126 12.6295 9.986 12.1069 9.706C11.5935 9.41667 11.1922 9.01067 10.9029 8.488C10.6229 7.96533 10.4829 7.34 10.4829 6.612C10.4829 5.90267 10.6229 5.28667 10.9029 4.764C11.1829 4.232 11.5655 3.81667 12.0509 3.518C12.5455 3.21933 13.1149 3.07 13.7589 3.07C14.2162 3.07 14.6269 3.14933 14.9909 3.308C15.3549 3.45733 15.6629 3.67667 15.9149 3.966C16.1762 4.25533 16.3722 4.60533 16.5029 5.016C16.6429 5.42667 16.7129 5.88867 16.7129 6.402C16.7129 6.55133 16.6709 6.66333 16.5869 6.738C16.5029 6.80333 16.3815 6.836 16.2229 6.836H11.3509V6.094H15.9569L15.7329 6.276C15.7329 5.772 15.6582 5.34733 15.5089 5.002C15.3595 4.64733 15.1402 4.37667 14.8509 4.19C14.5709 4.00333 14.2162 3.91 13.7869 3.91C13.3109 3.91 12.9049 4.022 12.5689 4.246C12.2422 4.46067 11.9949 4.764 11.8269 5.156C11.6589 5.53867 11.5749 5.98667 11.5749 6.5V6.584C11.5749 7.44267 11.7802 8.096 12.1909 8.544C12.6109 8.992 13.2035 9.216 13.9689 9.216C14.2862 9.216 14.5989 9.174 14.9069 9.09C15.2242 9.006 15.5322 8.866 15.8309 8.67C15.9615 8.586 16.0782 8.54867 16.1809 8.558C16.2929 8.558 16.3815 8.59067 16.4469 8.656C16.5122 8.712 16.5542 8.78667 16.5729 8.88C16.6009 8.964 16.5915 9.05733 16.5449 9.16C16.5075 9.26267 16.4282 9.35133 16.3069 9.426C15.9989 9.65 15.6349 9.82267 15.2149 9.944C14.7949 10.0653 14.3795 10.126 13.9689 10.126ZM21.084 10.126C20.552 10.126 20.104 10.0327 19.74 9.846C19.3854 9.65 19.1194 9.37 18.942 9.006C18.7647 8.63267 18.676 8.18 18.676 7.648V4.078H17.738C17.5794 4.078 17.458 4.04067 17.374 3.966C17.29 3.882 17.248 3.77 17.248 3.63C17.248 3.49 17.29 3.38267 17.374 3.308C17.458 3.23333 17.5794 3.196 17.738 3.196H18.676V1.586C18.676 1.39933 18.7274 1.25933 18.83 1.166C18.9327 1.06333 19.0727 1.012 19.25 1.012C19.4274 1.012 19.5627 1.06333 19.656 1.166C19.7587 1.25933 19.81 1.39933 19.81 1.586V3.196H21.574C21.7327 3.196 21.854 3.23333 21.938 3.308C22.022 3.38267 22.064 3.49 22.064 3.63C22.064 3.77 22.022 3.882 21.938 3.966C21.854 4.04067 21.7327 4.078 21.574 4.078H19.81V7.536C19.81 8.068 19.922 8.474 20.146 8.754C20.37 9.02467 20.734 9.16 21.238 9.16C21.4154 9.16 21.5647 9.14133 21.686 9.104C21.8167 9.06667 21.924 9.048 22.008 9.048C22.092 9.03867 22.162 9.06667 22.218 9.132C22.274 9.19733 22.302 9.30933 22.302 9.468C22.302 9.58 22.2787 9.68267 22.232 9.776C22.1947 9.86933 22.1247 9.93467 22.022 9.972C21.91 10.0093 21.7607 10.042 21.574 10.07C21.3967 10.1073 21.2334 10.126 21.084 10.126ZM28.9999 10.126C28.5333 10.126 28.1133 10.0373 27.7399 9.86C27.3759 9.67333 27.0866 9.42133 26.8719 9.104C26.6573 8.78667 26.5499 8.432 26.5499 8.04C26.5499 7.536 26.6759 7.13933 26.9279 6.85C27.1893 6.56067 27.6139 6.35533 28.2019 6.234C28.7993 6.11267 29.6113 6.052 30.6379 6.052H31.2679V6.794H30.6519C29.8959 6.794 29.2986 6.83133 28.8599 6.906C28.4306 6.97133 28.1273 7.088 27.9499 7.256C27.7819 7.424 27.6979 7.662 27.6979 7.97C27.6979 8.35267 27.8286 8.66533 28.0899 8.908C28.3606 9.15067 28.7246 9.272 29.1819 9.272C29.5553 9.272 29.8819 9.18333 30.1619 9.006C30.4513 8.82867 30.6753 8.586 30.8339 8.278C31.0019 7.97 31.0859 7.61533 31.0859 7.214V5.618C31.0859 5.03933 30.9693 4.624 30.7359 4.372C30.5026 4.11067 30.1199 3.98 29.5879 3.98C29.2613 3.98 28.9346 4.022 28.6079 4.106C28.2813 4.19 27.9359 4.32533 27.5719 4.512C27.4413 4.57733 27.3293 4.60067 27.2359 4.582C27.1426 4.554 27.0679 4.50267 27.0119 4.428C26.9559 4.35333 26.9233 4.26933 26.9139 4.176C26.9046 4.07333 26.9233 3.97533 26.9699 3.882C27.0259 3.78867 27.1099 3.714 27.2219 3.658C27.6326 3.45267 28.0386 3.30333 28.4399 3.21C28.8413 3.11667 29.2239 3.07 29.5879 3.07C30.1759 3.07 30.6613 3.168 31.0439 3.364C31.4266 3.55067 31.7113 3.84 31.8979 4.232C32.0846 4.61467 32.1779 5.10933 32.1779 5.716V9.51C32.1779 9.69667 32.1313 9.84133 32.0379 9.944C31.9539 10.0467 31.8279 10.098 31.6599 10.098C31.4826 10.098 31.3473 10.0467 31.2539 9.944C31.1606 9.84133 31.1139 9.69667 31.1139 9.51V8.418H31.2399C31.1653 8.77267 31.0206 9.076 30.8059 9.328C30.6006 9.58 30.3439 9.776 30.0359 9.916C29.7279 10.056 29.3826 10.126 28.9999 10.126ZM40.9011 12.646C40.4065 12.646 39.9211 12.5853 39.4451 12.464C38.9785 12.352 38.5538 12.17 38.1711 11.918C38.0591 11.8527 37.9845 11.7733 37.9471 11.68C37.9191 11.5867 37.9145 11.4933 37.9331 11.4C37.9518 11.316 37.9938 11.2367 38.0591 11.162C38.1245 11.0967 38.1991 11.0547 38.2831 11.036C38.3765 11.0173 38.4698 11.0313 38.5631 11.078C38.9738 11.33 39.3658 11.5027 39.7391 11.596C40.1125 11.6893 40.4811 11.736 40.8451 11.736C41.5078 11.736 42.0071 11.5587 42.3431 11.204C42.6885 10.8493 42.8611 10.336 42.8611 9.664V8.082H43.0011C42.8611 8.62333 42.5625 9.05267 42.1051 9.37C41.6571 9.68733 41.1298 9.846 40.5231 9.846C39.8978 9.846 39.3565 9.706 38.8991 9.426C38.4418 9.13667 38.0871 8.73533 37.8351 8.222C37.5925 7.70867 37.4711 7.116 37.4711 6.444C37.4711 5.94 37.5411 5.48267 37.6811 5.072C37.8211 4.652 38.0218 4.29733 38.2831 4.008C38.5538 3.70933 38.8758 3.48067 39.2491 3.322C39.6318 3.154 40.0565 3.07 40.5231 3.07C41.1391 3.07 41.6711 3.22867 42.1191 3.546C42.5671 3.854 42.8565 4.274 42.9871 4.806L42.8471 4.974V3.672C42.8471 3.48533 42.8938 3.34533 42.9871 3.252C43.0898 3.14933 43.2298 3.098 43.4071 3.098C43.5938 3.098 43.7338 3.14933 43.8271 3.252C43.9205 3.34533 43.9671 3.48533 43.9671 3.672V9.51C43.9671 10.546 43.7058 11.3253 43.1831 11.848C42.6698 12.38 41.9091 12.646 40.9011 12.646ZM40.7331 8.922C41.1718 8.922 41.5498 8.824 41.8671 8.628C42.1845 8.42267 42.4271 8.13333 42.5951 7.76C42.7725 7.38667 42.8611 6.948 42.8611 6.444C42.8611 5.688 42.6698 5.09067 42.2871 4.652C41.9045 4.204 41.3865 3.98 40.7331 3.98C40.3038 3.98 39.9305 4.08267 39.6131 4.288C39.2958 4.484 39.0485 4.76867 38.8711 5.142C38.7031 5.506 38.6191 5.94 38.6191 6.444C38.6191 7.2 38.8105 7.802 39.1931 8.25C39.5758 8.698 40.0891 8.922 40.7331 8.922ZM48.1663 10.126C47.4943 10.126 46.9809 9.92067 46.6263 9.51C46.2716 9.09933 46.0943 8.51133 46.0943 7.746V0.606C46.0943 0.419333 46.1409 0.279333 46.2343 0.186C46.3276 0.0833331 46.4676 0.0319998 46.6543 0.0319998C46.8316 0.0319998 46.9716 0.0833331 47.0743 0.186C47.1769 0.279333 47.2283 0.419333 47.2283 0.606V7.662C47.2283 8.166 47.3263 8.544 47.5223 8.796C47.7276 9.03867 48.0263 9.16 48.4183 9.16C48.5023 9.16 48.5769 9.15533 48.6423 9.146C48.7076 9.13667 48.7729 9.132 48.8383 9.132C48.9409 9.12267 49.0109 9.146 49.0483 9.202C49.0949 9.258 49.1183 9.37 49.1183 9.538C49.1183 9.706 49.0809 9.832 49.0063 9.916C48.9316 10 48.8103 10.056 48.6423 10.084C48.5676 10.0933 48.4883 10.1027 48.4043 10.112C48.3203 10.1213 48.2409 10.126 48.1663 10.126ZM50.7969 10.07C50.6102 10.07 50.4702 10.0187 50.3769 9.916C50.2835 9.804 50.2369 9.65 50.2369 9.454V3.728C50.2369 3.532 50.2835 3.38267 50.3769 3.28C50.4702 3.17733 50.6102 3.126 50.7969 3.126C50.9742 3.126 51.1142 3.17733 51.2169 3.28C51.3195 3.38267 51.3709 3.532 51.3709 3.728V9.454C51.3709 9.65 51.3195 9.804 51.2169 9.916C51.1235 10.0187 50.9835 10.07 50.7969 10.07ZM50.7969 1.558C50.5635 1.558 50.3815 1.49733 50.2509 1.376C50.1202 1.24533 50.0549 1.07267 50.0549 0.857999C50.0549 0.633999 50.1202 0.466 50.2509 0.354C50.3815 0.232666 50.5635 0.172 50.7969 0.172C51.0395 0.172 51.2215 0.232666 51.3429 0.354C51.4735 0.466 51.5389 0.633999 51.5389 0.857999C51.5389 1.07267 51.4735 1.24533 51.3429 1.376C51.2215 1.49733 51.0395 1.558 50.7969 1.558ZM54.0788 10.098C53.8921 10.098 53.7521 10.0467 53.6588 9.944C53.5654 9.84133 53.5188 9.69667 53.5188 9.51V3.672C53.5188 3.48533 53.5654 3.34533 53.6588 3.252C53.7521 3.14933 53.8874 3.098 54.0648 3.098C54.2421 3.098 54.3774 3.14933 54.4708 3.252C54.5734 3.34533 54.6248 3.48533 54.6248 3.672V4.904L54.4708 4.708C54.6481 4.18533 54.9328 3.784 55.3248 3.504C55.7261 3.21467 56.2021 3.07 56.7528 3.07C57.3314 3.07 57.7981 3.21 58.1528 3.49C58.5168 3.76067 58.7594 4.18533 58.8808 4.764H58.6708C58.8388 4.24133 59.1374 3.83067 59.5668 3.532C60.0054 3.224 60.5141 3.07 61.0928 3.07C61.6061 3.07 62.0261 3.168 62.3528 3.364C62.6888 3.56 62.9408 3.85867 63.1088 4.26C63.2768 4.652 63.3608 5.15133 63.3608 5.758V9.51C63.3608 9.69667 63.3094 9.84133 63.2068 9.944C63.1134 10.0467 62.9734 10.098 62.7868 10.098C62.6094 10.098 62.4694 10.0467 62.3668 9.944C62.2734 9.84133 62.2268 9.69667 62.2268 9.51V5.814C62.2268 5.18867 62.1194 4.73133 61.9048 4.442C61.6901 4.14333 61.3261 3.994 60.8128 3.994C60.2528 3.994 59.8094 4.19 59.4828 4.582C59.1654 4.96467 59.0068 5.48733 59.0068 6.15V9.51C59.0068 9.69667 58.9554 9.84133 58.8528 9.944C58.7594 10.0467 58.6194 10.098 58.4328 10.098C58.2554 10.098 58.1154 10.0467 58.0128 9.944C57.9194 9.84133 57.8728 9.69667 57.8728 9.51V5.814C57.8728 5.18867 57.7608 4.73133 57.5368 4.442C57.3221 4.14333 56.9628 3.994 56.4588 3.994C55.8988 3.994 55.4554 4.19 55.1288 4.582C54.8114 4.96467 54.6528 5.48733 54.6528 6.15V9.51C54.6528 9.902 54.4614 10.098 54.0788 10.098ZM66.041 12.618C65.8543 12.618 65.7143 12.5667 65.621 12.464C65.5277 12.3707 65.481 12.2307 65.481 12.044V3.672C65.481 3.48533 65.5277 3.34533 65.621 3.252C65.7143 3.14933 65.8497 3.098 66.027 3.098C66.2137 3.098 66.3537 3.14933 66.447 3.252C66.5497 3.34533 66.601 3.48533 66.601 3.672V5.002L66.447 4.806C66.5963 4.274 66.8903 3.854 67.329 3.546C67.777 3.22867 68.309 3.07 68.925 3.07C69.5317 3.07 70.059 3.21467 70.507 3.504C70.9643 3.784 71.3143 4.19 71.557 4.722C71.809 5.24467 71.935 5.87 71.935 6.598C71.935 7.31667 71.809 7.942 71.557 8.474C71.3143 8.99667 70.969 9.40267 70.521 9.692C70.073 9.98133 69.541 10.126 68.925 10.126C68.309 10.126 67.7817 9.972 67.343 9.664C66.9043 9.34667 66.6057 8.92667 66.447 8.404H66.615V12.044C66.615 12.2307 66.5637 12.3707 66.461 12.464C66.3583 12.5667 66.2183 12.618 66.041 12.618ZM68.687 9.216C69.1163 9.216 69.485 9.11333 69.793 8.908C70.1103 8.70267 70.353 8.404 70.521 8.012C70.6983 7.62 70.787 7.14867 70.787 6.598C70.787 5.74867 70.5957 5.1 70.213 4.652C69.8397 4.204 69.331 3.98 68.687 3.98C68.267 3.98 67.8983 4.08267 67.581 4.288C67.2637 4.484 67.0163 4.778 66.839 5.17C66.671 5.55267 66.587 6.02867 66.587 6.598C66.587 7.438 66.7783 8.08667 67.161 8.544C67.5437 8.992 68.0523 9.216 68.687 9.216ZM75.9391 10.126C75.5191 10.126 75.0944 10.0747 74.6651 9.972C74.2451 9.86933 73.8531 9.692 73.4891 9.44C73.3958 9.37467 73.3304 9.3 73.2931 9.216C73.2558 9.12267 73.2418 9.034 73.2511 8.95C73.2698 8.85667 73.3071 8.77733 73.3631 8.712C73.4284 8.64667 73.5031 8.60933 73.5871 8.6C73.6804 8.58133 73.7831 8.6 73.8951 8.656C74.2591 8.88 74.6091 9.03867 74.9451 9.132C75.2904 9.216 75.6311 9.258 75.9671 9.258C76.4991 9.258 76.9004 9.16 77.1711 8.964C77.4418 8.768 77.5771 8.502 77.5771 8.166C77.5771 7.90467 77.4884 7.69933 77.3111 7.55C77.1338 7.39133 76.8538 7.27 76.4711 7.186L75.1971 6.906C74.6091 6.78467 74.1704 6.57467 73.8811 6.276C73.6011 5.97733 73.4611 5.59 73.4611 5.114C73.4611 4.694 73.5684 4.33467 73.7831 4.036C74.0071 3.728 74.3198 3.49 74.7211 3.322C75.1224 3.154 75.5891 3.07 76.1211 3.07C76.5318 3.07 76.9191 3.126 77.2831 3.238C77.6564 3.34067 77.9924 3.50867 78.2911 3.742C78.3844 3.80733 78.4451 3.88667 78.4731 3.98C78.5104 4.064 78.5151 4.15267 78.4871 4.246C78.4684 4.33 78.4264 4.40467 78.3611 4.47C78.2958 4.526 78.2164 4.55867 78.1231 4.568C78.0298 4.57733 77.9318 4.54933 77.8291 4.484C77.5491 4.29733 77.2644 4.162 76.9751 4.078C76.6858 3.98467 76.4011 3.938 76.1211 3.938C75.5984 3.938 75.2018 4.04067 74.9311 4.246C74.6604 4.45133 74.5251 4.722 74.5251 5.058C74.5251 5.31933 74.6091 5.534 74.7771 5.702C74.9451 5.87 75.2064 5.99133 75.5611 6.066L76.8351 6.332C77.4418 6.46267 77.8944 6.67267 78.1931 6.962C78.5011 7.242 78.6551 7.62467 78.6551 8.11C78.6551 8.726 78.4078 9.216 77.9131 9.58C77.4184 9.944 76.7604 10.126 75.9391 10.126ZM83.4493 10.126C82.7307 10.126 82.11 9.986 81.5873 9.706C81.074 9.41667 80.6727 9.01067 80.3833 8.488C80.1033 7.96533 79.9633 7.34 79.9633 6.612C79.9633 5.90267 80.1033 5.28667 80.3833 4.764C80.6633 4.232 81.046 3.81667 81.5313 3.518C82.026 3.21933 82.5953 3.07 83.2393 3.07C83.6967 3.07 84.1073 3.14933 84.4713 3.308C84.8353 3.45733 85.1433 3.67667 85.3953 3.966C85.6567 4.25533 85.8527 4.60533 85.9833 5.016C86.1233 5.42667 86.1933 5.88867 86.1933 6.402C86.1933 6.55133 86.1513 6.66333 86.0673 6.738C85.9833 6.80333 85.862 6.836 85.7033 6.836H80.8313V6.094H85.4373L85.2133 6.276C85.2133 5.772 85.1387 5.34733 84.9893 5.002C84.84 4.64733 84.6207 4.37667 84.3313 4.19C84.0513 4.00333 83.6967 3.91 83.2673 3.91C82.7913 3.91 82.3853 4.022 82.0493 4.246C81.7227 4.46067 81.4753 4.764 81.3073 5.156C81.1393 5.53867 81.0553 5.98667 81.0553 6.5V6.584C81.0553 7.44267 81.2607 8.096 81.6713 8.544C82.0913 8.992 82.684 9.216 83.4493 9.216C83.7667 9.216 84.0793 9.174 84.3873 9.09C84.7047 9.006 85.0127 8.866 85.3113 8.67C85.442 8.586 85.5587 8.54867 85.6613 8.558C85.7733 8.558 85.862 8.59067 85.9273 8.656C85.9927 8.712 86.0347 8.78667 86.0533 8.88C86.0813 8.964 86.072 9.05733 86.0253 9.16C85.988 9.26267 85.9087 9.35133 85.7873 9.426C85.4793 9.65 85.1153 9.82267 84.6953 9.944C84.2753 10.0653 83.86 10.126 83.4493 10.126ZM94.2719 10.126C93.6092 10.126 93.0352 9.98133 92.5499 9.692C92.0645 9.40267 91.6865 8.99667 91.4159 8.474C91.1545 7.942 91.0239 7.31667 91.0239 6.598C91.0239 6.05667 91.0985 5.57133 91.2479 5.142C91.3972 4.70333 91.6165 4.33 91.9059 4.022C92.1952 3.714 92.5359 3.48067 92.9279 3.322C93.3292 3.154 93.7772 3.07 94.2719 3.07C94.9345 3.07 95.5085 3.21467 95.9939 3.504C96.4792 3.79333 96.8525 4.204 97.1139 4.736C97.3846 5.25867 97.5199 5.87933 97.5199 6.598C97.5199 7.13933 97.4452 7.62467 97.2959 8.054C97.1465 8.48333 96.9272 8.85667 96.6379 9.174C96.3485 9.482 96.0032 9.72 95.6019 9.888C95.2099 10.0467 94.7665 10.126 94.2719 10.126ZM94.2719 9.216C94.6919 9.216 95.0605 9.11333 95.3779 8.908C95.6952 8.70267 95.9379 8.404 96.1059 8.012C96.2832 7.62 96.3719 7.14867 96.3719 6.598C96.3719 5.74867 96.1805 5.1 95.7979 4.652C95.4245 4.204 94.9159 3.98 94.2719 3.98C93.8425 3.98 93.4692 4.08267 93.1519 4.288C92.8439 4.484 92.6012 4.778 92.4239 5.17C92.2559 5.55267 92.1719 6.02867 92.1719 6.598C92.1719 7.438 92.3632 8.08667 92.7459 8.544C93.1285 8.992 93.6372 9.216 94.2719 9.216ZM100.079 10.098C99.9015 10.098 99.7615 10.0467 99.6588 9.944C99.5655 9.84133 99.5188 9.69667 99.5188 9.51V4.078H98.6228C98.4735 4.078 98.3522 4.04067 98.2588 3.966C98.1748 3.882 98.1328 3.77 98.1328 3.63C98.1328 3.49 98.1748 3.38267 98.2588 3.308C98.3522 3.23333 98.4735 3.196 98.6228 3.196H99.8268L99.5188 3.49V2.958C99.5188 2.07133 99.7335 1.39467 100.163 0.928C100.601 0.461333 101.241 0.190666 102.081 0.116L102.487 0.0739993C102.617 0.0646661 102.72 0.0879994 102.795 0.143999C102.879 0.2 102.93 0.27 102.949 0.354C102.977 0.438 102.981 0.526667 102.963 0.62C102.944 0.704 102.902 0.778666 102.837 0.843999C102.771 0.909333 102.692 0.946666 102.599 0.956L102.277 0.983999C101.707 1.03067 101.292 1.20333 101.031 1.502C100.779 1.80067 100.653 2.23933 100.653 2.818V3.406L100.485 3.196H102.165C102.323 3.196 102.445 3.23333 102.529 3.308C102.613 3.38267 102.655 3.49 102.655 3.63C102.655 3.77 102.613 3.882 102.529 3.966C102.445 4.04067 102.323 4.078 102.165 4.078H100.653V9.51C100.653 9.902 100.461 10.098 100.079 10.098ZM108.938 12.618C108.798 12.618 108.686 12.5807 108.602 12.506C108.518 12.4313 108.467 12.3287 108.448 12.198C108.439 12.0767 108.462 11.9507 108.518 11.82L109.484 9.65V10.14L106.796 3.896C106.74 3.756 106.722 3.62533 106.74 3.504C106.759 3.38267 106.815 3.28467 106.908 3.21C107.002 3.13533 107.132 3.098 107.3 3.098C107.45 3.098 107.566 3.13067 107.65 3.196C107.734 3.26133 107.809 3.378 107.874 3.546L110.17 9.174H109.792L112.116 3.546C112.191 3.378 112.27 3.26133 112.354 3.196C112.438 3.13067 112.56 3.098 112.718 3.098C112.868 3.098 112.98 3.13533 113.054 3.21C113.138 3.28467 113.185 3.38267 113.194 3.504C113.213 3.616 113.194 3.742 113.138 3.882L109.554 12.17C109.48 12.338 109.396 12.4547 109.302 12.52C109.218 12.5853 109.097 12.618 108.938 12.618ZM117.35 10.126C116.687 10.126 116.113 9.98133 115.628 9.692C115.143 9.40267 114.765 8.99667 114.494 8.474C114.233 7.942 114.102 7.31667 114.102 6.598C114.102 6.05667 114.177 5.57133 114.326 5.142C114.475 4.70333 114.695 4.33 114.984 4.022C115.273 3.714 115.614 3.48067 116.006 3.322C116.407 3.154 116.855 3.07 117.35 3.07C118.013 3.07 118.587 3.21467 119.072 3.504C119.557 3.79333 119.931 4.204 120.192 4.736C120.463 5.25867 120.598 5.87933 120.598 6.598C120.598 7.13933 120.523 7.62467 120.374 8.054C120.225 8.48333 120.005 8.85667 119.716 9.174C119.427 9.482 119.081 9.72 118.68 9.888C118.288 10.0467 117.845 10.126 117.35 10.126ZM117.35 9.216C117.77 9.216 118.139 9.11333 118.456 8.908C118.773 8.70267 119.016 8.404 119.184 8.012C119.361 7.62 119.45 7.14867 119.45 6.598C119.45 5.74867 119.259 5.1 118.876 4.652C118.503 4.204 117.994 3.98 117.35 3.98C116.921 3.98 116.547 4.08267 116.23 4.288C115.922 4.484 115.679 4.778 115.502 5.17C115.334 5.55267 115.25 6.02867 115.25 6.598C115.25 7.438 115.441 8.08667 115.824 8.544C116.207 8.992 116.715 9.216 117.35 9.216ZM124.709 10.126C124.159 10.126 123.701 10.028 123.337 9.832C122.983 9.62667 122.712 9.32333 122.525 8.922C122.348 8.52067 122.259 8.02133 122.259 7.424V3.672C122.259 3.476 122.306 3.33133 122.399 3.238C122.502 3.14467 122.642 3.098 122.819 3.098C123.006 3.098 123.146 3.14467 123.239 3.238C123.342 3.33133 123.393 3.476 123.393 3.672V7.41C123.393 8.00733 123.515 8.45533 123.757 8.754C124.009 9.04333 124.401 9.188 124.933 9.188C125.512 9.188 125.983 8.992 126.347 8.6C126.711 8.208 126.893 7.69467 126.893 7.06V3.672C126.893 3.476 126.94 3.33133 127.033 3.238C127.136 3.14467 127.281 3.098 127.467 3.098C127.645 3.098 127.78 3.14467 127.873 3.238C127.976 3.33133 128.027 3.476 128.027 3.672V9.51C128.027 9.902 127.845 10.098 127.481 10.098C127.304 10.098 127.164 10.0467 127.061 9.944C126.968 9.84133 126.921 9.69667 126.921 9.51V8.236L127.103 8.432C126.917 8.98267 126.609 9.40267 126.179 9.692C125.759 9.98133 125.269 10.126 124.709 10.126ZM130.723 10.098C130.536 10.098 130.392 10.0467 130.289 9.944C130.196 9.84133 130.149 9.69667 130.149 9.51V3.672C130.149 3.48533 130.196 3.34533 130.289 3.252C130.382 3.14933 130.518 3.098 130.695 3.098C130.872 3.098 131.008 3.14933 131.101 3.252C131.204 3.34533 131.255 3.48533 131.255 3.672V4.806H131.115C131.264 4.25533 131.549 3.83067 131.969 3.532C132.389 3.23333 132.907 3.07467 133.523 3.056C133.663 3.04667 133.775 3.07933 133.859 3.154C133.943 3.21933 133.99 3.336 133.999 3.504C134.008 3.66267 133.971 3.78867 133.887 3.882C133.803 3.97533 133.672 4.03133 133.495 4.05L133.271 4.078C132.636 4.134 132.146 4.33933 131.801 4.694C131.465 5.03933 131.297 5.51533 131.297 6.122V9.51C131.297 9.69667 131.246 9.84133 131.143 9.944C131.05 10.0467 130.91 10.098 130.723 10.098ZM139.336 10.098C139.149 10.098 139.009 10.0467 138.916 9.944C138.823 9.84133 138.776 9.69667 138.776 9.51V3.672C138.776 3.48533 138.823 3.34533 138.916 3.252C139.009 3.14933 139.145 3.098 139.322 3.098C139.499 3.098 139.635 3.14933 139.728 3.252C139.831 3.34533 139.882 3.48533 139.882 3.672V4.876L139.728 4.708C139.924 4.16667 140.241 3.76067 140.68 3.49C141.128 3.21 141.641 3.07 142.22 3.07C142.761 3.07 143.209 3.168 143.564 3.364C143.928 3.56 144.199 3.85867 144.376 4.26C144.553 4.652 144.642 5.15133 144.642 5.758V9.51C144.642 9.69667 144.591 9.84133 144.488 9.944C144.395 10.0467 144.259 10.098 144.082 10.098C143.895 10.098 143.751 10.0467 143.648 9.944C143.555 9.84133 143.508 9.69667 143.508 9.51V5.828C143.508 5.19333 143.382 4.73133 143.13 4.442C142.887 4.14333 142.495 3.994 141.954 3.994C141.329 3.994 140.829 4.19 140.456 4.582C140.092 4.96467 139.91 5.478 139.91 6.122V9.51C139.91 9.902 139.719 10.098 139.336 10.098ZM149.141 10.126C148.59 10.126 148.133 10.028 147.769 9.832C147.414 9.62667 147.144 9.32333 146.957 8.922C146.78 8.52067 146.691 8.02133 146.691 7.424V3.672C146.691 3.476 146.738 3.33133 146.831 3.238C146.934 3.14467 147.074 3.098 147.251 3.098C147.438 3.098 147.578 3.14467 147.671 3.238C147.774 3.33133 147.825 3.476 147.825 3.672V7.41C147.825 8.00733 147.946 8.45533 148.189 8.754C148.441 9.04333 148.833 9.188 149.365 9.188C149.944 9.188 150.415 8.992 150.779 8.6C151.143 8.208 151.325 7.69467 151.325 7.06V3.672C151.325 3.476 151.372 3.33133 151.465 3.238C151.568 3.14467 151.712 3.098 151.899 3.098C152.076 3.098 152.212 3.14467 152.305 3.238C152.408 3.33133 152.459 3.476 152.459 3.672V9.51C152.459 9.902 152.277 10.098 151.913 10.098C151.736 10.098 151.596 10.0467 151.493 9.944C151.4 9.84133 151.353 9.69667 151.353 9.51V8.236L151.535 8.432C151.348 8.98267 151.04 9.40267 150.611 9.692C150.191 9.98133 149.701 10.126 149.141 10.126ZM155.169 10.098C154.982 10.098 154.842 10.0467 154.749 9.944C154.655 9.84133 154.609 9.69667 154.609 9.51V3.672C154.609 3.48533 154.655 3.34533 154.749 3.252C154.842 3.14933 154.977 3.098 155.155 3.098C155.332 3.098 155.467 3.14933 155.561 3.252C155.663 3.34533 155.715 3.48533 155.715 3.672V4.904L155.561 4.708C155.738 4.18533 156.023 3.784 156.415 3.504C156.816 3.21467 157.292 3.07 157.843 3.07C158.421 3.07 158.888 3.21 159.243 3.49C159.607 3.76067 159.849 4.18533 159.971 4.764H159.761C159.929 4.24133 160.227 3.83067 160.657 3.532C161.095 3.224 161.604 3.07 162.183 3.07C162.696 3.07 163.116 3.168 163.443 3.364C163.779 3.56 164.031 3.85867 164.199 4.26C164.367 4.652 164.451 5.15133 164.451 5.758V9.51C164.451 9.69667 164.399 9.84133 164.297 9.944C164.203 10.0467 164.063 10.098 163.877 10.098C163.699 10.098 163.559 10.0467 163.457 9.944C163.363 9.84133 163.317 9.69667 163.317 9.51V5.814C163.317 5.18867 163.209 4.73133 162.995 4.442C162.78 4.14333 162.416 3.994 161.903 3.994C161.343 3.994 160.899 4.19 160.573 4.582C160.255 4.96467 160.097 5.48733 160.097 6.15V9.51C160.097 9.69667 160.045 9.84133 159.943 9.944C159.849 10.0467 159.709 10.098 159.523 10.098C159.345 10.098 159.205 10.0467 159.103 9.944C159.009 9.84133 158.963 9.69667 158.963 9.51V5.814C158.963 5.18867 158.851 4.73133 158.627 4.442C158.412 4.14333 158.053 3.994 157.549 3.994C156.989 3.994 156.545 4.19 156.219 4.582C155.901 4.96467 155.743 5.48733 155.743 6.15V9.51C155.743 9.902 155.551 10.098 155.169 10.098ZM170.015 10.126C169.399 10.126 168.867 9.96733 168.419 9.65C167.98 9.33267 167.686 8.908 167.537 8.376L167.691 8.222V9.51C167.691 9.69667 167.64 9.84133 167.537 9.944C167.444 10.0467 167.308 10.098 167.131 10.098C166.944 10.098 166.804 10.0467 166.711 9.944C166.618 9.84133 166.571 9.69667 166.571 9.51V0.606C166.571 0.419333 166.618 0.279333 166.711 0.186C166.804 0.0833331 166.944 0.0319998 167.131 0.0319998C167.308 0.0319998 167.448 0.0833331 167.551 0.186C167.654 0.279333 167.705 0.419333 167.705 0.606V4.778H167.537C167.696 4.25533 167.994 3.84 168.433 3.532C168.872 3.224 169.399 3.07 170.015 3.07C170.631 3.07 171.163 3.21467 171.611 3.504C172.059 3.784 172.404 4.19 172.647 4.722C172.899 5.24467 173.025 5.87 173.025 6.598C173.025 7.31667 172.899 7.942 172.647 8.474C172.404 8.99667 172.054 9.40267 171.597 9.692C171.149 9.98133 170.622 10.126 170.015 10.126ZM169.777 9.216C170.206 9.216 170.575 9.11333 170.883 8.908C171.2 8.70267 171.443 8.404 171.611 8.012C171.788 7.62 171.877 7.14867 171.877 6.598C171.877 5.74867 171.686 5.1 171.303 4.652C170.93 4.204 170.421 3.98 169.777 3.98C169.357 3.98 168.988 4.08267 168.671 4.288C168.354 4.484 168.106 4.778 167.929 5.17C167.761 5.55267 167.677 6.02867 167.677 6.598C167.677 7.438 167.868 8.08667 168.251 8.544C168.634 8.992 169.142 9.216 169.777 9.216ZM177.799 10.126C177.08 10.126 176.46 9.986 175.937 9.706C175.424 9.41667 175.022 9.01067 174.733 8.488C174.453 7.96533 174.313 7.34 174.313 6.612C174.313 5.90267 174.453 5.28667 174.733 4.764C175.013 4.232 175.396 3.81667 175.881 3.518C176.376 3.21933 176.945 3.07 177.589 3.07C178.046 3.07 178.457 3.14933 178.821 3.308C179.185 3.45733 179.493 3.67667 179.745 3.966C180.006 4.25533 180.202 4.60533 180.333 5.016C180.473 5.42667 180.543 5.88867 180.543 6.402C180.543 6.55133 180.501 6.66333 180.417 6.738C180.333 6.80333 180.212 6.836 180.053 6.836H175.181V6.094H179.787L179.563 6.276C179.563 5.772 179.488 5.34733 179.339 5.002C179.19 4.64733 178.97 4.37667 178.681 4.19C178.401 4.00333 178.046 3.91 177.617 3.91C177.141 3.91 176.735 4.022 176.399 4.246C176.072 4.46067 175.825 4.764 175.657 5.156C175.489 5.53867 175.405 5.98667 175.405 6.5V6.584C175.405 7.44267 175.61 8.096 176.021 8.544C176.441 8.992 177.034 9.216 177.799 9.216C178.116 9.216 178.429 9.174 178.737 9.09C179.054 9.006 179.362 8.866 179.661 8.67C179.792 8.586 179.908 8.54867 180.011 8.558C180.123 8.558 180.212 8.59067 180.277 8.656C180.342 8.712 180.384 8.78667 180.403 8.88C180.431 8.964 180.422 9.05733 180.375 9.16C180.338 9.26267 180.258 9.35133 180.137 9.426C179.829 9.65 179.465 9.82267 179.045 9.944C178.625 10.0653 178.21 10.126 177.799 10.126ZM182.758 10.098C182.571 10.098 182.427 10.0467 182.324 9.944C182.231 9.84133 182.184 9.69667 182.184 9.51V3.672C182.184 3.48533 182.231 3.34533 182.324 3.252C182.417 3.14933 182.553 3.098 182.73 3.098C182.907 3.098 183.043 3.14933 183.136 3.252C183.239 3.34533 183.29 3.48533 183.29 3.672V4.806H183.15C183.299 4.25533 183.584 3.83067 184.004 3.532C184.424 3.23333 184.942 3.07467 185.558 3.056C185.698 3.04667 185.81 3.07933 185.894 3.154C185.978 3.21933 186.025 3.336 186.034 3.504C186.043 3.66267 186.006 3.78867 185.922 3.882C185.838 3.97533 185.707 4.03133 185.53 4.05L185.306 4.078C184.671 4.134 184.181 4.33933 183.836 4.694C183.5 5.03933 183.332 5.51533 183.332 6.122V9.51C183.332 9.69667 183.281 9.84133 183.178 9.944C183.085 10.0467 182.945 10.098 182.758 10.098ZM189.429 10.126C189.009 10.126 188.585 10.0747 188.155 9.972C187.735 9.86933 187.343 9.692 186.979 9.44C186.886 9.37467 186.821 9.3 186.783 9.216C186.746 9.12267 186.732 9.034 186.741 8.95C186.76 8.85667 186.797 8.77733 186.853 8.712C186.919 8.64667 186.993 8.60933 187.077 8.6C187.171 8.58133 187.273 8.6 187.385 8.656C187.749 8.88 188.099 9.03867 188.435 9.132C188.781 9.216 189.121 9.258 189.457 9.258C189.989 9.258 190.391 9.16 190.661 8.964C190.932 8.768 191.067 8.502 191.067 8.166C191.067 7.90467 190.979 7.69933 190.801 7.55C190.624 7.39133 190.344 7.27 189.961 7.186L188.687 6.906C188.099 6.78467 187.661 6.57467 187.371 6.276C187.091 5.97733 186.951 5.59 186.951 5.114C186.951 4.694 187.059 4.33467 187.273 4.036C187.497 3.728 187.81 3.49 188.211 3.322C188.613 3.154 189.079 3.07 189.611 3.07C190.022 3.07 190.409 3.126 190.773 3.238C191.147 3.34067 191.483 3.50867 191.781 3.742C191.875 3.80733 191.935 3.88667 191.963 3.98C192.001 4.064 192.005 4.15267 191.977 4.246C191.959 4.33 191.917 4.40467 191.851 4.47C191.786 4.526 191.707 4.55867 191.613 4.568C191.52 4.57733 191.422 4.54933 191.319 4.484C191.039 4.29733 190.755 4.162 190.465 4.078C190.176 3.98467 189.891 3.938 189.611 3.938C189.089 3.938 188.692 4.04067 188.421 4.246C188.151 4.45133 188.015 4.722 188.015 5.058C188.015 5.31933 188.099 5.534 188.267 5.702C188.435 5.87 188.697 5.99133 189.051 6.066L190.325 6.332C190.932 6.46267 191.385 6.67267 191.683 6.962C191.991 7.242 192.145 7.62467 192.145 8.11C192.145 8.726 191.898 9.216 191.403 9.58C190.909 9.944 190.251 10.126 189.429 10.126ZM194.477 11.33C194.384 11.4513 194.286 11.5213 194.183 11.54C194.081 11.5587 193.992 11.54 193.917 11.484C193.843 11.428 193.801 11.3487 193.791 11.246C193.791 11.1433 193.838 11.0313 193.931 10.91C194.081 10.714 194.183 10.5133 194.239 10.308C194.295 10.112 194.323 9.93 194.323 9.762L194.379 10.056C194.137 10.056 193.941 9.986 193.791 9.846C193.651 9.69667 193.581 9.51 193.581 9.286C193.581 9.062 193.647 8.88 193.777 8.74C193.917 8.59067 194.099 8.516 194.323 8.516C194.566 8.516 194.757 8.6 194.897 8.768C195.037 8.92667 195.107 9.16 195.107 9.468C195.107 9.664 195.089 9.86467 195.051 10.07C195.014 10.2847 194.949 10.4993 194.855 10.714C194.762 10.9287 194.636 11.134 194.477 11.33ZM201.16 10.098C200.973 10.098 200.833 10.0467 200.74 9.944C200.647 9.84133 200.6 9.69667 200.6 9.51V0.606C200.6 0.419333 200.647 0.279333 200.74 0.186C200.833 0.0833331 200.973 0.0319998 201.16 0.0319998C201.337 0.0319998 201.477 0.0833331 201.58 0.186C201.683 0.279333 201.734 0.419333 201.734 0.606V6.22H201.762L204.632 3.476C204.763 3.35467 204.875 3.26133 204.968 3.196C205.071 3.13067 205.206 3.098 205.374 3.098C205.523 3.098 205.64 3.14 205.724 3.224C205.808 3.29867 205.845 3.39667 205.836 3.518C205.836 3.63 205.78 3.75133 205.668 3.882L202.616 6.78V6.164L205.934 9.286C206.065 9.41667 206.13 9.54267 206.13 9.664C206.13 9.78533 206.083 9.888 205.99 9.972C205.906 10.056 205.794 10.098 205.654 10.098C205.486 10.098 205.351 10.0653 205.248 10C205.145 9.92533 205.019 9.818 204.87 9.678L201.762 6.808H201.734V9.51C201.734 9.902 201.543 10.098 201.16 10.098ZM208.16 10.098C207.973 10.098 207.833 10.0467 207.74 9.944C207.647 9.84133 207.6 9.69667 207.6 9.51V3.672C207.6 3.48533 207.647 3.34533 207.74 3.252C207.833 3.14933 207.969 3.098 208.146 3.098C208.323 3.098 208.459 3.14933 208.552 3.252C208.655 3.34533 208.706 3.48533 208.706 3.672V4.876L208.552 4.708C208.748 4.16667 209.065 3.76067 209.504 3.49C209.952 3.21 210.465 3.07 211.044 3.07C211.585 3.07 212.033 3.168 212.388 3.364C212.752 3.56 213.023 3.85867 213.2 4.26C213.377 4.652 213.466 5.15133 213.466 5.758V9.51C213.466 9.69667 213.415 9.84133 213.312 9.944C213.219 10.0467 213.083 10.098 212.906 10.098C212.719 10.098 212.575 10.0467 212.472 9.944C212.379 9.84133 212.332 9.69667 212.332 9.51V5.828C212.332 5.19333 212.206 4.73133 211.954 4.442C211.711 4.14333 211.319 3.994 210.778 3.994C210.153 3.994 209.653 4.19 209.28 4.582C208.916 4.96467 208.734 5.478 208.734 6.122V9.51C208.734 9.902 208.543 10.098 208.16 10.098ZM218.385 10.126C217.722 10.126 217.148 9.98133 216.663 9.692C216.178 9.40267 215.8 8.99667 215.529 8.474C215.268 7.942 215.137 7.31667 215.137 6.598C215.137 6.05667 215.212 5.57133 215.361 5.142C215.51 4.70333 215.73 4.33 216.019 4.022C216.308 3.714 216.649 3.48067 217.041 3.322C217.442 3.154 217.89 3.07 218.385 3.07C219.048 3.07 219.622 3.21467 220.107 3.504C220.592 3.79333 220.966 4.204 221.227 4.736C221.498 5.25867 221.633 5.87933 221.633 6.598C221.633 7.13933 221.558 7.62467 221.409 8.054C221.26 8.48333 221.04 8.85667 220.751 9.174C220.462 9.482 220.116 9.72 219.715 9.888C219.323 10.0467 218.88 10.126 218.385 10.126ZM218.385 9.216C218.805 9.216 219.174 9.11333 219.491 8.908C219.808 8.70267 220.051 8.404 220.219 8.012C220.396 7.62 220.485 7.14867 220.485 6.598C220.485 5.74867 220.294 5.1 219.911 4.652C219.538 4.204 219.029 3.98 218.385 3.98C217.956 3.98 217.582 4.08267 217.265 4.288C216.957 4.484 216.714 4.778 216.537 5.17C216.369 5.55267 216.285 6.02867 216.285 6.598C216.285 7.438 216.476 8.08667 216.859 8.544C217.242 8.992 217.75 9.216 218.385 9.216ZM225.593 10.098C225.434 10.098 225.294 10.056 225.173 9.972C225.051 9.888 224.953 9.75267 224.879 9.566L222.793 3.896C222.737 3.73733 222.718 3.59733 222.737 3.476C222.765 3.35467 222.825 3.26133 222.919 3.196C223.012 3.13067 223.129 3.098 223.269 3.098C223.409 3.098 223.521 3.13067 223.605 3.196C223.698 3.26133 223.773 3.38267 223.829 3.56L225.789 9.16H225.453L227.469 3.56C227.534 3.392 227.613 3.27533 227.707 3.21C227.809 3.13533 227.94 3.098 228.099 3.098C228.248 3.098 228.374 3.13533 228.477 3.21C228.579 3.28467 228.659 3.40133 228.715 3.56L230.689 9.16H230.367L232.355 3.532C232.42 3.364 232.499 3.252 232.593 3.196C232.686 3.13067 232.798 3.098 232.929 3.098C233.078 3.098 233.19 3.13533 233.265 3.21C233.349 3.28467 233.395 3.38267 233.405 3.504C233.414 3.62533 233.391 3.756 233.335 3.896L231.249 9.566C231.183 9.74333 231.085 9.87867 230.955 9.972C230.833 10.056 230.693 10.098 230.535 10.098C230.376 10.098 230.236 10.056 230.115 9.972C229.993 9.87867 229.9 9.74333 229.835 9.566L227.763 3.882H228.365L226.307 9.566C226.241 9.74333 226.148 9.87867 226.027 9.972C225.905 10.056 225.761 10.098 225.593 10.098ZM239.182 10.098C238.995 10.098 238.855 10.0467 238.762 9.944C238.668 9.84133 238.622 9.69667 238.622 9.51V0.606C238.622 0.419333 238.668 0.279333 238.762 0.186C238.855 0.0833331 238.995 0.0319998 239.182 0.0319998C239.359 0.0319998 239.499 0.0833331 239.602 0.186C239.704 0.279333 239.756 0.419333 239.756 0.606V4.708H239.574C239.77 4.16667 240.087 3.76067 240.526 3.49C240.974 3.21 241.487 3.07 242.066 3.07C242.607 3.07 243.055 3.168 243.41 3.364C243.774 3.56 244.044 3.85867 244.222 4.26C244.399 4.652 244.488 5.15133 244.488 5.758V9.51C244.488 9.69667 244.436 9.84133 244.334 9.944C244.24 10.0467 244.105 10.098 243.928 10.098C243.741 10.098 243.596 10.0467 243.494 9.944C243.4 9.84133 243.354 9.69667 243.354 9.51V5.828C243.354 5.19333 243.228 4.73133 242.976 4.442C242.733 4.14333 242.341 3.994 241.8 3.994C241.174 3.994 240.675 4.19 240.302 4.582C239.938 4.96467 239.756 5.478 239.756 6.122V9.51C239.756 9.902 239.564 10.098 239.182 10.098ZM249.407 10.126C248.744 10.126 248.17 9.98133 247.685 9.692C247.199 9.40267 246.821 8.99667 246.551 8.474C246.289 7.942 246.159 7.31667 246.159 6.598C246.159 6.05667 246.233 5.57133 246.383 5.142C246.532 4.70333 246.751 4.33 247.041 4.022C247.33 3.714 247.671 3.48067 248.063 3.322C248.464 3.154 248.912 3.07 249.407 3.07C250.069 3.07 250.643 3.21467 251.129 3.504C251.614 3.79333 251.987 4.204 252.249 4.736C252.519 5.25867 252.655 5.87933 252.655 6.598C252.655 7.13933 252.58 7.62467 252.431 8.054C252.281 8.48333 252.062 8.85667 251.773 9.174C251.483 9.482 251.138 9.72 250.737 9.888C250.345 10.0467 249.901 10.126 249.407 10.126ZM249.407 9.216C249.827 9.216 250.195 9.11333 250.513 8.908C250.83 8.70267 251.073 8.404 251.241 8.012C251.418 7.62 251.507 7.14867 251.507 6.598C251.507 5.74867 251.315 5.1 250.933 4.652C250.559 4.204 250.051 3.98 249.407 3.98C248.977 3.98 248.604 4.08267 248.287 4.288C247.979 4.484 247.736 4.778 247.559 5.17C247.391 5.55267 247.307 6.02867 247.307 6.598C247.307 7.438 247.498 8.08667 247.881 8.544C248.263 8.992 248.772 9.216 249.407 9.216ZM256.614 10.098C256.456 10.098 256.316 10.056 256.194 9.972C256.073 9.888 255.975 9.75267 255.9 9.566L253.814 3.896C253.758 3.73733 253.74 3.59733 253.758 3.476C253.786 3.35467 253.847 3.26133 253.94 3.196C254.034 3.13067 254.15 3.098 254.29 3.098C254.43 3.098 254.542 3.13067 254.626 3.196C254.72 3.26133 254.794 3.38267 254.85 3.56L256.81 9.16H256.474L258.49 3.56C258.556 3.392 258.635 3.27533 258.728 3.21C258.831 3.13533 258.962 3.098 259.12 3.098C259.27 3.098 259.396 3.13533 259.498 3.21C259.601 3.28467 259.68 3.40133 259.736 3.56L261.71 9.16H261.388L263.376 3.532C263.442 3.364 263.521 3.252 263.614 3.196C263.708 3.13067 263.82 3.098 263.95 3.098C264.1 3.098 264.212 3.13533 264.286 3.21C264.37 3.28467 264.417 3.38267 264.426 3.504C264.436 3.62533 264.412 3.756 264.356 3.896L262.27 9.566C262.205 9.74333 262.107 9.87867 261.976 9.972C261.855 10.056 261.715 10.098 261.556 10.098C261.398 10.098 261.258 10.056 261.136 9.972C261.015 9.87867 260.922 9.74333 260.856 9.566L258.784 3.882H259.386L257.328 9.566C257.263 9.74333 257.17 9.87867 257.048 9.972C256.927 10.056 256.782 10.098 256.614 10.098ZM271.155 12.618C271.015 12.618 270.903 12.5807 270.819 12.506C270.735 12.4313 270.684 12.3287 270.665 12.198C270.656 12.0767 270.679 11.9507 270.735 11.82L271.701 9.65V10.14L269.013 3.896C268.957 3.756 268.938 3.62533 268.957 3.504C268.976 3.38267 269.032 3.28467 269.125 3.21C269.218 3.13533 269.349 3.098 269.517 3.098C269.666 3.098 269.783 3.13067 269.867 3.196C269.951 3.26133 270.026 3.378 270.091 3.546L272.387 9.174H272.009L274.333 3.546C274.408 3.378 274.487 3.26133 274.571 3.196C274.655 3.13067 274.776 3.098 274.935 3.098C275.084 3.098 275.196 3.13533 275.271 3.21C275.355 3.28467 275.402 3.38267 275.411 3.504C275.43 3.616 275.411 3.742 275.355 3.882L271.771 12.17C271.696 12.338 271.612 12.4547 271.519 12.52C271.435 12.5853 271.314 12.618 271.155 12.618ZM279.567 10.126C278.904 10.126 278.33 9.98133 277.845 9.692C277.359 9.40267 276.981 8.99667 276.711 8.474C276.449 7.942 276.319 7.31667 276.319 6.598C276.319 6.05667 276.393 5.57133 276.543 5.142C276.692 4.70333 276.911 4.33 277.201 4.022C277.49 3.714 277.831 3.48067 278.223 3.322C278.624 3.154 279.072 3.07 279.567 3.07C280.229 3.07 280.803 3.21467 281.289 3.504C281.774 3.79333 282.147 4.204 282.409 4.736C282.679 5.25867 282.815 5.87933 282.815 6.598C282.815 7.13933 282.74 7.62467 282.591 8.054C282.441 8.48333 282.222 8.85667 281.933 9.174C281.643 9.482 281.298 9.72 280.897 9.888C280.505 10.0467 280.061 10.126 279.567 10.126ZM279.567 9.216C279.987 9.216 280.355 9.11333 280.673 8.908C280.99 8.70267 281.233 8.404 281.401 8.012C281.578 7.62 281.667 7.14867 281.667 6.598C281.667 5.74867 281.475 5.1 281.093 4.652C280.719 4.204 280.211 3.98 279.567 3.98C279.137 3.98 278.764 4.08267 278.447 4.288C278.139 4.484 277.896 4.778 277.719 5.17C277.551 5.55267 277.467 6.02867 277.467 6.598C277.467 7.438 277.658 8.08667 278.041 8.544C278.423 8.992 278.932 9.216 279.567 9.216ZM286.926 10.126C286.375 10.126 285.918 10.028 285.554 9.832C285.199 9.62667 284.929 9.32333 284.742 8.922C284.565 8.52067 284.476 8.02133 284.476 7.424V3.672C284.476 3.476 284.523 3.33133 284.616 3.238C284.719 3.14467 284.859 3.098 285.036 3.098C285.223 3.098 285.363 3.14467 285.456 3.238C285.559 3.33133 285.61 3.476 285.61 3.672V7.41C285.61 8.00733 285.731 8.45533 285.974 8.754C286.226 9.04333 286.618 9.188 287.15 9.188C287.729 9.188 288.2 8.992 288.564 8.6C288.928 8.208 289.11 7.69467 289.11 7.06V3.672C289.11 3.476 289.157 3.33133 289.25 3.238C289.353 3.14467 289.497 3.098 289.684 3.098C289.861 3.098 289.997 3.14467 290.09 3.238C290.193 3.33133 290.244 3.476 290.244 3.672V9.51C290.244 9.902 290.062 10.098 289.698 10.098C289.521 10.098 289.381 10.0467 289.278 9.944C289.185 9.84133 289.138 9.69667 289.138 9.51V8.236L289.32 8.432C289.133 8.98267 288.825 9.40267 288.396 9.692C287.976 9.98133 287.486 10.126 286.926 10.126ZM292.94 10.098C292.753 10.098 292.608 10.0467 292.506 9.944C292.412 9.84133 292.366 9.69667 292.366 9.51V3.672C292.366 3.48533 292.412 3.34533 292.506 3.252C292.599 3.14933 292.734 3.098 292.912 3.098C293.089 3.098 293.224 3.14933 293.318 3.252C293.42 3.34533 293.472 3.48533 293.472 3.672V4.806H293.332C293.481 4.25533 293.766 3.83067 294.186 3.532C294.606 3.23333 295.124 3.07467 295.74 3.056C295.88 3.04667 295.992 3.07933 296.076 3.154C296.16 3.21933 296.206 3.336 296.216 3.504C296.225 3.66267 296.188 3.78867 296.104 3.882C296.02 3.97533 295.889 4.03133 295.712 4.05L295.488 4.078C294.853 4.134 294.363 4.33933 294.018 4.694C293.682 5.03933 293.514 5.51533 293.514 6.122V9.51C293.514 9.69667 293.462 9.84133 293.36 9.944C293.266 10.0467 293.126 10.098 292.94 10.098ZM97.1848 32.126C96.5688 32.126 96.0368 31.9673 95.5888 31.65C95.1501 31.3327 94.8561 30.908 94.7068 30.376L94.8608 30.222V31.51C94.8608 31.6967 94.8094 31.8413 94.7068 31.944C94.6134 32.0467 94.4781 32.098 94.3008 32.098C94.1141 32.098 93.9741 32.0467 93.8808 31.944C93.7874 31.8413 93.7408 31.6967 93.7408 31.51V22.606C93.7408 22.4193 93.7874 22.2793 93.8808 22.186C93.9741 22.0833 94.1141 22.032 94.3008 22.032C94.4781 22.032 94.6181 22.0833 94.7208 22.186C94.8234 22.2793 94.8748 22.4193 94.8748 22.606V26.778H94.7068C94.8654 26.2553 95.1641 25.84 95.6028 25.532C96.0414 25.224 96.5688 25.07 97.1848 25.07C97.8008 25.07 98.3328 25.2147 98.7808 25.504C99.2288 25.784 99.5741 26.19 99.8168 26.722C100.069 27.2447 100.195 27.87 100.195 28.598C100.195 29.3167 100.069 29.942 99.8168 30.474C99.5741 30.9967 99.2241 31.4027 98.7668 31.692C98.3188 31.9813 97.7914 32.126 97.1848 32.126ZM96.9468 31.216C97.3761 31.216 97.7448 31.1133 98.0528 30.908C98.3701 30.7027 98.6128 30.404 98.7808 30.012C98.9581 29.62 99.0468 29.1487 99.0468 28.598C99.0468 27.7487 98.8554 27.1 98.4728 26.652C98.0994 26.204 97.5908 25.98 96.9468 25.98C96.5268 25.98 96.1581 26.0827 95.8408 26.288C95.5234 26.484 95.2761 26.778 95.0988 27.17C94.9308 27.5527 94.8468 28.0287 94.8468 28.598C94.8468 29.438 95.0381 30.0867 95.4208 30.544C95.8034 30.992 96.3121 31.216 96.9468 31.216ZM104.311 32.126C103.76 32.126 103.303 32.028 102.939 31.832C102.584 31.6267 102.314 31.3233 102.127 30.922C101.95 30.5207 101.861 30.0213 101.861 29.424V25.672C101.861 25.476 101.908 25.3313 102.001 25.238C102.104 25.1447 102.244 25.098 102.421 25.098C102.608 25.098 102.748 25.1447 102.841 25.238C102.944 25.3313 102.995 25.476 102.995 25.672V29.41C102.995 30.0073 103.116 30.4553 103.359 30.754C103.611 31.0433 104.003 31.188 104.535 31.188C105.114 31.188 105.585 30.992 105.949 30.6C106.313 30.208 106.495 29.6947 106.495 29.06V25.672C106.495 25.476 106.542 25.3313 106.635 25.238C106.738 25.1447 106.882 25.098 107.069 25.098C107.246 25.098 107.382 25.1447 107.475 25.238C107.578 25.3313 107.629 25.476 107.629 25.672V31.51C107.629 31.902 107.447 32.098 107.083 32.098C106.906 32.098 106.766 32.0467 106.663 31.944C106.57 31.8413 106.523 31.6967 106.523 31.51V30.236L106.705 30.432C106.518 30.9827 106.21 31.4027 105.781 31.692C105.361 31.9813 104.871 32.126 104.311 32.126ZM112.047 32.126C111.627 32.126 111.202 32.0747 110.773 31.972C110.353 31.8693 109.961 31.692 109.597 31.44C109.503 31.3747 109.438 31.3 109.401 31.216C109.363 31.1227 109.349 31.034 109.359 30.95C109.377 30.8567 109.415 30.7773 109.471 30.712C109.536 30.6467 109.611 30.6093 109.695 30.6C109.788 30.5813 109.891 30.6 110.003 30.656C110.367 30.88 110.717 31.0387 111.053 31.132C111.398 31.216 111.739 31.258 112.075 31.258C112.607 31.258 113.008 31.16 113.279 30.964C113.549 30.768 113.685 30.502 113.685 30.166C113.685 29.9047 113.596 29.6993 113.419 29.55C113.241 29.3913 112.961 29.27 112.579 29.186L111.305 28.906C110.717 28.7847 110.278 28.5747 109.989 28.276C109.709 27.9773 109.569 27.59 109.569 27.114C109.569 26.694 109.676 26.3347 109.891 26.036C110.115 25.728 110.427 25.49 110.829 25.322C111.23 25.154 111.697 25.07 112.229 25.07C112.639 25.07 113.027 25.126 113.391 25.238C113.764 25.3407 114.1 25.5087 114.399 25.742C114.492 25.8073 114.553 25.8867 114.581 25.98C114.618 26.064 114.623 26.1527 114.595 26.246C114.576 26.33 114.534 26.4047 114.469 26.47C114.403 26.526 114.324 26.5587 114.231 26.568C114.137 26.5773 114.039 26.5493 113.937 26.484C113.657 26.2973 113.372 26.162 113.083 26.078C112.793 25.9847 112.509 25.938 112.229 25.938C111.706 25.938 111.309 26.0407 111.039 26.246C110.768 26.4513 110.633 26.722 110.633 27.058C110.633 27.3193 110.717 27.534 110.885 27.702C111.053 27.87 111.314 27.9913 111.669 28.066L112.943 28.332C113.549 28.4627 114.002 28.6727 114.301 28.962C114.609 29.242 114.763 29.6247 114.763 30.11C114.763 30.726 114.515 31.216 114.021 31.58C113.526 31.944 112.868 32.126 112.047 32.126ZM117.051 32.07C116.864 32.07 116.724 32.0187 116.631 31.916C116.537 31.804 116.491 31.65 116.491 31.454V25.728C116.491 25.532 116.537 25.3827 116.631 25.28C116.724 25.1773 116.864 25.126 117.051 25.126C117.228 25.126 117.368 25.1773 117.471 25.28C117.573 25.3827 117.625 25.532 117.625 25.728V31.454C117.625 31.65 117.573 31.804 117.471 31.916C117.377 32.0187 117.237 32.07 117.051 32.07ZM117.051 23.558C116.817 23.558 116.635 23.4973 116.505 23.376C116.374 23.2453 116.309 23.0727 116.309 22.858C116.309 22.634 116.374 22.466 116.505 22.354C116.635 22.2327 116.817 22.172 117.051 22.172C117.293 22.172 117.475 22.2327 117.597 22.354C117.727 22.466 117.793 22.634 117.793 22.858C117.793 23.0727 117.727 23.2453 117.597 23.376C117.475 23.4973 117.293 23.558 117.051 23.558ZM120.305 32.098C120.118 32.098 119.978 32.0467 119.885 31.944C119.791 31.8413 119.745 31.6967 119.745 31.51V25.672C119.745 25.4853 119.791 25.3453 119.885 25.252C119.978 25.1493 120.113 25.098 120.291 25.098C120.468 25.098 120.603 25.1493 120.697 25.252C120.799 25.3453 120.851 25.4853 120.851 25.672V26.876L120.697 26.708C120.893 26.1667 121.21 25.7607 121.649 25.49C122.097 25.21 122.61 25.07 123.189 25.07C123.73 25.07 124.178 25.168 124.533 25.364C124.897 25.56 125.167 25.8587 125.345 26.26C125.522 26.652 125.611 27.1513 125.611 27.758V31.51C125.611 31.6967 125.559 31.8413 125.457 31.944C125.363 32.0467 125.228 32.098 125.051 32.098C124.864 32.098 124.719 32.0467 124.617 31.944C124.523 31.8413 124.477 31.6967 124.477 31.51V27.828C124.477 27.1933 124.351 26.7313 124.099 26.442C123.856 26.1433 123.464 25.994 122.923 25.994C122.297 25.994 121.798 26.19 121.425 26.582C121.061 26.9647 120.879 27.478 120.879 28.122V31.51C120.879 31.902 120.687 32.098 120.305 32.098ZM130.768 32.126C130.049 32.126 129.428 31.986 128.906 31.706C128.392 31.4167 127.991 31.0107 127.702 30.488C127.422 29.9653 127.282 29.34 127.282 28.612C127.282 27.9027 127.422 27.2867 127.702 26.764C127.982 26.232 128.364 25.8167 128.85 25.518C129.344 25.2193 129.914 25.07 130.558 25.07C131.015 25.07 131.426 25.1493 131.79 25.308C132.154 25.4573 132.462 25.6767 132.714 25.966C132.975 26.2553 133.171 26.6053 133.302 27.016C133.442 27.4267 133.512 27.8887 133.512 28.402C133.512 28.5513 133.47 28.6633 133.386 28.738C133.302 28.8033 133.18 28.836 133.022 28.836H128.15V28.094H132.756L132.532 28.276C132.532 27.772 132.457 27.3473 132.308 27.002C132.158 26.6473 131.939 26.3767 131.65 26.19C131.37 26.0033 131.015 25.91 130.586 25.91C130.11 25.91 129.704 26.022 129.368 26.246C129.041 26.4607 128.794 26.764 128.626 27.156C128.458 27.5387 128.374 27.9867 128.374 28.5V28.584C128.374 29.4427 128.579 30.096 128.99 30.544C129.41 30.992 130.002 31.216 130.768 31.216C131.085 31.216 131.398 31.174 131.706 31.09C132.023 31.006 132.331 30.866 132.63 30.67C132.76 30.586 132.877 30.5487 132.98 30.558C133.092 30.558 133.18 30.5907 133.246 30.656C133.311 30.712 133.353 30.7867 133.372 30.88C133.4 30.964 133.39 31.0573 133.344 31.16C133.306 31.2627 133.227 31.3513 133.106 31.426C132.798 31.65 132.434 31.8227 132.014 31.944C131.594 32.0653 131.178 32.126 130.768 32.126ZM137.449 32.126C137.029 32.126 136.604 32.0747 136.175 31.972C135.755 31.8693 135.363 31.692 134.999 31.44C134.906 31.3747 134.84 31.3 134.803 31.216C134.766 31.1227 134.752 31.034 134.761 30.95C134.78 30.8567 134.817 30.7773 134.873 30.712C134.938 30.6467 135.013 30.6093 135.097 30.6C135.19 30.5813 135.293 30.6 135.405 30.656C135.769 30.88 136.119 31.0387 136.455 31.132C136.8 31.216 137.141 31.258 137.477 31.258C138.009 31.258 138.41 31.16 138.681 30.964C138.952 30.768 139.087 30.502 139.087 30.166C139.087 29.9047 138.998 29.6993 138.821 29.55C138.644 29.3913 138.364 29.27 137.981 29.186L136.707 28.906C136.119 28.7847 135.68 28.5747 135.391 28.276C135.111 27.9773 134.971 27.59 134.971 27.114C134.971 26.694 135.078 26.3347 135.293 26.036C135.517 25.728 135.83 25.49 136.231 25.322C136.632 25.154 137.099 25.07 137.631 25.07C138.042 25.07 138.429 25.126 138.793 25.238C139.166 25.3407 139.502 25.5087 139.801 25.742C139.894 25.8073 139.955 25.8867 139.983 25.98C140.02 26.064 140.025 26.1527 139.997 26.246C139.978 26.33 139.936 26.4047 139.871 26.47C139.806 26.526 139.726 26.5587 139.633 26.568C139.54 26.5773 139.442 26.5493 139.339 26.484C139.059 26.2973 138.774 26.162 138.485 26.078C138.196 25.9847 137.911 25.938 137.631 25.938C137.108 25.938 136.712 26.0407 136.441 26.246C136.17 26.4513 136.035 26.722 136.035 27.058C136.035 27.3193 136.119 27.534 136.287 27.702C136.455 27.87 136.716 27.9913 137.071 28.066L138.345 28.332C138.952 28.4627 139.404 28.6727 139.703 28.962C140.011 29.242 140.165 29.6247 140.165 30.11C140.165 30.726 139.918 31.216 139.423 31.58C138.928 31.944 138.27 32.126 137.449 32.126ZM144.189 32.126C143.769 32.126 143.344 32.0747 142.915 31.972C142.495 31.8693 142.103 31.692 141.739 31.44C141.646 31.3747 141.58 31.3 141.543 31.216C141.506 31.1227 141.492 31.034 141.501 30.95C141.52 30.8567 141.557 30.7773 141.613 30.712C141.678 30.6467 141.753 30.6093 141.837 30.6C141.93 30.5813 142.033 30.6 142.145 30.656C142.509 30.88 142.859 31.0387 143.195 31.132C143.54 31.216 143.881 31.258 144.217 31.258C144.749 31.258 145.15 31.16 145.421 30.964C145.692 30.768 145.827 30.502 145.827 30.166C145.827 29.9047 145.738 29.6993 145.561 29.55C145.384 29.3913 145.104 29.27 144.721 29.186L143.447 28.906C142.859 28.7847 142.42 28.5747 142.131 28.276C141.851 27.9773 141.711 27.59 141.711 27.114C141.711 26.694 141.818 26.3347 142.033 26.036C142.257 25.728 142.57 25.49 142.971 25.322C143.372 25.154 143.839 25.07 144.371 25.07C144.782 25.07 145.169 25.126 145.533 25.238C145.906 25.3407 146.242 25.5087 146.541 25.742C146.634 25.8073 146.695 25.8867 146.723 25.98C146.76 26.064 146.765 26.1527 146.737 26.246C146.718 26.33 146.676 26.4047 146.611 26.47C146.546 26.526 146.466 26.5587 146.373 26.568C146.28 26.5773 146.182 26.5493 146.079 26.484C145.799 26.2973 145.514 26.162 145.225 26.078C144.936 25.9847 144.651 25.938 144.371 25.938C143.848 25.938 143.452 26.0407 143.181 26.246C142.91 26.4513 142.775 26.722 142.775 27.058C142.775 27.3193 142.859 27.534 143.027 27.702C143.195 27.87 143.456 27.9913 143.811 28.066L145.085 28.332C145.692 28.4627 146.144 28.6727 146.443 28.962C146.751 29.242 146.905 29.6247 146.905 30.11C146.905 30.726 146.658 31.216 146.163 31.58C145.668 31.944 145.01 32.126 144.189 32.126ZM152.803 32.07C152.616 32.07 152.476 32.0187 152.383 31.916C152.289 31.804 152.243 31.65 152.243 31.454V25.728C152.243 25.532 152.289 25.3827 152.383 25.28C152.476 25.1773 152.616 25.126 152.803 25.126C152.98 25.126 153.12 25.1773 153.223 25.28C153.325 25.3827 153.377 25.532 153.377 25.728V31.454C153.377 31.65 153.325 31.804 153.223 31.916C153.129 32.0187 152.989 32.07 152.803 32.07ZM152.803 23.558C152.569 23.558 152.387 23.4973 152.257 23.376C152.126 23.2453 152.061 23.0727 152.061 22.858C152.061 22.634 152.126 22.466 152.257 22.354C152.387 22.2327 152.569 22.172 152.803 22.172C153.045 22.172 153.227 22.2327 153.349 22.354C153.479 22.466 153.545 22.634 153.545 22.858C153.545 23.0727 153.479 23.2453 153.349 23.376C153.227 23.4973 153.045 23.558 152.803 23.558ZM157.793 32.126C157.373 32.126 156.948 32.0747 156.519 31.972C156.099 31.8693 155.707 31.692 155.343 31.44C155.249 31.3747 155.184 31.3 155.147 31.216C155.109 31.1227 155.095 31.034 155.105 30.95C155.123 30.8567 155.161 30.7773 155.217 30.712C155.282 30.6467 155.357 30.6093 155.441 30.6C155.534 30.5813 155.637 30.6 155.749 30.656C156.113 30.88 156.463 31.0387 156.799 31.132C157.144 31.216 157.485 31.258 157.821 31.258C158.353 31.258 158.754 31.16 159.025 30.964C159.295 30.768 159.431 30.502 159.431 30.166C159.431 29.9047 159.342 29.6993 159.165 29.55C158.987 29.3913 158.707 29.27 158.325 29.186L157.051 28.906C156.463 28.7847 156.024 28.5747 155.735 28.276C155.455 27.9773 155.315 27.59 155.315 27.114C155.315 26.694 155.422 26.3347 155.637 26.036C155.861 25.728 156.173 25.49 156.575 25.322C156.976 25.154 157.443 25.07 157.975 25.07C158.385 25.07 158.773 25.126 159.137 25.238C159.51 25.3407 159.846 25.5087 160.145 25.742C160.238 25.8073 160.299 25.8867 160.327 25.98C160.364 26.064 160.369 26.1527 160.341 26.246C160.322 26.33 160.28 26.4047 160.215 26.47C160.149 26.526 160.07 26.5587 159.977 26.568C159.883 26.5773 159.785 26.5493 159.683 26.484C159.403 26.2973 159.118 26.162 158.829 26.078C158.539 25.9847 158.255 25.938 157.975 25.938C157.452 25.938 157.055 26.0407 156.785 26.246C156.514 26.4513 156.379 26.722 156.379 27.058C156.379 27.3193 156.463 27.534 156.631 27.702C156.799 27.87 157.06 27.9913 157.415 28.066L158.689 28.332C159.295 28.4627 159.748 28.6727 160.047 28.962C160.355 29.242 160.509 29.6247 160.509 30.11C160.509 30.726 160.261 31.216 159.767 31.58C159.272 31.944 158.614 32.126 157.793 32.126ZM168.436 32.126C167.83 32.126 167.298 31.9813 166.84 31.692C166.392 31.4027 166.042 30.9967 165.79 30.474C165.548 29.942 165.426 29.3167 165.426 28.598C165.426 27.87 165.548 27.2447 165.79 26.722C166.042 26.19 166.392 25.784 166.84 25.504C167.298 25.2147 167.83 25.07 168.436 25.07C169.052 25.07 169.58 25.224 170.018 25.532C170.457 25.84 170.751 26.2553 170.9 26.778H170.746V22.606C170.746 22.4193 170.793 22.2793 170.886 22.186C170.989 22.0833 171.134 22.032 171.32 22.032C171.498 22.032 171.633 22.0833 171.726 22.186C171.829 22.2793 171.88 22.4193 171.88 22.606V31.51C171.88 31.6967 171.834 31.8413 171.74 31.944C171.647 32.0467 171.507 32.098 171.32 32.098C171.143 32.098 171.003 32.0467 170.9 31.944C170.807 31.8413 170.76 31.6967 170.76 31.51V30.18L170.914 30.376C170.765 30.908 170.466 31.3327 170.018 31.65C169.58 31.9673 169.052 32.126 168.436 32.126ZM168.674 31.216C169.094 31.216 169.463 31.1133 169.78 30.908C170.098 30.7027 170.34 30.404 170.508 30.012C170.686 29.62 170.774 29.1487 170.774 28.598C170.774 27.7487 170.583 27.1 170.2 26.652C169.827 26.204 169.318 25.98 168.674 25.98C168.245 25.98 167.872 26.0827 167.554 26.288C167.246 26.484 167.004 26.778 166.826 27.17C166.658 27.5527 166.574 28.0287 166.574 28.598C166.574 29.438 166.766 30.0867 167.148 30.544C167.531 30.992 168.04 31.216 168.674 31.216ZM176.836 32.126C176.174 32.126 175.6 31.9813 175.114 31.692C174.629 31.4027 174.251 30.9967 173.98 30.474C173.719 29.942 173.588 29.3167 173.588 28.598C173.588 28.0567 173.663 27.5713 173.812 27.142C173.962 26.7033 174.181 26.33 174.47 26.022C174.76 25.714 175.1 25.4807 175.492 25.322C175.894 25.154 176.342 25.07 176.836 25.07C177.499 25.07 178.073 25.2147 178.558 25.504C179.044 25.7933 179.417 26.204 179.678 26.736C179.949 27.2587 180.084 27.8793 180.084 28.598C180.084 29.1393 180.01 29.6247 179.86 30.054C179.711 30.4833 179.492 30.8567 179.202 31.174C178.913 31.482 178.568 31.72 178.166 31.888C177.774 32.0467 177.331 32.126 176.836 32.126ZM176.836 31.216C177.256 31.216 177.625 31.1133 177.942 30.908C178.26 30.7027 178.502 30.404 178.67 30.012C178.848 29.62 178.936 29.1487 178.936 28.598C178.936 27.7487 178.745 27.1 178.362 26.652C177.989 26.204 177.48 25.98 176.836 25.98C176.407 25.98 176.034 26.0827 175.716 26.288C175.408 26.484 175.166 26.778 174.988 27.17C174.82 27.5527 174.736 28.0287 174.736 28.598C174.736 29.438 174.928 30.0867 175.31 30.544C175.693 30.992 176.202 31.216 176.836 31.216ZM182.348 32.07C182.161 32.07 182.021 32.0187 181.928 31.916C181.834 31.804 181.788 31.65 181.788 31.454V25.728C181.788 25.532 181.834 25.3827 181.928 25.28C182.021 25.1773 182.161 25.126 182.348 25.126C182.525 25.126 182.665 25.1773 182.768 25.28C182.87 25.3827 182.922 25.532 182.922 25.728V31.454C182.922 31.65 182.87 31.804 182.768 31.916C182.674 32.0187 182.534 32.07 182.348 32.07ZM182.348 23.558C182.114 23.558 181.932 23.4973 181.802 23.376C181.671 23.2453 181.606 23.0727 181.606 22.858C181.606 22.634 181.671 22.466 181.802 22.354C181.932 22.2327 182.114 22.172 182.348 22.172C182.59 22.172 182.772 22.2327 182.894 22.354C183.024 22.466 183.09 22.634 183.09 22.858C183.09 23.0727 183.024 23.2453 182.894 23.376C182.772 23.4973 182.59 23.558 182.348 23.558ZM185.602 32.098C185.415 32.098 185.275 32.0467 185.182 31.944C185.088 31.8413 185.042 31.6967 185.042 31.51V25.672C185.042 25.4853 185.088 25.3453 185.182 25.252C185.275 25.1493 185.41 25.098 185.588 25.098C185.765 25.098 185.9 25.1493 185.994 25.252C186.096 25.3453 186.148 25.4853 186.148 25.672V26.876L185.994 26.708C186.19 26.1667 186.507 25.7607 186.946 25.49C187.394 25.21 187.907 25.07 188.486 25.07C189.027 25.07 189.475 25.168 189.83 25.364C190.194 25.56 190.464 25.8587 190.642 26.26C190.819 26.652 190.908 27.1513 190.908 27.758V31.51C190.908 31.6967 190.856 31.8413 190.754 31.944C190.66 32.0467 190.525 32.098 190.348 32.098C190.161 32.098 190.016 32.0467 189.914 31.944C189.82 31.8413 189.774 31.6967 189.774 31.51V27.828C189.774 27.1933 189.648 26.7313 189.396 26.442C189.153 26.1433 188.761 25.994 188.22 25.994C187.594 25.994 187.095 26.19 186.722 26.582C186.358 26.9647 186.176 27.478 186.176 28.122V31.51C186.176 31.902 185.984 32.098 185.602 32.098ZM196.009 34.646C195.514 34.646 195.029 34.5853 194.553 34.464C194.086 34.352 193.661 34.17 193.279 33.918C193.167 33.8527 193.092 33.7733 193.055 33.68C193.027 33.5867 193.022 33.4933 193.041 33.4C193.059 33.316 193.101 33.2367 193.167 33.162C193.232 33.0967 193.307 33.0547 193.391 33.036C193.484 33.0173 193.577 33.0313 193.671 33.078C194.081 33.33 194.473 33.5027 194.847 33.596C195.22 33.6893 195.589 33.736 195.953 33.736C196.615 33.736 197.115 33.5587 197.451 33.204C197.796 32.8493 197.969 32.336 197.969 31.664V30.082H198.109C197.969 30.6233 197.67 31.0527 197.213 31.37C196.765 31.6873 196.237 31.846 195.631 31.846C195.005 31.846 194.464 31.706 194.007 31.426C193.549 31.1367 193.195 30.7353 192.943 30.222C192.7 29.7087 192.579 29.116 192.579 28.444C192.579 27.94 192.649 27.4827 192.789 27.072C192.929 26.652 193.129 26.2973 193.391 26.008C193.661 25.7093 193.983 25.4807 194.357 25.322C194.739 25.154 195.164 25.07 195.631 25.07C196.247 25.07 196.779 25.2287 197.227 25.546C197.675 25.854 197.964 26.274 198.095 26.806L197.955 26.974V25.672C197.955 25.4853 198.001 25.3453 198.095 25.252C198.197 25.1493 198.337 25.098 198.515 25.098C198.701 25.098 198.841 25.1493 198.935 25.252C199.028 25.3453 199.075 25.4853 199.075 25.672V31.51C199.075 32.546 198.813 33.3253 198.291 33.848C197.777 34.38 197.017 34.646 196.009 34.646ZM195.841 30.922C196.279 30.922 196.657 30.824 196.975 30.628C197.292 30.4227 197.535 30.1333 197.703 29.76C197.88 29.3867 197.969 28.948 197.969 28.444C197.969 27.688 197.777 27.0907 197.395 26.652C197.012 26.204 196.494 25.98 195.841 25.98C195.411 25.98 195.038 26.0827 194.721 26.288C194.403 26.484 194.156 26.7687 193.979 27.142C193.811 27.506 193.727 27.94 193.727 28.444C193.727 29.2 193.918 29.802 194.301 30.25C194.683 30.698 195.197 30.922 195.841 30.922ZM201.748 32.056C201.514 32.056 201.328 31.986 201.188 31.846C201.048 31.6967 200.978 31.51 200.978 31.286C200.978 31.062 201.048 30.88 201.188 30.74C201.328 30.5907 201.514 30.516 201.748 30.516C201.981 30.516 202.163 30.5907 202.294 30.74C202.434 30.88 202.504 31.062 202.504 31.286C202.504 31.51 202.434 31.6967 202.294 31.846C202.163 31.986 201.981 32.056 201.748 32.056Z" fill="#949BA5"/>
</svg>
