<svg width="84" height="19" viewBox="0 0 84 19" fill="none" xmlns="http://www.w3.org/2000/svg">
<path d="M1.12836 15.14C0.861693 15.14 0.648359 15.08 0.488359 14.96C0.328359 14.84 0.235026 14.68 0.208359 14.48C0.181693 14.28 0.221693 14.0533 0.328359 13.8L5.74836 1.64C5.88169 1.32 6.04836 1.09333 6.24836 0.96C6.46169 0.826666 6.69503 0.76 6.94836 0.76C7.18836 0.76 7.40836 0.826666 7.60836 0.96C7.82169 1.09333 7.99503 1.32 8.12836 1.64L13.5484 13.8C13.6684 14.0533 13.715 14.2867 13.6884 14.5C13.6617 14.7 13.575 14.86 13.4284 14.98C13.2817 15.0867 13.075 15.14 12.8084 15.14C12.515 15.14 12.2817 15.0667 12.1084 14.92C11.935 14.7733 11.7817 14.5467 11.6484 14.24L10.2484 11L11.1884 11.56H2.66836L3.58836 11L2.20836 14.24C2.07503 14.56 1.92836 14.7933 1.76836 14.94C1.60836 15.0733 1.39503 15.14 1.12836 15.14ZM6.90836 3.2L3.88836 10.36L3.38836 9.88H10.4484L9.98836 10.36L6.94836 3.2H6.90836ZM16.7149 15.14C16.3949 15.14 16.1483 15.0533 15.9749 14.88C15.8016 14.6933 15.7149 14.44 15.7149 14.12V6.12C15.7149 5.78667 15.8016 5.53333 15.9749 5.36C16.1483 5.18667 16.3883 5.1 16.6949 5.1C17.0149 5.1 17.2549 5.18667 17.4149 5.36C17.5883 5.53333 17.6749 5.78667 17.6749 6.12V7.68L17.4549 7.32C17.7483 6.57333 18.2083 6.01333 18.8349 5.64C19.4616 5.25333 20.1816 5.06 20.9949 5.06C21.7683 5.06 22.4083 5.20667 22.9149 5.5C23.4349 5.78 23.8216 6.21333 24.0749 6.8C24.3283 7.37333 24.4549 8.1 24.4549 8.98V14.12C24.4549 14.44 24.3683 14.6933 24.1949 14.88C24.0216 15.0533 23.7749 15.14 23.4549 15.14C23.1216 15.14 22.8683 15.0533 22.6949 14.88C22.5216 14.6933 22.4349 14.44 22.4349 14.12V9.1C22.4349 8.26 22.2683 7.64667 21.9349 7.26C21.6149 6.87333 21.1083 6.68 20.4149 6.68C19.6016 6.68 18.9483 6.93333 18.4549 7.44C17.9749 7.94667 17.7349 8.62667 17.7349 9.48V14.12C17.7349 14.8 17.3949 15.14 16.7149 15.14ZM30.3584 15.18C29.6784 15.18 29.065 15.0467 28.5184 14.78C27.985 14.5133 27.565 14.1533 27.2584 13.7C26.9517 13.2467 26.7984 12.7333 26.7984 12.16C26.7984 11.44 26.9784 10.8733 27.3384 10.46C27.7117 10.0333 28.3184 9.73333 29.1584 9.56C30.0117 9.37333 31.1584 9.28 32.5984 9.28H33.5384V10.52H32.6184C31.6584 10.52 30.8984 10.5667 30.3384 10.66C29.7784 10.7533 29.3784 10.9133 29.1384 11.14C28.9117 11.3533 28.7984 11.6533 28.7984 12.04C28.7984 12.5467 28.9717 12.96 29.3184 13.28C29.665 13.5867 30.145 13.74 30.7584 13.74C31.2517 13.74 31.685 13.6267 32.0584 13.4C32.4317 13.16 32.725 12.84 32.9384 12.44C33.165 12.04 33.2784 11.58 33.2784 11.06V8.76C33.2784 8 33.1184 7.45333 32.7984 7.12C32.4784 6.78667 31.9517 6.62 31.2184 6.62C30.7917 6.62 30.345 6.67333 29.8784 6.78C29.425 6.88667 28.9517 7.06667 28.4584 7.32C28.2317 7.42667 28.0384 7.46 27.8784 7.42C27.7184 7.38 27.5917 7.29333 27.4984 7.16C27.405 7.01333 27.3517 6.86 27.3384 6.7C27.3384 6.52667 27.3784 6.36 27.4584 6.2C27.5517 6.04 27.705 5.92 27.9184 5.84C28.505 5.56 29.085 5.36 29.6584 5.24C30.2317 5.12 30.7717 5.06 31.2784 5.06C32.1717 5.06 32.905 5.2 33.4784 5.48C34.065 5.76 34.4984 6.18667 34.7784 6.76C35.0584 7.33333 35.1984 8.07333 35.1984 8.98V14.12C35.1984 14.44 35.1184 14.6933 34.9584 14.88C34.7984 15.0533 34.565 15.14 34.2584 15.14C33.965 15.14 33.7317 15.0533 33.5584 14.88C33.385 14.6933 33.2984 14.44 33.2984 14.12V12.82H33.4784C33.3717 13.3133 33.1717 13.74 32.8784 14.1C32.5984 14.4467 32.245 14.7133 31.8184 14.9C31.3917 15.0867 30.905 15.18 30.3584 15.18ZM41.1205 15.18C40.0805 15.18 39.2939 14.88 38.7605 14.28C38.2405 13.6667 37.9805 12.7867 37.9805 11.64V1.78C37.9805 1.44667 38.0672 1.19333 38.2405 1.02C38.4139 0.846666 38.6605 0.76 38.9805 0.76C39.3005 0.76 39.5472 0.846666 39.7205 1.02C39.9072 1.19333 40.0005 1.44667 40.0005 1.78V11.52C40.0005 12.1867 40.1339 12.6867 40.4005 13.02C40.6805 13.34 41.0805 13.5 41.6005 13.5C41.7205 13.5 41.8272 13.5 41.9205 13.5C42.0139 13.4867 42.1072 13.4733 42.2005 13.46C42.3605 13.4467 42.4739 13.4933 42.5405 13.6C42.6072 13.6933 42.6405 13.8933 42.6405 14.2C42.6405 14.48 42.5805 14.7 42.4605 14.86C42.3405 15.0067 42.1472 15.1 41.8805 15.14C41.7605 15.1533 41.6339 15.16 41.5005 15.16C41.3672 15.1733 41.2405 15.18 41.1205 15.18ZM46.1595 18.74C45.9195 18.74 45.7195 18.6733 45.5595 18.54C45.4128 18.42 45.3261 18.2533 45.2995 18.04C45.2861 17.84 45.3261 17.62 45.4195 17.38L46.7795 14.32V15.18L43.0395 6.48C42.9461 6.24 42.9128 6.01333 42.9395 5.8C42.9661 5.58667 43.0661 5.42 43.2395 5.3C43.4128 5.16667 43.6461 5.1 43.9395 5.1C44.1928 5.1 44.3928 5.16 44.5395 5.28C44.6861 5.4 44.8195 5.60667 44.9395 5.9L47.9595 13.36H47.3995L50.4595 5.9C50.5795 5.59333 50.7195 5.38667 50.8795 5.28C51.0395 5.16 51.2595 5.1 51.5395 5.1C51.7795 5.1 51.9661 5.16667 52.0995 5.3C52.2461 5.42 52.3328 5.58667 52.3595 5.8C52.3995 6 52.3661 6.22 52.2595 6.46L47.2595 17.96C47.1261 18.2667 46.9728 18.4733 46.7995 18.58C46.6395 18.6867 46.4261 18.74 46.1595 18.74ZM58.6445 15.18C57.8445 15.18 57.1711 15.04 56.6245 14.76C56.0778 14.48 55.6711 14.0667 55.4045 13.52C55.1378 12.9733 55.0045 12.3067 55.0045 11.52V6.8H53.8045C53.5378 6.8 53.3311 6.73333 53.1845 6.6C53.0378 6.45333 52.9645 6.26 52.9645 6.02C52.9645 5.76667 53.0378 5.57333 53.1845 5.44C53.3311 5.30667 53.5378 5.24 53.8045 5.24H55.0045V3.18C55.0045 2.84667 55.0911 2.59333 55.2645 2.42C55.4511 2.24667 55.7045 2.16 56.0245 2.16C56.3445 2.16 56.5911 2.24667 56.7645 2.42C56.9378 2.59333 57.0245 2.84667 57.0245 3.18V5.24H59.3645C59.6311 5.24 59.8378 5.30667 59.9845 5.44C60.1311 5.57333 60.2045 5.76667 60.2045 6.02C60.2045 6.26 60.1311 6.45333 59.9845 6.6C59.8378 6.73333 59.6311 6.8 59.3645 6.8H57.0245V11.36C57.0245 12.0667 57.1711 12.6 57.4645 12.96C57.7711 13.32 58.2645 13.5 58.9445 13.5C59.1845 13.5 59.3911 13.48 59.5645 13.44C59.7511 13.3867 59.9045 13.3533 60.0245 13.34C60.1711 13.34 60.2911 13.3933 60.3845 13.5C60.4778 13.5933 60.5245 13.78 60.5245 14.06C60.5245 14.26 60.4845 14.4467 60.4045 14.62C60.3378 14.7933 60.2111 14.9067 60.0245 14.96C59.8645 15.0133 59.6445 15.06 59.3645 15.1C59.0978 15.1533 58.8578 15.18 58.6445 15.18ZM62.9649 15.12C62.6449 15.12 62.3983 15.0267 62.2249 14.84C62.0516 14.64 61.9649 14.3667 61.9649 14.02V6.22C61.9649 5.87333 62.0516 5.60667 62.2249 5.42C62.3983 5.23333 62.6449 5.14 62.9649 5.14C63.2849 5.14 63.5316 5.23333 63.7049 5.42C63.8916 5.60667 63.9849 5.87333 63.9849 6.22V14.02C63.9849 14.3667 63.8983 14.64 63.7249 14.84C63.5516 15.0267 63.2983 15.12 62.9649 15.12ZM62.9649 3.06C62.5649 3.06 62.2516 2.96 62.0249 2.76C61.8116 2.56 61.7049 2.28 61.7049 1.92C61.7049 1.54667 61.8116 1.26667 62.0249 1.08C62.2516 0.879999 62.5649 0.779999 62.9649 0.779999C63.3649 0.779999 63.6716 0.879999 63.8849 1.08C64.1116 1.26667 64.2249 1.54667 64.2249 1.92C64.2249 2.28 64.1116 2.56 63.8849 2.76C63.6716 2.96 63.3649 3.06 62.9649 3.06ZM71.1282 15.18C70.1282 15.18 69.2615 14.9733 68.5282 14.56C67.8082 14.1333 67.2482 13.54 66.8482 12.78C66.4482 12.0067 66.2482 11.1 66.2482 10.06C66.2482 9.28667 66.3615 8.59333 66.5882 7.98C66.8149 7.35333 67.1349 6.82667 67.5482 6.4C67.9749 5.97333 68.4882 5.64667 69.0882 5.42C69.7015 5.18 70.3815 5.06 71.1282 5.06C71.5949 5.06 72.0815 5.13333 72.5882 5.28C73.1082 5.41333 73.5882 5.64 74.0282 5.96C74.2015 6.06667 74.3082 6.2 74.3482 6.36C74.4015 6.50667 74.4082 6.66 74.3682 6.82C74.3415 6.98 74.2682 7.12 74.1482 7.24C74.0415 7.34667 73.9082 7.41333 73.7482 7.44C73.5882 7.45333 73.4149 7.40667 73.2282 7.3C72.9082 7.07333 72.5815 6.91333 72.2482 6.82C71.9149 6.71333 71.5949 6.66 71.2882 6.66C70.8082 6.66 70.3815 6.74 70.0082 6.9C69.6482 7.04667 69.3415 7.26667 69.0882 7.56C68.8349 7.84 68.6415 8.19333 68.5082 8.62C68.3882 9.04667 68.3282 9.53333 68.3282 10.08C68.3282 11.1733 68.5815 12.0333 69.0882 12.66C69.6082 13.2733 70.3415 13.58 71.2882 13.58C71.5949 13.58 71.9149 13.5333 72.2482 13.44C72.5815 13.3467 72.9082 13.1867 73.2282 12.96C73.4149 12.8533 73.5882 12.8133 73.7482 12.84C73.9082 12.8667 74.0349 12.94 74.1282 13.06C74.2349 13.1667 74.3015 13.3 74.3282 13.46C74.3682 13.6067 74.3615 13.76 74.3082 13.92C74.2549 14.08 74.1415 14.2133 73.9682 14.32C73.5415 14.6267 73.0749 14.8467 72.5682 14.98C72.0749 15.1133 71.5949 15.18 71.1282 15.18ZM79.5841 15.18C78.9975 15.18 78.3908 15.1133 77.7641 14.98C77.1508 14.8467 76.5841 14.62 76.0641 14.3C75.8908 14.18 75.7708 14.0467 75.7041 13.9C75.6375 13.7533 75.6108 13.6067 75.6241 13.46C75.6508 13.3 75.7108 13.1667 75.8041 13.06C75.9108 12.94 76.0375 12.8667 76.1841 12.84C76.3441 12.8133 76.5108 12.8467 76.6841 12.94C77.2041 13.2333 77.7041 13.44 78.1841 13.56C78.6641 13.6667 79.1375 13.72 79.6041 13.72C80.3108 13.72 80.8441 13.5933 81.2041 13.34C81.5641 13.0867 81.7441 12.7467 81.7441 12.32C81.7441 11.9733 81.6241 11.7067 81.3841 11.52C81.1441 11.32 80.7841 11.1667 80.3041 11.06L78.4041 10.68C77.5775 10.5067 76.9508 10.2 76.5241 9.76C76.0975 9.32 75.8841 8.76 75.8841 8.08C75.8841 7.46667 76.0508 6.93333 76.3841 6.48C76.7175 6.02667 77.1841 5.68 77.7841 5.44C78.3841 5.18667 79.0775 5.06 79.8641 5.06C80.4508 5.06 81.0041 5.13333 81.5241 5.28C82.0441 5.42667 82.5241 5.64667 82.9641 5.94C83.1375 6.03333 83.2508 6.16 83.3041 6.32C83.3575 6.46667 83.3641 6.61333 83.3241 6.76C83.2975 6.90667 83.2308 7.04 83.1241 7.16C83.0175 7.26667 82.8841 7.33333 82.7241 7.36C82.5775 7.37333 82.4108 7.33333 82.2241 7.24C81.8241 6.98667 81.4241 6.80667 81.0241 6.7C80.6375 6.59333 80.2508 6.54 79.8641 6.54C79.1575 6.54 78.6241 6.67333 78.2641 6.94C77.9175 7.19333 77.7441 7.54 77.7441 7.98C77.7441 8.31333 77.8508 8.58667 78.0641 8.8C78.2775 9.01333 78.6108 9.16667 79.0641 9.26L80.9641 9.64C81.8308 9.81333 82.4841 10.1067 82.9241 10.52C83.3775 10.9333 83.6041 11.4933 83.6041 12.2C83.6041 13.12 83.2375 13.8467 82.5041 14.38C81.7708 14.9133 80.7975 15.18 79.5841 15.18Z" fill="#333333"/>
</svg>
