<svg width="293" height="270" viewBox="0 0 293 270" fill="none" xmlns="http://www.w3.org/2000/svg">
<path d="M164.633 135.787C164.633 135.787 164.633 132.003 159.335 126.759C154.038 121.514 150.678 118.472 150.678 118.472C150.678 118.472 148.044 127.13 152.948 132.404C156.548 136.109 160.451 139.506 164.617 142.56L164.633 135.787Z" fill="#C184F2"/>
<path d="M156.989 159.292C156.989 159.292 156.989 155.508 151.692 150.264C146.394 145.02 143.05 141.977 143.05 141.977C143.05 141.977 140.408 150.635 145.32 155.91C148.92 159.614 152.823 163.011 156.989 166.065V159.292Z" fill="#C184F2"/>
<path d="M164.3 142.197C164.3 142.197 164.701 138.458 170.498 133.774C176.294 129.09 179.98 126.456 179.98 126.456C179.98 126.456 181.683 135.341 176.264 140.078C172.293 143.382 168.053 146.349 163.588 148.947L164.3 142.197Z" fill="#C184F2"/>
<path d="M155.067 169.955C155.067 169.955 155.824 166.277 162.112 162.229C168.401 158.18 172.306 155.947 172.306 155.947C172.306 155.947 173.063 164.968 167.183 169.092C162.886 171.962 158.358 174.468 153.644 176.584L155.067 169.955Z" fill="#C184F2"/>
<path d="M156.8 200.226C156.8 200.226 156.8 196.442 162.098 191.19C167.395 185.938 170.747 182.911 170.747 182.911C170.747 182.911 173.389 191.568 168.477 196.836C164.879 200.544 160.975 203.944 156.808 206.999L156.8 200.226Z" fill="#C184F2"/>
<path d="M156.717 207.612C156.717 207.612 157.247 203.889 152.782 197.925C148.317 191.962 145.388 188.496 145.388 188.496C145.388 188.496 141.551 196.692 145.645 202.602C148.68 206.782 152.06 210.701 155.748 214.317L156.717 207.612Z" fill="#C184F2"/>
<path d="M151.518 229.505C151.518 229.505 151.518 225.721 156.815 220.477C162.112 215.233 165.473 212.19 165.473 212.19C165.473 212.19 168.106 220.848 163.202 226.123C159.601 229.828 155.698 233.228 151.533 236.286L151.518 229.505Z" fill="#C184F2"/>
<path d="M155.037 249.355C155.037 249.355 154.083 245.715 157.844 239.283C161.606 232.85 164.126 229.081 164.126 229.081C164.126 229.081 168.863 236.785 165.465 243.127C162.923 247.623 160.009 251.899 156.755 255.909L155.037 249.355Z" fill="#C184F2"/>
<path d="M165.109 134.826C164.844 138.744 164.364 142.645 163.671 146.51C161.583 157.272 156.376 164.219 154.295 173.936C152.214 183.653 158.192 196.177 156.565 208.664C154.938 221.151 150.11 228.09 151.495 236.422C152.88 244.754 160.175 267.321 160.175 267.321" stroke="#263238" stroke-linecap="round" stroke-linejoin="round"/>
<path d="M164.254 144.702L169.93 140.343" stroke="#263238" stroke-linecap="round" stroke-linejoin="round"/>
<path d="M164.519 139.684L162.135 135.454" stroke="#263238" stroke-linecap="round" stroke-linejoin="round"/>
<path d="M154.613 173.489C154.613 173.489 159.365 169.925 164.254 166.361" stroke="#263238" stroke-linecap="round" stroke-linejoin="round"/>
<path d="M156.989 166.065C156.989 166.065 153.024 158.301 148.536 153.155" stroke="#263238" stroke-linecap="round" stroke-linejoin="round"/>
<path d="M156.989 205.584C159.7 200.574 163.127 195.985 167.16 191.962" stroke="#263238" stroke-linecap="round" stroke-linejoin="round"/>
<path d="M156.066 210.866C154.624 207.469 152.9 204.198 150.912 201.089C148.143 196.995 147.742 196.465 147.742 196.465" stroke="#263238" stroke-linecap="round" stroke-linejoin="round"/>
<path d="M151.518 236.422C152.724 233.439 154.156 230.553 155.801 227.787C157.447 225.217 159.302 222.787 161.348 220.522" stroke="#263238" stroke-linecap="round" stroke-linejoin="round"/>
<path d="M156.755 255.909C156.479 253.057 156.97 250.183 158.177 247.585C160.16 243.755 162.4 238.738 163.324 236.755" stroke="#263238" stroke-linecap="round" stroke-linejoin="round"/>
<path d="M121.633 186.074C121.633 186.074 121.224 183.713 123.956 179.831C126.688 175.949 128.497 173.701 128.497 173.701C128.497 173.701 131.085 178.847 128.588 182.676C126.733 185.393 124.655 187.949 122.374 190.32L121.633 186.074Z" fill="#C184F2"/>
<path d="M128.981 199.984C128.981 199.984 128.572 197.623 131.304 193.74C134.036 189.858 135.845 187.611 135.845 187.611C135.845 187.611 138.433 192.757 135.936 196.593C134.08 199.306 132.002 201.86 129.723 204.229L128.981 199.984Z" fill="#C184F2"/>
<path d="M122.533 190.055C122.533 190.055 121.883 187.785 117.736 185.446C113.588 183.108 111 181.882 111 181.882C111 181.882 110.894 187.641 114.784 190.017C117.632 191.657 120.611 193.056 123.691 194.202L122.533 190.055Z" fill="#C184F2"/>
<path d="M131.342 206.462C131.342 206.462 130.449 204.237 126.09 202.375C121.731 200.513 119.007 199.545 119.007 199.545C119.007 199.545 119.506 205.281 123.654 207.234C126.659 208.565 129.77 209.643 132.954 210.457L131.342 206.462Z" fill="#C184F2"/>
<path d="M133.537 225.631C133.537 225.631 133.136 223.27 129.254 220.538C125.371 217.806 122.927 216.285 122.927 216.285C122.927 216.285 122.216 221.998 125.856 224.768C128.515 226.704 131.332 228.413 134.279 229.876L133.537 225.631Z" fill="#C184F2"/>
<path d="M134.4 230.254C134.4 230.254 133.643 227.984 135.815 223.746C137.987 219.508 139.425 217.034 139.425 217.034C139.425 217.034 142.717 221.756 140.794 225.911C139.346 228.86 137.653 231.683 135.732 234.349L134.4 230.254Z" fill="#C184F2"/>
<path d="M141.014 249.287C141.014 249.287 141.286 246.911 145.002 243.99C148.718 241.069 151.056 239.381 151.056 239.381C151.056 239.381 152.093 245.049 148.619 248.023C146.075 250.105 143.362 251.971 140.507 253.601L141.014 249.287Z" fill="#C184F2"/>
<path d="M140.022 243.415C140.022 243.415 139.614 241.054 135.739 238.322C131.864 235.59 129.428 234.069 129.428 234.069C129.428 234.069 128.716 239.782 132.356 242.56C135.017 244.493 137.835 246.201 140.779 247.668L140.022 243.415Z" fill="#C184F2"/>
<path d="M140.022 256.249C140.022 256.249 140.219 253.858 137.162 250.233C134.104 246.608 132.122 244.52 132.122 244.52C132.122 244.52 129.98 249.862 132.803 253.472C134.872 256.014 137.15 258.379 139.614 260.54L140.022 256.249Z" fill="#C184F2"/>
<path d="M121.232 185.514C121.824 187.944 122.549 190.339 123.404 192.688C125.878 199.212 129.897 203.003 132.258 208.868C134.619 214.733 132.258 223.247 134.589 230.898C136.92 238.549 140.779 242.378 140.779 247.751C140.779 253.124 138.69 268.07 138.69 268.07" stroke="#263238" stroke-linecap="round" stroke-linejoin="round"/>
<path d="M122.844 191.614L118.81 189.502" stroke="#263238" stroke-linecap="round" stroke-linejoin="round"/>
<path d="M122.132 188.496L123.162 185.59" stroke="#263238" stroke-linecap="round" stroke-linejoin="round"/>
<path d="M132.008 208.626C132.008 208.626 128.641 206.908 125.197 205.198" stroke="#263238" stroke-linecap="round" stroke-linejoin="round"/>
<path d="M129.715 204.229C130.708 201.111 132.014 198.101 133.613 195.246" stroke="#263238" stroke-linecap="round" stroke-linejoin="round"/>
<path d="M134.006 229.006C131.761 226.164 129.115 223.664 126.151 221.582" stroke="#263238" stroke-linecap="round" stroke-linejoin="round"/>
<path d="M135.156 232.215C135.695 229.931 136.421 227.696 137.328 225.532C138.622 222.664 138.842 222.286 138.842 222.286" stroke="#263238" stroke-linecap="round" stroke-linejoin="round"/>
<path d="M140.598 251.83C141.91 250.204 143.364 248.697 144.942 247.327C145.945 246.588 146.887 245.768 147.757 244.875" stroke="#263238" stroke-linecap="round" stroke-linejoin="round"/>
<path d="M140.779 247.751C139.698 246.007 138.486 244.347 137.154 242.787C135.843 241.355 134.415 240.034 132.886 238.836" stroke="#263238" stroke-linecap="round" stroke-linejoin="round"/>
<path d="M139.614 260.54C139.478 258.721 138.859 256.97 137.82 255.47C136.163 253.283 134.211 250.377 133.416 249.234" stroke="#263238" stroke-linecap="round" stroke-linejoin="round"/>
<path d="M132.43 153.109L129.116 143.642L132.43 147.661L129.827 133.456L133.853 143.642L135.276 123.747L137.645 142.689L140.248 138.905V143.642L143.328 137.248L141.671 148.372L144.508 146.48L140.013 152.633L132.43 153.109Z" fill="#C184F2"/>
<path d="M142.851 150.741H130.538L132.756 175.601H140.634L142.851 150.741Z" fill="#263238" stroke="#263238" stroke-linecap="round" stroke-linejoin="round"/>
<path d="M165.948 175.321H124V264.165H165.948V175.321Z" fill="white" stroke="#263238" stroke-linecap="round" stroke-linejoin="round"/>
<path d="M168.241 175.321H144.97V264.165H168.241V175.321Z" fill="white" stroke="#263238" stroke-linecap="round" stroke-linejoin="round"/>
<path d="M165.622 175.321H144.97V264.165H165.622V175.321Z" fill="#263238" stroke="#263238" stroke-linecap="round" stroke-linejoin="round"/>
<path d="M163.299 243.506H144.97V261.698H163.299V243.506Z" fill="#C184F2" stroke="#263238" stroke-linecap="round" stroke-linejoin="round"/>
<path d="M163.299 244.489H144.97V246.82H163.299V244.489Z" fill="white" stroke="#263238" stroke-linecap="round" stroke-linejoin="round"/>
<path d="M163.299 257.884H144.97V260.215H163.299V257.884Z" fill="white" stroke="#263238" stroke-linecap="round" stroke-linejoin="round"/>
<path d="M148.444 243.884V266.89" stroke="#263238" stroke-linecap="round" stroke-linejoin="round"/>
<path d="M154.838 243.884V266.89" stroke="#263238" stroke-linecap="round" stroke-linejoin="round"/>
<path d="M160.454 243.884V266.89" stroke="#263238" stroke-linecap="round" stroke-linejoin="round"/>
<path d="M163.299 178.62H144.97V205.372H163.299V178.62Z" fill="#C184F2" stroke="#263238" stroke-linecap="round" stroke-linejoin="round"/>
<path d="M163.299 179.74H144.97V182.389H163.299V179.74Z" fill="white" stroke="#263238" stroke-linecap="round" stroke-linejoin="round"/>
<path d="M163.299 196.889H144.97V199.537H163.299V196.889Z" fill="white" stroke="#263238" stroke-linecap="round" stroke-linejoin="round"/>
<path d="M148.444 179.044V205.19" stroke="#263238" stroke-linecap="round" stroke-linejoin="round"/>
<path d="M154.838 179.044V205.19" stroke="#263238" stroke-linecap="round" stroke-linejoin="round"/>
<path d="M160.454 179.044V205.19" stroke="#263238" stroke-linecap="round" stroke-linejoin="round"/>
<path d="M163.299 210.859H144.97V237.61H163.299V210.859Z" fill="#C184F2" stroke="#263238" stroke-linecap="round" stroke-linejoin="round"/>
<path d="M163.299 211.979H144.97V214.627H163.299V211.979Z" fill="white" stroke="#263238" stroke-linecap="round" stroke-linejoin="round"/>
<path d="M163.299 229.127H144.97V231.776H163.299V229.127Z" fill="white" stroke="#263238" stroke-linecap="round" stroke-linejoin="round"/>
<path d="M148.444 211.29V237.429" stroke="#263238" stroke-linecap="round" stroke-linejoin="round"/>
<path d="M154.838 211.29V237.429" stroke="#263238" stroke-linecap="round" stroke-linejoin="round"/>
<path d="M160.454 211.29V237.429" stroke="#263238" stroke-linecap="round" stroke-linejoin="round"/>
<path d="M165.94 205.001H144.97V208.043H165.94V205.001Z" fill="white" stroke="#263238" stroke-linecap="round" stroke-linejoin="round"/>
<path d="M165.94 237.444H144.97V240.486H165.94V237.444Z" fill="white" stroke="#263238" stroke-linecap="round" stroke-linejoin="round"/>
<path d="M165.94 175.321V264.158" stroke="#263238" stroke-linecap="round" stroke-linejoin="round"/>
<path d="M142.011 175.321V264.158H144.97V178.62H165.577V175.283L142.011 175.321Z" fill="white" stroke="#263238" stroke-linecap="round" stroke-linejoin="round"/>
<path d="M144.97 178.62V175.321" stroke="#263238" stroke-linecap="round" stroke-linejoin="round"/>
<path d="M46.1281 134.508C43.9259 130.263 43.0027 127.22 43.0027 126.517C43.0027 125.124 46.0298 124.292 46.0298 124.292C50.752 121.794 72.9632 125.404 82.9601 127.069C88.5563 128.045 94.2175 128.601 99.8966 128.734C99.8966 128.734 101.281 127.629 102.924 126.237C104.566 124.844 112.361 115.687 115.418 114.885C118.475 114.083 121.245 115.998 121.245 115.998C121.245 115.998 126.247 119.025 125.407 119.607C124.567 120.19 112.361 130.709 109.303 132.654C106.246 134.599 99.8663 133.766 94.3116 134.879C89.5288 135.832 70.1555 137.013 65.7133 137.376C62.3772 138.168 58.8757 137.876 55.7164 136.544" fill="white"/>
<path d="M121.298 115.967C121.298 115.967 118.521 114.022 115.471 114.855C112.421 115.687 104.642 124.852 102.977 126.206C101.312 127.561 99.9496 128.704 99.9496 128.704C94.2705 128.571 88.6093 128.014 83.0131 127.039C73.0161 125.374 50.805 121.741 46.0827 124.261C46.0827 124.261 43.0557 125.094 43.0557 126.486C43.1608 127.265 43.3616 128.027 43.6535 128.757L44.0697 128.908C44.0697 128.908 49.6169 128.325 61.5889 128.613C73.561 128.9 101.251 130.543 103.03 131.186C103.786 131.473 109.152 130.263 115.1 128.159C119.641 124.458 124.976 119.834 125.513 119.509C126.3 119.017 121.298 115.967 121.298 115.967Z" fill="#C184F2"/>
<path opacity="0.5" d="M121.298 115.967C121.298 115.967 118.521 114.022 115.471 114.855C112.421 115.687 104.642 124.852 102.977 126.206C101.312 127.561 99.9496 128.704 99.9496 128.704C94.2705 128.571 88.6093 128.014 83.0131 127.039C73.0161 125.374 50.805 121.741 46.0827 124.261C46.0827 124.261 43.0557 125.094 43.0557 126.486C43.1608 127.265 43.3616 128.027 43.6535 128.757L44.0697 128.908C44.0697 128.908 49.6169 128.325 61.5889 128.613C73.561 128.9 101.251 130.543 103.03 131.186C103.786 131.473 109.152 130.263 115.1 128.159C119.641 124.458 124.976 119.834 125.513 119.509C126.3 119.017 121.298 115.967 121.298 115.967Z" fill="white"/>
<path d="M46.1281 134.508C43.9259 130.263 43.0027 127.22 43.0027 126.517C43.0027 125.124 46.0298 124.292 46.0298 124.292C50.752 121.794 72.9632 125.404 82.9601 127.069C88.5563 128.045 94.2175 128.601 99.8966 128.734C99.8966 128.734 101.281 127.629 102.924 126.237C104.566 124.844 112.361 115.687 115.418 114.885C118.475 114.083 121.245 115.998 121.245 115.998C121.245 115.998 126.247 119.025 125.407 119.607C124.567 120.19 112.361 130.709 109.303 132.654C106.246 134.599 99.8663 133.766 94.3116 134.879C89.5288 135.832 70.1555 137.013 65.7133 137.376C62.3772 138.168 58.8757 137.876 55.7164 136.544" stroke="#263238" stroke-linecap="round" stroke-linejoin="round"/>
<path d="M155.792 159.194C156.294 158.24 157.047 157.442 157.97 156.886C158.893 156.33 159.951 156.037 161.028 156.038H211.505C211.505 156.038 215.153 156.038 214.063 162.97C212.973 169.902 198.004 212.228 194.387 225.025C190.769 237.822 190.005 264.793 190.005 264.793H129.464C129.464 264.793 134.262 200.294 155.792 159.194Z" fill="white"/>
<path opacity="0.16" d="M178.525 156.038H161.028C159.951 156.037 158.893 156.33 157.97 156.886C157.047 157.442 156.294 158.24 155.791 159.194C134.261 200.294 129.411 264.771 129.411 264.771H156.563L163.261 239.336L191.186 245.095C191.382 242.961 191.609 240.789 191.874 238.647L191.261 231.836C191.261 231.836 185.54 225.82 183.739 224.314C181.938 222.808 183.134 220.091 182.831 208.354C182.528 196.616 171.994 188.178 168.074 180.951C164.154 173.724 170.185 169.206 175.604 161.979C177.533 159.368 178.32 157.446 178.525 156.038Z" fill="black"/>
<path d="M155.792 159.194C156.294 158.24 157.047 157.442 157.97 156.886C158.893 156.33 159.951 156.037 161.028 156.038H211.505C211.505 156.038 215.153 156.038 214.063 162.97C212.973 169.902 198.004 212.228 194.387 225.025C190.769 237.822 190.005 264.793 190.005 264.793H129.464C129.464 264.793 134.262 200.294 155.792 159.194Z" stroke="#263238" stroke-linecap="round" stroke-linejoin="round"/>
<path d="M202.749 168.078C197.648 179.982 186.857 227.106 185.101 264.771H189.975C189.975 264.771 190.731 237.769 194.356 225.003C197.981 212.236 212.965 169.902 214.032 162.947C215.099 155.993 211.474 156.015 211.474 156.015C211.474 156.015 206.843 158.536 202.749 168.078Z" fill="#263238" stroke="#263238" stroke-linecap="round" stroke-linejoin="round"/>
<path d="M114.079 144.286C114.079 144.286 106.026 139.563 102.977 131.239C99.9269 122.914 126.853 109.58 138.545 108.748C150.237 107.915 153.536 110.965 160.491 122.907C167.446 134.849 172.153 151.225 168.543 159.277C164.933 167.329 158.826 169.274 163.246 175.926C167.665 182.578 180.182 201.467 179.35 210.351C178.517 219.236 169.913 227 157.404 227.848C144.894 228.696 128.245 221.181 114.366 208.929C100.487 196.677 104.089 178.658 109.069 172.831C114.048 167.004 121.563 164.779 122.115 158.952C122.668 153.125 114.079 144.286 114.079 144.286Z" fill="#263238" stroke="#263238" stroke-linecap="round" stroke-linejoin="round"/>
<path d="M148.398 131.11C152.674 139.071 158.024 149.734 159.697 156.174C162.618 167.45 147.588 174.549 151.758 179.975" stroke="white" stroke-linecap="round" stroke-linejoin="round"/>
<path d="M142.571 120.682C142.571 120.682 144.236 123.52 146.536 127.697" stroke="white" stroke-linecap="round" stroke-linejoin="round"/>
<path d="M165.001 140.714C165.495 142.206 165.814 143.75 165.955 145.315" stroke="white" stroke-linecap="round" stroke-linejoin="round"/>
<path d="M145.462 116.542C145.462 116.542 158.614 126.259 163.866 137.891" stroke="white" stroke-linecap="round" stroke-linejoin="round"/>
<path d="M127.208 123.83C117.817 126.464 104.309 130.739 105.406 133.206" stroke="white" stroke-linecap="round" stroke-linejoin="round"/>
<path d="M135.889 121.514C135.889 121.514 133.883 122.014 130.894 122.816" stroke="white" stroke-linecap="round" stroke-linejoin="round"/>
<path d="M124.272 116.61C129.652 114.915 135.286 114.172 140.921 114.416" stroke="white" stroke-linecap="round" stroke-linejoin="round"/>
<path d="M120.443 118.177C121.293 117.734 122.173 117.35 123.076 117.027" stroke="white" stroke-linecap="round" stroke-linejoin="round"/>
<path d="M43.0026 126.517C42.9991 126.57 42.9991 126.623 43.0026 126.676C42.9991 126.623 42.9991 126.57 43.0026 126.517ZM46.128 134.508C44.8534 132.174 43.8384 129.707 43.101 127.152C43.8348 129.709 44.8501 132.176 46.128 134.508ZM43.0177 126.721C43.0177 126.766 43.0177 126.819 43.0177 126.887C43.0329 126.819 43.0253 126.766 43.0177 126.721ZM43.0555 126.933C43.0649 127.007 43.0801 127.08 43.101 127.152C43.0801 127.08 43.0649 127.007 43.0555 126.933ZM46.128 134.501C48.9583 139.861 52.4796 144.828 56.6017 149.273C66.5986 160.102 95.4769 188.428 98.224 190.373C100.971 192.318 100.169 197.865 98.224 203.419C96.2791 208.974 89.0595 217.041 89.3395 225.911C89.6195 234.78 92.3666 248.402 92.1169 251.179C91.8671 253.956 84.92 263.401 84.92 263.401H156.556C156.556 263.401 147.626 252.049 147.626 248.167C147.626 244.285 159.886 194.543 160.438 190.933C160.99 187.323 158.773 184.826 154.331 184.546C149.889 184.266 132.952 180.656 132.12 177.879C131.287 175.101 136.562 164.552 136.562 164.552L119.913 165.384C119.913 165.384 119.081 172.604 117.968 173.996C116.856 175.389 115.191 172.604 111.301 170.667C107.411 168.729 99.9494 167.057 97.1418 164.832C94.3342 162.607 67.7111 137.588 67.7111 137.588" fill="white"/>
<path d="M101.395 166.973C102.78 169.395 104.165 171.582 104.165 171.582C104.165 171.582 108.834 174.208 109.999 174.208C111.165 174.208 118.172 177.992 118.172 177.992C118.172 177.992 124.015 176.531 121.956 171.567C121.307 170.296 120.487 169.12 119.519 168.071C119.171 170.273 118.611 173.156 117.953 173.981C116.84 175.366 115.176 172.589 111.286 170.651C108.766 169.395 104.687 168.245 101.395 166.973Z" fill="#C184F2"/>
<path d="M87.1373 155.735C78.5631 147.797 67.711 137.618 67.711 137.618L61.3996 136.71L60.6428 137.134C60.6428 137.134 78.4572 152.898 82.2486 154.653C83.7824 155.358 85.4492 155.727 87.1373 155.735Z" fill="#C184F2"/>
<path d="M96.1203 163.954L95.4392 163.349C95.7873 163.924 95.9841 164.287 95.9841 164.287L96.1203 163.954Z" fill="#C184F2"/>
<g opacity="0.5">
<path d="M101.395 166.973C102.78 169.395 104.165 171.582 104.165 171.582C104.165 171.582 108.834 174.208 109.999 174.208C111.165 174.208 118.172 177.992 118.172 177.992C118.172 177.992 124.015 176.531 121.956 171.567C121.307 170.296 120.487 169.12 119.519 168.071C119.171 170.273 118.611 173.156 117.953 173.981C116.84 175.366 115.176 172.589 111.286 170.651C108.766 169.395 104.687 168.245 101.395 166.973Z" fill="white"/>
<path d="M87.1373 155.735C78.5631 147.797 67.711 137.618 67.711 137.618L61.3996 136.71L60.6428 137.134C60.6428 137.134 78.4572 152.898 82.2486 154.653C83.7824 155.358 85.4492 155.727 87.1373 155.735Z" fill="white"/>
<path d="M96.1203 163.954L95.4392 163.349C95.7873 163.924 95.9841 164.287 95.9841 164.287L96.1203 163.954Z" fill="white"/>
</g>
<path d="M46.128 134.501C48.9583 139.861 52.4796 144.828 56.6017 149.273C66.5986 160.102 95.4769 188.428 98.224 190.373C100.971 192.318 100.169 197.865 98.224 203.419C96.2791 208.974 89.0595 217.041 89.3395 225.911C89.6195 234.78 92.3666 248.402 92.1169 251.179C91.8671 253.956 84.92 263.401 84.92 263.401H156.556C156.556 263.401 147.626 252.049 147.626 248.167C147.626 244.285 159.886 194.543 160.438 190.933C160.99 187.323 158.773 184.826 154.331 184.546C149.889 184.266 132.952 180.656 132.12 177.879C131.287 175.101 136.562 164.552 136.562 164.552L119.913 165.384C119.913 165.384 119.081 172.604 117.968 173.996C116.856 175.389 115.191 172.604 111.301 170.667C107.411 168.729 99.9494 167.057 97.1418 164.832C94.3342 162.607 67.7111 137.588 67.7111 137.588M43.0026 126.517C42.9991 126.57 42.9991 126.623 43.0026 126.676C42.9991 126.623 42.9991 126.57 43.0026 126.517V126.517ZM46.128 134.508C44.8534 132.174 43.8384 129.707 43.101 127.152C43.8348 129.709 44.8501 132.176 46.128 134.508V134.508ZM43.0177 126.721C43.0177 126.766 43.0177 126.819 43.0177 126.887C43.0329 126.819 43.0253 126.766 43.0177 126.721V126.721ZM43.0555 126.933C43.0649 127.007 43.0801 127.08 43.101 127.152C43.0801 127.08 43.0649 127.007 43.0555 126.933Z" stroke="#263238" stroke-linecap="round" stroke-linejoin="round"/>
<path d="M67.7112 137.618C67.7112 137.618 58.8418 137.785 53.8926 133.706" stroke="#263238" stroke-linecap="round" stroke-linejoin="round"/>
<path d="M132.127 177.879C131.295 175.109 136.569 164.552 136.569 164.552L119.921 165.384C119.921 165.384 119.088 172.604 117.976 173.996C116.863 175.389 115.198 172.604 111.309 170.667C111.013 170.515 110.688 170.371 110.355 170.228L109.349 186.052C109.349 186.052 110.809 201.376 128.321 198.463C135.412 197.282 142.979 190.955 149.51 183.842C142.79 182.608 132.763 180.005 132.127 177.879Z" fill="white"/>
<path d="M131.658 166.648C131.658 166.648 130.652 172.294 129.842 178.537C129.032 184.78 128.434 189.427 128.434 189.427L132.127 177.879L136.29 165.642C136.29 165.642 132.264 165.642 131.658 166.648Z" fill="#C184F2"/>
<path opacity="0.5" d="M131.658 166.648C131.658 166.648 130.652 172.294 129.842 178.537C129.032 184.78 128.434 189.427 128.434 189.427L132.127 177.879L136.29 165.642C136.29 165.642 132.264 165.642 131.658 166.648Z" fill="white"/>
<path d="M132.127 177.879C131.295 175.109 136.569 164.552 136.569 164.552L119.921 165.384C119.921 165.384 119.088 172.604 117.976 173.996C116.863 175.389 115.198 172.604 111.309 170.667C111.013 170.515 110.688 170.371 110.355 170.228L109.349 186.052C109.349 186.052 110.809 201.376 128.321 198.463C135.412 197.282 142.979 190.955 149.51 183.842C142.79 182.608 132.763 180.005 132.127 177.879Z" stroke="#263238" stroke-linecap="round" stroke-linejoin="round"/>
<path d="M117.968 173.996C116.856 175.381 115.191 172.604 111.301 170.667C108.849 169.433 104.944 168.313 101.713 167.102C100.797 164.93 99.5862 162.1 98.8067 160.39C97.4218 157.363 95.1969 159.277 95.1969 159.277C94.0362 157.957 93.0981 156.457 92.4196 154.835C91.0347 151.808 88.8098 152.058 85.76 151.505C82.7103 150.953 76.3156 145.118 76.3156 145.118C76.3156 145.118 73.3263 142.848 72.0928 141.72C70.6549 144.55 67.2116 149.53 59.765 152.64C71.6387 165.044 95.7267 188.61 98.2543 190.38C101.032 192.318 100.199 197.872 98.2543 203.427C96.3094 208.982 89.0898 217.049 89.3698 225.918C89.6498 234.788 92.3969 248.409 92.1472 251.187C91.8974 253.661 86.3579 261.418 85.1546 263.083L87.9774 263.401H102.674C102.591 255.954 102.598 225.563 107.691 213.454C113.526 199.537 117.968 173.996 117.968 173.996Z" fill="#C184F2"/>
<path opacity="0.16" d="M111.301 170.667C108.849 169.433 104.944 168.313 101.713 167.102C100.797 164.93 99.5864 162.1 98.8069 160.39C97.422 157.363 95.1971 159.277 95.1971 159.277C94.0364 157.957 93.0983 156.457 92.4198 154.835C91.0349 151.808 88.81 152.058 85.7602 151.505C82.7104 150.953 76.3157 145.118 76.3157 145.118C76.3157 145.118 73.3265 142.848 72.0929 141.72C71.4774 142.922 70.7449 144.06 69.9059 145.118C74.8703 149.318 80.3493 153.768 82.2639 154.653C86.0478 156.401 86.9332 154.941 89.8316 156.697C92.73 158.452 95.9614 164.264 95.9614 164.264C95.9614 164.264 97.7171 159.587 99.1777 162.804C100.638 166.02 104.142 171.56 104.142 171.56C104.142 171.56 108.811 174.186 109.977 174.186C110.892 174.186 115.38 176.516 117.287 177.523C117.711 175.306 117.946 173.974 117.946 173.974C116.856 175.381 115.191 172.604 111.301 170.667Z" fill="black"/>
<path d="M117.968 173.996C116.856 175.381 115.191 172.604 111.301 170.667C108.849 169.433 104.944 168.313 101.713 167.102C100.797 164.93 99.5862 162.1 98.8067 160.39C97.4218 157.363 95.1969 159.277 95.1969 159.277C94.0362 157.957 93.0981 156.457 92.4196 154.835C91.0347 151.808 88.8098 152.058 85.76 151.505C82.7103 150.953 76.3156 145.118 76.3156 145.118C76.3156 145.118 73.3263 142.848 72.0928 141.72C70.6549 144.55 67.2116 149.53 59.765 152.64C71.6387 165.044 95.7267 188.61 98.2543 190.38C101.032 192.318 100.199 197.872 98.2543 203.427C96.3094 208.982 89.0898 217.049 89.3698 225.918C89.6498 234.788 92.3969 248.409 92.1472 251.187C91.8974 253.661 86.3579 261.418 85.1546 263.083L87.9774 263.401H102.674C102.591 255.954 102.598 225.563 107.691 213.454C113.526 199.537 117.968 173.996 117.968 173.996Z" stroke="#263238" stroke-linecap="round" stroke-linejoin="round"/>
<path d="M118.165 173.028C118.165 173.028 114.714 171.968 112.588 173.83C110.461 175.691 107.29 185.242 105.421 195.602C104.269 201.633 105.064 207.874 107.691 213.424C107.691 213.424 112.058 201.974 113.382 196.397C114.707 190.819 118.165 173.028 118.165 173.028Z" fill="#C184F2"/>
<path opacity="0.16" d="M111.543 174.715C111.543 174.715 114.041 174.11 115.07 174.458C115.936 174.83 116.746 175.321 117.476 175.918L118.165 173.028C117.132 172.5 115.96 172.307 114.812 172.475C113.095 172.823 111.543 174.715 111.543 174.715Z" fill="black"/>
<path d="M118.165 173.028C118.165 173.028 114.714 171.968 112.588 173.83C110.461 175.691 107.29 185.242 105.421 195.602C104.269 201.633 105.064 207.874 107.691 213.424C107.691 213.424 112.058 201.974 113.382 196.397C114.707 190.819 118.165 173.028 118.165 173.028Z" stroke="#263238" stroke-linecap="round" stroke-linejoin="round"/>
<path d="M94.9247 173.936L99.3669 191.985L89.37 169.214" stroke="#263238" stroke-linecap="round" stroke-linejoin="round"/>
<path d="M124.189 263.401H156.563C156.563 263.401 147.633 252.049 147.633 248.167C147.633 244.285 159.893 194.543 160.446 190.933C160.998 187.323 158.781 184.826 154.338 184.546C149.896 184.266 132.96 180.656 132.127 177.879C132.127 177.879 125.74 200.37 123.523 215.641C121.616 228.741 123.591 255.924 124.189 263.401Z" fill="#C184F2"/>
<path opacity="0.16" d="M154.339 184.546C150.699 184.319 138.674 181.852 133.989 179.445L135.692 183.38C138.777 185.017 142.095 186.171 145.53 186.801C151.168 187.807 156.412 187.611 159.84 192.651L160.007 192.9C160.219 191.932 160.363 191.251 160.408 190.933C161.006 187.323 158.781 184.826 154.339 184.546Z" fill="black"/>
<path d="M124.189 263.401H156.563C156.563 263.401 147.633 252.049 147.633 248.167C147.633 244.285 159.893 194.543 160.446 190.933C160.998 187.323 158.781 184.826 154.338 184.546C149.896 184.266 132.96 180.656 132.127 177.879C132.127 177.879 125.74 200.37 123.523 215.641C121.616 228.741 123.591 255.924 124.189 263.401Z" stroke="#263238" stroke-linecap="round" stroke-linejoin="round"/>
<path d="M132.128 177.879C132.128 177.879 123.561 205.122 123.523 215.641C123.523 215.641 135.692 200.907 137.281 190.554C138.87 180.202 132.128 177.879 132.128 177.879Z" fill="#C184F2"/>
<path opacity="0.16" d="M130.652 181.36C131.939 181.317 133.217 181.588 134.376 182.149C135.535 182.711 136.54 183.546 137.304 184.584C137.304 184.584 135.624 179.642 132.127 177.879L130.652 181.36Z" fill="black"/>
<path d="M132.128 177.879C132.128 177.879 123.561 205.122 123.523 215.641C123.523 215.641 135.692 200.907 137.281 190.554C138.87 180.202 132.128 177.879 132.128 177.879Z" stroke="#263238" stroke-linecap="round" stroke-linejoin="round"/>
<path d="M223.583 258.278C223.583 258.278 229.856 258.535 233.966 259.125C236.706 259.497 239.465 259.717 242.23 259.784C242.23 259.784 239.959 255.198 237.538 253.904C235.116 252.609 230.727 250.294 227.049 250.808C223.371 251.323 218.111 255.031 218.55 256.212C218.989 257.392 220.949 257.922 223.583 258.278Z" fill="white"/>
<path d="M223.583 258.278C223.583 258.278 229.856 258.535 233.966 259.125C236.706 259.497 239.465 259.717 242.23 259.784C242.23 259.784 239.959 255.198 237.538 253.904C235.116 252.609 230.727 250.294 227.049 250.808C223.371 251.323 218.111 255.031 218.55 256.212C218.989 257.392 220.949 257.922 223.583 258.278Z" fill="#C184F2"/>
<path opacity="0.5" d="M223.583 258.278C223.583 258.278 229.856 258.535 233.966 259.125C236.706 259.497 239.465 259.717 242.23 259.784C242.23 259.784 239.959 255.198 237.538 253.904C235.116 252.609 230.727 250.294 227.049 250.808C223.371 251.323 218.111 255.031 218.55 256.212C218.989 257.392 220.949 257.922 223.583 258.278Z" fill="white"/>
<path d="M223.583 258.278C223.583 258.278 229.856 258.535 233.966 259.125C236.706 259.497 239.465 259.717 242.23 259.784C242.23 259.784 239.959 255.198 237.538 253.904C235.116 252.609 230.727 250.294 227.049 250.808C223.371 251.323 218.111 255.031 218.55 256.212C218.989 257.392 220.949 257.922 223.583 258.278Z" stroke="#263238" stroke-linecap="round" stroke-linejoin="round"/>
<path d="M234.004 256.401C234.004 256.401 238.976 253.82 240.217 253.858C241.458 253.896 249.706 259.473 249.298 260.366C249.02 260.78 248.62 261.097 248.152 261.271C247.685 261.444 247.175 261.467 246.695 261.335C245.779 260.904 240.224 258.543 240.224 258.543L236.592 259.398L234.004 256.401Z" fill="white"/>
<path d="M234.004 256.401C234.004 256.401 238.976 253.82 240.217 253.858C241.458 253.896 249.706 259.473 249.298 260.366C248.889 261.259 246.937 261.986 246.695 261.335C246.452 260.684 240.224 258.543 240.224 258.543L236.592 259.398L234.004 256.401Z" fill="#C184F2"/>
<path opacity="0.5" d="M234.004 256.401C234.004 256.401 238.976 253.82 240.217 253.858C241.458 253.896 249.706 259.473 249.298 260.366C248.889 261.259 246.937 261.986 246.695 261.335C246.452 260.684 240.224 258.543 240.224 258.543L236.592 259.398L234.004 256.401Z" fill="white"/>
<path d="M234.004 256.401C234.004 256.401 238.976 253.82 240.217 253.858C241.458 253.896 249.706 259.473 249.298 260.366C249.02 260.78 248.62 261.097 248.152 261.271C247.685 261.444 247.175 261.467 246.695 261.335C245.779 260.904 240.224 258.543 240.224 258.543L236.592 259.398L234.004 256.401Z" stroke="#263238" stroke-linecap="round" stroke-linejoin="round"/>
<path d="M230.454 252.155C230.454 252.155 237.084 251.943 238.4 252.609C239.717 253.275 245.665 263.477 244.772 264.218C243.879 264.96 241.412 264.74 241.488 263.916C241.564 263.091 236.009 257.627 236.009 257.627L231.688 256.681L230.454 252.155Z" fill="white"/>
<path d="M230.454 252.155C230.454 252.155 237.084 251.943 238.4 252.609C239.717 253.275 245.665 263.477 244.772 264.218C243.879 264.96 241.412 264.74 241.488 263.916C241.564 263.091 236.009 257.627 236.009 257.627L231.688 256.681L230.454 252.155Z" fill="#C184F2"/>
<path opacity="0.5" d="M230.454 252.155C230.454 252.155 237.084 251.943 238.4 252.609C239.717 253.275 245.665 263.477 244.772 264.218C243.879 264.96 241.412 264.74 241.488 263.916C241.564 263.091 236.009 257.627 236.009 257.627L231.688 256.681L230.454 252.155Z" fill="white"/>
<path d="M230.454 252.155C230.454 252.155 237.084 251.943 238.4 252.609C239.717 253.275 245.665 263.477 244.772 264.218C243.879 264.96 241.412 264.74 241.488 263.916C241.564 263.091 236.009 257.627 236.009 257.627L231.688 256.681L230.454 252.155Z" stroke="#263238" stroke-linecap="round" stroke-linejoin="round"/>
<path d="M226.527 250.786C226.527 250.786 233.239 250.566 234.571 251.247C235.903 251.928 241.927 262.243 241.019 263C240.111 263.757 237.629 263.522 237.704 262.69C237.78 261.857 232.157 256.325 232.157 256.325L227.783 255.364L226.527 250.786Z" fill="white"/>
<path d="M226.527 250.786C226.527 250.786 233.239 250.566 234.571 251.247C235.903 251.928 241.927 262.243 241.019 263C240.111 263.757 237.629 263.522 237.704 262.69C237.78 261.857 232.157 256.325 232.157 256.325L227.783 255.364L226.527 250.786Z" fill="#C184F2"/>
<path opacity="0.5" d="M226.527 250.786C226.527 250.786 233.239 250.566 234.571 251.247C235.903 251.928 241.927 262.243 241.019 263C240.111 263.757 237.629 263.522 237.704 262.69C237.78 261.857 232.157 256.325 232.157 256.325L227.783 255.364L226.527 250.786Z" fill="white"/>
<path d="M226.527 250.786C226.527 250.786 233.239 250.566 234.571 251.247C235.903 251.928 241.927 262.243 241.019 263C240.111 263.757 237.629 263.522 237.704 262.69C237.78 261.857 232.157 256.325 232.157 256.325L227.783 255.364L226.527 250.786Z" stroke="#263238" stroke-linecap="round" stroke-linejoin="round"/>
<path d="M150.206 212.327C155.065 219.811 164.82 238.776 167.665 240.91C172.107 244.24 201.803 252.322 204.664 254.532C207.524 256.741 207.327 258.959 210.037 259.768C212.746 260.578 222.902 262.902 226.776 263.265C230.651 263.628 228.918 261.229 228.918 261.229L222.311 256.688L228.07 255.266C228.07 255.266 233.845 262.213 234.927 262.591C236.009 262.97 237.916 262.591 237.795 261.736C237.583 260.366 231.423 249.159 229.236 248.682C227.049 248.205 213.775 250.044 213.775 250.044C213.775 250.044 185.934 231.269 185.434 230.603C185.434 230.603 183.769 225.88 182.407 223.935C181.045 221.991 180.182 222.551 180.182 222.551C180.182 222.551 180.742 220.046 179.91 219.213L175.467 214.771L175.309 214.983C174.552 213.469 173.795 211.744 172.963 209.776C170.639 204.305 162.413 188.95 161.028 186.733C159.992 185.075 151.304 183.887 146.899 183.388" fill="#C184F2"/>
<path opacity="0.16" d="M169.55 212.803C173.182 216.027 171.971 216.027 171.162 218.858C170.352 221.688 171.767 217.851 175.195 218.055C178.623 218.26 177.617 222.687 177.208 223.497C176.799 224.306 181.446 225.313 180.636 227.121C179.827 228.93 175.195 231.556 172.577 234.182C169.958 236.808 179.425 229.944 182.649 229.747C183.633 229.679 184.443 229.808 185.124 229.793C184.409 227.768 183.492 225.821 182.384 223.981C180.992 222.036 180.16 222.596 180.16 222.596C180.16 222.596 180.72 220.091 179.887 219.259L175.445 214.816L175.286 215.028C174.529 213.515 173.772 211.789 172.94 209.822C170.617 204.35 162.391 188.995 161.006 186.778C159.969 185.121 151.281 183.933 146.877 183.433L147.278 186.937L147.376 187.013C147.376 187.013 152.817 188.019 154.634 188.224C156.45 188.428 158.667 190.032 158.463 191.251C158.259 192.469 153.022 197.903 154.634 198.311C156.246 198.72 158.062 194.278 159.878 194.883C161.694 195.489 165.894 209.58 169.55 212.803Z" fill="black"/>
<path d="M150.206 212.327C155.065 219.811 164.82 238.776 167.665 240.91C172.107 244.24 201.803 252.322 204.664 254.532C207.524 256.741 207.327 258.959 210.037 259.768C212.746 260.578 222.902 262.902 226.776 263.265C230.651 263.628 228.918 261.229 228.918 261.229L222.311 256.688L228.07 255.266C228.07 255.266 233.845 262.213 234.927 262.591C236.009 262.97 237.916 262.591 237.795 261.736C237.583 260.366 231.423 249.159 229.236 248.682C227.049 248.205 213.775 250.044 213.775 250.044C213.775 250.044 185.934 231.269 185.434 230.603C185.434 230.603 183.769 225.88 182.407 223.935C181.045 221.991 180.182 222.551 180.182 222.551C180.182 222.551 180.742 220.046 179.91 219.213L175.467 214.771L175.309 214.983C174.552 213.469 173.795 211.744 172.963 209.776C170.639 204.305 162.413 188.95 161.028 186.733C159.992 185.075 151.304 183.887 146.899 183.388" stroke="#263238" stroke-linecap="round" stroke-linejoin="round"/>
<path d="M150.282 202.057C150.078 202.738 149.904 203.419 149.768 204.116" stroke="#263238" stroke-linecap="round" stroke-linejoin="round"/>
<path d="M157.638 189.533C155.26 192.243 153.255 195.259 151.675 198.5" stroke="#263238" stroke-linecap="round" stroke-linejoin="round"/>
<path d="M168.755 232.502C170.798 229.475 174.052 225.638 177.639 224.541" stroke="#263238" stroke-linecap="round" stroke-linejoin="round"/>
<path d="M166.492 236.225C166.492 236.225 166.855 235.514 167.506 234.439" stroke="#263238" stroke-linecap="round" stroke-linejoin="round"/>
<path d="M166.492 231.443C166.492 231.443 170.208 222.15 173.924 219.758C177.639 217.367 175.513 222.15 175.513 222.15" stroke="#263238" stroke-linecap="round" stroke-linejoin="round"/>
<path d="M204.664 254.539C207.532 256.757 207.328 258.966 210.037 259.776C212.746 260.586 222.902 262.909 226.777 263.272C230.651 263.636 228.918 261.237 228.918 261.237L222.312 256.696L228.071 255.273C228.071 255.273 233.845 262.22 234.927 262.599C236.009 262.977 238.067 263.113 237.795 261.744C237.265 259.095 231.423 249.166 229.236 248.689C227.049 248.213 213.775 250.052 213.775 250.052C213.775 250.052 188.416 232.646 185.639 230.762C174.87 231.798 169.746 237.436 167.59 240.819L167.665 240.88C172.108 244.24 201.803 252.322 204.664 254.539Z" fill="white"/>
<path d="M237.787 261.774C236.41 258.406 231.415 249.196 229.228 248.72C227.041 248.243 213.768 250.082 213.768 250.082C213.768 250.082 188.408 232.676 185.631 230.792C182.804 231.038 180.031 231.709 177.405 232.782C181.408 235.052 208.092 250.188 211.459 250.861C215.031 251.618 226.95 249.658 229.047 251.066C230.379 251.959 234.344 258.247 237.023 262.712C237.787 262.599 238.067 262.455 237.787 261.774Z" fill="#C184F2"/>
<path opacity="0.5" d="M237.787 261.774C235.638 256.953 231.415 249.196 229.228 248.72C227.041 248.243 213.768 250.082 213.768 250.082C213.768 250.082 188.408 232.676 185.631 230.792C182.804 231.038 180.031 231.709 177.405 232.782C181.408 235.052 208.092 250.188 211.459 250.861C215.031 251.618 226.95 249.658 229.047 251.066C230.379 251.959 234.344 258.247 237.023 262.712C237.787 262.599 238.09 262.447 237.787 261.774Z" fill="white"/>
<path d="M204.664 254.539C207.532 256.757 207.328 258.966 210.037 259.776C212.746 260.586 222.902 262.909 226.777 263.272C230.651 263.636 228.918 261.237 228.918 261.237L222.312 256.696L228.071 255.273C228.071 255.273 233.845 262.22 234.927 262.599C236.009 262.977 238.068 263.113 237.795 261.744C237.265 259.095 231.423 249.166 229.236 248.689C227.049 248.213 213.775 250.052 213.775 250.052C213.775 250.052 188.416 232.646 185.639 230.762C174.87 231.798 169.746 237.436 167.59 240.819L167.665 240.88C172.108 244.24 201.803 252.322 204.664 254.539Z" stroke="#263238" stroke-linecap="round" stroke-linejoin="round"/>
<path d="M137.781 122.392L114.987 131.905C114.71 135.911 113.718 139.835 112.058 143.491C109.364 149.189 110.938 159.973 113.526 165.793C116.114 171.612 127.519 169.335 131.689 168.608C134.517 168.07 137.287 167.262 139.96 166.194C141.177 166.663 142.494 166.815 143.786 166.635C145.078 166.455 146.303 165.949 147.346 165.165C147.346 165.165 135.147 130.921 137.781 122.392Z" fill="white"/>
<path d="M137.781 122.392L114.987 131.905C114.71 135.911 113.718 139.835 112.058 143.491C109.364 149.189 110.938 159.973 113.526 165.793C113.959 166.729 114.656 167.518 115.532 168.063V167.624C115.532 167.624 111.301 157.143 112.103 151.096C112.906 145.05 116.341 142.015 116.742 138.194C117.143 134.372 116.939 132.556 124.605 129.733C132.271 126.91 135.488 124.292 136.29 127.107C137.092 129.922 140.323 148.478 142.541 152.913C144.758 157.347 144.554 161.994 141.133 163.999C137.676 166.075 133.971 167.707 130.107 168.858L131.719 168.578C134.547 168.04 137.317 167.231 139.99 166.164C141.208 166.633 142.524 166.785 143.816 166.605C145.109 166.425 146.334 165.919 147.376 165.135C147.376 165.135 135.147 130.921 137.781 122.392Z" fill="#C184F2"/>
<path opacity="0.5" d="M137.781 122.392L114.987 131.905C114.71 135.911 113.718 139.835 112.058 143.491C109.364 149.189 110.938 159.973 113.526 165.793C113.959 166.729 114.656 167.518 115.532 168.063V167.624C115.532 167.624 111.301 157.143 112.103 151.096C112.906 145.05 116.341 142.015 116.742 138.194C117.143 134.372 116.939 132.556 124.605 129.733C132.271 126.91 135.488 124.292 136.29 127.107C137.092 129.922 140.323 148.478 142.541 152.913C144.758 157.347 144.554 161.994 141.133 163.999C137.676 166.075 133.971 167.707 130.107 168.858L131.719 168.578C134.547 168.04 137.317 167.231 139.99 166.164C141.208 166.633 142.524 166.785 143.816 166.605C145.109 166.425 146.334 165.919 147.376 165.135C147.376 165.135 135.147 130.921 137.781 122.392Z" fill="white"/>
<path d="M137.781 122.392L114.987 131.905C114.71 135.911 113.718 139.835 112.058 143.491C109.364 149.189 110.938 159.973 113.526 165.793C116.114 171.612 127.519 169.335 131.689 168.608C134.517 168.07 137.287 167.262 139.96 166.194C141.177 166.663 142.494 166.815 143.786 166.635C145.078 166.455 146.303 165.949 147.346 165.165C147.346 165.165 135.147 130.921 137.781 122.392Z" stroke="#263238" stroke-linecap="round" stroke-linejoin="round"/>
<path d="M126.262 137.308C126.324 138.648 126.158 139.989 125.771 141.274C125.165 142.787 119.452 148.735 119.626 149.379C119.8 150.022 120.314 152.088 121.328 152.285" stroke="#263238" stroke-linecap="round" stroke-linejoin="round"/>
<path d="M132.597 142.628C133.391 141.039 136.002 142.59 135.964 146.17" stroke="#263238" stroke-linecap="round" stroke-linejoin="round"/>
<path d="M119.656 137.951C119.656 137.951 121.881 136.975 123.871 140.577" stroke="#263238" stroke-linecap="round" stroke-linejoin="round"/>
<path d="M129.433 147.873C132.004 148.002 134.449 149.028 136.343 150.771" stroke="#263238" stroke-width="0.5" stroke-linecap="round" stroke-linejoin="round"/>
<path d="M116.969 143.143C118.299 143.32 119.597 143.679 120.829 144.21" stroke="#263238" stroke-width="0.5" stroke-linecap="round" stroke-linejoin="round"/>
<path d="M126.013 133.948C125.425 133.637 124.773 133.467 124.109 133.452C123.444 133.436 122.785 133.575 122.183 133.857C120.148 134.834 118.899 135.908 119.035 134.659C119.171 133.411 121.563 132.033 122.282 131.852C123.001 131.67 126.217 131.171 126.013 133.948Z" fill="#263238"/>
<path d="M131.719 131.125C133.84 132.842 135.526 135.036 136.638 137.528C138.151 141.311 139.347 137.18 138.151 134.705C136.956 132.23 133.497 129.597 131.719 131.125Z" fill="#263238"/>
<path d="M147.679 171.635C147.679 173.398 146.68 174.829 145.454 174.829C144.228 174.829 143.237 173.398 143.237 171.635C143.237 169.872 144.228 165.384 145.454 165.384C146.68 165.384 147.679 169.872 147.679 171.635Z" fill="#C184F2" stroke="#263238" stroke-linecap="round" stroke-linejoin="round"/>
<path d="M132.793 141.94C132.706 142.171 132.638 142.409 132.589 142.651C132.37 143.771 132.15 146.109 132.589 146.208C133.028 146.306 134.103 144.119 134.292 142.999C134.334 142.779 134.36 142.557 134.367 142.333C133.851 142.171 133.325 142.04 132.793 141.94Z" fill="#263238"/>
<path d="M119.883 137.732C119.816 137.93 119.762 138.132 119.724 138.337C119.497 139.457 119.504 141.917 119.981 142.008C120.458 142.098 121.237 139.798 121.457 138.678C121.512 138.406 121.542 138.13 121.548 137.853C121.006 137.704 120.44 137.663 119.883 137.732Z" fill="#263238"/>
<path d="M132.597 142.666L133.353 141.258C134.553 141.492 135.64 142.121 136.441 143.044" stroke="#263238" stroke-width="0.75" stroke-linecap="round" stroke-linejoin="round"/>
<path d="M119.883 137.732L120.64 136.847C120.64 136.847 120.965 136.688 122.751 137.497" stroke="#263238" stroke-width="0.75" stroke-linecap="round" stroke-linejoin="round"/>
<path d="M117.015 158.256C117.015 158.256 118.286 155.917 119.989 155.917C121.692 155.917 122.963 159.739 122.963 159.739" stroke="#263238" stroke-linecap="round" stroke-linejoin="round"/>
<path d="M154.091 259.103C152.446 259.021 150.829 258.636 149.324 257.967C149.114 257.89 148.922 257.77 148.759 257.616C148.597 257.462 148.468 257.276 148.38 257.07C148.291 256.865 148.246 256.643 148.246 256.419C148.246 256.195 148.292 255.974 148.38 255.768C148.469 255.563 148.598 255.377 148.76 255.223C148.923 255.069 149.115 254.95 149.325 254.872C149.535 254.795 149.758 254.761 149.982 254.773C150.206 254.784 150.424 254.841 150.625 254.94C152.139 255.584 154.099 255.985 154.621 255.758C155.582 254.683 157.058 248.19 155.151 245.057C154.719 244.361 154.318 244.232 154.053 244.202C152.971 244.05 151.367 245.163 150.799 245.715C150.641 245.864 150.455 245.981 150.252 246.058C150.049 246.135 149.833 246.172 149.616 246.166C149.399 246.159 149.185 246.11 148.987 246.021C148.789 245.932 148.61 245.805 148.461 245.647C148.312 245.489 148.195 245.303 148.118 245.1C148.041 244.897 148.004 244.681 148.011 244.464C148.017 244.247 148.066 244.033 148.155 243.835C148.244 243.637 148.371 243.458 148.529 243.309C148.824 243.021 151.556 240.562 154.47 240.955C155.192 241.061 155.881 241.331 156.482 241.746C157.083 242.161 157.58 242.709 157.936 243.347C160.743 247.925 158.821 256.635 156.664 258.361C155.915 258.891 155.008 259.153 154.091 259.103Z" fill="white"/>
<path d="M156.308 244.557C156.11 244.087 155.799 243.673 155.403 243.351C155.008 243.029 154.539 242.809 154.038 242.711C152.146 242.408 150.368 244.308 150.171 244.52C149.99 244.737 149.878 245.004 149.85 245.286C149.822 245.568 149.878 245.852 150.012 246.101C150.31 246.041 150.585 245.9 150.807 245.693C151.374 245.163 152.979 244.05 154.061 244.179C154.326 244.179 154.727 244.338 155.158 245.034C157.065 248.137 155.59 254.66 154.628 255.735C154.106 255.962 152.154 255.561 150.633 254.918C150.446 254.839 150.245 254.795 150.042 254.789C150.056 254.996 150.122 255.197 150.233 255.373C150.344 255.549 150.497 255.694 150.678 255.795C151.635 256.307 152.691 256.606 153.773 256.673C154.391 256.703 154.996 256.491 155.461 256.083C156.884 254.774 158.14 248.076 156.308 244.557Z" fill="#C184F2"/>
<path opacity="0.5" d="M156.308 244.557C156.11 244.087 155.799 243.673 155.403 243.351C155.008 243.029 154.539 242.809 154.038 242.711C152.146 242.408 150.368 244.308 150.171 244.52C149.99 244.737 149.878 245.004 149.85 245.286C149.822 245.568 149.878 245.852 150.012 246.101C150.31 246.041 150.585 245.9 150.807 245.693C151.374 245.163 152.979 244.05 154.061 244.179C154.326 244.179 154.727 244.338 155.158 245.034C157.065 248.137 155.59 254.66 154.628 255.735C154.106 255.962 152.154 255.561 150.633 254.918C150.446 254.839 150.245 254.795 150.042 254.789C150.056 254.996 150.122 255.197 150.233 255.373C150.344 255.549 150.497 255.694 150.678 255.795C151.635 256.307 152.691 256.606 153.773 256.673C154.391 256.703 154.996 256.491 155.461 256.083C156.884 254.774 158.14 248.076 156.308 244.557Z" fill="white"/>
<path d="M154.091 259.103C152.446 259.021 150.829 258.636 149.324 257.967C149.114 257.89 148.922 257.77 148.759 257.616C148.597 257.462 148.468 257.276 148.38 257.07C148.291 256.865 148.246 256.643 148.246 256.419C148.246 256.195 148.292 255.974 148.38 255.768C148.469 255.563 148.598 255.377 148.76 255.223C148.923 255.069 149.115 254.95 149.325 254.872C149.535 254.795 149.758 254.761 149.982 254.773C150.206 254.784 150.424 254.841 150.625 254.94C152.139 255.584 154.099 255.985 154.621 255.758C155.582 254.683 157.058 248.19 155.151 245.057C154.719 244.361 154.318 244.232 154.053 244.202C152.971 244.05 151.367 245.163 150.799 245.715C150.641 245.864 150.455 245.981 150.252 246.058C150.049 246.135 149.833 246.172 149.616 246.166C149.399 246.159 149.185 246.11 148.987 246.021C148.789 245.932 148.61 245.805 148.461 245.647C148.312 245.489 148.195 245.303 148.118 245.1C148.041 244.897 148.004 244.681 148.011 244.464C148.017 244.247 148.066 244.033 148.155 243.835C148.244 243.637 148.371 243.458 148.529 243.309C148.824 243.021 151.556 240.562 154.47 240.955C155.192 241.061 155.881 241.331 156.482 241.746C157.083 242.161 157.58 242.709 157.936 243.347C160.743 247.925 158.821 256.635 156.664 258.361C155.915 258.891 155.008 259.153 154.091 259.103V259.103Z" stroke="#263238" stroke-linecap="round" stroke-linejoin="round"/>
<path d="M151.2 239.578H133V263.734H151.2V239.578Z" fill="white"/>
<path d="M140.454 239.578H133V263.734H140.454V239.578Z" fill="#C184F2"/>
<path opacity="0.5" d="M140.454 239.578H133V263.734H140.454V239.578Z" fill="white"/>
<path d="M151.2 239.578H133V263.734H151.2V239.578Z" stroke="#263238" stroke-linecap="round" stroke-linejoin="round"/>
<path d="M185.326 263.401H107.576L105.041 220.659C104.971 220.244 104.991 219.82 105.101 219.414C105.211 219.008 105.408 218.631 105.678 218.309C105.947 217.987 106.284 217.727 106.664 217.547C107.044 217.367 107.458 217.272 107.879 217.268H184.993C185.416 217.268 185.834 217.36 186.218 217.538C186.601 217.715 186.942 217.975 187.215 218.297C187.488 218.62 187.687 218.999 187.799 219.407C187.911 219.814 187.932 220.242 187.861 220.659L185.326 263.401Z" fill="#263238" stroke="#263238" stroke-linecap="round" stroke-linejoin="round"/>
<path d="M111.405 218.29H184.433C184.846 218.286 185.254 218.372 185.63 218.542C186.006 218.712 186.34 218.962 186.609 219.275C186.878 219.588 187.075 219.956 187.187 220.353C187.298 220.75 187.322 221.167 187.256 221.574" stroke="white" stroke-linecap="round" stroke-linejoin="round"/>
<path d="M105.608 220.901C105.669 220.186 105.997 219.52 106.528 219.036C107.058 218.552 107.751 218.286 108.469 218.29" stroke="white" stroke-linecap="round" stroke-linejoin="round"/>
<path d="M185.652 259.239H107.25V263.401H185.652V259.239Z" fill="white" stroke="#263238" stroke-linecap="round" stroke-linejoin="round"/>
<path d="M146.171 243.831C149.239 243.831 151.726 242.34 151.726 240.501C151.726 238.662 149.239 237.171 146.171 237.171C143.103 237.171 140.616 238.662 140.616 240.501C140.616 242.34 143.103 243.831 146.171 243.831Z" fill="white" stroke="#263238" stroke-linecap="round" stroke-linejoin="round"/>
<path d="M292.007 262.909H0V270H292.007V262.909Z" fill="#263238"/>
<path d="M216.053 0H75.5742C70.8388 0 67 3.8388 67 8.57419V89.1776C67 93.913 70.8388 97.7518 75.5742 97.7518H216.053C220.789 97.7518 224.627 93.913 224.627 89.1776V8.57419C224.627 3.8388 220.789 0 216.053 0Z" fill="#C184F2"/>
<path d="M149.521 56.1751C162.264 54.1272 170.934 42.1369 168.886 29.394C166.838 16.6512 154.847 7.98124 142.105 10.0292C129.362 12.0771 120.692 24.0674 122.74 36.8102C124.788 49.553 136.778 58.223 149.521 56.1751Z" fill="#263238"/>
<path d="M145.636 37.4222L137.849 47.4191C137.584 47.8353 137.22 48.1791 136.789 48.4195C136.359 48.6599 135.875 48.7895 135.382 48.7965C134.705 48.8057 134.052 48.5473 133.565 48.0775C133.318 47.8505 133.122 47.5728 132.992 47.2633C132.861 46.9538 132.799 46.6198 132.809 46.284C132.833 45.532 133.098 44.8078 133.565 44.218L142.442 33.2373L134.118 22.249C133.731 21.7333 133.519 21.1076 133.512 20.463C133.511 20.0786 133.588 19.6979 133.741 19.3449C133.893 18.992 134.117 18.6744 134.398 18.4122C134.662 18.1365 134.979 17.9172 135.33 17.7677C135.682 17.6181 136.059 17.5413 136.441 17.5419C136.93 17.5498 137.409 17.68 137.835 17.9206C138.26 18.1612 138.619 18.5045 138.878 18.9192L146.4 28.8253L153.968 19.0857C154.238 18.6313 154.617 18.2507 155.07 17.9774C155.522 17.7042 156.036 17.5468 156.564 17.5192C156.891 17.5184 157.216 17.5852 157.517 17.7154C157.817 17.8456 158.088 18.0364 158.312 18.276C158.55 18.5005 158.74 18.7714 158.871 19.072C159.001 19.3726 159.068 19.6966 159.069 20.0241C159.06 20.6103 158.858 21.1772 158.493 21.636L149.586 33.033L158.191 44.3845C158.597 44.8919 158.824 45.5202 158.834 46.1705C158.836 46.5465 158.757 46.9185 158.602 47.2608C158.446 47.6032 158.218 47.9077 157.933 48.1532C157.378 48.6872 156.638 48.9855 155.867 48.9856C155.376 48.9796 154.894 48.8503 154.466 48.6096C154.037 48.369 153.676 48.0247 153.415 47.6083L145.636 37.4222Z" fill="white"/>
<path d="M190.338 80.8229H101.259C99.4527 80.8229 97.7203 80.1053 96.443 78.828C95.1657 77.5507 94.4481 75.8184 94.4481 74.012C94.4481 72.2056 95.1657 70.4732 96.443 69.1959C97.7203 67.9187 99.4527 67.2011 101.259 67.2011H190.338C192.145 67.2011 193.877 67.9187 195.154 69.1959C196.432 70.4732 197.149 72.2056 197.149 74.012C197.149 75.8184 196.432 77.5507 195.154 78.828C193.877 80.1053 192.145 80.8229 190.338 80.8229Z" fill="white"/>
<path d="M113.466 76.2066C113.406 76.2066 113.347 76.1945 113.293 76.1711C113.238 76.1477 113.189 76.1134 113.148 76.0704C113.103 76.026 113.068 75.9728 113.044 75.9142C113.021 75.8557 113.01 75.7929 113.012 75.7299C113.012 75.6233 113.04 75.5187 113.095 75.4271L113.776 74.3677H112.383C112.319 74.371 112.255 74.3605 112.195 74.3371C112.135 74.3136 112.08 74.2776 112.035 74.2315C111.958 74.1409 111.915 74.0254 111.915 73.906C111.915 73.7867 111.958 73.6712 112.035 73.5806C112.08 73.5345 112.135 73.4985 112.195 73.475C112.255 73.4516 112.319 73.4411 112.383 73.4444L113.753 73.4823L113.148 72.4985C113.087 72.3977 113.053 72.283 113.049 72.1655C113.048 72.1024 113.059 72.0397 113.082 71.9811C113.106 71.9225 113.141 71.8694 113.186 71.8249C113.228 71.7817 113.279 71.7473 113.335 71.7239C113.39 71.7005 113.45 71.6886 113.511 71.6887C113.596 71.6875 113.679 71.7112 113.75 71.757C113.822 71.8027 113.878 71.8685 113.912 71.946L114.578 73.1341L115.214 71.999C115.254 71.9107 115.317 71.835 115.397 71.7803C115.477 71.7256 115.571 71.6939 115.668 71.6887C115.727 71.6887 115.786 71.7008 115.841 71.7242C115.895 71.7476 115.945 71.7819 115.986 71.8249C116.03 71.8665 116.065 71.917 116.089 71.9731C116.112 72.0292 116.123 72.0896 116.122 72.1503C116.121 72.2578 116.089 72.3628 116.031 72.4531L115.365 73.5201L116.75 73.4823C116.814 73.4785 116.879 73.4887 116.939 73.5122C116.999 73.5357 117.053 73.572 117.098 73.6185C117.176 73.709 117.219 73.8245 117.219 73.9439C117.219 74.0633 117.176 74.1787 117.098 74.2693C117.053 74.3158 116.999 74.3521 116.939 74.3756C116.879 74.3991 116.814 74.4093 116.75 74.4055H115.35L115.971 75.3742C116.041 75.4911 116.08 75.6239 116.084 75.7601C116.086 75.8214 116.076 75.8826 116.054 75.9398C116.032 75.997 115.998 76.0492 115.955 76.0931C115.916 76.1356 115.868 76.1695 115.814 76.193C115.761 76.2164 115.703 76.2287 115.645 76.2293C115.551 76.227 115.46 76.198 115.383 76.1458C115.305 76.0935 115.244 76.0201 115.206 75.9342L114.578 74.8217L113.95 75.9342C113.905 76.0218 113.834 76.0943 113.748 76.1427C113.662 76.1911 113.564 76.2133 113.466 76.2066Z" fill="black"/>
<path d="M120.413 76.2066C120.353 76.2066 120.295 76.1945 120.24 76.1711C120.185 76.1477 120.136 76.1134 120.095 76.0704C120.05 76.026 120.015 75.9728 119.992 75.9142C119.968 75.8557 119.957 75.7929 119.959 75.7299C119.959 75.6233 119.988 75.5187 120.042 75.4271L120.723 74.3677H119.331C119.266 74.371 119.202 74.3605 119.142 74.3371C119.082 74.3136 119.028 74.2776 118.983 74.2314C118.905 74.1409 118.862 74.0254 118.862 73.906C118.862 73.7867 118.905 73.6712 118.983 73.5806C119.028 73.5345 119.082 73.4985 119.142 73.475C119.202 73.4516 119.266 73.4411 119.331 73.4444L120.7 73.4823L120.057 72.4606C119.997 72.3598 119.963 72.2452 119.959 72.1276C119.957 72.0646 119.968 72.0018 119.992 71.9433C120.015 71.8847 120.05 71.8315 120.095 71.7871C120.137 71.7438 120.188 71.7095 120.244 71.6861C120.3 71.6627 120.36 71.6507 120.42 71.6509C120.505 71.6496 120.588 71.6734 120.66 71.7191C120.731 71.7649 120.787 71.8306 120.822 71.9082L121.488 73.0963L122.123 71.9611C122.163 71.8728 122.227 71.7972 122.307 71.7425C122.387 71.6878 122.48 71.6561 122.577 71.6509C122.637 71.6509 122.696 71.6629 122.75 71.6864C122.805 71.7098 122.854 71.744 122.895 71.7871C122.939 71.8287 122.975 71.8792 122.998 71.9352C123.021 71.9913 123.033 72.0517 123.031 72.1125C123.03 72.22 122.999 72.3249 122.941 72.4152L122.275 73.4823L123.659 73.4444C123.724 73.4406 123.788 73.4508 123.848 73.4743C123.909 73.4979 123.963 73.5341 124.008 73.5806C124.085 73.6712 124.128 73.7867 124.128 73.906C124.128 74.0254 124.085 74.1409 124.008 74.2314C123.963 74.278 123.909 74.3142 123.848 74.3377C123.788 74.3613 123.724 74.3715 123.659 74.3677H122.259L122.88 75.3363C122.95 75.4533 122.989 75.5861 122.993 75.7223C122.996 75.7836 122.985 75.8447 122.963 75.902C122.941 75.9592 122.908 76.0113 122.865 76.0553C122.825 76.0977 122.777 76.1317 122.724 76.1551C122.67 76.1785 122.613 76.1909 122.555 76.1915C122.461 76.1901 122.369 76.1615 122.291 76.1091C122.213 76.0567 122.152 75.9828 122.116 75.8963L121.488 74.7839L120.859 75.8963C120.822 75.9851 120.76 76.0614 120.681 76.1164C120.602 76.1713 120.509 76.2026 120.413 76.2066Z" fill="black"/>
<path d="M127.36 76.2066C127.301 76.2066 127.242 76.1945 127.187 76.1711C127.133 76.1477 127.083 76.1134 127.042 76.0704C126.997 76.026 126.962 75.9728 126.939 75.9142C126.915 75.8557 126.904 75.7929 126.906 75.7299C126.906 75.6233 126.935 75.5187 126.989 75.4271L127.67 74.3677H126.278C126.214 74.371 126.149 74.3605 126.089 74.3371C126.029 74.3136 125.975 74.2776 125.93 74.2314C125.852 74.1409 125.809 74.0254 125.809 73.906C125.809 73.7867 125.852 73.6712 125.93 73.5806C125.975 73.5345 126.029 73.4985 126.089 73.475C126.149 73.4516 126.214 73.4411 126.278 73.4444L127.648 73.4823L127.004 72.4606C126.944 72.3598 126.91 72.2452 126.906 72.1276C126.904 72.0646 126.915 72.0018 126.939 71.9433C126.962 71.8847 126.997 71.8315 127.042 71.7871C127.085 71.7438 127.135 71.7095 127.191 71.6861C127.247 71.6627 127.307 71.6507 127.368 71.6509C127.452 71.6496 127.536 71.6734 127.607 71.7191C127.678 71.7649 127.735 71.8306 127.769 71.9082L128.435 73.0963L129.07 71.9611C129.11 71.8728 129.174 71.7972 129.254 71.7425C129.334 71.6878 129.428 71.6561 129.524 71.6509C129.584 71.6509 129.643 71.6629 129.697 71.6864C129.752 71.7098 129.801 71.744 129.842 71.7871C129.887 71.8287 129.922 71.8792 129.945 71.9352C129.969 71.9913 129.98 72.0517 129.978 72.1125C129.977 72.22 129.946 72.3249 129.888 72.4152L129.222 73.4823L130.607 73.4444C130.671 73.4406 130.735 73.4508 130.796 73.4743C130.856 73.4979 130.91 73.5341 130.955 73.5806C131.032 73.6712 131.075 73.7867 131.075 73.906C131.075 74.0254 131.032 74.1409 130.955 74.2314C130.91 74.278 130.856 74.3142 130.796 74.3377C130.735 74.3613 130.671 74.3715 130.607 74.3677H129.207L129.827 75.3363C129.897 75.4533 129.936 75.5861 129.941 75.7223C129.943 75.7836 129.933 75.8447 129.91 75.902C129.888 75.9592 129.855 76.0113 129.812 76.0553C129.772 76.0977 129.724 76.1317 129.671 76.1551C129.617 76.1785 129.56 76.1909 129.502 76.1915C129.408 76.1901 129.316 76.1615 129.238 76.1091C129.16 76.0567 129.099 75.9828 129.063 75.8963L128.435 74.7839L127.807 75.8963C127.769 75.9851 127.707 76.0614 127.628 76.1164C127.549 76.1713 127.456 76.2026 127.36 76.2066Z" fill="black"/>
<path d="M134.337 76.2066C134.278 76.2066 134.219 76.1945 134.165 76.1711C134.11 76.1477 134.061 76.1134 134.02 76.0704C133.975 76.026 133.94 75.9728 133.916 75.9142C133.893 75.8557 133.882 75.7929 133.883 75.7299C133.883 75.6233 133.912 75.5187 133.967 75.4271L134.648 74.3677H133.255C133.191 74.371 133.127 74.3605 133.067 74.3371C133.007 74.3136 132.952 74.2776 132.907 74.2314C132.829 74.1409 132.787 74.0254 132.787 73.906C132.787 73.7867 132.829 73.6712 132.907 73.5806C132.952 73.5345 133.007 73.4985 133.067 73.475C133.127 73.4516 133.191 73.4411 133.255 73.4444L134.625 73.4823L133.982 72.4606C133.921 72.3598 133.887 72.2452 133.883 72.1276C133.882 72.0646 133.893 72.0018 133.916 71.9433C133.94 71.8847 133.975 71.8315 134.02 71.7871C134.062 71.7438 134.113 71.7095 134.169 71.6861C134.224 71.6627 134.284 71.6507 134.345 71.6509C134.43 71.6496 134.513 71.6734 134.584 71.7191C134.656 71.7649 134.712 71.8306 134.746 71.9082L135.412 73.0963L136.048 71.9611C136.088 71.8728 136.151 71.7972 136.231 71.7425C136.311 71.6878 136.405 71.6561 136.502 71.6509C136.561 71.6509 136.62 71.6629 136.675 71.6864C136.729 71.7098 136.779 71.744 136.82 71.7871C136.864 71.8287 136.899 71.8792 136.923 71.9352C136.946 71.9913 136.957 72.0517 136.956 72.1125C136.955 72.22 136.923 72.3249 136.865 72.4152L136.199 73.4823L137.584 73.4444C137.648 73.4406 137.713 73.4508 137.773 73.4743C137.833 73.4979 137.887 73.5341 137.932 73.5806C138.01 73.6712 138.053 73.7867 138.053 73.906C138.053 74.0254 138.01 74.1409 137.932 74.2314C137.887 74.278 137.833 74.3142 137.773 74.3377C137.713 74.3613 137.648 74.3715 137.584 74.3677H136.184L136.805 75.3363C136.875 75.4533 136.914 75.5861 136.918 75.7223C136.92 75.7836 136.91 75.8447 136.888 75.902C136.866 75.9592 136.832 76.0113 136.789 76.0553C136.75 76.0977 136.702 76.1317 136.648 76.1551C136.595 76.1785 136.537 76.1909 136.479 76.1915C136.385 76.1892 136.294 76.1602 136.217 76.1079C136.139 76.0556 136.078 75.9822 136.04 75.8963L135.412 74.7839L134.784 75.8963C134.747 75.9851 134.685 76.0614 134.606 76.1164C134.527 76.1713 134.434 76.2026 134.337 76.2066Z" fill="black"/>
<path d="M141.254 76.2066C141.195 76.2066 141.136 76.1946 141.081 76.1711C141.027 76.1477 140.977 76.1135 140.936 76.0704C140.892 76.026 140.856 75.9728 140.833 75.9142C140.81 75.8557 140.798 75.7929 140.8 75.7299C140.804 75.6238 140.832 75.5201 140.883 75.4271L141.564 74.3677H140.172C140.108 74.371 140.043 74.3605 139.983 74.3371C139.923 74.3136 139.869 74.2776 139.824 74.2315C139.746 74.1409 139.703 74.0254 139.703 73.906C139.703 73.7867 139.746 73.6712 139.824 73.5806C139.869 73.5345 139.923 73.4985 139.983 73.475C140.043 73.4516 140.108 73.4411 140.172 73.4444L141.542 73.4823L140.899 72.4606C140.838 72.3598 140.804 72.2452 140.8 72.1276C140.798 72.0646 140.81 72.0018 140.833 71.9433C140.856 71.8847 140.892 71.8315 140.936 71.7871C140.979 71.7438 141.029 71.7095 141.085 71.6861C141.141 71.6627 141.201 71.6507 141.262 71.6509C141.347 71.6496 141.43 71.6734 141.501 71.7191C141.572 71.7649 141.629 71.8306 141.663 71.9082L142.329 73.0963L142.965 71.9611C143.005 71.8728 143.068 71.7972 143.148 71.7425C143.228 71.6878 143.322 71.6561 143.419 71.6509C143.478 71.65 143.537 71.6616 143.592 71.6851C143.647 71.7086 143.696 71.7433 143.736 71.7871C143.781 71.8287 143.816 71.8792 143.839 71.9352C143.863 71.9913 143.874 72.0517 143.873 72.1125C143.872 72.22 143.84 72.3249 143.782 72.4152L143.116 73.4823L144.501 73.4444C144.565 73.4406 144.63 73.4508 144.69 73.4743C144.75 73.4979 144.804 73.5341 144.849 73.5806C144.927 73.6712 144.969 73.7867 144.969 73.906C144.969 74.0254 144.927 74.1409 144.849 74.2315C144.804 74.278 144.75 74.3142 144.69 74.3377C144.63 74.3613 144.565 74.3715 144.501 74.3677H143.101L143.721 75.3363C143.791 75.4533 143.83 75.5861 143.835 75.7223C143.837 75.7836 143.827 75.8447 143.805 75.902C143.782 75.9592 143.749 76.0113 143.706 76.0553C143.666 76.0977 143.618 76.1317 143.565 76.1551C143.512 76.1785 143.454 76.1909 143.396 76.1915C143.302 76.1892 143.211 76.1602 143.133 76.1079C143.056 76.0556 142.994 75.9822 142.957 75.8963L142.329 74.7839L141.701 75.8963C141.663 75.9851 141.602 76.0614 141.523 76.1164C141.443 76.1713 141.35 76.2026 141.254 76.2066Z" fill="black"/>
<path d="M148.201 76.2066C148.142 76.2066 148.083 76.1946 148.029 76.1711C147.974 76.1477 147.925 76.1135 147.884 76.0704C147.839 76.026 147.804 75.9728 147.78 75.9142C147.757 75.8557 147.746 75.7929 147.747 75.7299C147.751 75.6238 147.779 75.5201 147.831 75.4271L148.512 74.3677H147.127C147.061 74.3716 146.996 74.3614 146.934 74.338C146.873 74.3145 146.817 74.2782 146.771 74.2315C146.693 74.1409 146.651 74.0254 146.651 73.906C146.651 73.7867 146.693 73.6712 146.771 73.5806C146.817 73.5339 146.873 73.4976 146.934 73.4741C146.996 73.4506 147.061 73.4405 147.127 73.4444L148.489 73.4823L147.846 72.4606C147.785 72.3598 147.751 72.2452 147.747 72.1276C147.746 72.0646 147.757 72.0018 147.78 71.9433C147.804 71.8847 147.839 71.8315 147.884 71.7871C147.926 71.7438 147.977 71.7095 148.033 71.6861C148.088 71.6627 148.148 71.6507 148.209 71.6509C148.294 71.6496 148.377 71.6734 148.448 71.7191C148.52 71.7649 148.576 71.8306 148.61 71.9082L149.276 73.0963L149.912 71.9611C149.952 71.8728 150.015 71.7972 150.095 71.7425C150.175 71.6878 150.269 71.6561 150.366 71.6509C150.425 71.65 150.485 71.6616 150.539 71.6851C150.594 71.7086 150.643 71.7433 150.684 71.7871C150.728 71.8287 150.763 71.8792 150.787 71.9352C150.81 71.9913 150.821 72.0517 150.82 72.1125C150.819 72.22 150.787 72.3249 150.729 72.4152L150.063 73.4823L151.448 73.4444C151.512 73.4406 151.577 73.4508 151.637 73.4743C151.697 73.4979 151.751 73.5341 151.796 73.5806C151.874 73.6712 151.917 73.7867 151.917 73.906C151.917 74.0254 151.874 74.1409 151.796 74.2315C151.751 74.278 151.697 74.3142 151.637 74.3377C151.577 74.3613 151.512 74.3715 151.448 74.3677H150.048L150.669 75.3363C150.739 75.4533 150.778 75.5861 150.782 75.7223C150.784 75.7836 150.774 75.8447 150.752 75.902C150.73 75.9592 150.696 76.0113 150.653 76.0553C150.614 76.0977 150.566 76.1317 150.512 76.1551C150.459 76.1785 150.401 76.1909 150.343 76.1915C150.249 76.1892 150.158 76.1602 150.081 76.1079C150.003 76.0556 149.942 75.9822 149.904 75.8963L149.276 74.7839L148.648 75.8963C148.611 75.9851 148.549 76.0614 148.47 76.1164C148.391 76.1713 148.298 76.2026 148.201 76.2066Z" fill="black"/>
<path d="M155.148 76.2066C155.089 76.2066 155.03 76.1946 154.976 76.1711C154.921 76.1477 154.872 76.1135 154.831 76.0704C154.786 76.026 154.751 75.9728 154.727 75.9142C154.704 75.8557 154.693 75.7929 154.694 75.7299C154.694 75.6233 154.723 75.5187 154.778 75.4272L155.459 74.3677H154.066C154.002 74.371 153.938 74.3605 153.878 74.3371C153.818 74.3136 153.763 74.2776 153.718 74.2315C153.64 74.1409 153.598 74.0254 153.598 73.906C153.598 73.7867 153.64 73.6712 153.718 73.5806C153.763 73.5345 153.818 73.4985 153.878 73.475C153.938 73.4516 154.002 73.4411 154.066 73.4444L155.436 73.4823L154.77 72.4985C154.709 72.3977 154.676 72.2831 154.672 72.1655C154.67 72.1024 154.681 72.0397 154.705 71.9811C154.728 71.9225 154.763 71.8694 154.808 71.8249C154.85 71.7817 154.901 71.7473 154.957 71.7239C155.013 71.7005 155.073 71.6886 155.133 71.6887C155.218 71.6875 155.301 71.7112 155.373 71.757C155.444 71.8027 155.5 71.8685 155.534 71.946L156.2 73.1341L156.836 71.999C156.876 71.9107 156.94 71.835 157.02 71.7803C157.1 71.7256 157.193 71.6939 157.29 71.6887C157.35 71.6878 157.409 71.6995 157.464 71.7229C157.518 71.7464 157.568 71.7812 157.608 71.8249C157.652 71.8665 157.687 71.917 157.711 71.9731C157.734 72.0292 157.746 72.0896 157.744 72.1503C157.743 72.2578 157.712 72.3628 157.653 72.4531L156.987 73.5201L158.372 73.4823C158.437 73.4785 158.501 73.4887 158.561 73.5122C158.621 73.5357 158.676 73.572 158.72 73.6185C158.798 73.709 158.841 73.8245 158.841 73.9439C158.841 74.0633 158.798 74.1787 158.72 74.2693C158.676 74.3158 158.621 74.3521 158.561 74.3756C158.501 74.3991 158.437 74.4093 158.372 74.4055H156.972L157.593 75.3742C157.663 75.4911 157.702 75.6239 157.706 75.7601C157.709 75.8214 157.698 75.8826 157.676 75.9398C157.654 75.997 157.621 76.0492 157.578 76.0931C157.538 76.1356 157.49 76.1695 157.437 76.193C157.383 76.2164 157.326 76.2287 157.267 76.2293C157.174 76.227 157.083 76.1981 157.005 76.1458C156.927 76.0935 156.866 76.0201 156.829 75.9342L156.2 74.8217L155.572 75.9342C155.532 76.0126 155.471 76.079 155.397 76.1268C155.322 76.1746 155.237 76.2021 155.148 76.2066Z" fill="black"/>
<path d="M162.096 76.2066C162.036 76.2066 161.977 76.1946 161.923 76.1711C161.868 76.1477 161.819 76.1135 161.778 76.0704C161.733 76.026 161.698 75.9728 161.674 75.9142C161.651 75.8557 161.64 75.7929 161.642 75.7299C161.645 75.6238 161.674 75.5201 161.725 75.4272L162.406 74.3677H161.021C160.956 74.3725 160.892 74.3628 160.831 74.3392C160.771 74.3157 160.717 74.2788 160.673 74.2315C160.59 74.1432 160.545 74.0269 160.545 73.9061C160.545 73.7852 160.59 73.6689 160.673 73.5806C160.717 73.5333 160.771 73.4964 160.831 73.4729C160.892 73.4493 160.956 73.4396 161.021 73.4444L162.383 73.4823L161.74 72.4606C161.679 72.3599 161.645 72.2452 161.642 72.1276C161.64 72.0658 161.65 72.0041 161.672 71.9463C161.695 71.8886 161.728 71.8359 161.771 71.7914C161.814 71.7469 161.866 71.7115 161.923 71.6874C161.98 71.6633 162.041 71.6508 162.103 71.6509C162.188 71.6496 162.271 71.6734 162.342 71.7191C162.414 71.7649 162.47 71.8306 162.504 71.9082L163.17 73.0963L163.806 71.9612C163.846 71.8728 163.909 71.7972 163.99 71.7425C164.07 71.6878 164.163 71.6561 164.26 71.6509C164.32 71.649 164.379 71.6602 164.434 71.6837C164.489 71.7073 164.538 71.7425 164.578 71.7871C164.622 71.8287 164.657 71.8792 164.681 71.9352C164.704 71.9913 164.716 72.0517 164.714 72.1125C164.713 72.22 164.682 72.3249 164.623 72.4152L163.957 73.4823L165.342 73.4444C165.407 73.4406 165.471 73.4508 165.531 73.4743C165.591 73.4979 165.646 73.5341 165.69 73.5806C165.768 73.6712 165.811 73.7867 165.811 73.9061C165.811 74.0254 165.768 74.1409 165.69 74.2315C165.646 74.278 165.591 74.3142 165.531 74.3378C165.471 74.3613 165.407 74.3715 165.342 74.3677H163.942L164.563 75.3363C164.633 75.4533 164.672 75.5861 164.676 75.7223C164.678 75.7819 164.668 75.8414 164.647 75.8972C164.627 75.9531 164.595 76.0043 164.554 76.0479C164.513 76.0914 164.464 76.1266 164.41 76.1512C164.356 76.1758 164.297 76.1895 164.237 76.1915C164.144 76.1892 164.053 76.1602 163.975 76.1079C163.897 76.0557 163.836 75.9822 163.798 75.8963L163.17 74.7839L162.542 75.8963C162.505 75.9851 162.443 76.0614 162.364 76.1164C162.285 76.1713 162.192 76.2026 162.096 76.2066Z" fill="black"/>
<path d="M169.043 76.2066C168.983 76.2066 168.925 76.1946 168.87 76.1711C168.815 76.1477 168.766 76.1135 168.725 76.0704C168.68 76.026 168.645 75.9728 168.622 75.9142C168.598 75.8557 168.587 75.7929 168.589 75.7299C168.592 75.6238 168.621 75.5201 168.672 75.4272L169.353 74.3677H167.961C167.897 74.3714 167.834 74.3611 167.775 74.3376C167.716 74.314 167.663 74.2778 167.62 74.2315C167.538 74.1432 167.492 74.0269 167.492 73.9061C167.492 73.7852 167.538 73.6689 167.62 73.5806C167.663 73.5343 167.716 73.4981 167.775 73.4745C167.834 73.451 167.897 73.4407 167.961 73.4444L169.33 73.4823L168.687 72.4606C168.627 72.3599 168.593 72.2452 168.589 72.1276C168.587 72.0658 168.597 72.0041 168.62 71.9463C168.642 71.8886 168.675 71.8359 168.719 71.7914C168.762 71.7469 168.813 71.7115 168.87 71.6874C168.927 71.6633 168.989 71.6508 169.05 71.6509C169.135 71.6496 169.218 71.6734 169.29 71.7191C169.361 71.7649 169.417 71.8306 169.452 71.9082L170.117 73.0963L170.753 71.9612C170.793 71.8728 170.857 71.7972 170.937 71.7425C171.017 71.6878 171.11 71.6561 171.207 71.6509C171.267 71.649 171.326 71.6602 171.381 71.6837C171.436 71.7073 171.485 71.7425 171.525 71.7871C171.569 71.8287 171.605 71.8792 171.628 71.9352C171.651 71.9913 171.663 72.0517 171.661 72.1125C171.66 72.22 171.629 72.3249 171.57 72.4152L170.905 73.4823L172.289 73.4444C172.354 73.4406 172.418 73.4508 172.478 73.4743C172.539 73.4979 172.593 73.5341 172.638 73.5806C172.715 73.6712 172.758 73.7867 172.758 73.9061C172.758 74.0254 172.715 74.1409 172.638 74.2315C172.593 74.278 172.539 74.3142 172.478 74.3378C172.418 74.3613 172.354 74.3715 172.289 74.3677H170.889L171.51 75.3363C171.58 75.4533 171.619 75.5861 171.623 75.7223C171.625 75.7819 171.616 75.8414 171.595 75.8972C171.574 75.9531 171.542 76.0043 171.501 76.0479C171.46 76.0914 171.412 76.1266 171.357 76.1512C171.303 76.1758 171.244 76.1895 171.185 76.1915C171.091 76.1892 171 76.1602 170.922 76.1079C170.844 76.0557 170.783 75.9822 170.746 75.8963L170.117 74.7839L169.489 75.8963C169.452 75.9851 169.39 76.0614 169.311 76.1164C169.232 76.1713 169.139 76.2026 169.043 76.2066Z" fill="black"/>
<path d="M175.96 76.2066C175.9 76.2066 175.841 76.1946 175.787 76.1711C175.732 76.1477 175.683 76.1135 175.642 76.0704C175.597 76.026 175.562 75.9728 175.539 75.9142C175.515 75.8557 175.504 75.7929 175.506 75.7299C175.509 75.6238 175.538 75.5201 175.589 75.4272L176.27 74.3677H174.878C174.814 74.3714 174.751 74.3611 174.692 74.3376C174.633 74.314 174.58 74.2778 174.537 74.2315C174.455 74.1432 174.409 74.0269 174.409 73.9061C174.409 73.7852 174.455 73.6689 174.537 73.5806C174.58 73.5343 174.633 73.4981 174.692 73.4745C174.751 73.451 174.814 73.4407 174.878 73.4444L176.247 73.4823L175.604 72.4606C175.543 72.3599 175.509 72.2452 175.506 72.1276C175.504 72.0646 175.515 72.0018 175.539 71.9433C175.562 71.8847 175.597 71.8315 175.642 71.7871C175.684 71.7438 175.735 71.7095 175.791 71.6861C175.847 71.6627 175.907 71.6507 175.967 71.6509C176.052 71.6496 176.135 71.6734 176.207 71.7191C176.278 71.7649 176.334 71.8306 176.368 71.9082L177.034 73.0963L177.67 71.9612C177.71 71.8728 177.774 71.7972 177.854 71.7425C177.934 71.6878 178.027 71.6561 178.124 71.6509C178.184 71.649 178.243 71.6602 178.298 71.6837C178.353 71.7073 178.402 71.7425 178.442 71.7871C178.486 71.8287 178.521 71.8792 178.545 71.9352C178.568 71.9913 178.58 72.0517 178.578 72.1125C178.577 72.22 178.546 72.3249 178.487 72.4152L177.821 73.4823L179.206 73.4444C179.271 73.4406 179.335 73.4508 179.395 73.4743C179.455 73.4979 179.51 73.5341 179.554 73.5806C179.632 73.6712 179.675 73.7867 179.675 73.9061C179.675 74.0254 179.632 74.1409 179.554 74.2315C179.51 74.278 179.455 74.3142 179.395 74.3378C179.335 74.3613 179.271 74.3715 179.206 74.3677H177.806L178.427 75.3363C178.497 75.4533 178.536 75.5861 178.54 75.7223C178.542 75.7836 178.532 75.8447 178.51 75.902C178.488 75.9592 178.454 76.0113 178.412 76.0553C178.372 76.0977 178.324 76.1317 178.27 76.1551C178.217 76.1785 178.16 76.1909 178.101 76.1915C178.008 76.1892 177.917 76.1602 177.839 76.1079C177.761 76.0557 177.7 75.9822 177.662 75.8963L177.034 74.7839L176.406 75.8963C176.369 75.9851 176.307 76.0614 176.228 76.1164C176.149 76.1713 176.056 76.2026 175.96 76.2066Z" fill="black"/>
<path d="M199.768 92.9464H209.023" stroke="white" stroke-width="3" stroke-linecap="round" stroke-linejoin="round"/>
<path d="M71.3971 24.7993V86.2716C71.3971 88.0519 72.1043 89.7593 73.3632 91.0181C74.622 92.277 76.3294 92.9842 78.1096 92.9842H190.982" stroke="white" stroke-width="3" stroke-linecap="round" stroke-linejoin="round"/>
<path d="M71.3971 8.49854V17.716" stroke="white" stroke-width="3" stroke-linecap="round" stroke-linejoin="round"/>
</svg>
