<svg width="301" height="276" viewBox="0 0 301 276" fill="none" xmlns="http://www.w3.org/2000/svg">
<path d="M43.9894 254.418C102.642 282.37 197.739 282.37 256.392 254.418C315.044 226.467 315.044 181.142 256.392 153.184C197.739 125.225 102.642 125.232 43.9894 153.184C-14.6631 181.135 -14.6631 226.46 43.9894 254.418Z" fill="#F0F0F0"/>
<path d="M160.439 237.35C170.06 237.35 177.86 233.633 177.86 229.047C177.86 224.461 170.06 220.744 160.439 220.744C150.817 220.744 143.018 224.461 143.018 229.047C143.018 233.633 150.817 237.35 160.439 237.35Z" fill="#E0E0E0"/>
<path d="M77.8746 156.144L46.4335 137.989L14.9856 156.144L46.4335 174.298L77.8746 156.144Z" fill="#F0F0F0"/>
<path d="M46.4335 198.509L77.8746 180.354V156.144L46.4335 174.298V198.509Z" fill="#EBEBEB"/>
<path d="M51.1317 192.894C51.0695 192.895 51.0083 192.879 50.9552 192.846C50.8915 192.805 50.8403 192.747 50.8068 192.679C50.7733 192.611 50.7589 192.535 50.7651 192.459V192.018C50.7651 191.975 50.7822 191.934 50.8128 191.903C50.8433 191.872 50.8848 191.855 50.928 191.855C50.9491 191.855 50.97 191.859 50.9894 191.868C51.0088 191.876 51.0263 191.888 51.0409 191.903C51.0555 191.919 51.0668 191.937 51.0743 191.956C51.0817 191.976 51.0851 191.997 51.0842 192.018V192.459C51.0842 192.527 51.0842 192.561 51.0842 192.568C51.0842 192.575 51.1317 192.568 51.1928 192.568C51.2909 192.473 51.3682 192.359 51.4197 192.233C51.4711 192.107 51.4956 191.971 51.4915 191.835V188.97C51.4915 188.928 51.508 188.889 51.5372 188.859C51.5665 188.83 51.6062 188.814 51.6477 188.814C51.6687 188.813 51.6898 188.816 51.7095 188.824C51.7292 188.831 51.7473 188.842 51.7625 188.857C51.7777 188.872 51.7898 188.889 51.7981 188.908C51.8064 188.928 51.8106 188.949 51.8106 188.97V191.781C51.8178 191.973 51.7805 192.164 51.7016 192.34C51.6227 192.515 51.5043 192.67 51.3557 192.792C51.2896 192.842 51.213 192.877 51.1317 192.894Z" fill="#E0E0E0"/>
<path d="M49.4208 190.423V190.144C49.4561 189.43 49.6588 188.734 50.0126 188.113C50.3664 187.491 50.8614 186.961 51.4576 186.566C51.6711 186.379 51.9381 186.263 52.221 186.235C52.5039 186.207 52.7883 186.269 53.0343 186.412C53.2802 186.554 53.4752 186.77 53.5919 187.029C53.7085 187.289 53.7409 187.578 53.6844 187.856V187.945L49.4208 190.423ZM52.4488 186.6C52.164 186.611 51.8873 186.697 51.6477 186.852C51.1347 187.185 50.7002 187.627 50.3744 188.145C50.0485 188.663 49.839 189.245 49.7602 189.852L53.3857 187.761C53.3982 187.558 53.3586 187.354 53.2707 187.17C53.1828 186.986 53.0495 186.827 52.8833 186.709C52.7547 186.622 52.6041 186.572 52.4488 186.566V186.6Z" fill="#E0E0E0"/>
<path d="M56.9093 189.588C56.8679 189.588 56.8282 189.571 56.7989 189.542C56.7696 189.513 56.7532 189.473 56.7532 189.431V184.801C56.7483 184.777 56.7487 184.753 56.7544 184.729C56.7602 184.706 56.7711 184.684 56.7863 184.665C56.8016 184.646 56.8209 184.631 56.8428 184.621C56.8646 184.611 56.8885 184.605 56.9127 184.605C56.9369 184.605 56.9608 184.611 56.9827 184.621C57.0045 184.631 57.0238 184.646 57.0391 184.665C57.0544 184.684 57.0653 184.706 57.071 184.729C57.0768 184.753 57.0772 184.777 57.0723 184.801V189.431C57.0723 189.453 57.068 189.473 57.0598 189.493C57.0515 189.512 57.0394 189.53 57.0242 189.544C57.0089 189.559 56.9909 189.57 56.9712 189.578C56.9514 189.585 56.9304 189.589 56.9093 189.588Z" fill="#E0E0E0"/>
<path d="M56.4409 186.05C56.4186 186.056 56.3952 186.056 56.373 186.05C56.3535 186.042 56.3359 186.03 56.3211 186.015C56.3064 186 56.2949 185.982 56.2873 185.963C56.2796 185.943 56.2761 185.922 56.2768 185.901C56.2776 185.88 56.2825 185.859 56.2915 185.84L56.8686 184.482L57.5068 185.222C57.5354 185.252 57.5514 185.292 57.5514 185.334C57.5514 185.376 57.5354 185.416 57.5068 185.446C57.4916 185.461 57.4736 185.473 57.4538 185.482C57.434 185.49 57.4128 185.494 57.3914 185.494C57.3699 185.494 57.3487 185.49 57.3289 185.482C57.3091 185.473 57.2911 185.461 57.2759 185.446L56.9704 185.093L56.6038 185.949C56.5909 185.981 56.5682 186.008 56.5389 186.026C56.5096 186.044 56.4753 186.053 56.4409 186.05Z" fill="#E0E0E0"/>
<path d="M58.403 188.739C58.3597 188.739 58.3183 188.722 58.2877 188.691C58.2572 188.661 58.24 188.619 58.24 188.576V183.953C58.24 183.909 58.2572 183.868 58.2877 183.837C58.3183 183.807 58.3597 183.79 58.403 183.79C58.4462 183.79 58.4876 183.807 58.5182 183.837C58.5487 183.868 58.5659 183.909 58.5659 183.953V188.576C58.5659 188.619 58.5487 188.661 58.5182 188.691C58.4876 188.722 58.4462 188.739 58.403 188.739Z" fill="#E0E0E0"/>
<path d="M57.9209 185.202H57.853C57.8336 185.194 57.8159 185.182 57.8012 185.167C57.7865 185.152 57.7749 185.134 57.7673 185.114C57.7597 185.094 57.7562 185.073 57.7569 185.052C57.7576 185.031 57.7626 185.01 57.7716 184.991L58.3419 183.633L59.0208 184.367C59.0499 184.398 59.0661 184.439 59.0661 184.482C59.0661 184.525 59.0499 184.566 59.0208 184.598C58.9898 184.625 58.95 184.64 58.9088 184.64C58.8675 184.64 58.8277 184.625 58.7967 184.598L58.4912 184.244L58.1178 185.1C58.1125 185.12 58.103 185.139 58.0899 185.155C58.0769 185.172 58.0605 185.185 58.042 185.195C58.0234 185.204 58.0031 185.21 57.9822 185.211C57.9614 185.212 57.9405 185.209 57.9209 185.202Z" fill="#E0E0E0"/>
<path d="M46.4335 198.509L14.9856 180.354V156.144L46.4335 174.298V198.509Z" fill="#E0E0E0"/>
<path d="M29.5214 188.746L31.8909 190.117V165.907L29.5214 164.535V188.746Z" fill="#EBEBEB"/>
<path d="M64.4115 168.459L59.8966 171.06C59.4455 171.318 59.0597 171.676 58.769 172.107C58.4782 172.538 58.2903 173.03 58.2197 173.545C58.2197 174.38 58.9733 174.624 59.8966 174.088L64.4115 171.487C64.8613 171.228 65.2458 170.87 65.5353 170.439C65.8248 170.008 66.0117 169.517 66.0816 169.003C66.068 168.168 65.3348 167.923 64.4115 168.459Z" fill="#E0E0E0"/>
<path d="M31.8909 165.907L63.3388 147.752L60.9693 146.381L29.5214 164.535L31.8909 165.907Z" fill="#FAFAFA"/>
<path d="M60.9693 165.907L29.5214 147.752L31.8909 146.381L63.3388 164.535L60.9693 165.907Z" fill="#FAFAFA"/>
<g style="mix-blend-mode:multiply" opacity="0.8">
<path d="M16.357 155.349L46.5082 172.737L76.5575 155.39L46.4335 137.989L16.357 155.349Z" fill="#E0E0E0"/>
</g>
<path d="M60.9693 168.337V165.907L63.3388 164.535V166.966L60.9693 168.337Z" fill="#F0F0F0"/>
<path d="M76.4624 128.912L45.0145 110.757L13.5667 128.912L45.0145 147.066L76.4624 128.912Z" fill="#F0F0F0"/>
<g style="mix-blend-mode:multiply" opacity="0.8">
<path d="M16.2416 129.19L46.1076 146.435L76.4624 128.912L46.5964 111.667L16.2416 129.19Z" fill="#E0E0E0"/>
</g>
<path d="M45.0145 171.277L76.4624 153.116V128.912L45.0145 147.066V171.277Z" fill="#EBEBEB"/>
<path d="M49.7059 165.662C49.6442 165.66 49.5838 165.644 49.5294 165.615C49.4658 165.573 49.4145 165.516 49.381 165.447C49.3476 165.379 49.3332 165.303 49.3393 165.228V164.786C49.3344 164.763 49.3348 164.738 49.3406 164.715C49.3463 164.691 49.3572 164.669 49.3725 164.65C49.3878 164.632 49.407 164.617 49.4289 164.606C49.4507 164.596 49.4746 164.59 49.4989 164.59C49.5231 164.59 49.547 164.596 49.5688 164.606C49.5907 164.617 49.6099 164.632 49.6252 164.65C49.6405 164.669 49.6514 164.691 49.6571 164.715C49.6629 164.738 49.6633 164.763 49.6584 164.786V165.228C49.6584 165.296 49.6584 165.33 49.6584 165.336C49.6584 165.343 49.7059 165.336 49.7602 165.302C49.8596 165.21 49.9378 165.097 49.9894 164.972C50.041 164.847 50.0647 164.711 50.059 164.576V161.711C50.059 161.668 50.0761 161.626 50.1067 161.596C50.1372 161.565 50.1787 161.548 50.2219 161.548C50.2651 161.548 50.3066 161.565 50.3371 161.596C50.3677 161.626 50.3849 161.668 50.3849 161.711V164.576C50.3934 164.768 50.356 164.96 50.2757 165.134C50.1954 165.309 50.0745 165.462 49.9232 165.581C49.8589 165.626 49.7841 165.654 49.7059 165.662Z" fill="#E0E0E0"/>
<path d="M48.0086 163.15V162.872C48.045 162.159 48.2482 161.464 48.602 160.844C48.9557 160.224 49.4501 159.695 50.0454 159.301C50.2589 159.117 50.5243 159.004 50.8048 158.978C51.0854 158.951 51.3672 159.013 51.6112 159.154C51.8551 159.295 52.0492 159.508 52.1664 159.764C52.2837 160.021 52.3183 160.307 52.2655 160.584V160.679L48.0086 163.15ZM51.0366 159.328C50.7505 159.342 50.4726 159.429 50.2287 159.579C49.7174 159.916 49.2847 160.359 48.9602 160.878C48.6356 161.397 48.4268 161.98 48.3481 162.587L51.9735 160.496C51.9867 160.292 51.9474 160.088 51.8594 159.904C51.7715 159.72 51.6378 159.561 51.4711 159.443C51.3393 159.366 51.1892 159.327 51.0366 159.328Z" fill="#E0E0E0"/>
<path d="M55.4972 162.356C55.4539 162.356 55.4125 162.339 55.3819 162.308C55.3514 162.278 55.3342 162.236 55.3342 162.193V157.569C55.3342 157.526 55.3514 157.485 55.3819 157.454C55.4125 157.424 55.4539 157.406 55.4972 157.406C55.5404 157.406 55.5818 157.424 55.6124 157.454C55.6429 157.485 55.6601 157.526 55.6601 157.569V162.193C55.6601 162.236 55.6429 162.278 55.6124 162.308C55.5818 162.339 55.5404 162.356 55.4972 162.356Z" fill="#E0E0E0"/>
<path d="M55.0287 158.819H54.9608C54.9413 158.811 54.9237 158.799 54.909 158.784C54.8942 158.768 54.8827 158.751 54.8751 158.731C54.8675 158.711 54.8639 158.69 54.8647 158.669C54.8654 158.648 54.8704 158.627 54.8793 158.608L55.4496 157.284L56.1286 158.018C56.1577 158.049 56.1738 158.09 56.1738 158.133C56.1738 158.176 56.1577 158.217 56.1286 158.248C56.0976 158.276 56.0578 158.291 56.0165 158.291C55.9753 158.291 55.9355 158.276 55.9045 158.248L55.599 157.895L55.2256 158.751C55.2069 158.784 55.1764 158.81 55.1401 158.822C55.1038 158.835 55.0641 158.834 55.0287 158.819Z" fill="#E0E0E0"/>
<path d="M56.9908 161.507C56.9476 161.507 56.9061 161.49 56.8756 161.459C56.845 161.429 56.8279 161.387 56.8279 161.344V156.714C56.8279 156.671 56.845 156.629 56.8756 156.599C56.9061 156.568 56.9476 156.551 56.9908 156.551C57.034 156.551 57.0755 156.568 57.106 156.599C57.1366 156.629 57.1538 156.671 57.1538 156.714V161.344C57.1538 161.387 57.1366 161.429 57.106 161.459C57.0755 161.49 57.034 161.507 56.9908 161.507Z" fill="#E0E0E0"/>
<path d="M56.5155 157.97H56.4544C56.4146 157.952 56.3832 157.92 56.3668 157.879C56.3503 157.839 56.3501 157.793 56.3662 157.753L56.9433 156.429L57.5815 157.169C57.5966 157.184 57.6087 157.202 57.6169 157.222C57.6251 157.242 57.6294 157.263 57.6294 157.284C57.6294 157.306 57.6251 157.327 57.6169 157.347C57.6087 157.367 57.5966 157.385 57.5815 157.4C57.5501 157.429 57.5088 157.445 57.466 157.445C57.4232 157.445 57.382 157.429 57.3506 157.4L57.0519 157.047L56.6785 157.902C56.6602 157.927 56.6353 157.947 56.6065 157.959C56.5778 157.971 56.5463 157.975 56.5155 157.97Z" fill="#E0E0E0"/>
<path d="M45.0145 171.277L13.5667 153.116V128.912L45.0145 147.066V171.277Z" fill="#E0E0E0"/>
<path d="M28.1093 161.514L30.4787 162.879V138.675L28.1093 137.303V161.514Z" fill="#EBEBEB"/>
<path d="M62.9925 141.228L58.4844 143.828C58.0333 144.086 57.6475 144.444 57.3568 144.875C57.0661 145.306 56.8781 145.798 56.8075 146.313C56.8075 147.148 57.5611 147.392 58.4844 146.856L62.9925 144.249C63.4458 143.995 63.8335 143.639 64.1246 143.209C64.4158 142.778 64.6024 142.286 64.6695 141.771C64.6695 140.936 63.9226 140.691 62.9925 141.228Z" fill="#E0E0E0"/>
<path d="M30.4787 138.675L61.9266 120.52L59.5571 119.149L28.1093 137.303L30.4787 138.675Z" fill="#FAFAFA"/>
<path d="M59.5571 138.675L28.1093 120.52L30.4787 119.149L61.9266 137.303L59.5571 138.675Z" fill="#FAFAFA"/>
<path d="M59.5571 141.105V138.675L61.9266 137.303V139.734L59.5571 141.105Z" fill="#F0F0F0"/>
<g style="mix-blend-mode:multiply" opacity="0.8">
<path d="M46.1076 146.435L48.9387 148.071L76.4624 132.178V128.912L46.1076 146.435Z" fill="#E0E0E0"/>
</g>
<path d="M79.6126 104.701L48.1715 86.5469L16.7237 104.701L48.1715 122.856L79.6126 104.701Z" fill="#F0F0F0"/>
<path d="M48.1715 147.066L79.6126 128.912V104.701L48.1715 122.856V147.066Z" fill="#EBEBEB"/>
<path d="M52.8561 141.452C52.796 141.454 52.7367 141.437 52.6864 141.404C52.621 141.364 52.5679 141.307 52.5332 141.239C52.4984 141.17 52.4833 141.094 52.4895 141.017V140.576C52.4895 140.533 52.5067 140.491 52.5372 140.461C52.5678 140.43 52.6092 140.413 52.6524 140.413C52.6956 140.413 52.7371 140.43 52.7677 140.461C52.7982 140.491 52.8154 140.533 52.8154 140.576V141.017C52.8154 141.085 52.8154 141.119 52.8154 141.126C52.8154 141.133 52.8629 141.126 52.924 141.126C53.0234 141.034 53.1016 140.921 53.1532 140.795C53.2048 140.67 53.2285 140.535 53.2227 140.399V137.534C53.2178 137.511 53.2182 137.486 53.224 137.463C53.2297 137.439 53.2406 137.417 53.2559 137.398C53.2712 137.38 53.2905 137.364 53.3123 137.354C53.3342 137.344 53.3581 137.338 53.3823 137.338C53.4065 137.338 53.4304 137.344 53.4522 137.354C53.4741 137.364 53.4934 137.38 53.5087 137.398C53.5239 137.417 53.5348 137.439 53.5406 137.463C53.5463 137.486 53.5467 137.511 53.5418 137.534V140.399C53.549 140.591 53.5117 140.781 53.4327 140.955C53.3538 141.13 53.2354 141.283 53.0869 141.404C53.0143 141.436 52.9356 141.453 52.8561 141.452Z" fill="#E0E0E0"/>
<path d="M51.1317 138.946V138.668C51.1686 137.954 51.372 137.259 51.7256 136.638C52.0793 136.016 52.5734 135.486 53.1684 135.09C53.382 134.903 53.649 134.787 53.9319 134.759C54.2147 134.731 54.4992 134.793 54.7451 134.935C54.9911 135.078 55.1861 135.294 55.3028 135.553C55.4194 135.812 55.4518 136.102 55.3953 136.38V136.468L51.1317 138.946ZM54.1597 135.124C53.8749 135.135 53.5982 135.221 53.3585 135.375C52.8465 135.71 52.4127 136.152 52.087 136.67C51.7613 137.187 51.5512 137.77 51.4711 138.376L55.0966 136.285C55.1085 136.082 55.0694 135.88 54.9829 135.696C54.8963 135.512 54.765 135.353 54.601 135.233C54.4741 135.163 54.3318 135.125 54.1868 135.124H54.1597Z" fill="#E0E0E0"/>
<path d="M58.6474 138.145C58.6263 138.145 58.6054 138.141 58.586 138.133C58.5666 138.125 58.5491 138.112 58.5345 138.097C58.5199 138.082 58.5085 138.064 58.5011 138.044C58.4937 138.025 58.4903 138.003 58.4912 137.982V133.393C58.4863 133.369 58.4867 133.345 58.4925 133.321C58.4982 133.298 58.5091 133.276 58.5244 133.257C58.5397 133.238 58.5589 133.223 58.5808 133.213C58.6027 133.202 58.6266 133.197 58.6508 133.197C58.675 133.197 58.6989 133.202 58.7207 133.213C58.7426 133.223 58.7619 133.238 58.7771 133.257C58.7924 133.276 58.8033 133.298 58.8091 133.321C58.8148 133.345 58.8152 133.369 58.8103 133.393V138.023C58.8011 138.059 58.7799 138.091 58.7503 138.113C58.7207 138.135 58.6844 138.147 58.6474 138.145Z" fill="#E0E0E0"/>
<path d="M58.1789 134.608C58.159 134.614 58.1377 134.614 58.1178 134.608C58.0977 134.601 58.0794 134.589 58.064 134.574C58.0485 134.56 58.0363 134.542 58.028 134.522C58.0197 134.502 58.0156 134.481 58.0159 134.46C58.0161 134.438 58.0208 134.417 58.0296 134.398L58.6066 133.04L59.2448 133.78C59.2598 133.794 59.2717 133.812 59.2799 133.831C59.288 133.85 59.2922 133.871 59.2922 133.892C59.2922 133.913 59.288 133.933 59.2799 133.953C59.2717 133.972 59.2598 133.989 59.2448 134.004C59.2297 134.019 59.2117 134.031 59.1919 134.039C59.1721 134.048 59.1509 134.052 59.1294 134.052C59.108 134.052 59.0867 134.048 59.0669 134.039C59.0471 134.031 59.0291 134.019 59.014 134.004L58.7085 133.651L58.3419 134.506C58.329 134.538 58.3063 134.565 58.277 134.584C58.2477 134.602 58.2134 134.611 58.1789 134.608Z" fill="#E0E0E0"/>
<path d="M60.141 137.297C60.12 137.298 60.0989 137.294 60.0792 137.287C60.0595 137.279 60.0414 137.268 60.0262 137.253C60.011 137.239 59.9989 137.221 59.9906 137.202C59.9823 137.183 59.9781 137.162 59.9781 137.141V132.51C59.9781 132.467 59.9953 132.426 60.0258 132.395C60.0564 132.364 60.0978 132.347 60.141 132.347C60.1842 132.347 60.2257 132.364 60.2562 132.395C60.2868 132.426 60.304 132.467 60.304 132.51V137.141C60.304 137.162 60.2997 137.183 60.2915 137.202C60.2832 137.221 60.2711 137.239 60.2559 137.253C60.2406 137.268 60.2226 137.279 60.2029 137.287C60.1831 137.294 60.1621 137.298 60.141 137.297Z" fill="#E0E0E0"/>
<path d="M59.6726 133.759H59.6047C59.5852 133.751 59.5676 133.739 59.5528 133.724C59.5381 133.709 59.5266 133.691 59.519 133.672C59.5114 133.652 59.5078 133.631 59.5085 133.61C59.5093 133.589 59.5142 133.568 59.5232 133.549L60.0935 132.191L60.7724 132.924C60.8015 132.956 60.8177 132.997 60.8177 133.04C60.8177 133.083 60.8015 133.124 60.7724 133.155C60.7579 133.17 60.7405 133.182 60.7212 133.19C60.702 133.198 60.6813 133.203 60.6604 133.203C60.6395 133.203 60.6188 133.198 60.5996 133.19C60.5803 133.182 60.5629 133.17 60.5484 133.155L60.2429 132.802L59.8695 133.658C59.8641 133.678 59.8546 133.697 59.8416 133.713C59.8285 133.729 59.8122 133.743 59.7936 133.752C59.7751 133.762 59.7547 133.767 59.7339 133.769C59.713 133.77 59.6921 133.767 59.6726 133.759Z" fill="#E0E0E0"/>
<path d="M48.1715 147.066L16.7237 128.912V104.701L48.1715 122.856V147.066Z" fill="#E0E0E0"/>
<path d="M31.2595 137.303L33.6289 138.675V114.464L31.2595 113.093V137.303Z" fill="#EBEBEB"/>
<path d="M66.1495 117.017L61.6347 119.624C61.183 119.879 60.7969 120.236 60.507 120.666C60.2171 121.096 60.0314 121.588 59.9645 122.102C59.9645 122.937 60.7113 123.182 61.6347 122.645L66.1495 120.045C66.6006 119.787 66.9864 119.429 67.2772 118.998C67.5679 118.567 67.7558 118.075 67.8265 117.56C67.8265 116.725 67.0729 116.481 66.1495 117.017Z" fill="#E0E0E0"/>
<path d="M33.6289 114.464L65.0768 96.3099L62.7074 94.9385L31.2595 113.093L33.6289 114.464Z" fill="#FAFAFA"/>
<path d="M62.7074 114.464L31.2595 96.3099L33.6289 94.9385L65.0768 113.093L62.7074 114.464Z" fill="#FAFAFA"/>
<path d="M62.7074 116.895V114.464L65.0768 113.093V115.524L62.7074 116.895Z" fill="#F0F0F0"/>
<path d="M92.3561 193.885V183.267C91.8505 179.363 90.1963 175.698 87.6036 172.737C83.4079 168.195 79.6466 169.736 78.4245 171.895C77.2025 174.054 79.9861 178.141 81.7649 180.449C83.9035 183.219 92.3425 196.065 92.3425 201.856L92.3561 193.885Z" fill="#37474F"/>
<path d="M92.3561 192.208C92.2946 192.208 92.2351 192.186 92.1881 192.146C92.141 192.106 92.1092 192.052 92.0981 191.991C90.1835 180.415 81.3711 172.472 81.2828 172.39C81.2355 172.341 81.2091 172.275 81.2091 172.207C81.2091 172.139 81.2355 172.073 81.2828 172.024C81.3068 172 81.3354 171.98 81.3668 171.967C81.3983 171.954 81.432 171.947 81.4661 171.947C81.5002 171.947 81.534 171.954 81.5654 171.967C81.5969 171.98 81.6255 172 81.6494 172.024C81.7445 172.098 90.686 180.171 92.6345 191.923C92.6443 191.991 92.6271 192.061 92.5865 192.117C92.546 192.172 92.4852 192.21 92.4172 192.222L92.3561 192.208Z" fill="#FAFAFA"/>
<path d="M92.3561 193.885C92.3561 193.885 92.777 192.609 90.8964 192.283C89.0158 191.957 88.2961 190.396 88.1264 187.775C87.9567 185.154 87.1555 183.274 84.7997 182.887C82.4438 182.5 80.5496 183.688 79.022 182.506C77.4944 181.325 73.5363 178.48 70.2367 179.791C66.9371 181.101 68.0234 183.905 69.7411 185.725C71.4587 187.544 71.9476 188.169 70.6372 191.156C69.3269 194.143 70.2774 196.9 73.3122 197.592C76.347 198.285 78.0647 197.932 78.0647 201.252C78.0647 204.572 78.5671 206.058 80.2305 207.362C81.8938 208.665 87.1148 208.082 89.2874 208.584C89.9397 208.752 90.5488 209.057 91.0743 209.478C91.5999 209.9 92.0299 210.428 92.3357 211.028L92.3561 193.885Z" fill="#455A64"/>
<path d="M92.3561 207.579C92.302 207.579 92.2493 207.562 92.2054 207.53C92.1616 207.499 92.1288 207.454 92.1117 207.403C86.592 191.027 74.1065 184.407 73.9776 184.319C73.9202 184.284 73.8783 184.229 73.8603 184.164C73.8423 184.099 73.8496 184.03 73.8806 183.971C73.9117 183.911 73.9643 183.866 74.0276 183.843C74.091 183.821 74.1605 183.824 74.222 183.851C74.3442 183.919 87.0129 190.64 92.6005 207.213C92.6121 207.245 92.6171 207.279 92.6151 207.313C92.6131 207.347 92.6043 207.38 92.589 207.411C92.5738 207.441 92.5525 207.468 92.5265 207.49C92.5004 207.512 92.4702 207.529 92.4376 207.538C92.4146 207.559 92.3865 207.573 92.3561 207.579Z" fill="#FAFAFA"/>
<path d="M84.4398 193.301H84.3991C80.794 192.48 75.0299 192.928 74.9688 192.928C74.9349 192.931 74.9008 192.927 74.8684 192.916C74.836 192.906 74.8061 192.889 74.7802 192.867C74.7543 192.845 74.7331 192.818 74.7177 192.788C74.7023 192.757 74.693 192.724 74.6904 192.69C74.6867 192.656 74.69 192.622 74.7001 192.589C74.7101 192.556 74.7268 192.526 74.7491 192.5C74.7713 192.474 74.7987 192.452 74.8295 192.437C74.8603 192.422 74.8938 192.414 74.9281 192.412C75.1725 192.412 80.8347 191.957 84.5145 192.799C84.5763 192.813 84.6307 192.85 84.6671 192.902C84.7035 192.954 84.7195 193.018 84.7119 193.081C84.7043 193.144 84.6738 193.202 84.6261 193.244C84.5784 193.286 84.5169 193.309 84.4534 193.308L84.4398 193.301Z" fill="#FAFAFA"/>
<path d="M87.3796 201.177C85.7298 201.177 83.9849 201.068 83.8763 201.062C83.8073 201.056 83.743 201.024 83.6973 200.972C83.6516 200.92 83.6281 200.852 83.6319 200.783C83.6336 200.749 83.6422 200.715 83.6572 200.684C83.6723 200.653 83.6934 200.625 83.7193 200.602C83.7453 200.579 83.7756 200.562 83.8084 200.551C83.8412 200.54 83.8758 200.536 83.9103 200.539C85.7863 200.671 87.6693 200.671 89.5453 200.539C89.6128 200.529 89.6814 200.546 89.7361 200.587C89.7909 200.628 89.8272 200.689 89.8373 200.756C89.8431 200.79 89.842 200.825 89.8342 200.858C89.8263 200.892 89.8119 200.923 89.7916 200.951C89.7714 200.979 89.7458 201.002 89.7163 201.02C89.6868 201.038 89.6541 201.05 89.62 201.055C88.877 201.148 88.1283 201.188 87.3796 201.177Z" fill="#FAFAFA"/>
<path d="M82.7493 191.38C82.6803 191.375 82.616 191.343 82.5703 191.291C82.5246 191.239 82.5011 191.171 82.5049 191.102C82.629 189.227 83.0199 187.38 83.6658 185.616C83.6915 185.553 83.7408 185.503 83.803 185.476C83.8652 185.45 83.9355 185.449 83.9985 185.473C84.0307 185.485 84.0603 185.502 84.0854 185.525C84.1106 185.548 84.1308 185.576 84.1447 185.608C84.1587 185.639 84.1662 185.672 84.1667 185.706C84.1673 185.741 84.1609 185.774 84.1479 185.806C83.5296 187.522 83.1504 189.316 83.0209 191.136C83.0191 191.169 83.0107 191.203 82.9961 191.233C82.9815 191.264 82.961 191.291 82.9358 191.314C82.9106 191.337 82.8811 191.354 82.8491 191.366C82.8171 191.377 82.7832 191.382 82.7493 191.38Z" fill="#FAFAFA"/>
<path d="M92.2747 88.8281V212.148C92.2747 213.275 93.0622 213.73 94.0399 213.167L242.195 127.622C242.707 127.286 243.132 126.834 243.436 126.304C243.74 125.773 243.915 125.178 243.947 124.567V1.26015C243.947 0.133133 243.159 -0.321748 242.188 0.241761L94.0331 85.7865C93.5223 86.1204 93.0971 86.5696 92.7917 87.0979C92.4862 87.6262 92.3092 88.2189 92.2747 88.8281Z" fill="#BA68C8"/>
<path d="M242.195 0.241761L94.0399 85.7865C93.526 86.121 93.0984 86.572 92.7917 87.1029C92.485 87.6337 92.3078 88.2295 92.2747 88.8417V96.5543L243.947 8.77587V1.26015C243.947 0.133133 243.166 -0.321748 242.195 0.241761Z" fill="#263238"/>
<path d="M223.274 13.9357C222.768 14.2649 222.348 14.709 222.047 15.2317C221.746 15.7545 221.573 16.341 221.542 16.9434C221.542 18.05 222.316 18.4981 223.28 17.9482C223.786 17.6167 224.206 17.1713 224.508 16.6477C224.81 16.1242 224.985 15.5371 225.018 14.9337C225.012 13.8271 224.258 13.379 223.274 13.9357Z" fill="white"/>
<path d="M230.165 9.95042C229.66 10.2804 229.239 10.7246 228.937 11.2471C228.635 11.7695 228.46 12.3556 228.427 12.9581C228.427 14.0715 229.207 14.5196 230.165 13.9629C230.671 13.6345 231.093 13.1907 231.395 12.6679C231.697 12.1451 231.871 11.5582 231.903 10.9552C231.903 9.82822 231.129 9.40049 230.165 9.95042Z" fill="white"/>
<path d="M237.063 5.9719C236.557 6.30193 236.137 6.74609 235.835 7.26854C235.533 7.79098 235.358 8.37709 235.324 8.97955C235.324 10.0862 236.105 10.5411 237.063 9.98436C237.568 9.65433 237.988 9.21018 238.29 8.68773C238.592 8.16528 238.767 7.57918 238.801 6.97672C238.801 5.86328 238.02 5.41518 237.063 5.9719Z" fill="white"/>
<path d="M139.861 85.5829V122.245L108.121 140.576V103.914L139.861 85.5829ZM140.54 84.4083L107.442 103.52V141.737L140.54 122.625V84.4083Z" fill="#FAFAFA"/>
<path d="M151.233 116.841V77.8431L185.002 58.3443V97.3419L151.233 116.841ZM151.912 78.2369V115.666L184.324 96.9481V59.5189L151.912 78.2369Z" fill="#FAFAFA"/>
<path d="M172.388 77.5919L174.167 73.7492C172.198 73.4713 170.194 73.8788 168.491 74.9034V78.3998C169.668 77.7147 171.036 77.4311 172.388 77.5919Z" fill="#BA68C8"/>
<path d="M175.375 80.1922L178.254 77.4765C177.977 76.6577 177.517 75.9129 176.909 75.2988C176.3 74.6846 175.56 74.2174 174.744 73.9325L172.972 77.7752C173.523 77.9806 174.024 78.303 174.439 78.7202C174.853 79.1375 175.173 79.6396 175.375 80.1922Z" fill="#BA68C8"/>
<path d="M163.834 97.5931L162.062 101.429C164.026 101.72 166.031 101.316 167.731 100.288V96.7987C166.555 97.4868 165.185 97.7661 163.834 97.5931Z" fill="#BA68C8"/>
<path d="M172.999 91.795L174.771 93.5874C176.347 91.2629 177.532 88.6968 178.281 85.9902L175.375 86.5469C174.862 88.4095 174.06 90.1803 172.999 91.795Z" fill="#BA68C8"/>
<path d="M168.491 96.3642V99.8539C170.707 98.418 172.631 96.575 174.16 94.4225L172.388 92.6573C171.321 94.1162 170.001 95.3718 168.491 96.3642Z" fill="#BA68C8"/>
<path d="M178.512 78.1486L175.64 80.8643C175.83 81.5819 175.924 82.3217 175.918 83.064C175.911 83.9131 175.818 84.7593 175.64 85.5896L178.512 85.0126C178.783 83.8022 178.924 82.5663 178.933 81.326C178.942 80.2524 178.8 79.1828 178.512 78.1486Z" fill="#BA68C8"/>
<g opacity="0.2">
<path d="M172.388 77.5919L174.167 73.7492C172.198 73.4713 170.194 73.8788 168.491 74.9034V78.3998C169.668 77.7147 171.036 77.4311 172.388 77.5919Z" fill="black"/>
<path d="M175.375 80.1922L178.254 77.4765C177.977 76.6577 177.517 75.9129 176.909 75.2988C176.3 74.6846 175.56 74.2174 174.744 73.9325L172.972 77.7752C173.523 77.9806 174.024 78.303 174.439 78.7202C174.853 79.1375 175.173 79.6396 175.375 80.1922Z" fill="black"/>
<path d="M163.834 97.5931L162.062 101.429C164.026 101.72 166.031 101.316 167.731 100.288V96.7987C166.555 97.4868 165.185 97.7661 163.834 97.5931Z" fill="black"/>
<path d="M172.999 91.795L174.771 93.5874C176.347 91.2629 177.532 88.6968 178.281 85.9902L175.375 86.5469C174.862 88.4095 174.06 90.1803 172.999 91.795Z" fill="black"/>
<path d="M168.491 96.3642V99.8539C170.707 98.418 172.631 96.575 174.16 94.4225L172.388 92.6573C171.321 94.1162 170.001 95.3718 168.491 96.3642Z" fill="black"/>
<path d="M178.512 78.1486L175.64 80.8643C175.83 81.5819 175.924 82.3217 175.918 83.064C175.911 83.9131 175.818 84.7593 175.64 85.5896L178.512 85.0126C178.783 83.8022 178.924 82.5663 178.933 81.326C178.942 80.2524 178.8 79.1828 178.512 78.1486Z" fill="black"/>
</g>
<path d="M167.737 78.8208V75.3311C165.52 76.765 163.596 78.6084 162.068 80.7625L163.84 82.5548C164.903 81.0844 166.223 79.8192 167.737 78.8208Z" fill="#FAFAFA"/>
<path d="M163.236 83.3899L161.464 81.5976C159.885 83.9179 158.7 86.4823 157.954 89.188L160.826 88.6109C161.35 86.7548 162.164 84.9929 163.236 83.3899Z" fill="#FAFAFA"/>
<path d="M160.31 92.0938C160.32 91.2445 160.415 90.3983 160.595 89.5682L157.723 90.152C157.453 91.3602 157.312 92.5938 157.302 93.8318C157.292 94.9145 157.433 95.9932 157.723 97.0364L160.595 94.3206C160.401 93.5945 160.305 92.8455 160.31 92.0938Z" fill="#FAFAFA"/>
<path d="M160.826 94.9928L157.954 97.7085C158.23 98.527 158.69 99.2714 159.298 99.8845C159.907 100.498 160.648 100.963 161.464 101.246L163.236 97.4098C162.683 97.2052 162.182 96.8832 161.766 96.4659C161.35 96.0486 161.029 95.546 160.826 94.9928Z" fill="#FAFAFA"/>
<path d="M161.661 91.2994C161.661 87.1783 164.553 82.1746 168.118 80.1175C171.682 78.0603 174.574 79.7237 174.574 83.8448C174.574 87.9659 171.682 92.9696 168.118 95.0267C164.553 97.0839 161.661 95.4341 161.661 91.2994Z" fill="#BA68C8"/>
<path opacity="0.2" d="M161.661 91.2994C161.661 87.1783 164.553 82.1746 168.118 80.1175C171.682 78.0603 174.574 79.7237 174.574 83.8448C174.574 87.9659 171.682 92.9696 168.118 95.0267C164.553 97.0839 161.661 95.4341 161.661 91.2994Z" fill="black"/>
<path d="M167.479 85.4674C167.493 85.732 167.493 85.9972 167.479 86.2618C167.467 86.4801 167.431 86.6964 167.371 86.9068C167.313 87.1266 167.224 87.337 167.106 87.5314C166.854 87.9668 166.491 88.3276 166.054 88.5769C165.865 88.6959 165.655 88.7766 165.436 88.8145C165.287 88.8441 165.134 88.8201 165.001 88.7467C164.882 88.6705 164.789 88.5589 164.737 88.4276C164.671 88.2629 164.635 88.0885 164.628 87.9116C164.628 87.7758 164.628 87.6468 164.628 87.5246C164.628 87.4024 164.628 87.2666 164.628 87.1104C164.639 86.8808 164.675 86.6531 164.737 86.4315C164.799 86.2154 164.888 86.0079 165.001 85.8137C165.121 85.6037 165.267 85.4098 165.436 85.2366C165.62 85.0535 165.828 84.8959 166.054 84.7681C166.243 84.6493 166.452 84.5664 166.671 84.5237C166.821 84.4996 166.973 84.5259 167.106 84.5984C167.225 84.6746 167.318 84.7861 167.371 84.9175C167.436 85.0939 167.473 85.2795 167.479 85.4674ZM169.747 82.9215C169.781 82.8422 169.825 82.767 169.876 82.6974C169.929 82.6297 169.996 82.5741 170.073 82.5345L170.82 82.1068C170.841 82.0882 170.866 82.0753 170.893 82.0693C170.921 82.0634 170.949 82.0646 170.976 82.0728C171.017 82.0728 171.037 82.1271 171.037 82.1882C171.039 82.2062 171.039 82.2245 171.037 82.2425C171.04 82.2696 171.04 82.2969 171.037 82.324L166.549 91.7271C166.511 91.8037 166.465 91.8764 166.413 91.9444C166.361 92.0125 166.297 92.0701 166.223 92.1141L165.477 92.5419C165.452 92.5534 165.425 92.5593 165.398 92.5593C165.371 92.5593 165.345 92.5534 165.32 92.5419C165.28 92.5419 165.259 92.4875 165.259 92.4264C165.259 92.3653 165.259 92.3925 165.259 92.3653C165.259 92.3382 165.259 92.3178 165.259 92.2907L169.747 82.9215ZM165.673 87.2462C165.671 87.3727 165.704 87.4973 165.768 87.6061C165.816 87.6672 165.911 87.6536 166.047 87.6061C166.167 87.541 166.262 87.4385 166.318 87.3141C166.379 87.1649 166.413 87.0065 166.42 86.8457C166.433 86.6195 166.433 86.3929 166.42 86.1667C166.422 86.0416 166.386 85.9188 166.318 85.8137C166.271 85.7526 166.176 85.7594 166.047 85.8137C165.923 85.8762 165.825 85.9793 165.768 86.1056C165.711 86.2553 165.679 86.4137 165.673 86.5741C165.657 86.7911 165.66 87.0092 165.68 87.2259L165.673 87.2462ZM171.682 86.7031C171.696 86.97 171.696 87.2373 171.682 87.5042C171.668 87.7197 171.634 87.9333 171.58 88.1424C171.46 88.5923 171.226 89.0038 170.901 89.3373C170.719 89.5246 170.511 89.6847 170.283 89.8126C170.095 89.9316 169.885 90.0123 169.666 90.0502C169.517 90.0829 169.362 90.0587 169.231 89.9823C169.112 89.9061 169.019 89.7946 168.966 89.6632C168.901 89.4986 168.864 89.3241 168.858 89.1472C168.858 89.0114 168.858 88.8824 168.858 88.767C168.858 88.6516 168.858 88.5022 168.858 88.3461C168.871 88.13 168.907 87.9161 168.966 87.7079C169.029 87.4897 169.118 87.2799 169.231 87.0833C169.349 86.8744 169.495 86.6825 169.666 86.513C169.848 86.3257 170.056 86.1656 170.283 86.0377C170.472 85.9187 170.682 85.838 170.901 85.8001C171.049 85.7674 171.205 85.7916 171.336 85.868C171.455 85.9442 171.548 86.0557 171.6 86.1871C171.659 86.3529 171.688 86.5274 171.689 86.7031H171.682ZM169.883 88.4887C169.883 88.6126 169.916 88.7343 169.978 88.8417C170.032 88.9028 170.12 88.896 170.256 88.8417C170.378 88.777 170.476 88.6746 170.535 88.5498C170.589 88.3992 170.621 88.2413 170.63 88.0813C170.643 87.8552 170.643 87.6285 170.63 87.4024C170.629 87.2784 170.596 87.1568 170.535 87.0493C170.48 86.9882 170.392 86.995 170.256 87.0493C170.134 87.114 170.037 87.2164 169.978 87.3413C169.923 87.4919 169.891 87.6497 169.883 87.8097C169.865 88.0358 169.868 88.263 169.89 88.4887H169.883Z" fill="#FAFAFA"/>
<path d="M195.356 91.3673V52.363L229.126 32.8642V71.8685L195.356 91.3673ZM196.035 52.7568V90.186L228.447 71.4748V34.0455L196.035 52.7568Z" fill="#FAFAFA"/>
<path d="M211.868 53.3406V49.8849C209.648 51.3182 207.721 53.1616 206.192 55.3163L207.971 57.1155C209.028 55.6298 210.349 54.3504 211.868 53.3406Z" fill="#FAFAFA"/>
<path d="M207.36 57.9166L205.588 56.1242C204.008 58.4438 202.822 61.0085 202.077 63.7146L204.949 63.1307C205.478 61.2784 206.291 59.5194 207.36 57.9166Z" fill="#FAFAFA"/>
<path d="M216.511 52.1186L218.29 48.2691C216.322 47.9912 214.318 48.3987 212.614 49.4232V52.9061C213.791 52.2219 215.161 51.945 216.511 52.1186Z" fill="#BA68C8"/>
<path d="M219.506 54.7121L222.377 51.9963C222.1 51.1783 221.64 50.4344 221.032 49.8214C220.424 49.2084 219.683 48.7424 218.867 48.4591L217.095 52.2951C217.648 52.4996 218.15 52.8217 218.566 53.2389C218.982 53.6562 219.303 54.1588 219.506 54.7121Z" fill="#BA68C8"/>
<path d="M207.964 72.113L206.192 75.9557C207.821 76.2883 209.77 75.9557 211.868 74.8083V71.3254C210.689 72.0111 209.316 72.288 207.964 72.113Z" fill="#BA68C8"/>
<path d="M222.635 52.6685L219.764 55.3842C219.956 56.1038 220.052 56.8458 220.049 57.5907C220.039 58.44 219.943 59.2862 219.764 60.1163L222.635 59.5392C222.906 58.3288 223.047 57.093 223.056 55.8527C223.065 54.7768 222.923 53.7051 222.635 52.6685Z" fill="#BA68C8"/>
<path d="M217.122 66.3149L218.894 68.1073C220.473 65.7869 221.659 63.2225 222.405 60.5169L219.533 61.1008C219.004 62.9531 218.191 64.7121 217.122 66.3149Z" fill="#BA68C8"/>
<path d="M204.433 66.6204C204.443 65.7711 204.538 64.9249 204.718 64.0948L201.847 64.6719C201.576 65.8824 201.435 67.1182 201.426 68.3585C201.415 69.4389 201.556 70.5154 201.847 71.5562L204.718 68.8405C204.525 68.1164 204.429 67.3698 204.433 66.6204Z" fill="#BA68C8"/>
<path d="M204.949 69.5127L202.077 72.2284C202.354 73.0464 202.815 73.7903 203.423 74.4033C204.031 75.0164 204.772 75.4823 205.588 75.7656L207.36 71.9296C206.807 71.7251 206.305 71.4031 205.889 70.9858C205.473 70.5685 205.152 70.0659 204.949 69.5127Z" fill="#BA68C8"/>
<path d="M212.614 70.8909V74.3738C214.831 72.9505 216.757 71.1188 218.29 68.9763L216.518 67.1772C215.451 68.64 214.129 69.8981 212.614 70.8909Z" fill="#BA68C8"/>
<g opacity="0.2">
<path d="M216.511 52.1186L218.29 48.2691C216.322 47.9912 214.318 48.3987 212.614 49.4232V52.9061C213.791 52.2219 215.161 51.945 216.511 52.1186Z" fill="black"/>
<path d="M219.506 54.7121L222.377 51.9963C222.1 51.1783 221.64 50.4344 221.032 49.8214C220.424 49.2084 219.683 48.7424 218.867 48.4591L217.095 52.2951C217.648 52.4996 218.15 52.8217 218.566 53.2389C218.982 53.6562 219.303 54.1588 219.506 54.7121Z" fill="black"/>
<path d="M207.964 72.113L206.192 75.9557C207.821 76.2884 209.77 75.9557 211.868 74.8083V71.3254C210.689 72.0111 209.316 72.288 207.964 72.113Z" fill="black"/>
<path d="M222.635 52.6685L219.764 55.3842C219.956 56.1038 220.052 56.8458 220.049 57.5907C220.039 58.44 219.943 59.2862 219.764 60.1163L222.635 59.5392C222.906 58.3288 223.047 57.093 223.056 55.8527C223.065 54.7768 222.923 53.7051 222.635 52.6685Z" fill="black"/>
<path d="M217.122 66.3149L218.894 68.1073C220.473 65.7869 221.659 63.2225 222.405 60.5169L219.533 61.1008C219.004 62.9531 218.191 64.7121 217.122 66.3149Z" fill="black"/>
<path d="M204.433 66.6204C204.443 65.7711 204.538 64.9249 204.719 64.0948L201.847 64.6719C201.576 65.8824 201.435 67.1182 201.426 68.3585C201.415 69.4389 201.556 70.5154 201.847 71.5562L204.719 68.8405C204.525 68.1164 204.429 67.3698 204.433 66.6204Z" fill="black"/>
<path d="M204.949 69.5127L202.077 72.2284C202.354 73.0464 202.815 73.7903 203.423 74.4033C204.031 75.0164 204.772 75.4823 205.588 75.7656L207.36 71.9296C206.807 71.7251 206.305 71.4031 205.889 70.9858C205.473 70.5685 205.152 70.0659 204.949 69.5127Z" fill="black"/>
<path d="M212.614 70.8909V74.3738C214.831 72.9505 216.757 71.1189 218.29 68.9763L216.518 67.1772C215.451 68.64 214.129 69.8981 212.614 70.8909Z" fill="black"/>
</g>
<path d="M205.784 65.8397C205.784 61.7254 208.677 56.7217 212.241 54.6577C215.805 52.5938 218.698 54.2707 218.698 58.385C218.698 62.4993 215.805 67.537 212.241 69.5738C208.677 71.6105 205.784 69.9607 205.784 65.8397Z" fill="#BA68C8"/>
<path opacity="0.2" d="M205.784 65.8397C205.784 61.7254 208.677 56.7217 212.241 54.6577C215.805 52.5938 218.698 54.2707 218.698 58.385C218.698 62.4993 215.805 67.537 212.241 69.5738C208.677 71.6105 205.784 69.9607 205.784 65.8397Z" fill="black"/>
<path d="M211.603 59.9941C211.616 60.2587 211.616 60.5238 211.603 60.7884C211.589 61.0061 211.555 61.222 211.501 61.4334C211.437 61.649 211.348 61.8564 211.236 62.0512C211.113 62.261 210.965 62.4548 210.795 62.6283C210.611 62.8115 210.403 62.969 210.177 63.0968C209.987 63.2146 209.778 63.2973 209.559 63.3412C209.411 63.3674 209.258 63.3435 209.125 63.2733C209.005 63.1972 208.913 63.0856 208.86 62.9542C208.795 62.7872 208.758 62.6105 208.751 62.4314C208.745 62.3048 208.745 62.1779 208.751 62.0512C208.751 61.929 208.751 61.7933 208.751 61.6371C208.764 61.4188 208.801 61.2026 208.86 60.9921C208.924 60.7743 209.012 60.5647 209.125 60.3675C209.243 60.1586 209.389 59.9667 209.559 59.7972C209.743 59.6141 209.951 59.4565 210.177 59.3288C210.367 59.211 210.576 59.1282 210.795 59.0843C210.943 59.0581 211.096 59.082 211.229 59.1522C211.349 59.2284 211.441 59.3399 211.494 59.4713C211.559 59.6384 211.596 59.815 211.603 59.9941ZM213.87 57.4481C213.907 57.3702 213.951 57.2952 213.999 57.2241C214.054 57.1578 214.121 57.1025 214.196 57.0611L214.943 56.6266C214.989 56.5952 215.045 56.583 215.099 56.5927C215.14 56.5927 215.16 56.647 215.16 56.7149C215.16 56.7828 215.16 56.7149 215.16 56.7692C215.163 56.7963 215.163 56.8236 215.16 56.8507L210.679 66.247C210.642 66.325 210.599 66.3999 210.55 66.4711C210.497 66.5388 210.43 66.5943 210.354 66.634L209.607 67.0685C209.584 67.0844 209.559 67.0956 209.532 67.1014C209.505 67.1073 209.478 67.1076 209.451 67.1025C209.41 67.1025 209.39 67.0481 209.39 66.9803C209.387 66.9622 209.387 66.944 209.39 66.9259C209.387 66.8989 209.387 66.8715 209.39 66.8445L213.87 57.4481ZM209.797 61.7729C209.796 61.897 209.829 62.0192 209.892 62.1259C209.946 62.187 210.034 62.1802 210.17 62.1259C210.292 62.0573 210.389 61.953 210.449 61.8272C210.503 61.6789 210.535 61.5233 210.544 61.3655C210.557 61.1394 210.557 60.9127 210.544 60.6866C210.545 60.5624 210.512 60.4403 210.449 60.3336C210.394 60.2725 210.306 60.2792 210.17 60.3336C210.049 60.4022 209.952 60.5065 209.892 60.6323C209.837 60.7805 209.805 60.9362 209.797 61.094C209.786 61.3202 209.788 61.5469 209.804 61.7729H209.797ZM215.805 61.2298C215.826 61.4941 215.826 61.7597 215.805 62.0241C215.794 62.2532 215.76 62.4807 215.704 62.703C215.639 62.9204 215.55 63.1298 215.439 63.3276C215.318 63.5365 215.169 63.7283 214.997 63.8979C214.812 64.0812 214.604 64.2408 214.38 64.3732C214.19 64.4903 213.981 64.5709 213.762 64.6108C213.613 64.6404 213.46 64.6163 213.327 64.5429C213.208 64.4668 213.115 64.3552 213.063 64.2238C213.001 64.058 212.965 63.8842 212.954 63.7078C212.954 63.572 212.954 63.443 212.954 63.3208C212.954 63.1986 212.954 63.0628 212.954 62.9067C212.97 62.6888 213.007 62.4729 213.063 62.2617C213.126 62.0439 213.215 61.8343 213.327 61.6371C213.449 61.4304 213.595 61.239 213.762 61.0668C213.947 60.8853 214.155 60.7279 214.38 60.5983C214.569 60.4806 214.779 60.3978 214.997 60.3539C215.146 60.3277 215.299 60.3516 215.432 60.4218C215.551 60.498 215.644 60.6095 215.697 60.7409C215.76 60.8971 215.799 61.0619 215.812 61.2298H215.805ZM214.006 63.0085C214.005 63.1327 214.038 63.2548 214.101 63.3616C214.156 63.4227 214.251 63.4159 214.38 63.3616C214.504 63.2964 214.602 63.1911 214.658 63.0629C214.716 62.9157 214.749 62.7594 214.753 62.6012C214.773 62.3753 214.773 62.1481 214.753 61.9222C214.757 61.7978 214.724 61.6749 214.658 61.5692C214.604 61.5081 214.515 61.5149 214.38 61.5692C214.258 61.6379 214.161 61.7422 214.101 61.8679C214.047 62.0164 214.015 62.1719 214.006 62.3296C213.995 62.5559 213.998 62.7825 214.013 63.0085H214.006Z" fill="#FAFAFA"/>
<path d="M107.442 151.296V189.513L140.54 170.401V132.191L107.442 151.296Z" fill="#BA68C8"/>
<path opacity="0.7" d="M107.442 151.296V189.513L140.54 170.401V132.191L107.442 151.296Z" fill="#FAFAFA"/>
<path d="M107.442 161.399C108.562 161.833 110.008 161.657 111.583 160.72C115.148 158.683 118.04 153.652 118.04 149.538C118.126 148.2 117.679 146.882 116.797 145.872L107.442 151.269V161.399Z" fill="#BA68C8"/>
<path d="M122.018 162.342C122.344 161.27 122.989 161.222 123.458 162.247L128.129 172.431L135.088 146.082C135.38 144.996 135.862 144.989 136.16 146.082L140.54 161.636V170.408L115.1 185.1L122.018 162.342Z" fill="#BA68C8"/>
<g opacity="0.2">
<path d="M107.442 161.399C108.562 161.833 110.008 161.657 111.583 160.72C115.148 158.683 118.04 153.652 118.04 149.538C118.126 148.2 117.679 146.882 116.797 145.872L107.442 151.269V161.399Z" fill="black"/>
<path d="M122.018 162.342C122.344 161.27 122.989 161.222 123.458 162.247L128.129 172.431L135.088 146.082C135.38 144.996 135.862 144.989 136.16 146.082L140.54 161.636V170.408L115.1 185.1L122.018 162.342Z" fill="black"/>
</g>
<path d="M139.861 133.393V170.055L108.121 188.386V151.724L139.861 133.393ZM140.54 132.218L107.442 151.323V189.54L140.54 170.428V132.191V132.218Z" fill="#BA68C8"/>
<path opacity="0.7" d="M139.861 133.393V170.055L108.121 188.386V151.724L139.861 133.393ZM140.54 132.218L107.442 151.323V189.54L140.54 170.428V132.191V132.218Z" fill="#FAFAFA"/>
<path d="M151.572 125.823V164.033L184.663 144.928V106.718L151.572 125.823Z" fill="#BA68C8"/>
<path opacity="0.7" d="M151.572 125.823V164.033L184.663 144.928V106.718L151.572 125.823Z" fill="#FAFAFA"/>
<path d="M151.572 135.925C152.692 136.36 154.132 136.176 155.707 135.246C159.271 133.21 162.163 128.179 162.163 124.058C162.248 122.722 161.802 121.406 160.921 120.398L151.572 125.796V135.925Z" fill="#BA68C8"/>
<path d="M166.142 136.869C166.475 135.789 167.12 135.749 167.588 136.767L172.252 146.951L179.218 120.602C179.503 119.516 179.985 119.509 180.291 120.602L184.663 136.149V144.935L159.224 159.62L166.142 136.869Z" fill="#BA68C8"/>
<g opacity="0.2">
<path d="M151.572 135.925C152.692 136.36 154.132 136.176 155.707 135.246C159.271 133.21 162.163 128.179 162.163 124.058C162.248 122.722 161.802 121.406 160.921 120.398L151.572 125.796V135.925Z" fill="black"/>
<path d="M166.142 136.869C166.475 135.789 167.12 135.749 167.588 136.767L172.252 146.951L179.218 120.602C179.503 119.516 179.985 119.509 180.291 120.602L184.663 136.149V144.935L159.224 159.62L166.142 136.869Z" fill="black"/>
</g>
<path d="M183.984 107.892V144.554L152.251 162.885V126.223L183.984 107.892ZM184.663 106.711L151.572 125.823V164.033L184.663 144.935V106.711Z" fill="#BA68C8"/>
<path opacity="0.7" d="M183.984 107.892V144.554L152.251 162.885V126.223L183.984 107.892ZM184.663 106.711L151.572 125.823V164.033L184.663 144.935V106.711Z" fill="#FAFAFA"/>
<path d="M195.696 100.343V138.56L228.786 119.455V81.2377L195.696 100.343Z" fill="#BA68C8"/>
<path opacity="0.7" d="M195.696 100.343V138.56L228.786 119.455V81.2377L195.696 100.343Z" fill="#FAFAFA"/>
<path d="M195.696 110.452C196.816 110.886 198.255 110.703 199.83 109.773C203.395 107.736 206.287 102.712 206.287 98.5911C206.371 97.2531 205.925 95.9357 205.044 94.9249L195.696 100.322V110.452Z" fill="#BA68C8"/>
<path d="M210.265 111.389C210.598 110.316 211.243 110.275 211.711 111.294L216.376 121.478L223.341 95.1218C223.627 94.0355 224.109 94.0355 224.414 95.1218L228.786 110.676V119.455L203.347 134.14L210.265 111.389Z" fill="#BA68C8"/>
<g opacity="0.2">
<path d="M195.696 110.452C196.816 110.886 198.255 110.703 199.83 109.773C203.395 107.736 206.287 102.712 206.287 98.5911C206.371 97.2531 205.925 95.9357 205.044 94.9249L195.696 100.322V110.452Z" fill="black"/>
<path d="M210.265 111.389C210.598 110.316 211.243 110.275 211.711 111.294L216.376 121.478L223.341 95.1218C223.627 94.0355 224.109 94.0355 224.414 95.1218L228.786 110.676V119.455L203.347 134.14L210.265 111.389Z" fill="black"/>
</g>
<path d="M228.108 82.4123V119.074L196.374 137.405V100.743L228.108 82.4123ZM228.786 81.2377L195.696 100.343V138.56L228.786 119.455V81.2377Z" fill="#BA68C8"/>
<path opacity="0.7" d="M228.108 82.4123V119.074L196.374 137.405V100.743L228.108 82.4123ZM228.786 81.2377L195.696 100.343V138.56L228.786 119.455V81.2377Z" fill="#FAFAFA"/>
<path d="M224.652 94.3138L234.401 96.9141L231.115 98.7676L237.076 103.133L236.302 104.328L230.165 99.9354L229.35 103.52L224.652 94.3138Z" fill="#263238"/>
<path d="M275.286 70.3002L253.995 82.5888C253.481 82.9233 253.053 83.3743 252.747 83.9051C252.44 84.436 252.263 85.0317 252.23 85.6439V102.841L246.798 108.449C246.018 109.257 246.289 109.807 247.403 109.671L252.203 109.108V116.617C252.203 117.737 252.99 118.198 253.968 117.635L275.259 105.34C275.773 105.006 276.201 104.555 276.508 104.024C276.815 103.493 276.992 102.897 277.024 102.284V71.3186C277.051 70.1916 276.264 69.7367 275.286 70.3002Z" fill="#37474F"/>
<path d="M259.325 89.0793L258.428 89.0114C257.247 88.9164 255.842 88.4479 255.842 86.7574C255.876 86.1349 256.056 85.5292 256.367 84.989C256.679 84.4489 257.113 83.9895 257.634 83.6479C258.408 83.2066 259.067 83.3899 259.318 84.0281C259.574 83.0731 260.173 82.2463 261.001 81.7062C261.993 81.1359 262.794 81.5975 262.794 82.7449C262.794 84.4015 261.395 86.4994 260.221 87.9659L259.325 89.0793Z" fill="#FAFAFA"/>
<path d="M267.784 79.3843L272.536 76.6685C273.507 76.105 274.302 76.363 274.302 77.2456C274.228 77.7868 274.031 78.3037 273.724 78.756C273.418 79.2082 273.012 79.5836 272.536 79.8527L267.784 82.5684C266.806 83.1319 266.019 82.8739 266.019 81.9913C266.091 81.4497 266.288 80.9321 266.594 80.4797C266.9 80.0272 267.308 79.6522 267.784 79.3843Z" fill="#FAFAFA"/>
<path d="M257.6 94.6058L262.353 91.8901C263.33 91.3266 264.118 91.5846 264.118 92.4604C264.047 93.0032 263.85 93.5221 263.544 93.9758C263.238 94.4296 262.83 94.8056 262.353 95.0742L257.6 97.7899C256.629 98.3534 255.842 98.0955 255.842 97.2196C255.913 96.6777 256.109 96.1597 256.414 95.7061C256.719 95.2526 257.125 94.876 257.6 94.6058Z" fill="#FAFAFA"/>
<path d="M257.6 101.246L272.536 92.6301C273.507 92.0666 274.302 92.3246 274.302 93.2004C274.229 93.7428 274.032 94.261 273.726 94.7145C273.42 95.168 273.012 95.5444 272.536 95.8143L257.6 104.43C256.629 104.993 255.842 104.735 255.842 103.86C255.913 103.318 256.109 102.8 256.414 102.346C256.719 101.893 257.125 101.516 257.6 101.246Z" fill="#FAFAFA"/>
<path d="M257.6 107.444L272.536 98.8287C273.507 98.2652 274.302 98.5232 274.302 99.4058C274.228 99.947 274.031 100.464 273.724 100.916C273.418 101.368 273.012 101.744 272.536 102.013L257.6 110.628C256.629 111.192 255.842 110.934 255.842 110.058C255.913 109.516 256.109 108.998 256.414 108.545C256.719 108.091 257.125 107.714 257.6 107.444Z" fill="#FAFAFA"/>
<path d="M34.3622 231.688L67.4531 250.793L100.551 231.688L67.4531 212.576L34.3622 231.688Z" fill="#BA68C8"/>
<path opacity="0.7" d="M34.3622 231.688L67.4531 250.793L100.551 231.688L67.4531 212.576L34.3622 231.688Z" fill="#FAFAFA"/>
<path d="M43.1135 236.739C45.0841 236.673 47.0127 236.153 48.7486 235.218C52.313 233.182 52.313 229.787 48.7486 227.75C47.1945 226.903 45.4765 226.401 43.711 226.277L34.3622 231.688L43.1135 236.739Z" fill="#BA68C8"/>
<path d="M65.7897 233.005C65.3484 232.367 66.2785 232.163 67.8672 232.537L83.7202 236.284L71.3433 221.097C70.8341 220.472 71.547 220.329 72.9456 220.784L92.9807 227.302L100.578 231.688L75.1385 246.373L65.7897 233.005Z" fill="#BA68C8"/>
<g opacity="0.2">
<path d="M43.1135 236.739C45.0841 236.673 47.0127 236.153 48.7486 235.218C52.313 233.182 52.313 229.787 48.7486 227.75C47.1945 226.903 45.4765 226.401 43.711 226.277L34.3622 231.688L43.1135 236.739Z" fill="black"/>
<path d="M65.7897 233.005C65.3484 232.367 66.2785 232.163 67.8672 232.537L83.7202 236.284L71.3433 221.097C70.8341 220.472 71.547 220.329 72.9456 220.784L92.9807 227.302L100.578 231.688L75.1385 246.373L65.7897 233.005Z" fill="black"/>
</g>
<path d="M67.4259 213.364L99.1657 231.695L67.4259 250.026L35.6929 231.695L67.4259 213.364ZM67.4259 212.583L34.3622 231.688L67.4259 250.793L100.524 231.688L67.4259 212.583Z" fill="#BA68C8"/>
<path opacity="0.7" d="M67.4259 213.364L99.1657 231.695L67.4259 250.026L35.6929 231.695L67.4259 213.364ZM67.4259 212.583L34.3622 231.688L67.4259 250.793L100.524 231.688L67.4259 212.583Z" fill="#FAFAFA"/>
<path d="M34.3622 231.688V234.872L67.4531 253.977V250.793L34.3622 231.688Z" fill="#BA68C8"/>
<path opacity="0.6" d="M34.3622 231.688V234.872L67.4531 253.977V250.793L34.3622 231.688Z" fill="#FAFAFA"/>
<path d="M100.551 231.688L67.453 250.793V253.977L100.551 234.872V231.688Z" fill="#BA68C8"/>
<path opacity="0.1" d="M100.551 231.688L67.453 250.793V253.977L100.551 234.872V231.688Z" fill="#FAFAFA"/>
<path d="M290.84 160.088L257.743 140.983L224.652 160.088L257.743 179.193L290.84 160.088Z" fill="#263238"/>
<path d="M257.743 140.983L224.652 160.088V185.562L257.743 204.673V140.983Z" fill="#263238"/>
<path d="M232.928 190.341L227.415 152.131L260.506 133.026L266.026 171.236L232.928 190.341Z" fill="#BA68C8"/>
<path opacity="0.7" d="M232.928 190.341L227.415 152.131L260.506 133.026L266.026 171.236L232.928 190.341Z" fill="#FAFAFA"/>
<path d="M227.415 152.131L224.224 151.439L229.56 188.4L232.928 190.341L227.415 152.131Z" fill="#BA68C8"/>
<path opacity="0.1" d="M227.415 152.131L224.224 151.439L229.56 188.4L232.928 190.341L227.415 152.131Z" fill="#FAFAFA"/>
<path d="M257.322 132.334L260.506 133.026L227.415 152.131L224.224 151.439L257.322 132.334Z" fill="#BA68C8"/>
<path opacity="0.6" d="M257.322 132.334L260.506 133.026L227.415 152.131L224.224 151.439L257.322 132.334Z" fill="#FAFAFA"/>
<path d="M237.287 151.846C237.116 151.048 236.771 150.297 236.277 149.647C235.783 148.997 235.152 148.463 234.428 148.085L227.415 152.158L228.461 159.396C229.125 159.734 229.85 159.936 230.594 159.991C231.338 160.046 232.085 159.952 232.792 159.715C234.379 159.187 235.715 158.092 236.544 156.64C237.374 155.188 237.638 153.481 237.287 151.846Z" fill="#BA68C8"/>
<path opacity="0.2" d="M237.287 151.846C237.116 151.048 236.771 150.297 236.277 149.647C235.783 148.997 235.152 148.463 234.428 148.085L227.415 152.158L228.461 159.396C229.125 159.734 229.85 159.936 230.594 159.991C231.338 160.046 232.085 159.952 232.792 159.715C234.379 159.187 235.715 158.092 236.544 156.64C237.374 155.188 237.638 153.481 237.287 151.846Z" fill="black"/>
<path d="M244.775 153.442C244.986 152.335 245.556 152.26 246.052 153.272L250.926 163.266L254.647 141.873C254.837 140.766 255.421 140.671 255.95 141.662L263.901 156.524L266.026 171.223L238.448 187.157C238.393 186.858 243.343 160.923 244.775 153.442Z" fill="#BA68C8"/>
<path opacity="0.2" d="M244.775 153.442C244.986 152.335 245.556 152.26 246.052 153.272L250.926 163.266L254.647 141.873C254.837 140.766 255.421 140.671 255.95 141.662L263.901 156.524L266.026 171.223L238.448 187.157C238.393 186.858 243.343 160.923 244.775 153.442Z" fill="black"/>
<path d="M259.976 134.113L265.285 170.876L233.457 189.255L228.148 152.491L259.976 134.113ZM260.506 133.026L227.415 152.131L232.928 190.341L266.026 171.236L260.506 133.026Z" fill="#BA68C8"/>
<path opacity="0.7" d="M259.976 134.113L265.285 170.876L233.457 189.255L228.148 152.491L259.976 134.113ZM260.506 133.026L227.415 152.131L232.928 190.341L266.026 171.236L260.506 133.026Z" fill="#FAFAFA"/>
<path d="M243.96 196.71L238.441 158.5L271.538 139.395L277.051 177.605L243.96 196.71Z" fill="#BA68C8"/>
<path opacity="0.7" d="M243.96 196.71L238.441 158.5L271.538 139.395L277.051 177.605L243.96 196.71Z" fill="#FAFAFA"/>
<path d="M238.441 158.5L235.257 157.807L240.593 194.768L243.96 196.71L238.441 158.5Z" fill="#BA68C8"/>
<path opacity="0.1" d="M238.441 158.5L235.257 157.807L240.593 194.768L243.96 196.71L238.441 158.5Z" fill="#FAFAFA"/>
<path d="M268.347 138.702L271.538 139.395L238.441 158.5L235.257 157.807L268.347 138.702Z" fill="#BA68C8"/>
<path opacity="0.6" d="M268.347 138.702L271.538 139.395L238.441 158.5L235.257 157.807L268.347 138.702Z" fill="#FAFAFA"/>
<path d="M248.312 158.214C248.143 157.415 247.798 156.662 247.304 156.011C246.81 155.36 246.178 154.825 245.454 154.446L238.441 158.52L239.486 165.757C240.151 166.095 240.876 166.298 241.62 166.353C242.364 166.407 243.111 166.314 243.818 166.076C245.403 165.549 246.738 164.455 247.567 163.004C248.397 161.554 248.662 159.848 248.312 158.214Z" fill="#BA68C8"/>
<path opacity="0.2" d="M248.312 158.214C248.143 157.415 247.798 156.662 247.304 156.011C246.81 155.36 246.178 154.825 245.454 154.446L238.441 158.52L239.486 165.757C240.151 166.095 240.876 166.298 241.62 166.353C242.364 166.407 243.111 166.314 243.818 166.076C245.403 165.549 246.738 164.455 247.567 163.004C248.397 161.554 248.662 159.848 248.312 158.214Z" fill="black"/>
<path d="M255.808 159.81C256.018 158.703 256.588 158.629 257.084 159.64L261.959 169.641L265.673 148.255C265.863 147.141 266.453 147.053 266.983 148.044L274.933 162.906L277.051 177.605L249.473 193.525C249.419 193.227 254.375 167.292 255.808 159.81Z" fill="#BA68C8"/>
<path opacity="0.2" d="M255.808 159.81C256.018 158.703 256.588 158.629 257.084 159.64L261.959 169.641L265.673 148.255C265.863 147.141 266.453 147.053 266.983 148.044L274.933 162.906L277.051 177.605L249.473 193.525C249.419 193.227 254.375 167.292 255.808 159.81Z" fill="black"/>
<path d="M271.009 140.481L276.318 177.245L244.49 195.623L239.194 158.859L271.022 140.481M271.552 139.395L238.441 158.513L243.947 196.71L277.038 177.605L271.525 139.395H271.552Z" fill="#BA68C8"/>
<path opacity="0.7" d="M271.009 140.481L276.318 177.245L244.49 195.623L239.194 158.859L271.022 140.481M271.552 139.395L238.441 158.513L243.947 196.71L277.038 177.605L271.525 139.395H271.552Z" fill="#FAFAFA"/>
<path d="M257.743 204.673L290.84 185.568V160.088L257.743 179.193V204.673Z" fill="#37474F"/>
<path d="M257.749 179.193L224.652 160.088V185.562L257.749 204.68V179.193ZM243.573 177.381L238.821 174.665C238.344 174.396 237.936 174.02 237.63 173.566C237.323 173.113 237.127 172.594 237.056 172.051C237.056 171.168 237.843 170.917 238.821 171.474L243.573 174.19C244.049 174.459 244.457 174.836 244.763 175.289C245.069 175.743 245.266 176.261 245.339 176.803C245.339 177.686 244.544 177.944 243.573 177.381Z" fill="#455A64"/>
<path d="M290.844 160.085L257.748 179.194L266.02 193.522L299.117 174.414L290.844 160.085Z" fill="#455A64"/>
<path d="M224.652 166.457L221.895 168.052L224.652 160.088V166.457Z" fill="#263238"/>
<path d="M106.335 41.7921L104.203 42.6136V37.9086C104.203 34.1813 101.223 33.2851 97.9912 35.1522C94.7595 37.0124 92.1456 41.5544 92.1456 45.2818V45.9607C91.6907 45.8201 91.2098 45.785 90.7392 45.8579C90.2687 45.9308 89.821 46.1099 89.4299 46.3816C88.2023 47.1788 87.1805 48.2549 86.4478 49.522C85.7151 50.7892 85.2923 52.2116 85.2138 53.6733V53.9856L82.2401 55.7033C81.4315 56.2277 80.7584 56.9359 80.2758 57.7701C79.7932 58.6044 79.5148 59.5409 79.4633 60.5033C79.4633 62.2753 80.7057 62.9882 82.2401 62.1056L106.335 48.1944C107.145 47.6693 107.818 46.96 108.301 46.1245C108.784 45.289 109.062 44.3511 109.112 43.3876C109.112 41.6291 107.87 40.9095 106.335 41.7921Z" fill="#F0F0F0"/>
<path d="M153.772 223.643L153.65 219.535L157.044 218.951L157.241 222.454C157.404 223.269 157.981 223.534 158.131 223.996C158.28 224.457 155.809 229.155 154.424 230.194C153.039 231.233 150.785 229.902 150.567 229.407C150.35 228.911 152.421 229.278 152.76 228.558C153.222 227.594 153.772 223.643 153.772 223.643Z" fill="#FFA8A7"/>
<path d="M157.547 223.133C157.099 223.507 156.759 224.451 156.141 225.74C155.523 227.03 154.648 229.135 153.69 229.413C152.577 229.767 150.391 229.128 151.783 229.02C152.088 229.02 152.624 228.884 152.767 228.558C152.822 228.445 152.865 228.327 152.896 228.205C152.414 228.336 151.913 228.382 151.416 228.341C151.047 228.283 150.668 228.331 150.325 228.479C149.982 228.627 149.687 228.868 149.474 229.176C149.243 229.522 149.617 230.106 149.617 230.106C150.044 230.629 150.839 231.152 152.672 231.287C154.505 231.423 155.591 231.158 156.25 229.929C157.098 228.556 158.028 227.234 159.033 225.971C159.719 224.919 158.613 223.412 157.547 223.133Z" fill="#263238"/>
<path d="M152.876 228.28C152.767 228.558 151.959 228.646 151.558 228.701C151.158 228.755 150.961 229.128 151.613 229.339C152.74 229.454 153.297 228.259 152.876 228.28Z" fill="#FFA8A7"/>
<path d="M185.96 210.363L183.135 207.396L185.294 204.68L187.766 207.172C188.445 207.674 189.042 207.491 189.456 207.735C189.87 207.98 191.147 213.167 190.814 214.837C190.481 216.507 187.901 217.03 187.419 216.799C186.937 216.568 188.723 215.475 188.499 214.715C188.166 213.683 185.96 210.363 185.96 210.363Z" fill="#FFA8A7"/>
<path d="M188.445 207.477C188.356 208.054 188.723 208.985 189.123 210.356C189.524 211.727 190.251 213.88 189.728 214.735C189.13 215.733 187.073 216.711 188.044 215.706C188.254 215.482 188.58 215.027 188.472 214.708C188.438 214.586 188.392 214.468 188.336 214.355C188.059 214.773 187.712 215.14 187.311 215.441C186.996 215.641 186.745 215.927 186.587 216.265C186.43 216.603 186.372 216.979 186.421 217.349C186.476 217.763 187.141 217.953 187.141 217.953C187.82 218.062 188.75 217.919 190.21 216.813C191.669 215.706 192.308 214.776 191.975 213.418C191.7 211.828 191.516 210.223 191.425 208.611C191.255 207.396 189.422 206.975 188.445 207.477Z" fill="#263238"/>
<path d="M188.363 214.423C188.465 214.708 187.915 215.305 187.65 215.618C187.385 215.93 187.487 216.331 188.119 216.052C189.042 215.394 188.662 214.131 188.363 214.423Z" fill="#FFA8A7"/>
<path d="M163.08 147.46C163.983 144.324 163.413 142.416 162.72 139.7C161.444 134.73 160.235 129.74 160.235 129.74C160.235 129.74 159.332 110.812 159.291 109.087C159.244 107.051 158.85 105.91 158.68 104.185C158.585 103.208 157.886 103.106 157.954 103.14V106.969C157.328 106.41 156.736 105.814 156.182 105.183C155.544 104.416 154.899 104.505 154.695 104.892C154.491 105.279 155.544 106.032 156.053 107.03C156.627 108.027 157.264 108.987 157.961 109.902V120.249L155.245 121.824L154.716 131.709L158.938 147.087L163.08 147.46Z" fill="#FFA8A7"/>
<path d="M150.757 140.963L151.341 146.109L156.413 146.693L155.68 139.863L150.757 140.963Z" fill="#FFA8A7"/>
<path d="M124.856 101.144V139.354L157.954 120.249V82.0321L124.856 101.144Z" fill="#BA68C8"/>
<path opacity="0.7" d="M124.856 101.144V139.354L157.954 120.249V82.0321L124.856 101.144Z" fill="#FAFAFA"/>
<path d="M124.856 111.246C125.977 111.681 127.423 111.497 128.998 110.567C132.562 108.531 135.454 103.5 135.454 99.3786C135.538 98.0409 135.091 96.724 134.212 95.7124L124.856 101.144V111.246Z" fill="#BA68C8"/>
<path opacity="0.2" d="M124.856 111.246C125.977 111.681 127.423 111.497 128.998 110.567C132.562 108.531 135.454 103.5 135.454 99.3786C135.538 98.0409 135.091 96.724 134.212 95.7124L124.856 101.144V111.246Z" fill="black"/>
<path d="M139.433 112.19C139.759 111.11 140.404 111.07 140.872 112.088L145.543 122.272L152.509 95.9229C152.794 94.8366 153.276 94.8298 153.575 95.9229L157.954 111.477V120.256L132.515 134.941L139.433 112.19Z" fill="#BA68C8"/>
<path opacity="0.2" d="M139.433 112.19C139.759 111.11 140.404 111.07 140.872 112.088L145.543 122.272L152.509 95.9229C152.794 94.8366 153.276 94.8298 153.575 95.9229L157.954 111.477V120.256L132.515 134.941L139.433 112.19Z" fill="black"/>
<path d="M157.275 83.2134V119.875L125.535 138.206V101.544L157.275 83.2134ZM157.954 82.0321L124.856 101.144V139.354L157.954 120.249V82.0321Z" fill="#BA68C8"/>
<path opacity="0.7" d="M157.275 83.2134V119.875L125.535 138.206V101.544L157.275 83.2134ZM157.954 82.0321L124.856 101.144V139.354L157.954 120.249V82.0321Z" fill="#FAFAFA"/>
<path d="M124.856 139.354L122.1 137.765V99.5484L124.856 101.144V139.354Z" fill="#BA68C8"/>
<path opacity="0.1" d="M124.856 139.354L122.1 137.765V99.5484L124.856 101.144V139.354Z" fill="#FAFAFA"/>
<path d="M122.1 99.5484L155.191 80.4434L157.954 82.0321L124.856 101.144L122.1 99.5484Z" fill="#BA68C8"/>
<path opacity="0.6" d="M122.1 99.5484L155.191 80.4434L157.954 82.0321L124.856 101.144L122.1 99.5484Z" fill="#FAFAFA"/>
<path d="M163.08 147.46C162.992 147.902 162.788 148.771 162.401 150.237C161.654 152.953 160.527 156.802 160.045 158.085C160.045 158.14 160.004 158.187 159.984 158.228L161.987 161.487C161.987 161.487 160.629 163.15 156.65 164.311C152.672 165.472 147.824 163.116 147.824 163.116C147.824 163.116 146.799 157.739 146.609 156.232C146.609 156.144 146.609 156.008 146.555 155.852C146.514 155.533 146.473 155.248 146.412 154.983C146.412 154.983 146.412 154.935 146.412 154.908C146.338 154.582 146.283 154.148 146.188 153.666C146.08 152.835 145.777 152.041 145.304 151.35C144.831 150.659 144.201 150.089 143.466 149.687C142.902 149.382 131.204 144.751 129.358 143.624C128.885 143.381 128.473 143.036 128.149 142.615C127.825 142.193 127.598 141.706 127.484 141.187C127.226 140.474 123.668 128.729 123.247 127.561C122.891 126.587 122.293 125.721 121.509 125.042C120.586 124.051 120.26 123.827 119.975 122.937C119.69 122.048 120.05 121.831 120.192 121.389C120.389 120.778 120.192 120.351 120.301 119.889C120.47 119.312 120.823 119.163 120.912 118.905C120.956 118.446 121.035 117.992 121.149 117.547C121.334 117.117 121.667 116.768 122.086 116.562V117.92C122.595 120.004 124.883 121.03 125.175 120.88C125.467 120.731 125.895 119.522 126.533 119.02C127.171 118.518 128.054 118.565 127.728 119.197C127.545 119.563 127.124 120.928 126.907 121.532C126.689 122.136 126.044 123.406 126.187 124.377C126.37 125.673 132.399 139.042 132.399 139.042C132.399 139.042 138.951 141.187 144.151 142.803C147.376 143.808 150.031 144.425 150.031 144.425L151.64 144.14L152.244 144.032L160.079 142.592L160.364 142.538C160.621 142.504 160.881 142.504 161.138 142.538C161.498 142.644 161.831 142.825 162.117 143.068C162.402 143.311 162.633 143.612 162.795 143.95C163.3 145.05 163.401 146.293 163.08 147.46Z" fill="#FFA8A7"/>
<path d="M151.728 165.852C151.728 165.852 161.586 189.927 162.482 192.127C163.048 193.734 164.161 195.092 165.626 195.963C166.943 196.879 184.113 208.699 184.113 208.699C186.74 207.606 186.795 205.895 186.795 205.895C186.795 205.895 177.928 194.591 176.054 192.962C174.18 191.332 170.711 190.504 170.711 190.504L166.346 172.173C165.762 169.362 166.121 166.253 161.939 161.466L151.728 165.852Z" fill="#37474F"/>
<path d="M154.811 164.508C156.847 167.332 158.714 169.817 159.244 173.069C160.357 179.947 157.662 188.338 157.336 193.471C158.315 195.02 158.91 196.779 159.074 198.604C159.169 200.715 157.309 220.153 157.309 220.153C156.159 220.787 154.833 221.026 153.534 220.832C153.534 220.832 149.393 192.745 148.598 183.613C147.804 174.482 147.784 163.143 147.784 163.143L154.811 164.508Z" fill="#37474F"/>
<path d="M147.485 133.311C147.221 132.587 147.145 131.807 147.264 131.045C147.382 130.283 147.692 129.563 148.164 128.953C150.099 126.339 153.779 125.225 157.669 126.576C159.604 127.255 161.966 129.455 161.905 134.228C161.865 137.154 153.595 138.729 153.636 140.739L147.485 133.311Z" fill="#263238"/>
<path d="M147.234 134.404C147.234 134.404 146.005 136.095 146.147 136.292C146.408 136.48 146.7 136.62 147.01 136.706L147.234 134.404Z" fill="#F28F8F"/>
<path d="M151.002 129.034C149.854 129.564 147.872 130.548 147.186 134.656C146.507 138.879 147.186 140.264 147.723 140.847C148.096 141.241 150.201 141.336 151.26 141.058C152.618 140.705 155.605 139.7 157.037 137.548C158.721 135.043 159.196 131.628 157.445 130.202C156.556 129.48 155.5 128.994 154.373 128.79C153.247 128.586 152.087 128.67 151.002 129.034Z" fill="#FFA8A7"/>
<path d="M147.784 163.123L161.966 161.487C162.964 163.123 165.361 165.92 164.852 168.609C164.234 171.861 162.482 174.149 157.126 175.744" fill="#37474F"/>
<path d="M161.797 152.321C161.077 154.99 160.486 156.87 160.031 158.085C160.031 158.14 159.991 158.187 159.97 158.228L161.973 161.487C161.973 161.487 160.615 163.15 156.637 164.311C152.658 165.472 147.811 163.116 147.811 163.116C147.811 163.116 146.786 157.739 146.596 156.232C146.596 156.144 146.596 156.008 146.541 155.852C146.487 155.696 146.453 155.295 146.399 154.983C146.399 154.983 146.399 154.935 146.399 154.908C146.31 154.372 146.215 153.849 146.175 153.666C151.287 151.384 150.085 144.405 150.085 144.405L151.694 144.12L152.299 144.011C154.641 143.597 156.311 143.285 158.409 142.871C158.49 142.85 162.964 147.976 161.797 152.321Z" fill="#FAFAFA"/>
<path d="M160.439 156.85C158.813 157.89 157.097 158.783 155.313 159.518C156.947 159.484 158.546 159.04 159.964 158.228L160.439 156.85Z" fill="#F0F0F0"/>
<path d="M150.662 129.197C150.662 129.197 149.515 133.019 150.574 135.518C150.574 135.518 151.328 134.038 152.611 134.533C153.894 135.029 153.704 136.76 152.611 137.602C152.338 137.845 152.002 138.006 151.642 138.066C151.281 138.126 150.911 138.083 150.574 137.942C150.63 139.182 151.082 140.372 151.864 141.336C153.208 141.794 154.654 141.863 156.035 141.535C157.416 141.207 158.677 140.496 159.672 139.483C162.951 136.272 162.815 130.249 158.26 128.505C153.704 126.76 150.662 129.197 150.662 129.197Z" fill="#263238"/>
<path d="M158.911 183.403L160.072 174.067C160.072 174.067 163.467 172.777 164.927 170.781C164.27 172.513 163.082 173.991 161.532 175.004C161.301 175.296 159.495 184.869 159.495 184.869L158.911 183.403Z" fill="#263238"/>
<path d="M164.058 133.033C162.482 133.712 161.294 132.463 160.432 130.467C159.57 128.471 159.38 126.475 160.948 125.796C162.516 125.117 164.411 126.393 165.266 128.389C166.121 130.385 165.626 132.354 164.058 133.033Z" fill="#263238"/>
<path d="M157.954 106.969C157.488 106.699 157.089 106.328 156.786 105.883C156.311 105.204 155.632 104.878 155.225 105.109C154.926 105.272 155.279 105.788 155.503 106.215C155.833 107.044 156.291 107.816 156.861 108.503C157.492 109.087 157.947 109.23 157.947 109.902C158.294 109.51 158.476 108.999 158.456 108.476C158.45 107.934 158.275 107.407 157.954 106.969Z" fill="#FFA8A7"/>
</svg>
