<svg width="33" height="31" viewBox="0 0 33 31" fill="none" xmlns="http://www.w3.org/2000/svg">
<path d="M4.375 0V4.375H0V7.29167H4.375V11.6667H7.29167V7.29167H11.6667V4.375H7.29167V0H4.375ZM13.125 4.375V8.75H8.75V13.125H4.375V27.7083C4.375 28.4819 4.68229 29.2237 5.22927 29.7707C5.77625 30.3177 6.51812 30.625 7.29167 30.625H27.7083C29.3271 30.625 30.625 29.3271 30.625 27.7083V26.25H17.5C16.7264 26.25 15.9846 25.9427 15.4376 25.3957C14.8906 24.8487 14.5833 24.1069 14.5833 23.3333V11.6667C14.5833 10.8931 14.8906 10.1513 15.4376 9.60427C15.9846 9.05729 16.7264 8.75 17.5 8.75H30.625V7.29167C30.625 6.51812 30.3177 5.77625 29.7707 5.22927C29.2237 4.68229 28.4819 4.375 27.7083 4.375H13.125ZM17.5 11.6667V23.3333H32.0833V11.6667H17.5ZM23.3333 15.3125C24.5437 15.3125 25.5208 16.2896 25.5208 17.5C25.5208 18.7104 24.5437 19.6875 23.3333 19.6875C22.1229 19.6875 21.1458 18.7104 21.1458 17.5C21.1458 16.2896 22.1229 15.3125 23.3333 15.3125Z" fill="#534E97"/>
</svg>
