<svg width="26" height="26" viewBox="0 0 26 26" fill="none" xmlns="http://www.w3.org/2000/svg">
<path d="M19.25 8.3125C19.6644 8.3125 20.0618 8.14788 20.3549 7.85486C20.6479 7.56183 20.8125 7.1644 20.8125 6.75C20.8125 6.3356 20.6479 5.93817 20.3549 5.64515C20.0618 5.35212 19.6644 5.1875 19.25 5.1875C18.8356 5.1875 18.4382 5.35212 18.1451 5.64515C17.8521 5.93817 17.6875 6.3356 17.6875 6.75C17.6875 7.1644 17.8521 7.56183 18.1451 7.85486C18.4382 8.14788 18.8356 8.3125 19.25 8.3125ZM9.1875 8.75C9.18882 6.57895 10.0519 4.49719 11.587 2.96203C13.1222 1.42686 15.2039 0.563825 17.375 0.5625C21.87 0.5625 25.5625 4.08625 25.5625 8.625C25.565 10.356 25.0155 12.0427 23.9937 13.44C23.5059 13.042 22.9701 12.7069 22.3987 12.4425C23.2353 11.3458 23.6878 10.0043 23.6862 8.625C23.6862 5.16375 20.8775 2.4375 17.3737 2.4375C15.7 2.43882 14.0951 3.10431 12.9116 4.28785C11.7281 5.47139 11.0626 7.07623 11.0612 8.75C11.0612 9.0775 11.1037 9.42375 11.1712 9.80625C11.2345 10.157 11.2124 10.5177 11.1066 10.8581C11.0009 11.1984 10.8146 11.5082 10.5637 11.7613L2.76875 19.555C2.62367 19.7001 2.50859 19.8724 2.43009 20.062C2.35159 20.2516 2.31121 20.4548 2.31125 20.66V23.375C2.31125 23.5475 2.45125 23.6875 2.62375 23.6875H5.74875C5.83163 23.6875 5.91111 23.6546 5.96972 23.596C6.02832 23.5374 6.06125 23.4579 6.06125 23.375V21.5C6.06125 20.6375 6.76125 19.9375 7.62375 19.9375H9.81125V17.75C9.81125 16.9375 10.4325 16.2688 11.2262 16.1938L12.5725 17.5413C12.388 17.6885 12.2285 17.8645 12.1 18.0625H11.6875V20.25C11.6875 21.1125 10.9875 21.8125 10.125 21.8125H7.9375V23.375C7.9375 23.9552 7.70703 24.5116 7.2968 24.9218C6.88656 25.332 6.33016 25.5625 5.75 25.5625H2.625C2.04484 25.5625 1.48844 25.332 1.0782 24.9218C0.667968 24.5116 0.4375 23.9552 0.4375 23.375V20.66C0.4375 19.7475 0.79875 18.8738 1.44375 18.23L9.2375 10.435C9.27551 10.3949 9.30331 10.3463 9.31855 10.2932C9.33378 10.2401 9.33599 10.1841 9.325 10.13C9.23922 9.67486 9.19322 9.21312 9.1875 8.75ZM15.225 12.1C15.3171 12.0142 15.391 11.9107 15.4422 11.7957C15.4935 11.6807 15.521 11.5565 15.5232 11.4307C15.5255 11.3048 15.5023 11.1797 15.4552 11.063C15.408 10.9463 15.3378 10.8402 15.2488 10.7512C15.1598 10.6622 15.0537 10.592 14.937 10.5448C14.8203 10.4977 14.6952 10.4745 14.5693 10.4768C14.4435 10.479 14.3193 10.5065 14.2043 10.5578C14.0893 10.609 13.9858 10.6829 13.9 10.775L11.4 13.275C11.2244 13.4508 11.1258 13.6891 11.1258 13.9375C11.1258 14.1859 11.2244 14.4242 11.4 14.6L13.9 17.1C13.9858 17.1921 14.0893 17.266 14.2043 17.3172C14.3193 17.3685 14.4435 17.396 14.5693 17.3982C14.6952 17.4005 14.8203 17.3773 14.937 17.3302C15.0537 17.283 15.1598 17.2128 15.2488 17.1238C15.3378 17.0348 15.408 16.9287 15.4552 16.812C15.5023 16.6953 15.5255 16.5702 15.5232 16.4444C15.521 16.3185 15.4935 16.1943 15.4422 16.0793C15.391 15.9643 15.3171 15.8608 15.225 15.775L14.325 14.875H19.25C20.1153 14.875 20.9612 15.1316 21.6806 15.6123C22.4001 16.0931 22.9608 16.7763 23.292 17.5758C23.6231 18.3752 23.7097 19.2549 23.5409 20.1035C23.3721 20.9522 22.9554 21.7317 22.3436 22.3436C21.7317 22.9555 20.9522 23.3721 20.1035 23.5409C19.2548 23.7098 18.3752 23.6231 17.5758 23.292C16.7763 22.9608 16.093 22.4001 15.6123 21.6806C15.1316 20.9612 14.875 20.1153 14.875 19.25C14.875 19.0014 14.7762 18.7629 14.6004 18.5871C14.4246 18.4113 14.1861 18.3125 13.9375 18.3125C13.6889 18.3125 13.4504 18.4113 13.2746 18.5871C13.0988 18.7629 13 19.0014 13 19.25C13 20.4861 13.3666 21.6945 14.0533 22.7223C14.7401 23.7501 15.7162 24.5512 16.8582 25.0243C18.0003 25.4973 19.2569 25.6211 20.4693 25.3799C21.6817 25.1388 22.7953 24.5435 23.6694 23.6694C24.5435 22.7953 25.1387 21.6817 25.3799 20.4693C25.6211 19.2569 25.4973 18.0003 25.0242 16.8582C24.5512 15.7162 23.7501 14.7401 22.7223 14.0533C21.6945 13.3666 20.4861 13 19.25 13H14.325L15.225 12.1Z" fill="#3C3A62"/>
</svg>
