<svg width="15" height="14" viewBox="0 0 15 14" fill="none" xmlns="http://www.w3.org/2000/svg">
<path d="M3.90743 2.3042H2.42576C2.0328 2.3042 1.65593 2.44161 1.37806 2.68619C1.1002 2.93078 0.944092 3.26251 0.944092 3.60841V11.4337C0.944092 11.7796 1.1002 12.1113 1.37806 12.3559C1.65593 12.6005 2.0328 12.7379 2.42576 12.7379H6.64629M11.3158 8.17315V10.7816H14.2791M11.3158 6.21683V3.60841C11.3158 3.26251 11.1597 2.93078 10.8818 2.68619C10.6039 2.44161 10.2271 2.3042 9.8341 2.3042H8.35243" stroke="#979699" stroke-linecap="round" stroke-linejoin="round"/>
<path d="M6.87069 1H5.38902C4.57071 1 3.90735 1.58391 3.90735 2.30421C3.90735 3.02451 4.57071 3.60842 5.38902 3.60842H6.87069C7.68899 3.60842 8.35235 3.02451 8.35235 2.30421C8.35235 1.58391 7.68899 1 6.87069 1Z" stroke="#979699" stroke-linecap="round" stroke-linejoin="round"/>
<path d="M11.3158 13.3899C12.9524 13.3899 14.2791 12.2221 14.2791 10.7815C14.2791 9.34093 12.9524 8.1731 11.3158 8.1731C9.67915 8.1731 8.35242 9.34093 8.35242 10.7815C8.35242 12.2221 9.67915 13.3899 11.3158 13.3899Z" stroke="#979699" stroke-linecap="round" stroke-linejoin="round"/>
<path d="M3.90735 6.2168H6.87069M3.90735 8.82522H6.12985" stroke="#979699" stroke-linecap="round" stroke-linejoin="round"/>
</svg>
