<svg width="15" height="15" viewBox="0 0 15 15" fill="none" xmlns="http://www.w3.org/2000/svg">
<path d="M13.6531 12.7882V7.90092C13.6531 7.50709 13.5734 7.11738 13.4188 6.7555C13.2643 6.39361 13.0381 6.06712 12.754 5.79587L8.14863 1.39923C7.88019 1.14292 7.52407 1 7.15382 1C6.78356 1 6.42745 1.14292 6.15901 1.39923L1.55293 5.79587C1.26886 6.06712 1.04266 6.39361 0.888088 6.7555C0.733518 7.11738 0.653808 7.50709 0.653809 7.90092V12.7882C0.653809 13.1733 0.805982 13.5425 1.07685 13.8148C1.34772 14.087 1.71511 14.24 2.09817 14.24H12.2087C12.5918 14.24 12.9592 14.087 13.2301 13.8148C13.5009 13.5425 13.6531 13.1733 13.6531 12.7882Z" stroke="#999999" stroke-width="1.2" stroke-linecap="round" stroke-linejoin="round"/>
</svg>
