<svg width="24" height="24" viewBox="0 0 24 24" fill="none" xmlns="http://www.w3.org/2000/svg">
<path d="M12.4012 9.43438C11.9271 9.43438 11.4636 9.57496 11.0694 9.83836C10.6752 10.1018 10.368 10.4761 10.1865 10.9141C10.0051 11.3522 9.95765 11.8341 10.0501 12.2991C10.1426 12.7641 10.3709 13.1912 10.7062 13.5265C11.0414 13.8617 11.4685 14.09 11.9335 14.1825C12.3985 14.275 12.8805 14.2275 13.3185 14.0461C13.7565 13.8647 14.1309 13.5574 14.3943 13.1632C14.6577 12.769 14.7983 12.3056 14.7983 11.8315C14.7983 11.5167 14.7363 11.205 14.6158 10.9141C14.4953 10.6233 14.3188 10.3591 14.0962 10.1365C13.8736 9.91388 13.6093 9.73731 13.3185 9.61684C13.0277 9.49638 12.716 9.43438 12.4012 9.43438ZM21.9992 7.06628C21.9941 6.31985 21.8567 5.58025 21.5933 4.88183C21.3992 4.37077 21.0991 3.90665 20.7125 3.52011C20.326 3.13358 19.8619 2.8334 19.3508 2.63939C18.6524 2.37597 17.9128 2.23852 17.1664 2.23343C15.9195 2.16577 15.5522 2.16577 12.4012 2.16577C9.25015 2.16577 8.88286 2.16577 7.63598 2.23343C6.88956 2.23852 6.14995 2.37597 5.45153 2.63939C4.94047 2.8334 4.47636 3.13358 4.08982 3.52011C3.70328 3.90665 3.4031 4.37077 3.20909 4.88183C2.94567 5.58025 2.80822 6.31985 2.80313 7.06628C2.73547 8.31316 2.73547 8.68045 2.73547 11.8315C2.73547 14.9825 2.73547 15.3498 2.80313 16.5967C2.81354 17.3457 2.9508 18.0876 3.20909 18.7908C3.40224 19.2995 3.70217 19.7609 4.08867 20.144C4.47355 20.5328 4.93866 20.833 5.45153 21.0235C6.14995 21.287 6.88956 21.4244 7.63598 21.4295C8.88286 21.4972 9.25015 21.4972 12.4012 21.4972C15.5522 21.4972 15.9195 21.4972 17.1664 21.4295C17.9128 21.4244 18.6524 21.287 19.3508 21.0235C19.8637 20.833 20.3288 20.5328 20.7137 20.144C21.1002 19.7609 21.4001 19.2995 21.5933 18.7908C21.8564 18.0889 21.9938 17.3462 21.9992 16.5967C22.0669 15.3498 22.0669 14.9825 22.0669 11.8315C22.0669 8.68045 22.0669 8.31316 21.9992 7.06628ZM19.5441 14.7988C19.5131 15.3953 19.3858 15.9828 19.1672 16.5387C18.9795 17.0023 18.7006 17.4235 18.3469 17.7772C17.9932 18.1309 17.572 18.4098 17.1084 18.5975C16.5473 18.8039 15.9565 18.9182 15.3589 18.9358H9.44347C8.84587 18.9182 8.25506 18.8039 7.69398 18.5975C7.21466 18.4193 6.7818 18.1352 6.42777 17.7662C6.07755 17.4195 5.80708 17.0006 5.63518 16.5387C5.42791 15.9782 5.3168 15.3867 5.30655 14.7892V8.87377C5.3168 8.27626 5.42791 7.68477 5.63518 7.12427C5.8133 6.64496 6.09747 6.2121 6.46643 5.85807C6.81472 5.50974 7.23318 5.23955 7.69398 5.06548C8.25506 4.85903 8.84587 4.74478 9.44347 4.72718H15.3589C15.9565 4.74478 16.5473 4.85903 17.1084 5.06548C17.5877 5.2436 18.0205 5.52777 18.3746 5.89673C18.7248 6.24349 18.9953 6.66238 19.1672 7.12427C19.3736 7.68536 19.4879 8.27616 19.5055 8.87377V11.8315C19.5055 13.8226 19.5731 14.0256 19.5441 14.7892V14.7988ZM17.9976 7.60756C17.8825 7.29534 17.7011 7.01181 17.4658 6.77652C17.2305 6.54122 16.947 6.35978 16.6347 6.2447C16.206 6.0961 15.7545 6.02412 15.3009 6.03205H9.50146C9.0455 6.03651 8.59392 6.12159 8.1676 6.28336C7.86016 6.39322 7.57962 6.56725 7.34464 6.7939C7.10966 7.02055 6.92561 7.29462 6.80473 7.59789C6.66436 8.02837 6.59579 8.47901 6.60175 8.93176V14.7312C6.61134 15.1866 6.69625 15.6373 6.85306 16.065C6.96814 16.3773 7.14959 16.6608 7.38488 16.8961C7.62017 17.1314 7.90371 17.3128 8.21592 17.4279C8.62833 17.5796 9.0623 17.6644 9.50146 17.6792H15.3009C15.7568 17.6748 16.2084 17.5897 16.6347 17.4279C16.947 17.3128 17.2305 17.1314 17.4658 16.8961C17.7011 16.6608 17.8825 16.3773 17.9976 16.065C18.1594 15.6387 18.2445 15.1871 18.2489 14.7312V8.93176C18.2492 8.47534 18.164 8.02292 17.9976 7.59789V7.60756ZM12.4012 15.5238C11.9167 15.5238 11.4371 15.4282 10.9897 15.2425C10.5422 15.0568 10.1358 14.7847 9.79374 14.4417C9.45164 14.0987 9.18059 13.6916 8.99609 13.2437C8.81159 12.7958 8.71727 12.3159 8.71854 11.8315C8.71854 11.1008 8.93534 10.3865 9.34148 9.77914C9.74763 9.17174 10.3249 8.69849 11.0001 8.41932C11.6753 8.14014 12.4182 8.06759 13.1347 8.21084C13.8512 8.3541 14.5091 8.70671 15.0251 9.22406C15.5411 9.7414 15.892 10.4002 16.0334 11.1171C16.1747 11.834 16.1002 12.5767 15.8193 13.2512C15.5383 13.9257 15.0636 14.5017 14.4551 14.9062C13.8467 15.3108 13.1318 15.5257 12.4012 15.5238ZM16.2675 8.8641C16.0538 8.84148 15.856 8.74059 15.7123 8.58087C15.5686 8.42114 15.4891 8.21388 15.4891 7.99902C15.4891 7.78416 15.5686 7.5769 15.7123 7.41717C15.856 7.25745 16.0538 7.15656 16.2675 7.13394C16.4811 7.15656 16.6789 7.25745 16.8226 7.41717C16.9663 7.5769 17.0458 7.78416 17.0458 7.99902C17.0458 8.21388 16.9663 8.42114 16.8226 8.58087C16.6789 8.74059 16.4811 8.84148 16.2675 8.8641Z" fill="#333333"/>
</svg>
