<svg width="15" height="15" viewBox="0 0 15 15" fill="none" xmlns="http://www.w3.org/2000/svg">
<path fill-rule="evenodd" clip-rule="evenodd" d="M7.5002 0.41687C11.4123 0.41687 14.5835 3.58808 14.5835 7.5002C14.5835 11.4123 11.4123 14.5835 7.5002 14.5835C3.58808 14.5835 0.41687 11.4123 0.41687 7.5002C0.41687 3.58808 3.58808 0.41687 7.5002 0.41687ZM7.5002 9.6252C7.21841 9.6252 6.94816 9.73714 6.7489 9.9364C6.54964 10.1357 6.4377 10.4059 6.4377 10.6877C6.4377 10.9695 6.54964 11.2397 6.7489 11.439C6.94816 11.6383 7.21841 11.7502 7.5002 11.7502C7.782 11.7502 8.05225 11.6383 8.2515 11.439C8.45076 11.2397 8.5627 10.9695 8.5627 10.6877C8.5627 10.4059 8.45076 10.1357 8.2515 9.9364C8.05225 9.73714 7.782 9.6252 7.5002 9.6252ZM7.5002 6.4377C7.21841 6.4377 6.94816 6.54964 6.7489 6.7489C6.54964 6.94816 6.4377 7.21841 6.4377 7.5002C6.4377 7.782 6.54964 8.05225 6.7489 8.2515C6.94816 8.45076 7.21841 8.5627 7.5002 8.5627C7.782 8.5627 8.05225 8.45076 8.2515 8.2515C8.45076 8.05225 8.5627 7.782 8.5627 7.5002C8.5627 7.21841 8.45076 6.94816 8.2515 6.7489C8.05225 6.54964 7.782 6.4377 7.5002 6.4377ZM7.5002 3.2502C7.21841 3.2502 6.94816 3.36214 6.7489 3.5614C6.54964 3.76066 6.4377 4.03091 6.4377 4.3127C6.4377 4.5945 6.54964 4.86475 6.7489 5.064C6.94816 5.26326 7.21841 5.3752 7.5002 5.3752C7.782 5.3752 8.05225 5.26326 8.2515 5.064C8.45076 4.86475 8.5627 4.5945 8.5627 4.3127C8.5627 4.03091 8.45076 3.76066 8.2515 3.5614C8.05225 3.36214 7.782 3.2502 7.5002 3.2502Z" fill="#999999"/>
</svg>
