<svg width="26" height="21" viewBox="0 0 26 21" fill="none" xmlns="http://www.w3.org/2000/svg">
<g clip-path="url(#clip0_1261_2569)">
<path d="M25.0074 2.64236C24.0954 3.04639 23.128 3.31159 22.1375 3.42915C23.1693 2.81075 23.9615 1.8315 24.3345 0.664739C23.3537 1.24678 22.2806 1.65686 21.1616 1.87727C20.2501 0.906198 18.9515 0.299316 17.5143 0.299316C14.7547 0.299316 12.5174 2.53657 12.5174 5.29593C12.5174 5.68761 12.5616 6.06893 12.6468 6.43473C8.49402 6.22628 4.8122 4.23705 2.34767 1.21397C1.91764 1.95195 1.67124 2.81037 1.67124 3.72598C1.67124 5.45957 2.55345 6.9889 3.89412 7.885C3.10063 7.86015 2.32459 7.64584 1.63081 7.25995C1.63052 7.28088 1.63052 7.30181 1.63052 7.32284C1.63052 9.7438 3.35289 11.7634 5.63866 12.2224C4.90285 12.4225 4.13104 12.4518 3.38219 12.308C4.01799 14.2932 5.86337 15.7377 8.04982 15.7782C6.33973 17.1183 4.18515 17.9172 1.8442 17.9172C1.44082 17.9172 1.04314 17.8935 0.652222 17.8473C2.8635 19.2651 5.48996 20.0923 8.31174 20.0923C17.5027 20.0923 22.5285 12.4783 22.5285 5.87542C22.5285 5.65869 22.5237 5.44321 22.514 5.22896C23.4923 4.52179 24.3366 3.64588 25.0074 2.64236Z" fill="#55ACEE"/>
</g>
<defs>
<clipPath id="clip0_1261_2569">
<rect width="24.3576" height="19.8837" fill="white" transform="translate(0.651123 0.220947)"/>
</clipPath>
</defs>
</svg>
