<svg width="52" height="48" viewBox="0 0 52 48" fill="none" xmlns="http://www.w3.org/2000/svg">
<rect width="52" height="48" rx="10" fill="#7168F6"/>
<path d="M29 26C30.2885 26.0001 31.5272 26.4975 32.4578 27.3887C33.3884 28.2798 33.9391 29.4958 33.995 30.783L34 31V32C34.0002 32.5046 33.8096 32.9906 33.4665 33.3605C33.1234 33.7305 32.6532 33.9572 32.15 33.995L32 34H18C17.4954 34.0002 17.0094 33.8096 16.6395 33.4665C16.2695 33.1234 16.0428 32.6532 16.005 32.15L16 32V31C16.0001 29.7115 16.4975 28.4728 17.3887 27.5422C18.2798 26.6116 19.4958 26.0609 20.783 26.005L21 26H29ZM35 25C35.2652 25 35.5196 25.1054 35.7071 25.2929C35.8946 25.4804 36 25.7348 36 26C36 26.2652 35.8946 26.5196 35.7071 26.7071C35.5196 26.8946 35.2652 27 35 27H34C33.7348 27 33.4804 26.8946 33.2929 26.7071C33.1054 26.5196 33 26.2652 33 26C33 25.7348 33.1054 25.4804 33.2929 25.2929C33.4804 25.1054 33.7348 25 34 25H35ZM25 14C26.3261 14 27.5979 14.5268 28.5355 15.4645C29.4732 16.4021 30 17.6739 30 19C30 20.3261 29.4732 21.5979 28.5355 22.5355C27.5979 23.4732 26.3261 24 25 24C23.6739 24 22.4021 23.4732 21.4645 22.5355C20.5268 21.5979 20 20.3261 20 19C20 17.6739 20.5268 16.4021 21.4645 15.4645C22.4021 14.5268 23.6739 14 25 14V14ZM35 22C35.2652 22 35.5196 22.1054 35.7071 22.2929C35.8946 22.4804 36 22.7348 36 23C36 23.2652 35.8946 23.5196 35.7071 23.7071C35.5196 23.8946 35.2652 24 35 24H33C32.7348 24 32.4804 23.8946 32.2929 23.7071C32.1054 23.5196 32 23.2652 32 23C32 22.7348 32.1054 22.4804 32.2929 22.2929C32.4804 22.1054 32.7348 22 33 22H35ZM35 19C35.2549 19.0003 35.5 19.0979 35.6854 19.2728C35.8707 19.4478 35.9822 19.687 35.9972 19.9414C36.0121 20.1958 35.9293 20.4464 35.7657 20.6418C35.6021 20.8373 35.3701 20.9629 35.117 20.993L35 21H32C31.7451 20.9997 31.5 20.9021 31.3146 20.7272C31.1293 20.5522 31.0178 20.313 31.0028 20.0586C30.9879 19.8042 31.0707 19.5536 31.2343 19.3582C31.3979 19.1627 31.6299 19.0371 31.883 19.007L32 19H35Z" fill="white"/>
</svg>
