<svg width="32" height="30" viewBox="0 0 32 30" fill="none" xmlns="http://www.w3.org/2000/svg">
<path d="M31.4296 1.28613C31.5012 1.11576 31.5187 0.929123 31.48 0.749355C31.4413 0.569587 31.348 0.404594 31.2118 0.274832C31.0755 0.14507 30.9023 0.0562444 30.7135 0.0193679C30.5248 -0.0175085 30.3288 -0.000814473 30.1499 0.0673806L1.51053 10.978H1.50856L0.618687 11.3155C0.450143 11.3795 0.303461 11.4867 0.194846 11.6251C0.0862303 11.7636 0.0199075 11.9279 0.00320352 12.1C-0.0135004 12.2721 0.0200647 12.4452 0.100191 12.6003C0.180317 12.7553 0.303887 12.8863 0.457249 12.9786L1.26444 13.4661L1.26641 13.4699L11.1003 19.4286L17.357 28.7943L17.3609 28.798L17.8728 29.5668C17.9701 29.7123 18.1077 29.8294 18.2704 29.9052C18.4331 29.981 18.6146 30.0126 18.7949 29.9965C18.9752 29.9805 19.1474 29.9173 19.2925 29.814C19.4375 29.7107 19.5499 29.5713 19.6171 29.4111L31.4296 1.28613ZM27.8209 4.82988L13.0671 18.8811L12.6438 18.2474C12.5662 18.1311 12.4627 18.0325 12.3406 17.9586L11.6752 17.5555L26.429 3.50426L28.7482 2.62113L27.8229 4.82988H27.8209Z" fill="#BD5252"/>
</svg>
