<svg width="24" height="24" viewBox="0 0 24 24" fill="none" xmlns="http://www.w3.org/2000/svg">
<g clip-path="url(#clip0_1261_2565)">
<path d="M0.497852 12.1162C0.497308 14.08 1.01043 15.9975 1.98611 17.6876L0.404541 23.4621L6.3141 21.9126C7.9486 22.8025 9.77995 23.2687 11.641 23.2688H11.6459C17.7894 23.2688 22.7904 18.2696 22.793 12.125C22.7942 9.14746 21.6357 6.3476 19.5309 4.24113C17.4264 2.13485 14.6275 0.974259 11.6454 0.9729C5.50112 0.9729 0.500479 5.97182 0.497942 12.1162" fill="url(#paint0_linear_1261_2565)"/>
<path d="M0.0980331 12.1128C0.0973989 14.1473 0.628908 16.1333 1.63938 17.8839L0.00109863 23.8655L6.12255 22.2605C7.80921 23.1801 9.70822 23.6649 11.6406 23.6657H11.6455C18.0095 23.6657 23.1902 18.4867 23.1929 12.1221C23.194 9.03754 21.9938 6.13703 19.8138 3.9551C17.6335 1.77344 14.7345 0.571093 11.6455 0.569824C5.28049 0.569824 0.10066 5.74812 0.0981236 12.1128H0.0980331ZM3.74349 17.5825L3.51493 17.2196C2.5541 15.6919 2.04696 13.9264 2.04768 12.1135C2.04977 6.82336 6.35511 2.51938 11.6492 2.51938C14.213 2.52047 16.6224 3.51989 18.4346 5.3332C20.2467 7.14669 21.2439 9.55737 21.2432 12.1213C21.2409 17.4115 16.9355 21.716 11.6455 21.716H11.6417C9.9193 21.7151 8.23002 21.2526 6.75679 20.3784L6.4062 20.1705L2.7736 21.1229L3.74349 17.5824V17.5825Z" fill="url(#paint1_linear_1261_2565)"/>
<path d="M8.7612 7.28698C8.54504 6.80657 8.31756 6.79688 8.11201 6.78845C7.94369 6.7812 7.75127 6.78175 7.55903 6.78175C7.36661 6.78175 7.05397 6.85413 6.78971 7.14267C6.52518 7.43148 5.77979 8.12941 5.77979 9.54891C5.77979 10.9685 6.81372 12.3403 6.95786 12.533C7.10217 12.7254 8.95389 15.7316 11.8866 16.8881C14.3239 17.8492 14.8199 17.6581 15.3488 17.6099C15.8779 17.5619 17.056 16.9121 17.2963 16.2384C17.5368 15.5647 17.5368 14.9873 17.4647 14.8666C17.3926 14.7464 17.2002 14.6742 16.9117 14.53C16.623 14.3857 15.2045 13.6876 14.9401 13.5913C14.6756 13.4951 14.4832 13.4471 14.2908 13.736C14.0984 14.0245 13.5459 14.6742 13.3774 14.8666C13.2092 15.0595 13.0408 15.0835 12.7524 14.9392C12.4636 14.7944 11.5344 14.4901 10.432 13.5073C9.57427 12.7425 8.9952 11.7981 8.82688 11.5092C8.65856 11.2207 8.80885 11.0643 8.95353 10.9206C9.08316 10.7913 9.24216 10.5837 9.38656 10.4152C9.53042 10.2467 9.57844 10.1265 9.67465 9.93411C9.77095 9.74151 9.72275 9.57301 9.65073 9.42869C9.57844 9.28438 9.01776 7.85754 8.7612 7.28708" fill="white"/>
</g>
<defs>
<linearGradient id="paint0_linear_1261_2565" x1="11.5988" y1="23.4621" x2="11.5988" y2="0.9729" gradientUnits="userSpaceOnUse">
<stop stop-color="#1FAF38"/>
<stop offset="1" stop-color="#60D669"/>
</linearGradient>
<linearGradient id="paint1_linear_1261_2565" x1="11.597" y1="23.8655" x2="11.597" y2="0.569824" gradientUnits="userSpaceOnUse">
<stop stop-color="#F9F9F9"/>
<stop offset="1" stop-color="white"/>
</linearGradient>
<clipPath id="clip0_1261_2565">
<rect width="23.1977" height="23.373" fill="white" transform="translate(0 0.569824)"/>
</clipPath>
</defs>
</svg>
